<mxfile host="app.diagrams.net" modified="2023-12-11T02:27:43.077Z" agent="Mozilla/5.0 (Macintosh; Intel Mac OS X 10_15_7) AppleWebKit/537.36 (KHTML, like Gecko) Chrome/119.0.0.0 Safari/537.36" etag="gPBs_AnWh_FpKS0ASXVi" version="22.1.7" type="github">
  <diagram name="Page-1" id="yC3mzjY3plxPM7g2StnX">
    <mxGraphModel dx="2353" dy="1078" grid="0" gridSize="10" guides="1" tooltips="1" connect="1" arrows="1" fold="1" page="0" pageScale="1" pageWidth="850" pageHeight="1100" math="0" shadow="0">
      <root>
        <mxCell id="0" />
        <mxCell id="1" parent="0" />
        <mxCell id="YGQXA21O0GmYbxI1VbBq-1" value="" style="shape=image;verticalLabelPosition=bottom;labelBackgroundColor=default;verticalAlign=top;aspect=fixed;imageAspect=0;image=data:image/png,iVBORw0KGgoAAAANSUhEUgAABe4AAANnCAYAAABH7sjtAAAMamlDQ1BJQ0MgUHJvZmlsZQAASImVVwdUU8kanluSkJDQAhGQEnoTRHqREkKLICBVsBGSQEKJMSGo2FBZVHDtIooVK6Lo6grIoiL2sij2vlhQUdbFgqKovEkBXfeV8/5z5s6Xb/75W2bunQFAu5crkeSiOgDkifOl8REhzLGpaUzSM0AEOgAFzoDG5ckkrLi4aABloP+7vL8BEEV/1Vlh65/j/1X0+AIZDwBkPMQZfBkvD+JmAPD1PIk0HwCigreami9R4CKI9aUwQIhXKXCWCu9S4AwVblLqJMazIb4MgAaVy5VmAaB1D/LMAl4WtKP1GWJXMV8kBkB7GMSBPCGXD7Ei9mF5eZMVuAJie6gvgRjGA3wyvrOZ9Tf7GYP2udysQazKSykaoSKZJJc7/f8szf+WvFz5gA9b2KhCaWS8In9Yw1s5k6MUmApxlzgjJlZRa4h7RXxV3QFAKUJ5ZJJKHzXhydiwfoABsSufGxoFsQnE4eLcmGg1n5EpCudADFcLOk2Uz0mE2BDihQJZWIJaZ7N0crzaF1qXKWWz1PxZrlTpV+HrgTwniaW2/0Yo4KjtY1qFwsQUiCkQWxeIkmMg1oLYRZaTEKXWGVkoZMcM6Ejl8Yr4rSGOF4gjQlT2sYJMaXi8Wr80TzaQL7ZZKOLEqPGBfGFipKo+2EkeVxk/zAW7LBCzkgbsCGRjowdy4QtCw1S5Y88F4qQEtZ1eSX5IvGouTpHkxqn1cUtBboSCt4TYQ1aQoJ6LJ+fDxamyj2dK8uMSVXHihdncUXGqePBlIBqwQShgAjlsGWAyyAai1q76LvhLNRIOuEAKsoAA7lAVMzAjRTkihs8EUAj+hEgAZIPzQpSjAlAA+S+DrOrpDDKVowXKGTngKcR5IArkwt9y5SzxoLdk8AQyon9458LGg/HmwqYY//f8APuNYUEmWs3IBzwytQc0iWHEUGIkMZzogBvjgbg/Hg2fwbC54T6470Ae3/QJTwlthEeE64R2wu1JonnSH6IcDdqh/XB1LTK+rwVuC2164iF4ALQOLeMM3Bg44x7QDwsPgp49IctWx62oCvMH23/L4Lt/Q61HdiWj5CHkYLL9jzO1HLU8B60oav19fVSxZgzWmz048qN/9nfV58M+6kdNbCF2EDuDHcfOYU1YPWBix7AG7CJ2RIEHV9cT5eoa8BavjCcH2hH9wx9X7VNRSZlrjWun62fVWL5gWr5i47EnS6ZLRVnCfCYLfh0ETI6Y5zKM6ebq5g6A4lujen29ZSi/IQjj/DduvjcAAcX9/f1N37io7QAcTIXb/9o3zu4jfEdbAXB2I08uLVBxuOJBgG8JbbjTjIAZsAL2MB834AX8QTAIA6NALEgEqWAirLIQrnMpmApmgrmgBJSBZWA1WAc2ga1gF9gLDoB60ASOg9PgArgMroO7cPV0gJegG7wHfQiCkBAaQkeMEHPEBnFC3BAfJBAJQ6KReCQVSUeyEDEiR2Yi85EyZAWyDtmCVCO/IIeR48g5pA25jTxEOpE3yCcUQ6moPmqK2qLDUR+UhUahiegENAudghaixegStAKtQvegdehx9AJ6HW1HX6I9GMA0MQZmgTljPhgbi8XSsExMis3GSrFyrAqrxRrh/3wVa8e6sI84EafjTNwZruBIPAnn4VPw2fhifB2+C6/DT+JX8Yd4N/6VQCOYEJwIfgQOYSwhizCVUEIoJ+wgHCKcgnupg/CeSCQyiHZEb7gXU4nZxBnExcQNxH3EZmIb8TGxh0QiGZGcSAGkWBKXlE8qIa0l7SEdI10hdZB6NTQ1zDXcNMI10jTEGvM0yjV2axzVuKLxTKOPrEO2IfuRY8l88nTyUvI2ciP5ErmD3EfRpdhRAiiJlGzKXEoFpZZyinKP8lZTU9NS01dzjKZIs0izQnO/5lnNh5ofqXpURyqbOp4qpy6h7qQ2U29T39JoNFtaMC2Nlk9bQqumnaA9oPVq0bVctDhafK05WpVadVpXtF5pk7VttFnaE7ULtcu1D2pf0u7SIevY6rB1uDqzdSp1Duvc1OnRpeuO0I3VzdNdrLtb95zucz2Snq1emB5fr1hvq94Jvcd0jG5FZ9N59Pn0bfRT9A59or6dPkc/W79Mf69+q363gZ6Bh0GywTSDSoMjBu0MjGHL4DByGUsZBxg3GJ+GmA5hDREMWTSkdsiVIR8MhxoGGwoMSw33GV43/GTENAozyjFablRvdN8YN3Y0HmM81Xij8SnjrqH6Q/2H8oaWDj0w9I4JauJoEm8yw2SryUWTHlMz0whTiela0xOmXWYMs2CzbLNVZkfNOs3p5oHmIvNV5sfMXzANmCxmLrOCeZLZbWFiEWkht9hi0WrRZ2lnmWQ5z3Kf5X0ripWPVabVKqsWq25rc+vR1jOta6zv2JBtfGyENmtszth8sLWzTbFdYFtv+9zO0I5jV2hXY3fPnmYfZD/Fvsr+mgPRwcchx2GDw2VH1NHTUehY6XjJCXXychI5bXBqG0YY5jtMPKxq2E1nqjPLucC5xvmhC8Ml2mWeS73Lq+HWw9OGLx9+ZvhXV0/XXNdtrndH6I0YNWLeiMYRb9wc3XhulW7X3Gnu4e5z3BvcX3s4eQg8Nnrc8qR7jvZc4Nni+cXL20vqVevV6W3tne693vumj75PnM9in7O+BN8Q3zm+Tb4f/bz88v0O+P3l7+yf47/b//lIu5GCkdtGPg6wDOAGbAloD2QGpgduDmwPsgjiBlUFPQq2CuYH7wh+xnJgZbP2sF6FuIZIQw6FfGD7sWexm0Ox0IjQ0tDWML2wpLB1YQ/CLcOzwmvCuyM8I2ZENEcSIqMil0fe5JhyeJxqTvco71GzRp2MokYlRK2LehTtGC2NbhyNjh41euXoezE2MeKY+lgQy4ldGXs/zi5uStxvY4hj4sZUjnkaPyJ+ZvyZBHrCpITdCe8TQxKXJt5Nsk+SJ7UkayePT65O/pASmrIipX3s8LGzxl5INU4VpTakkdKS03ak9YwLG7d6XMd4z/El429MsJswbcK5icYTcycemaQ9iTvpYDohPSV9d/pnbiy3ituTwclYn9HNY/PW8F7yg/mr+J2CAMEKwbPMgMwVmc+zArJWZnUKg4Tlwi4RW7RO9Do7MntT9oec2JydOf25Kbn78jTy0vMOi/XEOeKTk80mT5vcJnGSlEjap/hNWT2lWxol3SFDZBNkDfn68FB/UW4v/0n+sCCwoLKgd2ry1IPTdKeJp12c7jh90fRnheGF22fgM3gzWmZazJw78+Es1qwts5HZGbNb5ljNKZ7TURRRtGsuZW7O3N/nuc5bMe/d/JT5jcWmxUXFj3+K+KmmRKtEWnJzgf+CTQvxhaKFrYvcF61d9LWUX3q+zLWsvOzzYt7i8z+P+Lni5/4lmUtal3ot3biMuEy87MbyoOW7VuiuKFzxeOXolXWrmKtKV71bPWn1uXKP8k1rKGvka9oroisa1lqvXbb28zrhuuuVIZX71pusX7T+wwb+hisbgzfWbjLdVLbp02bR5ltbIrbUVdlWlW8lbi3Y+nRb8rYz2322V+8w3lG248tO8c72XfG7TlZ7V1fvNtm9tAatkdd07hm/5/Le0L0Ntc61W/Yx9pXtB/vl+1/8kv7LjQNRB1oO+hys/dXm1/WH6IdK65C66XXd9cL69obUhrbDow63NPo3HvrN5bedTRZNlUcMjiw9SjlafLT/WOGxnmZJc9fxrOOPWya13D0x9sS1k2NOtp6KOnX2dPjpE2dYZ46dDTjbdM7v3OHzPufrL3hdqLvoefHQ756/H2r1aq275H2p4bLv5ca2kW1HrwRdOX419Orpa5xrF67HXG+7kXTj1s3xN9tv8W89v517+/Wdgjt9d4vuEe6V3te5X/7A5EHVHw5/7Gv3aj/yMPThxUcJj+4+5j1++UT25HNH8VPa0/Jn5s+qn7s9b+oM77z8YtyLjpeSl31dJX/q/rn+lf2rX/8K/uti99jujtfS1/1vFr81ervznce7lp64ngfv8973fSjtNerd9dHn45lPKZ+e9U39TPpc8cXhS+PXqK/3+vP6+yVcKVd5FMBgQzMzAXizEwAaPDvQ4b2NMk51F1QKorq/KhH4T1h1X1SKFwC1sFMc49nNAOyHzbZIeVUBiiN8YjBA3d0Hm1pkme5uKltUeBMi9Pb3vzUFgNQIwBdpf3/fhv7+L9tgsLcBaJ6iuoMqhAjvDJsDFOi6Ib8I/CCq++l3Of7YA0UEHuDH/l+wFo8ZlJnyoQAAADhlWElmTU0AKgAAAAgAAYdpAAQAAAABAAAAGgAAAAAAAqACAAQAAAABAAAF7qADAAQAAAABAAADZwAAAAChHYFTAABAAElEQVR4AezdB4AU1f3A8d/t9QpHV0E0auyKsURU7MpfD86usUUTjQYllhhbNIGomKixRBNJVMQWY6IG7GJBBRGMUYy9KyIoHe7guL7/32/25m5vuYMru3tTvpO8mz7z3ufN7OJv3r7JEAYEAigQjUbztVjbaNpK0xaahmoaUlNTu3lGhgzMzMys19So22VWVVUVNTY2Zup0Rl5eXl12dnZDXV1tVkVFpR1DcnJy6ktKitfadG0ty3HgerBrgPuCzwf38zBLPzOzs7IaCgsLqiUq0Rr9nLR1IhnRzMys2oKCvNV2zejn7NJIJPKNTs7XNE/T55o+1fRRRkaG8xmr0wwIIIAAAggggAACCCCAAAIIIKACGSggEAQBDbpvr+XYTdMumnbS9H0LxGvSOFGkQedzVq9eXdLQ0JCl8xqgz5WsrKyILpeG+gaLNYkud5ItY0AAAQQQ6JqABuhFP2udZJ+r+pCnUY9Ur8H8aHVNbSQzEtEHp9nV+fm5VXFn+ESn39E0V9N/NZD/ftw6JhFAAAEEEEAAAQQQQAABBBAInQCB+9BVeTAKrAH5flqSAzXtq2lvTTbvDDU1NXkaICpsaGjM1gB9NC8vJysa1aafGkzK0CASAwIIIIBAzwg0akC/Th+W6vNT0V831Wj7AW2gXxvVQH9UA/w1+kC1rilnS3U8S9MMTdM1kG/zDAgggAACCCCAAAIIIIAAAgiERoDAfWiq2v8F1WB9by3FKE2Ha9rHLVGDdnOjwaDMphb0+fV1dfn1Op+Tk00LeheJMQIIIOBRAY3cS21NTbQxKg35eXlrcnNzK9rI6qu67GlNT2oQf2Ub61mEAAIIIIAAAggggAACCCCAQKAECNwHqjqDWRgN2I/Qkh2r6cj4Elq3N2vWVGn3N/V5GqSPFBQU0Jw+HohpBBBAwGcC0aj+MiojUq/B+TVVVWu1j/zMWg3kVycUY6rOP6LbzExYziwCCCCAAAIIIIAAAggggAACgREgcB+YqgxeQTRgb8H6H2uyPusThmie9qNcvHZtdYH1V2/9KDMggAACCARFICprq6qltr6uXl9BUldSUrJMP+ftfSXxg/WJf58G8B+JX8g0AggggAACCCCAAAIIIIAAAkEQIHAfhFoMWBk0YH+CFulnmraIL9qaNWuKre/6oqLCDO0WJzd+HdMIIIAAAsEUqKurs/7wq7Ul/ip9YFujAXx72W388LnO3KkB/H/GL2QaAQQQQAABBBBAAAEEEEAAAT8LELj3c+0FLO8asD9Qi3SepnVa2FdUVPTXrnHyc3NzMvPz8wNWcoqDAAIIINARgaqqqrqa2rp67Qu/Qr8LqhL2sRb4t2oAf3rCcmYRQAABBBBAAAEEEEAAAQQQ8J0AgXvfVVnwMqwB+4Faqks0terDXpdr/CUjUyRaqi0ui7WVffAKT4kQQAABBDoloMF7qamprS8sLFym/d+vaWNn6wP/ev3+WNTGOhYhgAACCCCAAAIIIIAAAggg4AsBAve+qKbgZlKD88do6a7UVBxfytWrV5fU1NWV9OldkiP6qsL4dUwjgAACCIRdIKoAGfonY7kG6Fe2oVGpy67RdY+2sY5FCCCAAAIIIIAAAggggAACCHhegDd6er6KgplBa02vaYKm67SExTp2Cqr9F2esXLlygLam7FNUkJ+ri52gvbueccwJBxzshuE64DoI73WQYde/fj9E++r7T4asWLFioL4DJTvOw75XrtNk3zM8/DUYBgQQQAABBBBAAAEEEEAAAV8J8B+zvqquYGRWgyhbakksYL9OX/YahOmlwZf+2dl0ixOM2qYU4RXg68U/dR97AOKf/K6b04qK1aJdqtUUFxcv0e5zqhO2sL7vL9XW958lLGcWAQQQQAABBBBAAAEEEEAAAc8KEFnxbNUEM2MatB+hJbtJx700iOK0GLaxdo1TXFRYUNAYbSyJX67baUc5LdsxjwfXg7fvh6qqtXpfZ0hNba001NfrdGMwP8wCUKqMjIhk6rtDcnNy9HM2KgUF+b7+vF27tlry8vIqtVzftfE5sUqr7Je6fGYAqo4iIIAAAggggAACCCCAAAIIhECAwH0IKtkrRdSg+yjNy43x+dFlGStWrNSX00YLe/UqyYxEuCTjfZhGwC8CFgResXKVaLclkl9QJDm5eZKVnS0RXc7gTQF9UCr1dXVSW1Mta6tWi77sVUp79/L9w5YMyaiub2hcmpmZuVYD9Yk/J7hIlz3pzRohVwgggAACCCCAAAIIIIAAAgi0CBAlbbFgKoUCGqA/Sg//e/cUbsv5ioqKgQ0NDb169SrWWErL5eiuT9ye+ZgAPrFfHnA9eON6qKmtk2XLVkhWVrYU9+4jGRGC9e616ZdxtLFRKlcul/r6Ounbt1Rb4TvdxTvZ9+PnzZrVVY3VNbXV+uWySLteq43/ftFCXa7zU/xSN+QTAQQQQAABBBBAAAEEEEAgnAItkdJwlp9Sp0FAgz7W0v6GxFPp8l4ijRslLmceAQT8I2At7ed9/Y3k5hdKiQbtGfwtUKHB+5q1a2TopoN93/K+cvUa0e5zqvv36zc/Eok0JNTMxRq8p+V9AgqzCCCAAAIIIIAAAggggAAC3hEgcO+dughkTjQ4v48W7A63cNZys7q6ukC7xinOy8vtY/PxLSGZx4ProeVj2fv3g8iixUukrj4qfQfwDM79nPP7eNnibyU7K0MGDuivn88tpfH+9bju52d9fYPk5OR8J5KxIjH/WrKz9PPm1ZYSMoUAAggggAACCCCAAAIIIICAdwTi/pPcO5kiJ8EQ0CDJFlqSBzSVuCWqqqoqrKysHFhQmJ9XpP0pMyCAgH8FKioqndb2Q7fcVrQ/cf8WhJy3EtDuy2TeZx86re5LSopbrfPrjL2wVoP4FVlZWfVxZajQ6VM0eP953DImEUAAAQQQQAABBBBAAAEEEPCEQJYnckEmAiegQXt7KDRBk0V9nJcDNjY2ZlZWrh6Qn59H0D5wNU6BwiiwWrsiKSzpLZFIpnarEkaBYJbZ6tPq1eo3KIH7mpqaQfoi9N7a5/23+fn5VU01Z99PE/T76kQN3nMFB/NyplQIIIAAAggggAACCCCAgG8FeIOgb6vO8xkfpzncXpMFQ5wUiWQUlZb2yi8uLvJ85skgAghsSCBDli1fKQWFJdKom5KCZWD1avWrXcxs6ELwxfocfdluYWFB3spVqwbV1tXZm3fd7yb7nrLvKwYEEEAAAQQQQAABBBBAAAEEPCVAi3tPVUcwMqOtF4/QkhytyQIj2hLXaX2v0frGwdnZXHJmwoBAEAQqKytkk+8V0No+CJWZUIac/AKx+g3SUFRUaO9Uyc/KzMzVctXEle1o/Z6aq+sei1vGJAIIIIAAAggggAACCCCAAAI9KkAUtUf5g3dyDX7011JdrMkJ2lsJly5dOjg3J6dXcQkt7c2DAYGgCOiLprWbnCwC90Gp0LhyWL1a/QZt0Fb3WqToYP2u+lwD9fEFvFiXvabLlgStzJQHAQQQQAABBBBAAAEEEEDAnwJ0lePPevNyri/QzFmE3umGYOnSZQM0GFKsQXuuNS/XGnlDoAsCdXX1zf2NODe8HoNxcAysfgM6ZNbV1W66cuWq0rhL1r637PuLAQEEEEAAAQQQQAABBBBAAAFPCNDi3hPVEIxMaIB+Xy3J4ZqaW9tHIvpuw5ISbZIbjDJSCgQQaBLQrs/r6+tobR/gC8Lq1xkC+PmtLevzqqrWDNR3rzTod5R15m/D4fo9Nk3XzYjN8hcBBBBAAAEEEEAAAQQQQACBnhMgcN9z9kE888+0UM0hnmi0sX9p797WLwEDAggEUMBaZDc23/EBLGDIixTgFvei/dxLYVFBzqqKikFFRUUVkUikoam67XuMwH3Ir32KjwACCCCAAAIIIIAAAgh4QYDAvRdqIQB50FaKR2oxttPkhPGqqqr65OflDA5A0SgCAgi0I1BXpy3u21nHYv8LWP22dPzj//IklqCkqEgD+Fl52uo+W9e5/QJtZ99n2up+auL2zCOAAAIIIIAAAggggAACCCCQTgEC9+nUDva5TtHiOTG8ZcuWDaiurR2Un2fvqWVAAIGgCtTVax/3RO6DWr1i9Rv0oSA/T6/hxsEZGZmfxJXVvs8I3MeBMIkAAggggAACCCCAAAIIIJB+AV4Ymn7zwJ1RWyeO1kIN1RStra3N1tb2/XqXFFkLRgYEEAiwQH1Ti3uL3ZOCZ2D1G4pBX6CuD5y3qK2ts+8tu5SHNn2vhaL4FBIBBBBAAAEEEEAAAQQQQMCbArS492a9+C1Xx2iGLdgh2rVCfnFxUV5Bfr7fykB+EUCgkwJOVznOnd/JHdncFwKxrnJ8kdVuZ7K+vr738uXLawcNGjiv6WD2vfZEtw/MARBAAAEEEEAAAQQQQAABBBDoogCB+y7CsVtMQFsl7qFT22pywncFBfmlEs3NwAcBBAIuoHe8daXCy2mDW89OVzkheTDTv18fWbDwu15r1lQVFBYWrNFa3da+37Sv+/8Et4YpGQIIIIAAAggggAACCCCAgJcFCNx7uXb8kbcyzWYstBONlki0sZ8/sk0uEUCguwJOi/vuHoT9PSsQphb3GqCX/v375ubl5lsXgu7jCvt+I3Dv2SuUjCGAAAIIIIAAAggggAACwRYgcB/s+k1p6bQ1YomeYKSdZNmyFf1qa6sHDxrIC2lTis7BEfCQQH0dL6f1UHUkPStWv2EacnNyNGLfuHGGZFY0lXukfs/dqEF9dz5MHJQVAQQQQAABBBBAAAEEEECghwV4OW0PV4DPT3+QBjWsZWK0onLVAO0mJzc2qwucxYxxcH+Mwdju9aBdD3X1dU7TZOdDwMpHCpSB1a8NQbtu11ueaLTXypUrN4kV2/kiO8hB4A8CCCCAAAIIIIAAAggggAACaRagxX2awQN2uv21JWJU+wQuzMnOzi0pLmounnU7YANjHLgOgnsf1NHi3vmcC+ofq98w3r+VlZUDtJug2v79+y/S8u+vaYo5MCCAAAIIIIAAAggggAACCCCQTgFa3KdTO0Dn0haLpVqc3XQc1Zb2mRsNGpBjxVtvS0bW48MvMew2Ccx1UF9X57yc1l5QSwqegdVvkK7Xjn4/FRUV5lRVre1j329afvues+87BgQQQAABBBBAAAEEEEAAAQTSKkCL+7RyB+pkw7U0UWtRH402DKRlPS3r7ermOgjXdeB2lROoTzYK0yzgdpUTtvu6d68S0Rb32ZZycnJqFcS+755uhmECAQQQQAABBBBAAAEEEEAAgTQI0OI+DcgBPcXuWq7ot99+u+natWv7uWV0WzQyHxPAwxqstgx4BMtj2bLl+uDOfkHgzdTQ0Cj19Q0dzl9VVZWsrqzs8PZW7nlffN6h7TuTD694Wv3GD2G6f/v361uYnZ1pT+LsprXvOwYEEEAAAQQQQAABBBBAAAEE0ipAi/u0cgfqZD/Q1ohZVRq079u3pRcBt2WmW1LmYy2w8YgJcD0E6XqIyty3/yerakSy9BGwmyKti+he+j0yfvaJR2XWy8/LORddKWtWV0rVmtWy8Juv5cN335ZF3y2Ua2+5UzKzWr4GL/zZSbLRJkPk2JN/2iq/2+44rPnXJK1W6Mzo/XeRt+dVJC5eZ/68M06Q0cecKCNHH7POOq8ssO6O6htbktVvLG4dy2HY7l8t9YCGhob5mZmZP/BKHZEPBBBAAAEEEEAAAQQQQACB8Ai0RCzCU2ZK2k0BbXW5pR6i9/Lly/vl5uhraeMCX908NLsjgIDPBKx1eF1DLFnWrY1yJCMq1lg5UwP6PRnHv/O2G+T8S38nvz7/TMnNzZMP3p0rO+6yu+x/SJmMOuYkyYhkOq3lGxsbZeJNE2T2zOlOYP3eO251auGV558W7StFXnrry+YA/xeffiRu3++2kT0Q+Pj9d53t7Y9tv/mWWzfPuxO/vuZmOeGwvWTjIZvJDjvv6i7u0bE1JdcfJWj9RfUdBRmiI4Y4gaVLl23U0BitHTRwYIN97+mDi8/iVjOJAAIIIIAAAggggAACCCCAQEoFCNynlDewB99BS6YvpS2IRiLCNRTYaqZgCHRewIK/DRoErtOAsA0WyLcAvhPQT2Mg//mnpkgkM1P2OegwJ1lerhv3K9ljr/3kgJGjbdbpA8UePFz4sxNlbdUa2V4D6jb/i0vGy523XSfb7riL/PGvf5eMzCzn5bu2z8mj95Pd9Rjxrc//cuM1tsoZ/jPrZZn14SJ31hmPv3iMnHXeZfKnSQ/LOaceKU+++r4UFZe02iYdMxaX12cUToDeAvYtgfqefLySjpJ37RxZWZnZq1dV9tG9F2iy7z0C912jZC8EEEAAAQQQQAABBBBAAIEuCBB07QIau8i2ahAtKtLIfbRRg18WDmJAAAEE1hVwAvnaIt8drCsdS24gPxVd6yyY/5X84vSjpfz4U9f5dLJPq8RPrHMvHiebDN1c3pv7hlz885NlykP3SN9+A+TmSf+SvMLCdba/8c6HJKJPLW2Y8eIzctNd/3Sm7c8+2w5s3n7WS89Jbl6efDPvS6mtq5WddttT/vHMbMkrKJSyfbaXfzz9mhSX9GreN9kT1vWNG6h3phML3oEThvnzvZe+pHb58pX5+h6XvPz8fPvem9oBMjZBAAEEEEAAAQQQQAABBBBAICkCBO6Twhi6g3xfS6w9B0SbX0obOgEKjAACXRJwA8j1tndTQN8N5sePu3Twpp3u165uTjjt504r+unPPC7Lli521lhXOdVr18rSxbEW8d/fbkenq5vJf/mjvPrSNNlBu9E59pSfiS3Xzzd54pG/y8VjTpEtttpWTvv5hTJCW+87gX/9Yy3z3aHVtC505x/5+yQ56kenO5vZMksDNxrszO+5z4Hy9JR/yvE/PsuZ7+4f1zV+3N1jsr92cj+gf6YG7avUwr73GBBAAAEEEEAAAQQQQAABBBBImwCB+7RRB+NEGszK05JsOm/evG379OmdW1hYEIyCUQoEEOgxATfYHJ8BC+JnWOt8XeiMbT5+g/VM//zC38iXn38sD02+XdZWr5U1+lJaG6xv+pqa6ub5hvoG2WyLreWMX1wqf/zbQ1JQVCyvz3xRnn3sXzLuj3/TLnWOcKLtn3z4rpT27dcckJ98+43NLe6tj3ubjx8sQN9QXy8ztTX+5df8qc1g/zEnnymXjf2xHHdq5wL39rzAvOwc1huRM7aFDCkRKCzMz1HlYr36NrXvP+0iqTolJ+KgCCCAAAIIIIAAAggggAACCCQIELhPAGF2gwKbWUvUtdXVJbm5uRvcmA0QQACBrghYcNoi3nG97DiHsSC+BfCdwL6O3Xlb6Ab2i3uXxoLluv7/jjjB2c/+LFr4jeym/dPvf2isj3t3xR9+c6HM++JTZ/aTD96RPtpNzrsHv+HML/j6S7nkqpvEAu1ufLx3ad/YiZsOUNLbukGPDTX6oMC2+/C9t6X/wI2k74BBzoqm4jjTz0x9yGl5n5OTK+/M/Y++MHeP2M761zmH/nG2bxo7gXpb56xs3pSJNAlol3B9MjIyV+npNtP0UZpOy2kQQAABBBBAAAEEEEAAAQRCLkDgPuQXQGeLX19fP7SysrJ3dnZ2pr64r7O7sz0CCCDQLQELXlv82gnsJx5JV2ZoRN8C+A0a8bdt6rVZuhPQ1z+2n+2fuO+Ndz3iHMmC9ueeXCYPPD27uUubv954lRQW92reZ8or72nr+/7NZ/7DlefLET/6SfP8Pgcd7mw759XpcvjRJzvT8ee16Y8/eFdy84vkhJ+OlddeeVG23mmPWN4sY/YkgsFTAl999fUmRUVFq0tLS4dqxgjce6p2yAwCCCCAAAIIIIAAAgggEFwBAvfBrduUlCwrK2uT0tLey3OyM7X7AAYEEEDAQwIa9HYD+9ZS34Lkq9dUybffzHMyuWzpUpk//2v5+KMPnfnvad/1FtWvWLVCpv37QZn85z/Izfc+Ln0HDnYC/rXarc672iJ+jxEHS4P1S6NDSWl/Z9qO7Q72cMAdevUdKHU6v/fBoyU3N19qNSNZWTkyQ19U+0PdsE5fUvvq9Gfl0CNOkuEHlmmcPqP5oQBBe1fRW+Os7Kyc6uqafPv+81bOyA0CCCCAAAIIIIAAAggggECQBQjcB7l2U1O2jTQwVpJfkE+z0NT4clQEEEiiwJJFC+W2CZc2H3HOy9PEkg03Tn5M3nvrdbnoJ0dI+Y9+KpOfmC0D9OWxn3/yofx6zI+kqmq17HNQmWy78x7SEB+pbz5a+63/N9tSHwo0DSf+7AJ5aNKt8tr0Z5wlB5UdK5t/fzsnaO9uw9i7AoX6fVdRsaZQc7iRd3NJzhBAAAEEEEAAAQQQQAABBIImQPA1aDWa4vJo//a31tfXHhqJZGyd4lNxeAQQ8LjA8H0OktsfmeHJXFrL9uq1VVJc0nuD+bOW9Tm59t7tzg9ff/mpbLr5Vp3f0Qd7nHPsvjL71Rd9kNPUZrGxsVGyMrM/1H6YXtBfSJyX2rNxdAQQQAABBBBAAAEEEEAAAQRiAhEgEOiMwMqKis0/++zLTTuzD9sigAAC6RbIzs7pUNDe8tXVoL3tG9SgvZWNISYQiUS0C6Zosc71wwQBBBBAAAEEEEAAAQQQQACBdAkQuE+XdADOo4GLzPra2kH6UlqumwDUJ0VAAAEEEOiYQENDQ1F1dfUg+x7s2B5shQACCCCAAAIIIIAAAggggED3BAjAds8vbHuXauAiT1/Ux7sRwlbzlBcBBBAIscA3CxcWL168ZKASlIaYgaIjgAACCCCAAAIIIIAAAgikUYDAfRqxA3CqksGDN/l2440GOi0OteVhqyIxj0f8BcH1EK7rIb7umQ6eQNjv58xIJLO+vj5fa7YkeLVLiRBAAAEEEEAAAQQQQAABBLwoQODei7Xi3TwVR6ONuVna4N6COPqSPmds2WUeD66H8N0P3v2oImfJFODzPSp5ebnSGG20h9bW1z0DAggggAACCCCAAAIIIIAAAikXoMuTlBMH6gSFWppcK5EFaRnjwHUQ7vvA+RDgT+AFuM8zpG/fPtKvX79vtbLte5ABAQQQQAABBBBAAAEEEEAAgZQL0OI+5cSBOkH++x989P21VWtbtbS3ErrdKDCOdY+CAw5huC8C9elGYdoV4POsqduraDRbkay7HAYEEEAAAQQQQAABBBBAAAEEUi5A4D7lxIE6QW40mqE9/Ua0xb2Vy7qHYYwD10FY74NAfbpRmHYEuL/t/m5sbJSa2loL2ju/OmsHi8UIIIAAAggggAACCCCAAAIIJE2AwH3SKENxoGyJNmZYH/fu4LbEZD4mgEe4Xsga9vp273vG4RAI8/Ue1cD9x598Nlhr2lrdMyCAAAIIIIAAAggggAACCCCQcoGWCGzKT8UJAiCQtcMO2yzQAEaJNrZ3hgzRpohxsVrm8eB6aLnTg34/tJSUqcAK8PnuVK3zSzN9rYnO8O+mwF7sFAwBBBBAAAEEEEAAAQQQ8JYALe69VR9ez02m1zNI/hBAAAEEEEi2gD2Ei2RlNehx+R5MNi7HQwABBBBAAAEEEEAAAQQQaFOAwH2bLCxsT6C2to6gRXs4LEcAAQQQCKzA9tt+f2FgC0fBEEAAAQQQQAABBBBAAAEEPCdA4N5zVeLtDL02+z/f93YOyR0CCCCAAALJF0js4z/5Z+CICCCAAAIIIIAAAggggAACCLQIELhvsWCqAwIELjqAxCYIIIAAAoETWL26KqehwXrLYUAAAQQQQAABBBBAAAEEEEAg9QIE7lNvHKQzRDMzM4laBKlGKQsCCCCAQIcE3vjvW1vod2Dc63o7tBsbIYAAAggggAACCCCAAAIIINAlAQL3XWIL70777jP8o/CWnpIjgAACCIRVIErIPqxVT7kRQAABBBBAAAEEEEAAgR4RIHDfI+y+PanGLYhc+Lb2yDgCSRYoKCiUqqrVST4qh/OCgNWr1S9Di0BBfl61zvEl2ELCFAIIIIAAAggggAACCCCAQAoFCNynEDeIh66trc0MYrkoEwIIdF5g06FDZcGXn3V+R/bwvIDVq9UvQ4vA8D1352Jv4WAKAQQQQAABBBBAAAEEEEAgxQIE7lMMHLDDR2fMnL1NwMpEcRBAoIsCw/fYRd5767Uu7s1uXhawerX6ZWgRaPrFGS3uW0iYQgABBBBAAAEEEEAAAQQQSKEAgfsU4gbx0PTxG8RapUwIdE1g5KEHy6vPP0F3OV3j8+xe1k2O1avVL0OLQGVlZW7LHFMIIIAAAggggAACCCCAAAIIpFaAwH1qfYN29GhWVlZ90ApFeRBAoGsCQzcdIqMOHymP3z+xawdgL08KWH1avVr9MrQIzJ7z5lY6R4v7FhKmEEAAAQQQQAABBBBAAAEEUihA4D6FuEE89IH77/NBEMtFmRBAoGsCvzz/HFn8zefyzKP3de0A7OUpAatHq0+rV4bWArycvbUHcwgggAACCCCAAAIIIIAAAqkVyErt4Tl6wAS0pxxrbEiDw4DVK8VBoFsC11/7W7nk11fJqqWLpPzUMVJQUNSt47Fz+gWsexxraW9Be6tPPufXrYOC/PxqYNZ1YQkCCCCAAAIIIIAAAggggEBqBGhxnxrXwB61uro2M7CFo2AIINAlgf79+srkO/4kA3tly29+fpxMuf92+fT9t+n7vkua6dvJgvVWT1ZfVm9Wf1aPVp8M6wrsu8+eH6+7lCUIIIAAAggggAACCCCAAAIIpEYgIzWH5ahBFIhGo0c+9fQzUw4beaDotGRkZDDGgeuA+6DV58DX87+RadNekNlvvC1fz5unwfs1Qfw4DESZCgoKZdOhQ2X47sNk5MiDZdMhg7mf13M/SzTjf5GsnPH63Tc1EBcAhUAAAQQQQAABBBBAAAEEEPC0AIF7T1ePtzIXC9w/O+X/Dt3fCe64uXOD+MzHBPCIPdTheuB6MIEg3Q+ZWXlSX7eWzz8NbrtDkOp3Q9frqorVH5eW9r2MwL1b+4wRQAABBBBAAAEEEEAAAQRSKUBXOanUDd6xo1mZmfVuS3srnhu0sTHzeHA9tPwShfshePeD1Smff7FfWoXx+n511utba7l5yYtVPgMCCCCAAAIIIIAAAggggEDKBVqazaX8VJzA7wIalD2isbFuvEQbh/m9LOQfAQQQ6KyAtbhvqLf3kzKEUeDpZ1+UUWWHH6kPbx4LY/kpMwIIIIAAAggggAACCCCAQHoFaHGfXm+/ny0qjU1N65tK4ra0dwvGfOvGmHjg4d4bNuZ68Pf1EF+X1Gf4rue8vDx7atP6Ik68KJhHAAEEEEAAAQQQQAABBBBAIEkCBO6TBBmWw1TX1mbFl9W6jYgfmMeD66FFgPshWPdDS83GpqjfYNXvhurzwANGfJh4DTCPAAIIIIAAAggggAACCCCAQKoECNynSjaYx40+/8LLOwazaJQKAQQQQACB9gX0MYW1tqfFfftErEEAAQQQQAABBBBAAAEEEEiiAIH7JGKG4VBRYhZhqGbKiAACCCCQILBiZUVewiJmEUAAAQQQQAABBBBAAAEEEEiZAIH7lNEG8sDR7Kys+kCWjEIhgAACCCCwHoEZM2dtp6tpcb8eI1YhgAACCCCAAAIIIIAAAggkT4DAffIsQ3Gkw/7v4P+FoqAUEgEEEEAAgTiB1q9mj1vBJAIIIIAAAggggAACCCCAAAIpECBwnwLUIB8yg75ygly9lA0BBBBAoB2BwsKCte2sYjECCCCAAAIIIIAAAggggAACSRcgcJ900kAfMLq2piYr0CWkcAgggAACCLQhcNCB+72vi+kqpw0bFiGAAAIIIIAAAggggAACCCRfgMB98k0DfcSnn31+WKALSOEQQAABBBBoQ0D/wUTQvg0XFiGAAAIIIIAAAggggAACCKRGgNbTqXEN6lGdjnLoLSeo1Uu5EEBgQwJ8/m1IKLjrV6xckd+37wCC98GtYkqGAAIIIIAAAggggAACCHhKgBb3nqoO72cmKyur3vu5JIcIIIAAAggkV2D6S6/ukNwjcjQEEEAAAQQQQAABBBBAAAEE2hcgcN++DWvWFYiOHjXyrXUXswQBBBBAAIFgC0SjTmN7WtwHu5opHQIIIIAAAggggAACCCDgGQEC956pCr9kJIOghV+qinwigAACCCRNoKCgYG3SDsaBEEAAAQQQQAABBBBAAAEEENiAAIH7DQCxupVAtLp6Le9FaEXCDAIIIIBAGAQO+7+D3tFy8vA6DJVNGRFAAAEEEEAAAQQQQAABDwgQhPVAJfgpC088OW3X444Z7acsk1cEEEAgeQKEbZNn6bcjZfCLM79VGflFAAEEEEAAAQQQQAABBPwsQIt7P9de+vOuXfwStUo/O2dEAAEEEOhpgRUrVuRrHvgS7OmK4PwIIIAAAggggAACCCCAQEgECNyHpKKTVczsrKx6O5YbwGcci+HggAP3RfA/F9zPUe73cN7vzz3/0s7uNcAYAQQQQAABBBBAAAEEEEAAgVQLELhPtXCwjh896qjRb1jQKiMjwymZjZnHg+uB+8E+EIL+eWBl5PMuvJ93Vv860OI+5sBfBBBAAAEEEEAAAQQQQACBFAsQuE8xcNAOH21saA7OWdncIJaNmceD6yEW1OR+CObngX3GuQ8n+LwL3+ddYWFBldU7AwIIIIAAAggggAACCCCAAALpEIg1E03HmTiH7wU0GHnImjWrJuTl5u7u+8JQAAQQQKCTAlnZ+VJft7aTe7F5YAQyMl/LzMwerw9vng9MmSgIAgh0WuCJJ544NjMzc7fGxsY1o0aNulrnb9ODjG060C9Gjx79Z5tmOQ56GXA9xG6MIDlcrf8O2Ez/u3ixjqfqZ8DMWBH5iwACCCCAQGoECNynxjWQR7XA/f0PPPjcST86url81rLYWqC6A/N4cD1wPwT18yAxcM/nXdg+7+S1rOw8AvfuDc4YgRAKPPnkk2X675xjtOiv19bWvn7UUUe9HUIGioxAaAWefvrp3Kqqqh0LCwsPrqurm11eXv5KaDEoOAIIIIBAWgRaIkxpOR0n8bOABqkO1sD98/GBez+Xh7wjgAACnRFIDNx3Zl+29b/A8hUr5/bvP+gSDdq94P/SUAIEEOiogP77V2/7DN5v0VEwtkMgZALTpk0rrKmpGatB/OtCVnSKiwACCCCQBgH6uE8DcpBOkZ2dXRek8lAWBBBAAAEEOiLwzLQXd+nIdmyDAALBEbCgvXZ586fHH3/8+OCUipIggEAyBUaOHLlGH+711V/kTB4/fjzxlWTiciwEEEAAAeGLhYugMwLR44498vXO7MC2CCCAAAIIBEHAfQd7EMpCGRBAoGMCGoi7Wfuzj2pL2n91bA+2QgCBMArouy0u0Qd9i3fdddf/C2P5KTMCCCCAQOoEslJ3aI4cSIFooxaLXwsHsm4pFAIIdECAz78OIAVyk6LCwqpAFoxCIYBAmwLa0n4TXbGirKzsd21uwEIEEEAgTkCD95fGzTKJAAIIIIBAUgTo4z4pjOE4iLYiOLCyctWEgvycPcNRYkqJAAIItAhkZRdIfR2x2xaRkE1lRGZmZubay2mnh6zkFBcBBBBAAAEEEEAAAQQQQKAHBOgqpwfQ/XzKRx59jKC9nyuQvCOAAAIIdE2AH1t0zY29EEAAAQQQCJHAY489don+YufYEBWZoiKAAAIIpFCAwH0KcYN4aOIWQaxVyoQAAgggsCGBJUuXF2xoG9YjgEAwBDTodtlTTz1FX9XBqE5KgUBaBfS9GI36S/W90npSToYAAgggEFgBAveBrdqUFCyanZVVl5Ijc1AEEEAAAQQ8LPDUM8/tqtnj+bWH64isIZBEgV3r6+vpGy2JoBwKgbAI1NTUvKqB+75hKS/lRAABBBBIrQCB+9T6Bu7oJ514zGuBKxQFQgABBBBAYEMCUWL2GyJiPQIBEsjS4NtbASoPRUEAgTQJDB069E19H869aTodp0EAAQQQCLhAVsDLR/GSKxClrWFyQTkaAggggIA/BIqKCtdoTone+6O6yCUC3RLQoNs1xx9//OpuHYSdEUAglAK77bab/UKdF9mHsvYpNAIIIJB8AVrcJ9800EesWruWhz2BrmEKhwACCCDQlsCxx5S/0dZyliGAQPAERo0a9WbwSkWJEEAAAQQQQAABBPwmQODebzXWs/mN/uOf/967Z7PA2RFAAAEEEOgBgVhbe1rc9wA9p0QAAQQQQMBPAvqC69l+yi95RQABBBDwrgCBe+/WjTdzRh+/3qwXcoUAAgggkFKBJUuXFqT0BBwcAQQ8I6BBt7meyQwZQQABPwrs6cdMk2cEEEAAAe8JELj3Xp14OUfR7Oxs67OPAQEEEEAAgVAJPPb4M3togWlxH6pap7AhFhgW4rJTdAQQQAABBBBAAAGPCBC490hF+CUbPz71hJl+ySv5RAABBBBAIFkCROyTJclxEEAAAQQQCLZANBodHuwSUjoEEEAAgXQJELhPl3QwzhOlrWEwKpJSIIAAAgh0TqCosHCN7kH8vnNsbI2ALwUikcguvsw4mUYAAU8IlJeXz/FERsgEAggggIDvBQjc+74K01uAqrVV2dqCoNVJmccj/oLgeuB64HpoEeB+CM79cOIJR7/eUrNMIYBAkAXKysreDnL5KBsCCCCAAAIIIICAPwQI3PujnrySy+h9D/xrREZGhrjBKBszjwfXQyw4yf0Q7M8D+yDm8y7En3f6zaeXQOsnEV75diYfCCCAAAIIIOAZAX3B9WzPZIaMIIAAAgj4WoDAva+rL/2Zz3BOacE5m2CMA9cB90F4Pgecjz8+90L7+b948dLC2DXAXwQQCLqABt3mBr2MlA8BBFIqsGdKj87BEUAAAQRCI0DgPjRVnZSCRrOysurij+S2tHaXMd+6MSYeeLj3ho25Hvx9PcTXJfUZvuv531OetP8Ib30RJ14UzCOAQFAEhgWlIJQDAQQQQAABBBBAwL8CBO79W3c9kvMzfnLyK/Entm4j4gfm8eB6aBHgfgjW/dBSs7Ep6jdY9buh+pTWxU28HJhHAAEEEEAAAQQcAW2sMxwKBBBAAAEEkiFA4D4ZiuE5hvWJ4bQ2pOVw60aXeOAR/zHA9cD1wPXQIhCU+6GkuGi1lqr1xd1STKYQQCBAApFIZJcAFYeiIIBAmgXKy8vnpPmUnA4BBBBAIKACtB8LaMWmolgafNlr1aoVE4oKc/dPxfE5JgIIIOBlgazsQqmvW+PlLJK3lApEns/MyhuvLfNfS+lpODgCCCCAAAIIIIAAAggggAACKkCLey6DzghE773vwf07swPbIoAAAgggEAiB2C/OaHEfiMqkEAgggAACCKROQF9wPTt1R+fICCCAAAJhEsgKU2Epa/cFiFh035AjIIAAAgj4T+C77xYVbbLJpv7LODlGAIFOC2jQbe7o0aPpLqeDctddd539GmlcBzdnMx8K6C+vf3fppZeO92HWeyrL9kJ7BgQQQAABBLotQOC+24ShOkA0JyenVkucE6pSU1gEEEAAgdALPPzo43tdcN5Ynl+H/koAICQCw0JSzqQVk8Bu0ig9dyB7MOO5TJEhBBBAAAEEQiJAVzkhqehkFfOsM059KVnH4jgIIIAAAgj4RSDxJbt+yTf5RAABBBBAAIH0Cui/GYan94ycDQEEEEAgqAK0uA9qzaasXBlRob1hynQ5MAIIeFyAzz+PV1DqsldcVLQ6dUfnyAgg4CWBSCRCNzleqhDygoDPBMrLy+f4LMtkFwEEEEDAowK0uPdoxXg0W9HVa1ZnezRvZAsBBBBAAIGUCfzktBNf1YPz6CZlwhwYAe8IlJWVve2d3JATBBBAAAEEEEAAgbAKELgPa813sdx33f3AQV3cld0QQAABBBDwsYD+4owBAQQQQAABBBDYgIC+4Hr2BjZhNQIIIIAAAh0SIHDfISY2ahLQ7vqIW3A1IIAAAgiET+Db774t0lLzJRi+qqfEIRTQoNvcEBabIiOAQPIE9kzeoTgSAggggECYBQjch7n2u1D2nOzs2i7sxi4IIIAAAgj4WuAf/5wywtcFIPMIINAZgWGd2ZhtEUAAAQQQQAABBBBIhQAvp02FanCPGT1nzBkvRKMNhwe3iJQMAQQQaF+At3O3bxP4NbG29rS4D3xFU0AEEEAAAQS6J6C/Uh/evSOwNwIIIIAAAjEBWtxzJXRKIINuAjrlxcYIIIAAAsEQKCkprgxGSSgFAghsSCASieyyoW1YjwACCLQnUF5ePqe9dSxHAAEEEECgMwIE7jujxbbRytWVOTAggAACCCAQNoEzfnrKDC0zLe7DVvGUN5QCZWVlb4ey4BQaAQQQQAABBBBAwFMCBO49VR3ez8xf77j3EO/nkhwigAACCCCQXIEM4e3syRXlaAgggAACCARTQF9wPTuYJaNUCCCAAALpFiBwn25xf59Pu+vzdwHIPQIIIIAAAl0R+GbBd8W6H9+CXcFjHwR8JqBBt7k+yzLZRQABbwns6a3skBsEEEAAAb8KELj3a831UL5zsrNr7dRuBJ9xLIaDAw7cF8H/XHA/drnfw3m///0fj+znXgOMEUAg8ALDAl9CCogAAggggAACCCDgeQEC956vIk9lMHrBeWdNsxxlZOhrahnjwHXAfRCizwGnskNUXj7nE77nYhdA7KmFezEwRgABBBBAAAEEEgS0kcfwhEXMIoAAAggg0CUBAvddYgvvTg2N4WxpSQtb6t3ueq6DcF8H7ic/10E4r4Oi4qJK9xpgjAACwRaIRCK7BLuElA4BBFIpUF5ePieVx+fYCCCAAALhESBwH566TkZJo2vWrMm2A9ESM6ElJi3PneuL64LrIsifD85FzudfaD//zzn79Je0+mNPLdyLgTECCARSoKys7O1AFoxCIYAAAggggAACCPhKgMC9r6qr5zP7l4l3/5/lwm1x6uaI+daxHDzwcO8N7hc+L/g8CMbnQetSxN/hTCOAAAIIIIAAAi0C+oLr2S1zTCGAAAIIINB1AQL3XbcL454af4qFLtyW1S4C87GW1njEBLgeuB7ce8HGXA9cD0G4Hr75ZmGxloP4fXxlMo1AQAU06DY3oEWjWAggkB6BPdNzGs6CAAIIIBB0AQL3Qa/hJJcvOzurNv6QbiDfXcZ865gOHni494aNuR78fT3E1yX1Gb7r+b4H/nlA4jXAPAIIBFZgWGBLRsEQQAABBBBAAAEEfCNA4N43VeWJjEYv/uW5T8fnhJa0tKTlemgR4H4I9v3QUtOxKeo72PWdWL9N9d/66VPiRcE8AggggAACCIReQBvrDA89AgAIIIAAAkkRIHCfFMbwHISIRXjqmpIigAACCLQI9CopqWiZYwoBBIIsEIlEdgly+SgbAgikVqC8vHxOas/A0RFAAAEEwiJA4D4sNZ2cckYrKipyknMojoIAAggggIB/BMaec8aLmlueX/unysgpAl0WKCsre7vLO7MjAggggAACCCCAAAJJEiBwnyTIsBzm1tvuPDwWt7DYBQkDrgGugTBdA/ZJH6byUtb4+o4Ssw/LP3UoJwIIIIAAAt0S0Bdcz+7WAdgZAQQQQACBJgEC91wKnRIgcNEpLjZGAAEEEAiIwPz5C4pra1u9nz0gJaMYCCCQKKBBt7mJy5gPjEChlmSTLpYmW/dL/O/nfm0cy36hnNvGcndRiU70bZqxYzIET2DP4BWJEiGAAAII9IRA4j88eiIPnNM/AtGc7ByiFv6pL3KKAAIIIJAkgcn3/uPgnJwc+xkCAwIIBF9gWPCLGKoS2n/zumkznZ6uKStumfvfxAW67NC4lK/T8cM9OrNH3IIjdPp1TbbPTnHLz9LpU+LmbdKO9c+mZbbuHE3Fmt7TxDsVFIEBAQQQQAABBNYVcP+Rsu4aliDQhsBll5z3RBuLWYQAAggggECgBaKE7ANdvxQOAQQCK2Ct2xs0vduU/tVU0v/FLbP1FkTfWNNETXtrmqRpc02D4pJtYy3s7ZiW7tB0n6ZLNR2lyQL/O2vaTNOmTdO2zAY7ZqMzJfIDHb+lqVLTyZoe17STJoaACESj0eEBKQrFQAABBBDoYQFracCAQEcFNG5B5KKjWGyHAAIIIBAcgV69iiu0NHwJBqdKKQkC7QpEIhFaQLer48sV72iuLaDe3mBB/IymlR/qeJymfTSN1mSt6d1hd52wbnYma+rTtNCC/rbcjnGYpus1favJgvTWst4C+nZ+O06ppis12XGrNO2iyYYZmo7TtELTfE0MPhcoLy+f4/MikH0EEEAAAY8I0OLeIxXhl2ysWlWR45e8kk8EEECgOwK33HKbFJf0l9tuu73VYWzelt+s6xnCI3DheT9/LjylpaQIhFugrKzs7XALBKr0NVqamzX9Q9PnTcmC4+70v3X6Gk3Vmmyw/9bprcn6qLd9DopL9svjczX9WdP9mr7TZAH6BzT112St7F/SdK8ma41vAXl3eFIn7tJk//29UpOt+6gpTdGxBf7XamJAAAEEEEAAAQSaBQjcN1Mw0QGB6E23TLQWIgwIIIBA4AXOOOMn0tDQIFdcOU4GDhrqlHfgoE3l11eMc5afqesZwiPQ9IuzaHhKTEkRQACBQAhY4P4eTRdoslb3W2iy4PzWTdNH6/hhTbWabLCXij6jybq2ydT0H019NSUOi3VBkabvaRqsaWNN6xssUP+IJut6Z5WmLePS5jpt65ZqYgiAgL7genYAikEREEAAAQQ8IEDg3gOV4Kcs0Mevn2qLvCKAQHcEiouL5MILfuEE6ZcvX+4cavnyFdLY2Ogst/UM4RH4+uv5JeEpLSVFINwCGnSbG26BQJbefia3V1zJLHC/TVMqjFtuAXbrn3y6JusGxwLq4zS1NdTrwoWa7B8Jy5o2sO5vrKFTuab4F9naausff4wm61rH9vtEUy9NZ2piCJaAPQBiQAABBBBAoNsCBO67TRiqA0Rzc3Os1QoDAgggEAqByy67WDIyWn9VZmRkiC1nCJfAnZP+fqiWmBb34ap2ShtegWHhLXogS24viLU+5ONbQV+t81c1pe/puL3BAv5HaYr99K5lq1ydtMC9tcq374YsTZ9pukbTEk3Wev4GTV9pcofzdOI6TRdpOl6T9YN+iqYrNTEggAACCCCAAALrCLSORqyzmgUItBa48rJfPtZ6CXMIIIBAcAWsVf35550rOTnZTiFtbPO0tg9unbdXsig/OWuPhuUIIICA1wWObcrgj+MyaoF8C55bejduubWGv0fTDk3LrN95azk/r2neHdn6NZrsJbXWat4eDlir+yma7Bcbb2u6UNNqTTaM0nS2pt9ruklTpaYFmqZqsq56GAIkoP9msF9tMCCAAAIIINBtAQL33SYM1QGijVF7/5I2K2kKYDCONb7EAQfui+B+Llx66a+aW91b63ubp76DW9/tfZ737lWyyr7+nMrnDwIIBFogEonsEugChqtwG2lxJ2iyfuStX/mJmvI1DWwa68gZMprGn+r4Zk0faIr9h4/It03r+jaNbbSrpsmaHtc0Q9Mbmmzorcn6uz9IU56m3TTtqOlBTSdo6q/pb5r20fQHTYdrukuTbePZQe8Jvv86UTvl5eX2awoGBBBAAAEEui1A4L7bhOE6wKqKilwrsXUVwRgHrgPugzB8DpSUFDut7LOzY63tbT4M5eb+bn1/X3ThOdOciucPAggEXqCsrMxaSzNsWMAC2Vt/++23Qza8aY9tcaSe+beavtJkLeCf1nR/U/qvjj/WNF/TTzTN03Sapv9pOkDTN5ps+I+mzzVtr8m2t8EC8C9rshb51vp+pCYLvj+jqahp/Fcdj9A0TJMF7a0v/Fma7Phbabpc03aabNlUTbatJwd9v0/sS9GTuSNTCCCAAAIIBFfA+uJjQKBDAhrE+fDQw0Yd8eTUv+v2GU7w3lomWnCHMQ5cB9wHQf4csD7tP/3sM6dv+yCXk/u47fvYGto3NjTMy8go+rBDX5hshAACCPhPwJ5K9+tkWqnbL/niiy8KBgwYcK9Hi/w3zVd8a/EndN5Se4MF6BMH6yoncbCHAfWa7HvhZU0W2Lbz2PnWNwzVldVxG9To9GRN9jChIW45kz4W0Bdczx49evRwHxeBrCOAAAIIeESAwL1HKsIv2Vi5cpVEG+s1WB/Rf5lGnLHl3YI93Rnf8idrkMIQZIELLxjT7euku9cZ+3fvPk30C9t9O3z4PnLXJPvv6vAMYb9vo9Y9nCYbvzbnDWtByYAAAiEQ0KDbXA26+bm7nBytpraC8NZKvK3ltsyC0EvbSW81LV+SsN7pSmbvvfcer8u9Ojh5TEHmzCt+sKB9R4b4oH389onHi1/HtP8E9vRflskxAggggIAXBQjce7FWPJynvLy8Ks1eQXMww1reRzI1sNG9FvhW5AvPH0PL/YD+guHmP0102iDRUjlYv8zgvg1WfSben2G+byUjqvF6a/jYEoe57IoJY3TBOXbdMyCAQOAFrGsTLw3tBdsTl7uBeetbvb0g/Ce67rU21q/1UoHJCwIIIIAAAggggIAIgXuugk4JTHvywRt0h3EtO1lwo/st8N3jJbboZT65LaR7ypP6DUY9Jl4/1Gsw69Wt5zDWr3aIo8XWFvaNqWqg6aoyRgCBEAvEd0njBtoTA/CJ89Y3enwg3m35bi9NfTdhnW23ShMDAgj0kIA2hqCbnB6y57QIIIBA0AQI3AetRnuoPG4LfG1+r/3maBc6TjeP2laxqQW5m631z+tDgE5t39njs33P+lK/Peuf/Os/dl+3tEgOWvnCXp4w1a9+OukNEusSx/2+Shz3KS1dnLiMeQQQCKZAJBLpaDc5uSqQGGSPn28rMF+r+8QH4eOnv2pnHU8TFYYBAb8IlJeXz/FLXsknAggggIC3BQjce7t+PJe7+QsWFgwdMrjdfLkB/Kj2eZ+Rkdncp7m7Q3stOVkfE8An1oKZ68Ef14NbT+6Y6zdY169br+44iPVrAftoVLvE0YfGGxqmPDxpYn6hxeAYEEAgwAJOoL2srMxaxR+lKT4I39a02yWN2wI+Pgj/se4/S1P8Mptur49zXcWAAAIIIIAAAggggECLAIH7FgumOiBwymljL545feqGt9QgSDRar13fNwXwm1rgb3hHtkAAAQQQQCC1Ap0J2Kc2JxwdAQRSKFCix04MtrfVAj5+m8Qguzu/UI/1jqbEAH1FCvPPoRFAwKcC+oLr2fqCa7rL8Wn9kW0EEEDASwIE7r1UG0HMS6sAvnWho13pMCCAAAIIINADAtaHfeyXYRtuYZ+YvdmvvzkgcRnzCCCQNgFr2R4fYF/ftBuct5btbuA9cfxFO+ucDwcNus3VoNuItJWOEyGAQNAE9gxagSgPAggggEDPCBC47xl33541Ly+vSjNf0OkCOAH8Bu2UoFG7z9EAvvWFz4AAAggggEAaBCxY7wTsrS/7Lg6XXTFhjO56Thd3ZzcPCuh7LJwLor6+XrKyOv5P4sWLF0u/fv1E+0HvUqmqq6tF/z3V5r7z5s2TwYMH6/UaXSdP2l1V6/642jyCLxZaOdzAuxtkd+fbG+foPonBd7f1+4dtrLNtazR1dRjW1R3ZDwEEEEAAAQQQQACBZAl0/L9SknVGjuNrgWlPPniDFmBc1wsR60/YAigE8LuuyJ4IIIAAAhsWSEbAfsNnYQs/CzQ2NsrOO+8sDzzwgBQXF0tlZaWsWLFCPvzwQ3nrrbfkqKOOklGjRjUX8Y033pA99thDZs2aJfn5+c3LBw4cKBtvvLEzf+ONN0pubq6MHTtWamtr5euvv5avvvrKOaa25JZly5aJjd3tJ02aJEOGDJFDDjlEdtxxR7EHA3/+85/liy++kNtuu00yMzObz+PRiV6ar/YC7rY8MTjfR5clBuHd+W903dttrKdLGkVhQAABfwjow1e6yfFHVZFLBBBAwPMCBO49X0VBYmnAmwAAQABJREFUzaAbwG/QAL7n/4M0qJVAuRBAAIFACsQC9vrS2SQOfUpLFyfxcBzKIwLTpk2ToUOHymuvvSZPPfWUk6tXX31VLr/8cjn22GNl7733bs7pZ599Jj/60Y9k5MiRcueddzrLLcj/2GOPyX333Sennnqqs+yMM85wgv3WQH7RokXy/PPPy/Dhw+UHP/iB3HPPPU7Avqmxv7P95MmT5Y477nCC+1tttZXTGv+CCy6Qs88+W84880yx9Wkc7GnE+oLwba1zu6RxW8C7QXgbf64pft6dTmOROn8q/TXFLp3fiz0QQACBmEB5efkcLBBAAAEEEEiGAIH7ZCiG6BjzFywsGDpkcFJLHI3GgivO2LrR4UW2SfXlYAgggEAYBOyFs9LcJU7ySzzl4UkT8wut4TBDUASsNfyVV14p1113nRx88MFy7rnnyvLly+WAAw5wAvfx5fzPf/4j2ue5nHLKKTJ16lQ5//zznVb1Y8aMkYceekhOOOGE5s2thf2zzz7rHOuuu+6S3/72t7LNNtuIPRCw6ZdeekkuvfRSOeuss5zW99Z6/9FHH5XPP/9crBuda665xjmWPVB45513nF8D2Hm7MFhfPm0F2hNbwMdvY/9t4AbXE8cfNK1LDNDXdiFvnt6lrKzMWv0zIIAAAggggAACCCDQowIE7nuU338nP+W0sRfPnD41JRm3FpIWdBEN3kftNbb0g58SZw6KAAIIBEmgUb83MvRbw/kOCVLBKEvKBaxVvXWHY93UbGjYYYcdZM6cOZKdnS05OTly+OGHO7v88pe/lL322qvV7vYgoE+fPnLrrbc2L7eW89Ylj3WR8+6778qAAbF3HVvL+4cfftjZzh4AWCt/C/K7w3bbbde8rS7rrSk+yL6h6VLdPjH47s5/reveamN9pS5jQAABBBDohoB+1s/Wh710l9MNQ3ZFAAEEEIgJELjnSvCcgBt8aXRfZCtde/mb5wpGhhBAAAEEkiZgLzuPPfB12ton7bjtHWj262/GIq3tbcByvwkMePnll2X33XeX+fPny8yZM538Wx/33333nVhLeXc4+eSTnRbyTz/9tCxZskSOOeYYsX7sf/jDHzpd7Nj6BQsWOK32rU966w7n9NNPl/fee889hDO+5JJL5KOPPhJ7Ge5NN90kFvS3l9xasN5a6X/wwQfOOuuSxx2s9b+dp2n4Ssdu4N0du63fP21j3bKm/Rh1UkCDbnM16EZ3OZ10Y3MEEGgW2LN5igkEEEAAAQS6IUDgvht4Ydw1Ly+vSstdkJayays06z7HgjO8yDYt4pwEAQQQ8LyABetjD3i1a5w0DpddMWGMnu6cNJ6SU6VWYPELL7wgJ554otgLalevXu2crarK/pkjzfPWT721srducuxls1tssYX+myRD9ttvPznyyCOd4LsF4FeuXCnvv/++0xrf9v/LX/4idizr47601Bq+xwZrdW+B+N///vfuImc8ceJEZ/zpp586/ehbS3zr5976vI8L3FuLe4b0CAxLz2k4CwIIIIAAAggggAAC7QsQuG/fhjVtCEx78sEbdPG4NlalcFFTAN+6Q9D/WLaudOgHP4XcHBoBBBDwmIDTpt4J2FuwPr0Be49RkJ0kCrgBdetL/tBDD3WObH3c/+tf/3KC5vGnysrKkuOPP95ZZEH+L774wgnm23IbvvzyS6moqHCm7c9f//pXJ+D/ySefyOabb9683AL3tn98n/WLFy+Wu+++2+m2x15+a33tv/nmm1JSUiJHHHFE875MIIAAAgj4Q0AfvtJNjj+qilwigAACnhcgcO/5KiKDLQIWwNeAjQZvLHhPAL9FhikEEEAgiAItAXv93O/hoU9p6eIezgKn75qA/Uqwrb7gO/Wm4QMPPFD+97//OV3Z2ItpCwsL5frrr3dyVFNTI9YXvTtYVzjW4n7GjBlyyy23yMCBA91VMnLkSOfFtnaMLbfc0nkZ7dFHHy3Wjc4uu+wijzzyiOy0007O9vZwwH0w0HwAJtIiEIlE6CYnLdKcBIFgCpSXl88JZskoFQIIIIBAugUI3Kdb3Ofnm79gYcHQIYN7vBRONwnW+lJb4OtrbJ2udHo8U2QAAQQQQCApAvYZb92k6dPapBwvGQeZ8vCkifmFnYr1JuO0HKO1gP27ta0g/PqW6U/11ukX3u0fvvno1sf8mjVrZMWKFU4w/cMPP3TW9e/f3+mH3mbs5bTjx493WtBfe+21zfvacuvSxh2sL3x7Ya31oW/919tgwf37779fvvnmG5kwYYITqP/3v/8tY8aMcV5ka+MHHnhArr76ajnppJOcBwSjRo2Siy66yOnOJz8/3z084zQIlJWVvZ2G03AKBBBAAAEEEEAAAQTWK0Dgfr08rEwUOOW0sRfPnD41cXHPzVs/+KL94GuQx+1Gp+cyw5nXJ+C0nF3fBqzzpQD16stq63Cm016/FrB3gvXeCdh3GIsNuyJgnb+7QXd7KuJOtzcu0W3coHv82F7Q+qWmN9pYv0aXtTdc5a6499575Y03bHeRrbfe2nkZrU2feuqpctxxxzn92a9atUrOO+88Z9r+zXHhhReKBemtRf1VVzUfymlpf/bZZ8uDDz4ol19+udTW1jrd3lgrfQvEb7zxxmJBe3tIoC275Z///KfzMtu6ujqnxf2OO+5op3ZeZHvdddc5Xfc8++yzzjL+IIAAAgh4X0BfcD1b341CdznerypyiAACCHhegMC956uIDHZMQMNLTd3o2Itsna50OrYjWyGAAAII9LSAE7Dv+e5w1scw+/U3B6xvPeukUA3aC7jHL48P0Fun8PEB+Pjpj9pYtzzZztbK3fq6/81vfrPeQ//jH/+QxFbvN998s9x0002xhgNxe//xj3905vbdd9/mrm4swB8/uPOTJk1yFt9zzz3rHH+bbbaRyZMnO63v4/dlOvUCGnSbq0E3ustJPTVnQCCoAnsGtWCUCwEEEEAgvQIE7tPr7fuz5eXlVWkhrL9Yzw5uNzr6X9LazYJ2paOt2Syob63jGPeMg3ux4N8z/qlyp16DVZ+J10nK67fR3ldi7y3xR+v6y66YMEZNznFdAj62fx/GB9jjA+/tTRuJG3i3FvDutI3/lzDvrqvX5T069OtnxdnwkBi0d/dwfu3nziSMO9M/fXvHt0N25jgJWWC26wLDur4reyKAAAIIIIAAAgggkBwBAvfJcQzNUaY9+eANWthxvihwU3cLUQ0OOa3wtTd89z+wGVuXvxozs4cbaRg7J0nDedJVHs4Tu26o1/TcPz11vaWsfrWDs2hjQ+zw/ojZuxR+HvfRzLcVcG8vOF+k27vB9cTxF7ruP5oSg/P2YN9Xg95brT/MfJV7MosAAggg4FUBbQxBNzlerRzyhQACCPhMgMC9zyqM7HZNIL4Vvr3M1mJF9t/riS1MmU9NC2K31vBNjW9PuVKvwarPxOsoqfWrB/Pay2bd8nV03Ke0dHFHt03xdhZUbysIv75lq3SfxAC8zVuZPmhj3QpdxoBAaAX03QN0kxPa2qfgCHRfoLy8fE73j8IREEAAAQQQ0F/fgoBAZwTmL1hYMHTI4M7s4q1ttRW+vcw2NkSaWuKnr+W527gvbGP3IghbuYNeXuqVFvd2Daz3Ote+67V5vfOw1L1e/Dqe8vCkifmF1kA9qUO2Hi0+4N5eC/j4bexlAG0F4a0F/Nx21rlffLqaAQEENiRQVlb29oa2YT0CYRLQh1n8Ri5MFU5ZEUAAAQQ8I0Dg3jNV4Y+MnHLa2ItnTp/qj8xuIJeJrfA1+tTcAt/d1W2BynxMAI9YC2uuB1eg9ZjrI1jXR+vata7oO1g+5wGpBexD+d/4fdUtPsje3rQboC/Q7dsKwtuyzzRZi73E9b7rkkbLwIAAAggg4GOBxsZGuhbrRP3pC65n6wuu6S6nE2ZsigACCCDQtgCB+7ZdWBomAbcVvsaYnL7wY/3oOALWklT/oeokezmc27LUAliLFi+WQQMHtpJy17sLUzFfWblaiouLmvPnnsvGqTgfx28RwHf9/82GT2ufeI/FS5ZIv759W92j8eu9eP+2XPmxqfXmVz8T9dGnNDbUtypj4jH8NL969RpZunSpLF22XJYtXSb/nvrUPpr/CzW1F4y35Ss1uYH2+D7gF+ny9+PWudvY9gwIIOAxAQ26zdWgG93ldKJe9Dti3PXXXz+uE7uwqY8EtH7H+yi7Xsjqnl7IBHlAAAEEEPC/AIF7/9dhWkuQl5dnLf2shWAgB6cVvpUs2vQi24yIzJg5Sx59dIrcdutNTotTW712bbUcdNDh8v57b9qsM9TU1Mh55//KnW13fNutN0pOTo6M/cWFzgOBdjfUFXbOzMzM5k2+/PIrGTHiYJkx43n53vc2b17OBAIIdF5g4cKFeg9GZZNNNm4z2GzB9oL8AikqKmw++CeffCrX33Bz8/zvxl8pV/7md83zNnHqqSfJgQfs17zsv/99S/ba+wB55eXnJD8/v3n5wIH9ZaONNmqe9+WEdYPjtKy3J57rPjz0Splqa2tlmQbgl2oA3hkvW9Z6eonO67JlS3UbG2uyh7V99WFLv759pG+/vvLm3HcP0vK8q8mC7m81jeOD87bcurFhQAAB/wsM838R0leCSy+9dLyezVJYhvFNBXXHYSk35UQAAQQQQACBNAsQuE8zuN9PN+3JB2/QMoSgNY32hW/BKKd/5gYdxYJS99xzv1SuXi1nnvGTdaqyvr5BXn55hjw29V9OQP5Xv7pcLr/8YunTp9TZ1gLwRxx5vNTV1TuB+5NOPME5VnFRkTQ0NMiRRx0vTzz+qLOtBY1KS0tF+5NsPs+aNVVy7HEnyU03XecE7S1/Rx11glx//QT5/ve3at7ObxOVDatl0orJckG/X/gt6+TXowKjRh0tzz3/YnPuNt98M/njDdfK6NFlzrIZM16Vk046XSwwb4P9gmXi7bfK8ccf48zPnfs/ueSSX8srup0Nhx5ykHPf2X323XeLnIdpF14wVk4+5SeyfPkKmTfva7n9L7c4206efL98M/8bZ9r+fP75F852doxJd9/rLF+xYqU88cRTMvnuv8nJJ/+oeVu/TLz/3gfy0zPP1gcaxfLCc4/3SLZbB9ndgLwF47V1vH5+uq3knbHOV1Wt1SB8H+nfv58ztl8/9NNgvC3baostZM8f7u78IqJvvz6xsa7Pz89rVbYRBx4py5Ysthb3DAgggAACCCCAQLsC+t9pdJPTrg4rEEAAAQQ6I0DgvjNabBs6gUWLFstHH30iixYtkk8/+aQpmB/r63nVylVyzYTrZMqUx+SeyXc6wXT9RYJsvfX35brrb5J33nlPbp94h1gL3V69esn0F58RW+8OFsj//e9vkJdfmuYE7m35XnvFflV54EGHyfhxVzS3Arbg4E9/eraceOLxzcFF67bioovOl1N/fIbTkjf+2O45vDy2gP0flvxRblnyZ8nMyCRw7+XK8mHe/vLnW+T0008Re+B17bXXy+k/OUsWL/pavv56vhx8SJnceOMfZMzPf+Y8HHv00alOcH3o0E3lhxrAHTfuajnk0IPl6aenyrfffieXXnalBvKvkKn6UM6GAm01by2xc3NznfmS4mLZZputnem11WubH9a98cabzsO1k046QR57/En9lc0YZ5+xYy+Uvz8wWY477mhnH1/80QeF9ouky379W7n11omO2003/j4pWbfuv+KD7UucVvFxLeLjWsm7LeL76IPN5iB7XLB90KABssMO2zW3knday2td9epV0u286jkXd/sgHAABBHwhoA0n6CbHFzVFJhHwpkB5ebm9o4YBAQQQQACBbgsQuO82YbgOMH/BwoKhQwaHptCvzpotj2hQb/78BfLA3x9yyv3kU886gflqDdANHNDfaZ2pMfTmYeJf75T33ntfdtvtB7KFdmfzxRdfyqS7Jjavdyf22GM3qayslNdem+MEC93lL05/2Wmxv+++1p2yOC16d9ppd7GA4OAhm8iJJ50my63LB21FagH9iooK+e1vr3Za3rvH8PK4slED9ov/KLcuvV17xI5KZiRTJgwa7+UskzcfCmRlZUp2drb07t1Lhg//obZ2v8d58DZt2guy+eabyS/GjmkulQXQ77prsjz77HNi9+Vbb73ttIS3/TfddIj8/tqrtHuqWOt722nqY0/Ip59+Jh9//EnzMZYsWaq/qDnO6fpm7733cpZvv/128uqrLzr5yMnJlvLyY53lF5w/1slT885enmjqCucR7S7sVxdfoZ83lc6DRvs10KmnnLhOzq3LsMQuadxge6tW8k1d0ljXNWYT3yWNG2y3FvH2MMVtGR/fSj7+10jrZCJFC6Y8PGlifqG9U5YBAQSCLlBWVvZ20MtI+RBAAAEEEEAAAQS8L0Dg3vt15KkcnnLa2ItnTp/qqTylMjPHHH2EE5i34P2+I/aWX2r3Nzb+9eW/koMPHa1d5vxYpmugPTur5VYasc/e2h1OnbbEf1xef/0Nqa+vl8mT75Njj23dutZazFv/2F99Na9V4H7BNwtkwjXjm4tVUlIst99+i+QXaF/bhYVOINKCkSUlvaSwsECs7+bd9xihLXvLPR0MTAzY10ZrnTL2ifSRX/RtCaI2F5wJBLohcLfec3P0/rMHW88994LTbZX1Wf7008/Kscccuc6RjznmKPnbHXdpa/sr5KqrfuP8ksUewu2/3wjZX/urt37r3eFkbUF/zTXjdflIZ5H1YT9Bf32zx+67OfNvzX1b9tMHb7/W1unP6MMAe8HpUUcd4Txcs21mz3ldfnzambJgwUJ9V8b+csvNNzjdZzk7e+FPc7/1Im+88V/53VV/kNdmvy6rtZswd9h008H6C4JfrtMlTXV1TawrmqZuaJxge3/rJ76vbL3VVtJ3eFNXNHGt5PPyYr9ccI/NGAEEEEAAAQQQ8LOAvuB6tr7gmu5y/FyJ5B0BBBDwiEBLtNEjGSIbCHhV4MAD95PzzzvHCV6VlMS6XbCX1FqL+pKSIu0Hv16zHpVZs17TAHuR7LbrD6Sf9qd82o9Pkv9ptznTX3q5uWjPvzBd7rjj7ub5R//9mLa+Xy3HHX9K87Jb/vQXOfPM02Wkdtmx0047yk0339q8LnHinsl3yC677Jy42FPzZ34zRp6seFrqzMn9hYK+OmB5w3LJebeXp/JKZjomcL1c37ENe2Arux+sX/na2jp9wFWoQfRxcsZPT5cF+kLaA/ReThxqamvEgs42/PSnp8l+GrB/5ZWZet++Itdql1YX/+oCDc7/ThqjUafve+sm67NPP3e232Twxk5XOP986H654867pVJbpdtDgrJRh8k555zldKNlD+oOOvhwOaJ8lFiLe0srtbutDz740BtBewvW6//0ZwlOmdw/t/zpducF3dXV1e4iZ1xTUyv7779vc5c0/Z1AfV/9LCxutV2QZma//uaAIJWHsiCAQPsCGnSbq0E3ustpn4g1CCCwfoFY/6fr34a1CCCAAAIIbFCAwP0GidggXkD7Ua/S+YL4ZWGZ/vzzL9cp6vjfXSs77ri988JDN+h39lk/kS+//Eq7zThcnps2Xc4++xfyyCMPyv+NPERb3t/vHMOC+kOu2qT5ePZy2pdffkWu1pa+8cOgQYOcWeuG48MPPtIucX4dv9qZvuqqa51W/eus8NiCuwZPjOsip1Fqo3VODvtESuW77b/yWG7JTkcEbpn+t45s1iPb7DJsZxk16nDn3OXlZfLiiy/J8/rCWnsI9sQTT8uFF7R+GfLzz70ou+66i/My2dtumyi33HKDbLHF95wg/rnnnC377X+oXHbZxbJq5UpnuXWF1Ut/+WLDRnqfWov999//QFuovym33Xqjs9yC99a1lQ2rV69xPheO1BdKWzc+NtivbZYtXeBM98SfaGOjPkRbN1gfn5cH7r9Lpkx9Qh80TpZZ2q2XPZy0oL39kiEzMyKHHXZo/OaBnr7sign206BzAl1ICocAAq7AMHeCMQIIIIAAAggggAACPSVA4L6n5H163mlPPniDZn2cT7Pf6WxbsP5Z7RP7jjsnO/02H3LIgc4xrH/lnTUAeN0frpL/vjlXHvrno3LkEaOaj//i9FfkvvselKLiIg3YHyyfffaZbLftNk3ro1Ja2stJ7g4WuLdhm22+7y6KG2tgTYNl/bU//REjYn1nx610ltv6WIpf463p4kih9mU/Ti4bcJEG8G+M9XEfiUpVdK3ctmyidpfzc29lmNx0UMCuPe8N1l2VvYfCHqg99dQzTrc0O+64nWy22aayz4iD5eGHH9Vg+5HOC6Aff/wpvc+flzmzX3a6orKXSh9wwL5yRNM9/e233zoFzM3NlsWLl8gB2tLc7us//KGfLo+V/6yf/US22HJ7p2/8/Pw8Z/kB+4+QN/87y3mw9suLLpNC7e7q97+/yjmW9QW/084/bN7fWZiOP9qivlXL+g5U31FHjhZLn+ovDO68a7Lcq59tFrz/xXkXO90O5eTkpCPnnAMBBBBAAAEEEPCFQDQapZscX9QUmUQAAQS8LxDxfhbJIQI9J2Avpx0yeBOZ9+UH8uDf7xYL2H+hremtT+a/PzDJydh/33hLFi1a5ExbkPCjjz6RffYeLnf87Ta5+KLz5bvvFmvf2ZPkww8/0iBitfZEoa1cNXjW2WH+/G/k6WemrZMWLowFFTt7vJ7avjhS5ATwF273uZzf91xpiDbIFd+N66nscN6AClj/6yW9BsmAgUO1q5s/yl/+fLNsqw/P7OWzD/3jXvn5mPMkL1/7W+8/RM4990IN7v9bfvCDYU7/7I/qL2RuvuXPsvn3tnPShGuvl8cff9jp0sZanVtLfBvWrl3brDdjxquSn5cv9vLbN/VhnjvYey6OPPIE54XTV1/9W3exvv/iv7LVlls0z6d0woL11hVOY0OXP38sf1tttYVcf901sujbL+Rvf/2T0y2OdUUUlqFPaenisJSVciIQdgH99x7d5IT9IqD8CHRDoLy83H6myIAAAggggEC3BWhx323CcB1g/oKFBUOHDA5Noa1/+vjBAvITJ94p22y3a/Pivn1KZfLdf3Xm7SWUFvBra7Dltt6C9rHgvW6l/V7b/5oa7baMEw+gcf7ly1fI7NdeT1wj1o2ODxrcr1O24gwN4A/UFvj9LpJJK+5ZZ/06BWWBNwU6/wwq5eV48olH2z5HU16P1hfFHnnEaJk372vt7iVTNt10SGz7pvWjtYsdS99++51kZWdJ/37Wsl4HXf+tPijbXbvJGTXqGKePenth9P/eeVcsuP/arOnynT7EO+vssTLzlRfk1NPOkIpVFTL23J+Ldddj/dz/Sl9w/cyzz8tA/QWNvQi3+d6PnSGJfxNa1ifxyHaoE44/xklJPqynDzfl4UkT8wv7ezqPZA4BBJIjUFZW9nZyjsRREEAAAQQQQAABBBDouoD7isiuH4E9QyWwx/AR0ZnTpya9zH+6bZKc/4szkn7cdB5QfxIpK7T/a22V2e5pbX3vXr2cAF7iRstXrJS+ffro4nVvS+v2w/rILi3tnbibrND9iooKJTs7e511Xllwy613yAXnneWV7JCPJAmEsV7tXrR7zV4mXVCQrw/hos69afeg9Wlvg3V9ZQ8E7OXVsW5zWoPbPhbET/5gDwXt6UPTE4huniAIn8vdJGi1e2Nj4+80cD++1UJmEEAAAQTCKDC+qdDuOIwGlHk9AvqC69n6gmu6y1mPEasQQAABBDomQFc5HXNiKwQ2KGCBuPUF7e0Apb17txuw66NBeac7C+06xmmRHxd8s0BhW0F755i6n5eD9huEYwMEfCTg3mvF+v4KC85bsL63vqTWDdpbUWy5DW0F7W15coP2Td3gtPG5YedKxlBbW5uMw/j+GLNff3OA7wtBARBAoEMCGnRr6fOsQ3uwEQIIINBKYM9Wc8wggAACCCDQRQEC912EC+tueXl5VWEte3rL3ToYFxXtFz8ukJ/evHA2BBDwjoB1gaP91Vuf9SkM1seX9y+33yEjDztSuwO6QWbMnBW/KlTTl10xYUyoCkxhEQi3wLBwF5/SI4AAAggggAACCHhBgMC9F2rBR3mY9uSDN/gouwHJqnZ7od1fNAfq2gnix7rIaCky8627C8EDj5a7w24pP3m4wfr4l8u2zn982ZI9ffZZZ8gvLxgra9ZUyRVX/E5699lERh9xvNzwx1tkjr58lwEBBBBAAAEEEECgRUD/nUk3OS0cTCGAAAIIdEOAl9N2A49dEegRAQviN7e+11fbNvWVbWMLRnpxbE5ezJdXvfySL/f690t+/ZJP+3WN3daJXWa53ukeW1/+I0ce7CQ798pVq2TmjNfklRmvyvnnXyJffPml7Lvv3rLviL1lhKYf7LJzurOYlvNpV2iL03IiToIAAj0uEIlEdunxTJABBBDwrUB5efkc32aejCOAAAIIeEqAwL2nqsP7mZm/YGHB0CGDvZ/R0OTQWuLHt7yNvfAyPphvFD0971ZHT+eD8yf3+qBek+lp97Hdz9YtlrcHe8H26NGHOclyumTJUqcLnRkzZsk99/5dFi9aogH8vWS/ffdxxjvssJ23C9TB3E15eNJEfTltB7dmMwQQ8LNAWVnZ237OP3lHAAEEEEAAAQQQCIYAXeUEox7TVopTTht7cdpOxom6IBAL/MX6vtZuNRK61XGD/OkeuwVJ93k5X+yhTqocqNeu+cbc7Hczbj/1676Q2rX1w7h//35yzNFHyJ9uuV7mvjlL/vP6y3LEEWXyzrvvyQknniabfW97+fFpZ8mdd90jH3/8qR+KRB4RQAABBBBAAIEuC+gLrmd3eWd2RAABBBBAIE6AFvdxGEwiEDiBhG51JNZAOO0t8F1XWrwns4U2v6Tw1/WkQf4M9xcysYC/e18EbbzJJhvLiT86zklWti+//Epb5L8mM7RrnetvuMX5/NlXW+Rbtzo23nzzzXQr7w+zX39zgPdzSQ4RQCAZAhp0mzt69Gi6y0kGJsdAIJwCe4az2JQaAQQQQCDZAgTuky0a8OPl5eVVaRELAl7MgBZPg4XO/92goQaRnf9b3/ixILC1zHaDoYbAPB7rux4SbxSul/h3TDgd3zj3XNOfRK7QzG+++WZOcP60H5/klNla3c+YOUtefPFl+e24a6S4uKipf/y9nLEF/r04XHbFhDGar3O8mDfyhAACSRcYlvQjckAEEEAAAQQQQAABBDopQOC+k2Bh33zakw/eoAbjwu4QjPI7UXzrVdspTjQaC+S3lK3lxbfusvggri1jPtaCPqw+brndcXivh9g9FN+ivtWrJ1wgxo7A1ltvJZZ+dubpzvy7774vM7VF/mOPPSUXXfRrGbTRQKdvfHvZrSXriocBAQQQQAABBBDwi4A2Zhnul7ySTwQQQAABbwsQuPd2/ZA7BNIo0DqQHztxfPC+dZA6jRnjVAh4TMB92GXjpqC9x3Lop+zsuOP2Yumcc37mZPvNt97WQP4s+fuD/5Kzf36ebLnF95q61dlbRuy7l9jLcXti6FNaurgnzss5EUAg/QKRSIRuctLPzhkRCIxAeXn5nMAUhoIggAACCPSoAIH7HuX338nnL1hYMHTIYP9lnBx3UcDtk9vdPdYqX8P5TQvcsbueMQJBE2gK0sf6mdLCEahPdQ3v+oNhYumC8891TjXn9Te0f/xZ8rc775aTTz1Dhu28Y3P/+NZPfkFBfqqz5Bx/ysOTJuYX9k/LuTgJAgj0rEBZWdnbPZsDzo4AAggggAACCCCAgEgEBAQ6I3DKaWMv7sz2bBs0AQ1a2gtvo41NqcEZN0YbtKCx5bHApgU345M5xM8zHQyPYNWrXddWL3Y9x65xd6zLnb5v7LplSLfAnj/cXS65+AJ58vGHpWLlQrnmmt9Kfn6e3HjzbdKn3xA5+JDR8rurfi8vvTRD6uvr0509zocAAggggAACCLQS0Bdcz261gBkEEEAAAQS6KECL+y7CsRsCCLgC+kJOnYwFPW1swc3ElvnutowR8JaA844HJx4fC8o7L9h1skiQ3ls11ZIbt+97W1JbW+v0j//KjFflqqv/IG/8963m/vFHjNhL9tk7eV3Mzn79zQEtuWAKAQSCLKBBt7mjR4+mu5wgVzJlQyC1Anum9vAcHQEEEEAgLAIE7sNS00kqZ15eXpUeqiBJh+MwgRXQoKfz/5bgpxPQd+L5dK8T2Gr3eMESg/Qezy7Z64BATk6OHHTQ/k6yzVevXuP0j/+Kdq1z6aW/kQ8+/Ej23XcffcntXk73OnvsvmsHjtr2JpddMWGMrjmn7bUsRQCBgAkMC1h5KA4CCCCAAAIIIICADwUI3Puw0noyy9OefPAGPf+4nswD5/arwLrBfKdlvhWHgL5fK9WT+W4J0Fv2Wh4eeTKzZCqpAkVFhXLYYYc6yQ68fMWK5hb55479pXw9b77zgtv9NJhvLfKH7bxTUs/PwRBAAAEEEEAAAW2wlLyf/MGJAAIIIBBqAQL3oa5+Co9ATws0BVWdmH58gLWpVT4B/Z6uIE+fnwC9p6vHE5nrU1oqR5SXOckytGjRYpkxc5bzstu7Jt0ry5Yt19b4e8fSvnvLdttt026+9ViL213JCgQQCJRAJBKhm5xA1SiFQSC9AuXl5XPSe0bOhgACCCAQVAEC90Gt2RSVa/6ChQVDhwxO0dE5LAKuwP+zdx6AUVXZGz8zaZMCJKFKEXsvsDawLNiW1UgWC7AK/tF1VxcX264oLrpEXVyBVezYsAcVVFSwYKGICkEQsLuCDROQloTUybT/d15mwiSkZ8p7M9/Z/fLaffee+3uRJOedObepgL5eZ1A/QCketgzOx8NTjtwce/bsISMvONeQjrpp0y8I5H+MQP6Hcu/9s8TpdBpBfM3G14D+gQfuX+fc/HmzZ6Wmd6875g4JkEDsEsjJyVkXu7PjzEiABEiABEiABEiABKxCgIF7qzwpk/g5dtyEicsXv2oSb+hGfBJoXVBf2dgCQf74BGWJWRuBefW07gMXdTuW8J9OWptAP7yIHnPRKEM6k40bfzAy8pcjK/+O//xXkpKSEMCvrY+//wH7Zlp7tvSeBEiABEiABEggEgSwwPUKLHDNcjmRgM0xSIAESCDGCTBwH+MPmNMjgfgisDuor/OuCwrXg7A7Y19PM7hfD05ID+r418Xi63ZCOg47I4FQEdh//31FdeklY40uv/76WyOQv2jRe/LGNYsux8lh0LIgFRkN+YUESCCmCCDothZBN5bLiamnysmQQEQJDIroaByMBEiABEggZgnYY3ZmnFhYCDgcjsqwdMxOSSBiBDR4DPlq5fN5sduYEHZGG0PGKwANQ8d34LmWgP+r8lOSBqPG+HnrGBu845ydAYtfLEfg0EMPlisu/5M89+zjcsTRx6RiAhdCX0MjoS+g9dB90PlQN4hGAiQQGwQGxMY0OAsSIAESIAESIAESIAErE2DGvZWfXhR8X7RwzgwMOyUKQ3NIEogwgaAgfb3doINGPfJn9Dd2rZlL2ryx7H8NjNtsLdwYNFaLLxeadb/Zi0GjBO+2557g+7lPApYioHWvVff6vT4O26HQpdDTkAb1lwVpF/ZpJEACJEACJEACcUQAv7+zTE4cPW9OlQRIgATCSYCB+3DSZd8kQAJxSKCZQHYzlxRUU0F3Dd7TSIAEoksgOytrayMefIJzKn2prXYSNBS6CnoZ0mvBgfxqHNNIgARMTsBut7NMjsmfEd0jATMTyM3NXWlm/+gbCZAACZCAdQiwVI51npUpPN1UWJRmCkfoBAmQAAmQAAlEkMD8ebNntWK4j9BmKvQ7yAHdDLmgmyAtNbcEyoNOhfg7GCDQSMCMBHJycvSTNTQSIAESIAESIAESIAESiCoB/tEYVfzWG3zsuAkTrec1PSYBEiABEiCBiBPAQg9GoH4KtkMhffF9J5QCaXC/CloE/RPSTH0aCZAACZAACZBADBDAAtcrYmAanAIJkAAJkIAJCLBUjgkeAl2oJXDv/bOJggRIwGIE+N+txR4Y3W03gRUFa3q0++baG7VMjgbqVWqdoSHQUEhr5h8MaVmdpf6tltmhkQAJRIEAgm5rhw8fznI5UWDPIUkgRggMipF5cBokQAIkQAJRJsDAfZQfgNWGdzgc+lH/kJfLueaqy6yGos7fqdtmyOqqT2X+3s/XneMOCcQDASv/d9ue55M8ravU3LijPbfynhggMGny1PGYxpUhnIouXLvAL+22GxQI5Oub7D5QoD7+Uuyvh2gkQAKRITAgMsNwFBIgARIgARIgARIgARJomgAD902z4ZVGCCxaOEcX4NOP/dNA4NZtd8p922dJjbeGPEiABEiABEigIwS242Zd0Fal1hsKBPL1pUEXKBDI1+1XEI0ESIAESIAESMBkBHw+32CTuUR3SIAESIAELEqAgXuLPji6HX0C126+UZ4umSOV3kpJwP+qfU5x2LR0MY0ESIAESCDWCGRnZW2N8JyKMJ5+lCvwca59sK+BfJWuN5MABQfyN+CYRgIkEAICdrudZXJCwJFdkEC8EsjNzV0Zr3PnvEmABEiABEJLgIvThpZnzPe2qbAo5GVyrAjtksIrJL/0RSNor/477Cmy1R3pmI4VydFnEiABErAmgfnzZs+Ksuc/YvynoT9B+0FnQsuhU6Gl0HfQ49DF0N4QjQRIoJ0EcnJy1rXzVt5GAiRAAiRAAiRAAiRAAiEjwMB9yFDGR0djx03QLL+4tRpfjZz5Q668XPKa7PKU1XGwi122MHBfx4M7JEACJEACYSfwP4zwGDQW6gudC62FhkOroS+hh6DRUC+IRgIkQAIkQAIkEAECWOB6RQSG4RAkQAIkQAJxQICB+zh4yJxi6Agcv3GoFFR9IkkJyQjV2+tK4yTbk2Wra1voBmJPJEACJEACpiKwomBND1M5tKczX+DUg9AoSH3VgL5m4V8IfQNpUP8eSAP82RCNBEigCQIIuul/LzQSIAESaC+BQe29kfeRAAmQAAmQQDAB1rgPpsH9Fgk4HI5KNIrbcjnTet4mPZJ6SI+EbvJI8RPyefVX8n75EiP7/lcPS+W0+A3EBiRAAiRgUQKTJk/VBWKvtJD7GnhUzfT7fAK2Q6G/QPnQ51BwjfxyHNNIgARqCQwgCBIgARIgARIgARIgARKINgFm3Ef7CVhs/EUL58ywmMshdXdYpzNkoOMo6ZPUW54veUmm9Jgkd+91J3LvbbLB+X1Ix2JnJEACJEACJBBCAgXoaxp0NqQv4K+HtObbdVAJpPXy/w1p7fxkiEYCJEACJEACJNAOAj6fb3A7buMtJEACJEACJLAHAWbc74GEJ0igZQILyt6S/kn9ZACC+Ko3yxbJkY7DWr6RLUiABEiABCxJIDsra6slHW/aaQ3Uq26H9PfBIdBQ6BbobWgpFJyRj0MaCcQHAbvdPjA+ZspZkgAJhINAbm7uynD0yz5JgARIgATijwAD9/H3zDs0402FRWn9++kaePFt+SUvykWZWka41l7Ze05gl1sSIAESIIEYJDB/3uxZqendY3BmxpTc+Pq+X3pCM/IDgXzN0j8a0iD+Uv+Wi+4BBC12CeTk5KyL3dlxZiRAAiRAAiRAAiRAAlYhwFI5VnlSJvFz7LgJE03iStTcKHQVyTsV78uYoMB91JzhwCRAAiRAAiQQegK6ns1b0I2QLrC3FzQL6gnpAril0OvQP6BjIBoJkAAJkAAJkICfABa45gtufjeQAAmQAAmEhAAD9yHByE7iiUB+6Vy5qPMoSbGlxNO0OVcSIAESiGsCKwrW9IhjAFoD/zVI6+H/BjoQehbaD3oa2ga9BF0FHQXRSMDSBBB004WdaSRAAiTQXgL60ptGAiRAAiRAAh0mwMB9hxHGVwcOh0Oz8OLaGpbJiWsYnDwJkAAJxAmBSZOnjo+TqbZmmlrvfx70N+gISOuBz4eOhDSAXwhpDbkroEMgGglYjcAAqzlMf0mABEiABEiABEiABGKPAAP3sfdMwzqjRQvnzAjrACbv/P3ypZJuT5MT004wuad0jwRIgARIgAQiRuAXjJQPXQ4dBJ0CvQsNhnSh2x+gp6BLIc3Sp5EACZAACZBAzBLw+Xz6849GAiRAAiRAAh0mwMVpO4yQHcQTgfzSF2VMl9HxNGXOlQRIgARIAASys7I0y5zWOgLfo5nqSX9zzbrXxW7PhKZCZZAudhuQBv5pJGAaAna7XT9FQiMBEiCBdhHIzc1d2a4beRMJkAAJkAAJNCDAjPsGQHjYPIFNhUVpzbeI3avF3hLJL5krF2aOjN1JcmYkQAIkQAKNEpg/b7YuzkprH4FvcNsj0EVQb+gC6HPoXGidf/8BbPUHbDyvJYDp08xAICcnR78vaSRAAiRAAiRAAiRAAiQQVQIM3EcVv/UGHztuwkTreR0aj+cUz5UxmaMkOyErNB2yFxIgARIgARKITwIatL8f0gB+N+gSSMvpXAxtgNZAd0N/gDIhGgmQAAmQAAlYhgAWuF5hGWfpKAmQAAmQgKkJMHBv6sdD58xEgGVyzPQ06AsJkAAJRJbAioI1zAQPH3IN1N8F5UKdoQnQNkgXBN4CaQDkTugsKG4/+Ye50yJEAEG3tREaisOQAAnEJoFBsTktzooESIAESCDSBBi4jzRxi4/ncDgqLT6Fdrn/cWWBVHgr5fSMoe26nzeRAAmQAAlYm8CkyVM1iEyLDAEN1P8H+j3kgCZBVZB+6i9QH/827J8Ocb0mQKCFnMCAkPfIDkmABEiABEiABEiABEigjQQYuG8jsHhvvmjhnBnxyGAOatuPyeSitPH47DlnEiABEiCBqBPQRWxvhU6DUqF/QwmQntOA/nvQzdApEI0ESIAESIAEokrA5/MNjqoDHJwESIAESCBmCDBLKWYeJScSLgJOn1O0TM4XB6wK1xDslwRIgARIwOQEsrOytprcxXhxrwYTfdcvnXMGNAQaCmm5ncMhDfQvQ+BEy+uI2+2WxMTW/8q7detW6datm9jtbctv2bx5s3Tv3r1NY6l/AbPBAvvcRpcAnv3A6HrA0UmABKxMIDc3d6WV/afvJEACJEAC5iHQ+r9izOMzPYkigU2FRWn9+/WNogeRHzof2fbDMs6QPkm9Iz84RyQBEiABEjAFgfnzZs9KTe9uCl/oRD0C5Th6wy+9kA0FAvni9Xrl6KOPlueee046deokZWVlUlxcLF9//bV8+umncu6558o555yj9xn2ySefyPHHHy8fffSRpKZqcn+t9ezZU3r3rv094K677pL09HT561//alwcPHiwPPHEEzJx4kSZOXOmHHjggYHb5M9//rPs2rWr7lh3Ro4cKaecsvvDATpOly5d6rXhQXQJ5OTkrIuuBxydBEiABEiABEiABEiABESY2cPvgjYROH7wKb7li19t0z1Wb3zGj8Pl6q7jJbfT2VafCv0nARLoAIHkaV2l5sYdHeiBt1qZAALAtyJwn2flOcSb78i497311lty//33CwKx8sYbGt8X+fDDD+Wmm26SAQMGyEknnSSdO+t6uCIbNmyQYcOGGYH3vfbayzinQf7XXntNnnnmGbn44ouNcyUlJUawf8SIEUYfZ555ppx22mmiQf/DDz/ceEEwefJkGTJkiKxZs0Yuuugief3112XZsmVSUFBgvEx4+eWX5aijjpJt27bJscceK/n5+cKMewMvv5CAFQjk+Z0MbK3gM32MIAEscL1i+PDhLJcTQeYcigRIgARilQAz7mP1yXJeISGw3vm5/FSziUH7kNBkJyRAAiRgXQIrCtb0sK738el5TU2N3HzzzTJt2jQ544wz5G9/+5vs3LlTTj31VCNwH0xl1apVgiCLjB07Vl599VW55pprJCUlRcaPHy8vvPCCjB69e52bzMxMeeedd2Tjxo2iAfqHH37YeDEwbtw4mTJliuy3336Sna2J/yIHHHCAUapn+/btUlpaKl27dpUJEybIl19+abxAmD17thQWFga7wn0TEEDQbS2+H1guxwTPgi6QgEUJDLKo33SbBEiABEjAZAQYuDfZAzG7Ow6HoxI+ppndz1D5l1+si9KOClV37IcESIAESMCiBCZNnjoerl9pUffj0m3NqtdyOP369Wtx/kcccYSsXLlSkpKSJDk5Wc4+u/ZTdn//+9/lxBNPrHe/ZvFrCR7NrtdgvdbEf/PNN2XLli2yZMkS+eabb4wxzzrrLOM+zarXDPvvv/9eDjroIOOattGXCIsWLTJeFtQbgAdmIDDADE7QBxIgARIgARIgARIggfgm0LZVt+KbFWcPAosWzpkRTyDmlGrgfneWXTzNnXMlARIgARIgAQsT6LF06VI57rjjZNOmTfL4448bevrpp40Ae+BYt1VVVXLjjTcaWfmHHXaYcV3r2GtJnV69esmYMWNk//33lyuuuEI0i19fBjzyyCNG6R1dxFYXv73++uvlL3/5i+h9TqdTqqur69Dtu+++cvfddxv360ldg/bkk0+W999/X95++2055phj6tpyhwRIgARIwPoEUKmNZXKs/xg5AxIgARIwBQEG7k3xGOiEGQm8UPqSDHQcLQcm729G9+gTCZAACZBABAlkZ2VtjeBwHKrjBLa+9957RskazY4vLy83VFmpHxyUuuOKigojy17L5GjWvGbBazD/lVdeEa1zrxn3mkWvpXQ0gK/Z+Foe57zzzjP60Tr2l112mXTv3l2uvfZa456rrrrKWPTWaIAvn332mZGdf/nllwdOyaWXXmqU8Rk0aJD06dOn7jx3zEHAbrezTI45HgW9IAFLEsjNzV1pScfpNAmQAAmQgOkIsFSO6R6JuR3aVFiU1r9fX3M7GSLv8ktYJidEKNkNCZAACViewPx5s2dhcVrLzyOeJpCVlWVMt3///vK73/3O2NfA/Ny5c40gezCLxMREGTWqtjSeBvm1rI0G8/W82g8//CC7du0KvqVu/7nnnjMWua07gR0N3uuiuGq6CO369etFS+zoSwB9kaB963i33Xab0YZfzEUAixmvM5dH9IYESIAESIAESIAESCAeCTBwH49PvQNzHjtuwsTli1/tQA/WuPU750ZZW7VeFvSfaw2H6SUJkAAJkAAJkEC7CZx22mlGcF3L3ujCtOnp6TJ9+nSjPy19oyV0gk1L4bhcLqM0zosvvmgsaKvXS0pK5IEHHpCCggKjeVlZmZHd/8wzz8jrr79u1LrXvjWbX00z+zWAr+VzaCRAAiRAArFBAAtcr8ALWpbLiY3HyVmQAAmQQFQJsFROVPFzcLMSyC99US7iorRmfTz0iwRIgAQiTmBFwZoeER+UA4aMwM8//yxff/21sXCsBt11X7V9+/a6MXRx2nPOOcfIiL/jjjvqnT/wwAPrjj/66COZOnWqPPbYY/LVV18ZwfjevXsb1zUQr+V0nnrqKfF4PILMbTn22GONOvsHHHCAXH311XL88cfL7bffbmT1a6memTNn1vXNHXMQQNBtrTk8oRckQAIWJTDIon7TbRIgARIgAZMRYMa9yR6I2d1xOBxaHDbN7H521D8tkzNv72c62g3vJwESIAESiBECkyZPHY+pXBkj04m7aeiitJ988okx74MPPthYjFYPLr74Yhk5cqSMGDFCSktLjcC67msG/HXXXWfUve/Zs2e9kja6kO0bb7whe++9t/zrX/8y7tWXAZqtr6bbadOmybfffmtk8Rsn8UVL5eiCtBr013r6umjts88+K8OGDZO//vWvgWbcmoPAAHO4QS9IgARIgARIgARIgATimQA/lxvPT78dc6+q2JaHBbumtONWy9yyoOwtuXf7Q/Levgss4zMdJQESCD+B5GldpebGHeEfiCOYksApp42QVSuW8/cmUz6dxp3ywTSjXmvdJyQkNN7If7aqqkpSU1P3aIMu9ihjo0F6JDLs0balE1pyR8vr6DjB/mhmvh7jZQG/v1qCGKHryLj3ocwFn0eEeFtwmDy/z4GtBadAl8NJAKXRBnGB2nASZt8kQAIkED8EmHEfP8+aM20lgfwSlslpJSo2IwESIIG4IZCdlbU1biYbQxPt1q1bq2bTWNBeb2wslt6eoL32lZKSYkj3gy0oiK9vBpcFiQukBoOK4D6SVAZGcDgORQIkEGMEGLSPsQfK6ZBAFAiglGImEj7Ow++ipyOR5DdwoT+UEgVXrDqkE47/BH6fgt/7SUlJr+DTtCVWnAwzSaz41KLo8//+t356/359J0bRhbAOXegqkiM2HC9bDtkoKTb+mxhW2OycBCxGgBn3FntgIXbX6/XemprePS/E3bI7EggmoIXyh/g1FNsuUHAg/ysc00iABKJPIM/vQmAbfY/oAQmQAAmQQEwQmD59ei9MZBJ0FQLOL2H7Nrar8InPH/Ly8rR0Na0VBMAqDck2+yJwfzya/x7bC7C9H7rzhhtu2NKKLkzThIF70zwKazhy/OBTfMsXv2oNZ9vh5fTt98jPNZvkgd53teNu3kICJBDLBBi4j+Wn2/LcGLhvmRFbhJzAPugxOJCv9X6CA/kbQj4iOyQBEmgNgTx/o8C2NfewTRwRQLmtFSi3NTiOpsypkgAJhIAA1ki6FAHme9HVo9B/rRZgDgGCsHXhfyFyPQa4HC9CrsGaVU+GbbAQd2wPcX/sjgQsTYBlciz9+Og8CZAACYSNwIqCNT3C1jk7JoHGCfyI009Df4L2g86AlkOnQkuh76DHoYuhvSFaiAgg6LY2RF2xGxIggfgkMCg+p81ZkwAJtJcAgvZ3IGh/HTQMAfvrGbRvL8nG71OeylX5Kmfl3XhL851l4N58z8TUHuGjJjH70Zz3y5dKuj1NTkw7wdTPgM6RAAmQAAlEnsCkyVPHR35UjkgC9QhooP4xaCzUFxoBaYB5OLQa+hJ6CBoN6cesae0nMKD9t/JOEiABEiABEiABEmg9AX/QfhDibSdPnDhxRevvZMu2ElC+yhnB+0FWCd4zcN/Wpxzn7RctnDMjVhHkl74oY7ro37o0EiABEiABEiABEjA9AQ3UPwiNgvQTIRrQ1+D+hdA3kAb174HOhbIhGgmQAAmQQAQIoAwDy+REgDOHIIFYIIDg8aUIIp+DYPKIq6++elcszMnsc1DOylu5K3+z+8vAvdmfEP2LCIFib4nkl8yVCzNHRmQ8DkICJEACJGAtAtlZWVut5TG9jUMCGqifCWkmfib0V2gz9BdoE1QATYdyoAyI1gQBu90+sIlLPB2/BPo0M/XmrjVzGy/FKoHc3NyVsTo3zosESCB0BLTuOoLH90JXMGgfOq6t6Ul5K3fl769/35rbotKGgfuoYLfuoJsKi9Ks633Tns8pnitjMkdJdkJW0414hQRIgARIIG4JzJ83e1bcTp4TtyoBDdRPg86G0iFdkKsMug4qhrRe/r+hM6FkiOYnkJOTs44wSCCIQCfsL4WWQMdDAdN9PbcU0jY0EiABEiABEmgLgUlo/KjVy+OUrJ64f9lnk+ZsLbj+/qKlV51SuOzv/b5786oUfPrI1hYYkW7r564LAetzMK0xcG/aR2NOx8aOmzDRnJ51zCuWyekYP95NAiRAAiRAAiRgegIaqL8d0kVuU6E8yAfdAlVBi6F/QUMgGgmQwG4C+sLrJegUSAP1+rF6le7rOb2mbWgkYBDAAtesUc3vBRIggWYJzJw5Uz8deRX032YbmvxiXl6ePTUjcWBycmJOeprtb2mp8o7DVr4wPbn60Y3vXDtq9YLL03xzRyZoO59PzBjIV/5X+Z+HKWkzcG/Kx0KnIkng48oCqfBWyukZQyM5LMciARIgARKwEIEVBWu0hjiNBGKFgBsTeR/SoP1vIc0W1nWMNDNfs/Q1kP82dBMUd7WaEXTTskM0EggmcAcO9L8b/fTx3n7pvgfSazQSCCYwKPiA+yRAAiTQkIDL5ToPGekv3XDDDVsaXjPDsWbL16rpYLsG4qeMk85eW+JIn2Ux/osAAEAASURBVM3WGX7b7Ak+h93uPSrZVvl/nb2Fz/dKqPx1W99+91560s8nbpx/cffVj1yeZKYgvvLX56DPwwzcG/OBgfvGqPBckwSwgENlkxctemEOatuPyeSitBZ9fHSbBEiABCJCYNLkqeMjMhAHIYHoENDf796CboQ04LQXNAvqDukCuKXQ69A/oGOhWLcBsT5Bzq/NBDSjXteQqAm6U/fvhphtHwSFuyRAAiRAAi0TQG3109FKkyRMZxqwL/vfgyOKFl95ybcv/GkvDbQ37qRPSsuq909ITBi2x3Xk1ms/qRnJGY7E4r+lJ5W/2ynD+U7vvjsfGnfE56O/feKP+rumWTLw3/Y/jz2mYYYTTcA3g2v0wYwEFi2co9lYMWNOn1Nqy+SMipk5cSIkQAIkQAIkQAIk0EECJbj/Nejv0G+gA6FnoX2hp6BtkJYH0Y94HwXRSCAeCGhmvZaXCpjuM9s+QIPbOgIIVsXdJ5XqJs8dEiCBVhHAvxO/gVa1qnEEG/mW5CWWfTfrElvNlkczOtlmd+tr++bS475/5NuXLjzkhycvccxF2RsNyOtWNtyf7EhNvsKWkKTZ9nsYguHiyOourrIy8dV4HDa3++gEr+eylER3fnJK2Suf3nf6oXvcFIUT+hz0eURh6FYNmdiqVmxEAjFKIB/Z9sMyzpA+Sb1jdIacFgmQAAmQQCgIZGdlbQ1FP+yDBCxKQL//5/mlU+gLDfFLg/daYmdZkL7BvmXNbrcPtKzzdDycBAJZ9/pCS00z8Jltb6Dgl2ACubm5K4OPuU8CJEACjRDoX11d/UMj56Nyqrb+fF5CxXdZf0vwbLvJ56noCkdsCXZbp4wMH4Lt3jHu5NKCQW7vezsLbvz2DyeffYDbZz8pwZfyO4+r3Obx4kNoxqvt3Un0iZ27SU3xr+Kp8YnX7ROfB3L7bG6Xz+2scH+yzZnwU1Qm22BQfQ5paWn9G5w2zSEz7k3zKKzhyKbCIq3lGDOmZXIuymS2fcw8UE6EBEiABMJEYP682Vo2hEYCJFBL4Bds8qHLoYOgk6F3Ic0y1Y996x+iT0GXQvtBlrKcnJx1lnKYzkaSQHCGffB+JH3gWCRAAiRAAhYm4C89k4KtKUpR+4P2tl3/2+vmRHv5dPFU9NSs+jrEKGCPAH5qUpJtqKNLxu1p2Y45iXbf1ERH2jmJjvTklLRMSe3cQ3xIvK9xI8yMO32SIInJDqnZVS4a0/e6fEYAH0F8n7vaU1Sy1fnasInvVNSNEcUd/3NIiaILzQ7NwH2zeHixIYGx4yZMbHjOqsfrnZ/LT65NktvpbKtOgX6TAAmQAAmQAAmQgBkIaKD+SegSaB/o99AK6EzoQ+hb6FFoDKTZ+jQSsCoBzbB/xi9m21v1KYbZbyxwrf/+0UiABEjAEgTKNz7T3blpr+mpKaX/8nmqkhtzGrF7SercXTJ6dbd5K39Mcu/63u7zuvxNbViV1i7pnTtJVq9ekpCaJfakdHEW70TQXgP2XvE4kXXv1K1HyourVxVv/WV5Y+Pw3J4EWCpnTyY8EycE8ot1UVpm28fJ4+Y0SYAESKBDBFYUrOnRoQ54MwnEFwEN1Kse8U/7SGyHQudC90KboWVBMlUpKgTd1g4fPpzlcvCAWmPTpk3LQx3bKa1pG2Nt/hxj82lyOsi8vPXGG2/Ma7IBLzQkoIt800iABEjA9AR8m+ZmuxJKb7V5yi71eqp3Z9nX89wmKdm9JTm5EoH4nUbJm5rSX8Se0lUS07qJz+sVd1WVVGtZnIqd4qqsQDs3suw9KJHj1fI4xlb3XdVu366S6ofOun8D8vBprSHAwH1rKLFNHQGHw6Ef5YmJcjlzSufKkn3frJsbd0iABEiABEigKQKTJk8dj2tXNnWd50mABJol8Dmuqu73tzoG26HQxdDj0AYoOJCvi+NG0wZEc3Arjs3ArhWfWut81hczrWvJViRAAiRAAlYjUFa+1ZbkqHR4XdsT7Shv4/OiDj1q59SZPUGSu2RKQlIVAvGVCNqjDA7k9bil6tevxe7oIa7SbeKpLhefC8F6DdJ7PP5gve5764L2HgTyq8td21z2pE+MevhNvCaoG5s7BgGWyuE3QpsILFo4Z0abbjBp4xdKX5KBjqPlwOT9Teoh3SIBEiABEiABEiCBmCWwBjO7C8qFukAToG2QviDTbHwtM3EndBYUEwkjmAeNBEggTggg6DU4TqbKaZIACVicQOdDJ+zweB35CTYp9FYV+jzVv4q7ukTcTqcxs6RO3SQxqVp8NRW1QXs3gvaQZtG7K8vFuXWjeCpLjQx7DzLqvW7Nskd5HBfK4iBQ76nBMaRbdyX6rKnunm7zXbVt6ZXp+LeSoftWfP8wcN8KSGwSewTysSgty+TE3nPljEiABEggXASys7JMVcojXPNkvyQQJQIaqP8PpLXxU6FJUBWkayuVQR9At0GnQ2H/xLDdbmeZHICmkQAJtI9Abm7uyvbdybtIgARIIPIE0p/dubimptvbzhK3z7mzXNylJeIp3y5VZU4sMGtH4B1Be83E92fb+zz+fQTojTI4CNLXlsTB1h+wrw3gI2iPLHyPylmD4D0i/iL2TpnJU1M6Z3y/c+1Nj+74+O8nbvvg8r1WP3J5Uu0iuZGfv9lHZODe7E/IZP5tKiyyfNbTd86NsrZqvfyxywUmo0t3SIAESIAEzEpg/rzZs8zqG/0igRgkoGVzboVOgzSQfzuUAOk5Dei/B90CnQKF3HJyctaFvFN2SAIkQAIkQAIkQAJmJDBlCqrc+G6XxF7eii2VUvFrhSHnls1SvqVUbAkZ/vI4KH2Deva1gXsN3vtL4Wg5HJTHMYL1ga1m2xulc3ZvA1N37aqylXz3U/fUFLksKVUW2xJsC/vsWzXz67nnn77kyaGOQDtuawkwcM/vhDYRGDtugmY+WdryS1+Ui7goraWfIZ0nARIgARIgARKIGwK6eNm70GToZCgLmgl1grTcTgWkixbdCHFBSECgkQAJRJcAFrjWTxHRSIAESMAyBFAj5+CkNI89uVuauLx2qSqukaptVVL89ffirNAPOyJ/wsi6rw3eG4F6DdL7g/Y+3WptfLtNEpITUcIe/0OQ3+N2G9vguvnatnTjZqn8dafNbrelJCbYfoMC+3/rkmxb1K08fblloEXI0bB/1DRC8+AwJNBqAlomZ97ez7S6PRuSAAmQAAmQwIqCNT1IgQRIwBQEyuHFG36pQ9nQEL8exrY/pBn7AX2K/TYZgm5rhw8fznI5baLGxiRAAkEE+BIxCAZ3SYAEzE3gx6W3pvTcy/5X545ttsREm6R3TRFXWoI4d7mkprxGSn7ZKdl7I+veW1MbhNeseyPzHovQIphvs2FRW/wvNStZElNxX6nWx8dStyn4mpgg5Zt1GaP65ql2ydZ1P0rmAXtJ5dYSqdq6S6p3VNgqK7y96rfkEQP3/B5oEwGHw1GJGyxbLmdB2VvSP6mfDHAc1aZ5szEJkAAJkEB8E5g0eaoumnllfFPg7EnAlAR2wqv5fqmD+gdfIJD/F+x3hQJBfN1+AbVkA1pqwOskQAIkQAIkQAIkEAsE9uqTcYq78vsTsORs3XSQCS9JDq1SiG1qMq4go96rgXqV7teWxxFfspT8sEPKCsskpXOS9BjY3ah7b3fYJDk1CXXtvZLaLUsqt+w0gvt1A2CnalupVGwpri29g4VtsbitrbYyYnAr7rNUDr8H2kRg0cI5M9p0g8ka55ewTI7JHgndIQESIAESIAESIIFQEtiCzl6E9EXbYdCx0AJIM+hfhTZBz0Ea1D8IopEACZBASAmgJMTgkHbIzkiABEggTAS2fpmX4fXuHOHzVPXGEAic17eE5BQE5JE678USQ1id1udDtj2kTZ2lPila9YsUb9iJxWfdUl1cLYUfbcZ1n3TqkyEJScjEx749JQGZ+E2Urtd3BbvfF9QfnEcGAQbu+Y0QNwQKXUWyqPw9GcP69nHzzDlREiABEggVgeysrK2h6ov9kAAJRJSABuqfhf4MHQANhZZAurCtLnK7EXoCGgftA4ndbmeZHAVBIwESaBeB3Nzcle26kTeRAAmQQAQJIKZuS3ekHOrzlJ8q4tL0+j1MA+6Ozsi4d1cZQXhtgCr2Ul7klK3rN4ur0omgfKIkpScZSnQkyq6fy6Rmly5RVGtej1sSMlLFhrI5tLYTYKmctjOL6zs2FRal9e/X15IM8kvnypguoyXFhreFNBIgARIgARJoA4H582bPSk3v3oY72JQESMCkBDRQr5rt9+9QbIdCZ0HToOKcnJxl2AZUhH0aCZAACZAACZAACcQWga/ykuzJpWeIzXkwStXvaTbUye7VW3w1O3DN3wCbyu3VUvrTTrEnCYL2yahjb4PsdUJVHXFXpUlG326oc18untQyqdxWItV6gdZmAsy4bzOy+L5h7LgJE61KgGVyrPrk6DcJkAAJkAAJkAAJhI3A1+h5FvRHSOvj61bPjYQ+h9ZD90HnQ90gGgmQAAk0SwALXK9otgEvkgAJkEB0CNg0y96Xl2efO3dkQrFbDvJ53VeK14kQ/Z5mS06X1C4pqJBTXXfR6/GhRE6N2BN8kpyRDCUZ2yRskzpB2GoGvj0lVRIdqZKQnCQ21MtHun6t6nqqv6OvBfyt6l/gkTDjnt8EcUHg/fKlkm5PkxPTToiL+XKSJEACJEACoSWwomBNj9D2yN5IgARMSmA9gm5PDR8+PFAu5zj4ORS6FHoK+gZaFqRd2KeRAAmQQDCBQcEH3CcBEiABMxDY/vHk3ts+Kt/X/vtdp/wuab+RySnuo232DLsnAaHhJPw646qAm9UaQIfZpMu+h4q38gfsa1i91jw1NmTTO40AfXCWvT0pkHFvE6xfi8B+bS+B+5rbelEI3+Xx1rhcvi3Vbvfa5trG4zUG7uPxqXdgzg6HoxK3p3Wgi6jcml+KRWk7j4rK2ByUBEiABEjA+gQmTZ46HrPQxS5pJEACsU9gQNAUP8G+aob/3EnYDoWugl6C1kBLoUAwf3daGk7SSIAESIAESIAESMAMBFKyHXNrirccbvPYOyckOVC3PtWWgLrzSRmZiLR3R8C9Rpy7yqRi2xYsLGuTFIdTXEG16jWYX1PmQvkbDdIjq94oj4MyOQja2xLskoBjG+7zebC1+1D/vkI8NTXidWNR2wa1eHx4GeD1en1lVa4fXS7vazUe37sup+8Hd3WnH83Aykw+MHBvpqdhAV8WLZyjf7RMsYCrdS4We0skv2Su/PeQO+rOcYcESIAESIAESIAESIAE2kHgI9yjmgpp2dEhft2E7dtQIIC/1L/Pgq4AQSOBeCKA5NHB8TRfzpUESMAaBBITfQc7uvs61zjdNlcVFpvF+rE2O36VsSciGI8SN8kOsWclSmJamnirSsRTuanexHwok+OurjTK49gCNe2NTHsE7xG4NwL4KIvjcaWII7szXgw4kazvEa/PK24ngvfIxA+YDZH7Gq98YkuUYSu6fbZrSp74/Dn6u9P7A43jfMvAfZx/A8TD9OcUY1HazFGSnZAVD9PlHEmABEiABMJAIDsra2sYumWXJEACJiRgt9sDZXJa8k6D8kv80rYOKBDI18D+MVAgkK/bDyEaCZBAjBPIzc1dGeNT5PRIgAQsSMDjctlRk8amAfLkZC8y3l3icVZiyVjEym1uZNzvQtC9EgF2BNyRJY80+Qaz9NWWyNEgffCCtP7gvQbzfR4b2mQbte3dGriHeWs8qMLjrteXx+tz40XAE5KZWZ6XJ968eld5EEyAgftgGtxvkcCmwqK0/v36ttjOTA20TM7tPW4xk0v0hQRIgARIwGIE5s+bPSs1vbvFvKa7JEAC7SGQk5Ozrj334R4tk7PIL+2iMxQI5N+D/YOh4ED+KhzTSIAESIAESIAESCDsBHxuN+rTI4Cukfs6c4s92YOPEJYjTl+ClWuRCr9HwL62sZbHSc5IQXY9kvSN8jg2ozyOsa9lcvBKoKYsTdJ69UOJnLLam9BfTXkNjnen2+M1AbLwZXW1y7P89Lyluy/U+cSdYAL68U4aCbSawNhxEya2urEJGn5cWSAV3ko5PWOoCbyhCyRAAiRAAiRAAiRAAnFEQBeuXQBdDx0L7Qs9CfWDHod2QK9A10DBdfVxSCMBErAqASxwvcKqvtNvEiCB2CWAjHubqxrZ7wjeB8vjRGa9RtNbMBsC9+m9extZ90npSZLcKVmSOiXhOBk18ZPE5thXMg89SRJTsyTJ0QXld1ByB+8JnDur6vWPVwNOl9e3pEbKNuIdQitGbsGxGL/MwH2MP+B4n94c1LYfkzk63jFw/iRAAiRAAh0ksKJgTY8OdsHbSYAELEIAQbe1YXJ1O/p9GboaOgo6ApoHHQq9AG32b3Ux7MMgGgmQgDUJDLKm2/SaBEgglgn4UP6mNmCv291yo9g8EuNbYV6UwEmRREeaJKcnQwjeY2uzOyQh41BJ7XkkFqlNNDLvE5KSJTElVUq/345se0TvA6Zr13p8RRVO75tn37+htpZO4Bq3jRJgqZxGsfBkUwQcDkclrqU1dd1M550+p2iZnC8O4KeQzfRc6AsJkAAJWJHApMlTNZB2pRV9p88kQAJtJhCp7HcN1D/vlzrZHxoKDYH0U674MHq90jobcEwjARIgARIgARIggTYT8NTUYFFaT/1KOeglIQ3Vanwt53V7XS6pKd0u9pROKHWTjP1iSetzrCRndkJNfF3stlRsSamGX9XFu2Tb+s9RJsdfMgdnjXcD+FJd41lWUriaa4G08gm2/GRa2RGbxQeBRQvnzLDKTPORbT8s4wzpk9TbKi7TTxIgARIgARIgARIggfgl8BOm/jT0J2g/6AxoOXQqtBT6DtISOxdDe0M0EiABExLw+XyDTegWXSIBEohzAi6nax0Wj/W4q90+VzXK5fjlcXoaybg3wux7EHNXIZcX9W/sSQ7UxE8S565iZNjX1re3+8rFXb5FqotLZOv6z8RZUtzgftS7r/F4K51y78h5WBOX1ioCzLhvFSY2siIBLZNzdTdNkKSRAAmQAAmQQMcIZGdlbe1YD7ybBEjAKgTsdvtAk/iqgXrVY35/Dsd2KDQc+i+kpXeWBWkL9mkkQAJRJpCbm8tM0ig/Aw5PAiSwJ4GdO4p/l5bU+bAEW+V57mrnEK/He7h4PdkolWPT1WJ9bpf4qmrEi4C+15cmCZ3SRTzl9TtCTR1X+S7chvi9xyfVv27AgrVdUbW+HBn426Ty1y1Sub1YPM5qZNjvGfz32ewlqY5ETVSgtZIAA/etBMVmtQQ2FRal9e/X1/Q41js/l59cmyS309mm95UOkgAJkAAJmJ/A/HmzZ6Wmdze/o/SQBEigwwRycnLWdbiT8HTwJbpVPejvXl8wDIUuhB6GfoSCA/k7cUwjARIgARIgARIgATl81LwahNLXI56+vnD+/2XX1Dj7er2eMxI8VZd4txUf6rW7E1DFXmqcdnGhLE5Gt31Ear4CufrJ8Z4aJ2rk/4pi9bji8sm2T5ci+94j7spKBP+9COhrBn/9ewL4U5JsWV6b7fpb8+QWyWsksh9oyG0dAXvdHndIoBUExo6bMLEVzaLeJL9YF6UdFXU/6AAJkAAJkAAJkAAJkAAJhImALqI7ExoBZUF/hbRu/l+gTZAu9DQdyoEyIBoJkEAECGCB6xURGIZDkAAJkECbCdhQat6GBWL7nvfMjv3++OL6/S986e5e1ZUDJLP7rfbOXby+xCQUvU9AIN4tJd9/hfr3/TAG7qpnCP/rarZeDc5jYVtXuXidFTinx3tm2QdutWk/+OKwecee6f6tlgOktYIAA/etgMQm1iMwp1QD96Ot5zg9JgESIAESMCWBFQVrepjSMTpFAiQQcgIIumlA3IpWAKenQfqRU3y+Xf4B7YKug7TQ7IfQVOhMKBlqq53c1htioH03zCGlHfPIxD1pDe7bC8e64HBgAS59Rj0btOFhbBAYFBvT4CxIgAQ6QAARcPObBvFl5DxveUnlPW5ncrmzwlMbj4fr3uoyKdtSgsVoNTcgROYTm0+8fRN9riuX3HCC+ct5hGjaHemGpXI6Qi8O73U4HFiJYo9fQk1F4oXSl2Sg42g5MHl/U/lFZ0iABEiABKxLYNLkqbpoypXWnQE9JwESaAOBAW1oa+amurCt6t+Q/t03xK9bsH0bCi6rsxTHzdmzuHgRNBJ6pbmGJrx2F3xaDz0D6ScUAoFz7NbZ9djbBB0ABV+/GcefQIuggH2JnVIoP3DCv/0V26v9+zdguwZ6GfoNNAn6PbQUOgFS9l9AB0OPQGpaoklftNBIgARIgASsTaA73Nd/5/Vnp/7cqYZMbTZb6mleZ1mGq7RKjOA9EuftdptUbdsmiY7ekmDX9/3ODs0hUPMetfGdruqa791ltrIOdRgnNzNwHycPOlTTXLRwzgz0NSVU/YWjn3wsSssyOeEgyz5JgARIgARIgARIgAQsSsANv9/3S6eg2eCBQP6d2D8aCg7kf4zjYLsfB+dCGqyeCD0AWcX0UwhvQVVQLqSfONAAvQbN34Dug7pAGrj/O6QZgBshva5BemX1f5Bm0WubHZCuHzAZCphmVr4DBQL3gfO61ZcGeo8y1bH+AD0FLYGeh3RMHeMSaBdEszgBn8832OJToPskQAIdI7ANtxdDGjv7J6Q/Z2dCmghrOtu29Mr0jCzvn6t2ViIBH9VsUALHU+aUyjK3eLAALTLxpesBWnGvBvI1678HtfFdTixyi5o4CcaHzOo3d7s93qoq99SSStdD5zz6ub4Ep7VAgIH7FgDxsrUIfOfcKGur1suC/nOt5Ti9JQESIAESMDWB7KysraZ2kM6RAAmEjIDdbh8Yss7M25EGDzSYrVLToHQgkK9B+f2h4ED+KhynQlpq9T/QfpAGnK1g+u/36ZDGI9SOhyZAe0H9oYaBg+U4txp6DdKkJbUTIL3vdWgzpJELTT/MgtQ0cN+UnY0LYyDNvtdtOfQmtAbqA2k/V0FFEC0GCOTm5q6MgWlwCiRAAh0jcANu10+3acRbP3V1E6Qvkk0XwO/cPeVUV3Xxb3b/mKwNzttQx95bWYNAPq6gwE0gYx5zqDOfF23cbldNWbVXEm1Jyd3T7Z3Ss6Wm3CVlhaXGLw2Bxh6Xt3pXRc2VQzI+fdr23xbeAARu4tb4yCQxkECrCWwqLErr38+8ZajyS1+Ui7gobaufJxuSAAmQAAm0jsD8ebNnpabrp15pJEACsU4gJydHS5bEm5VgwhqoVqnpP3hDIQ3mXwr1hPQz8hq81yDEZVAv6CLIzKYB8ZHQ/6A/+x3V4Lt+AuE0aCrU8NMDGqTvCnWChkFq+qJCX2bo8S+QZtw/C+kLDU1BVHusdrPH1x9w5jtIs/jPhe6AKqCHoHchfWnSXOAfl2kkQAIWJ2AkMmMO7d3q9Nt7b3P3WalfK/mqzNV2QPozU6WmwfzJeXl5T0yfPt04Ee0vO1ff2MXnKxsh4tGf6QG/69xKTE+X9N6dcKGy7lxgx+10VzmLdz3oqnJ+mr5Pzx1pPToP8Lg8Qz3VnhPsCbasxAyHzbmjQhLtNl+Ny72posr9L19G53xbnhG0r307EOiM2yYJMOO+STS80BiBseMmTFy++NXGLpninJbJmbf3M6bwhU6QAAlYm4D9k4ck8YOp4hnyL/Ece0XdZBJWPyIJy24Vz29vFs9xV9ad5w4JkAAJkAAJxBAB/Zj/PL90WtdC/9Edv3XG9nzo86qqqrdSU1P3/Is+0DK626cwvJYI0iB7wKZg5yT/wQJstwYuYKvZ7xrIXwrpD/kSSE3ntxjSrEk1/Tu6BzReD1qwL3D9QehISO/7F3QfNMe/r31rKaJHoBcg09mWLVs0c+tEqGEAUH1teC4Ux5bud/bs2ZfBngwBGytxsJKvgeBkKL5XG/bRFAcNUnZE2m9H7m/s3nD0qeOw39pnpRzsBo3dX/RnjH7PpOw+Fd29hISqHh6ve19Bdj1Mvwb++zD2Urp0kk4908RVFvhxWOevz1lZ9fj+WxJukimrPLVn897b8FbBvZ7SpK4+j/18uz3xOl9iYv/qyuot5WXO60/+zX6v2EbN87et64c7LRBg4L4FQLxsHQILdr0l/ZP6yQDHUdZxmp6SAAmYloD3aJSzXXYbgvTQx/81/Ey+9wDk6FWJaN0/vU6LGwIrCtZogIZGAiQQBwQWLFiwdvjw4QPjYKqtneKZaKg/CBOCbijFvmYQ9jZx0F7dLYOKdCfINDgeyJL/DPsjgq5pxqFm02dBl0GBOf+I/Z8hDbrovftDXaDnoYC5sNPULwd676nQT5D+DT4W0r5ugDQaMgbaApnSNm7cOAyOHQo1DP6pvw3PheLY0v326NFDX3To90NHWYSDQzj61Hmy39rn3RSHWkL8Gk8E9PeIa/wT1p8bGhC/F5qKjHv92XQJFHXrMvC+DZvmjsxJ793lWK9Ncm0JvkG2BO+RYnPhZ5xNsg8/QDxOfb8d+M+81mWv071dEhIflSnveFAY338xT7f66bwivAF4YOmtQ2dlpKWeUFNW7j35zjUrbbKmfie1XfFrCwQYuG8BEC/XJ+BwODQjJK3+WXMcsUyOOZ4DvSCBmCGQnGFk1Ccg816q9G94WFUx/txOFs/xSMLDdVr8EJg0eapmVWr2JY0ESCD2CQyI/Sm2eoaHo+UbkJaW0UDDWuhdaJVfei4PsoJp0ER/eB8GaUB+NRQctMehUfdey9YshTQbSOeulg4NhTSA/Q70I4R6wPXs03pH9Q+qcbgO0uCNssyDboP0byu1bKjhCwbjghm+nHTSSbNff/31PDP4YhEflNXtFvGVbpIACYSHwH/Qrb6g1Qxz/STXVMj/R+Uemfi4FDXz9R05T39GfYgfTR/9/Mb/uniSff2SOiedl5DsuTYlqbSz11OjPz93G8LvrhrvGz57ws/Gara7r9TtaTDfJ0s9COl/rK8s8H8G7evotG2Hgfu28Yr71osWzpkBCFPMBqLQVSSLyt+Tp/vqJ0xpJEACJBAaAp7Bf5eET2bV/poR9OuKnqeRAAmQAAmQQBwQ+BJzvBl6CfrewvPVDOhlkGa3q/WA+ht7u7+kYFfbaQD+WOhRaCuUDz0OXQxp0F5NMwo3GHu7v+AjeY2aBv2RuSiB64HfKPR8IJChmf7KNxDIxy7NqgR8Pt9gq/pOv0mABEJCYF/0cgD0EKQvabdDprXgjHn8UCrBT6aSefNGfjmy985/by20/cHuKz9DHMnHSELyIVigNsPj8u0Um/vlA8a8U4bPjwV+ju0xP/yw8xmfM9jjCk+0hQAD922hxbamJZBfOlfGdBktKTb9fZtGAiRAAiEiYGTdj0fwHr9zefCJ58QkZOEj8ZrZ9iECbJ1usrOyNHhDIwESiAMCdrtdP95O201g+u5dS+7tDa9TIQ3ab4ZWQoHg+cPYnwSpnQq9CWkQIg16GZoD3eDf17I6dsgLNTQtI9NUqZuDcO0PDW5Qf46ANMtRbQCk/umnAExn+G+iycCM6Zw1gUO5ubn6PUYjARKIXwI/YOonQb9aDcHuYHttLXqkzb+y5tFjXu+a3KmrI9mzty8h4WS3y5npk8Q1uwP+Vpultfxl4N5azyvq3m4qLErr308TUcxl+SUvyqze95jLKXpDAiQQEwTqZd3j73xm28fEY23zJObPmz0rNb17m+/jDSRAAtYjkJOTs856XtPjZghoZvxx0KXQImijX5oFr2V/DoE2QRq4fx7SDPvfQtp2LPQxNAS6DtLz10PzIbUJ0FXGnshk/7bhZi1OXO4/eTK26ofanyEtnWN683pR+ZhGAiRAAiTQFgKWC9o3Nrna4PwaZLAZL6f1BfWqxtrxXPgIMHAfPrYx2fPYcRMmLl/8qqnm9n75Ukm3p8mJaSeYyi86QwIkECME6rLuH2S2fYw8Uk6DBEiABEggrghUYrbfQjdD7qCZl2J/KOSEAjWINUCt2dK7oGDT7HuV/v0c/De01i3WrP3gfnEo/4EaC8prEF+z/q9t4jpO06xOAAtcr8AC14OtPg/6TwIkQAIkEH0Cwb90RN8bekAC7SBgLErbeVQ77uQtJEACJFCfQHW1U0pKSqS4GNLtzmJsS6WyOFNOde0nSz7PlLRfXpSszC6SmZUpKJ8iWdhmZmaKw5FSvzMexRSBFQVresTUhDgZEiCBJgkg6LYWQTeWy2mSkGUvNAyu60Q0qB8wLQejahi0D1zXrfbRsJ+Gx9pOF+1tzCpwUjP+abFNYFBsT4+zIwESIAESiBQBBu4jRTpGxnE4HPrLrdZ8NIUVe0skv2Su/PeQO0zhD50gARIwNwEsFiYFq1bLKqigYLVs2fJrbYAegXoN2FdWBtaNa2oetzZ1QdLSUo0AvgbysxDI79Wrp5xwwrFy/PHHygmQDZ8zpFmXwKTJU8fD+yutOwN6TgIk0AYCA9rQlk1JgARIgARIgARIgARIICwEGLgPC9bY7XTRwjkzMLspZpnhnGIsSps5SrITssziEv0gARIwEYHNm7cYgXoN0hvBegTsXS4t0de4paSkIPjeRbKzkUmP4Ltm1Qey6/VYs/BLjGz8Uv+2RHYiK79Es/IR9FcVFekn4GvtpZdrS4slJSUZwXsjiI9gvgby99qrV6AZtyRAAiRAAiRAAiRAAjFCAIkiLJMTI8+S0yABEiCBaBNg4D7aT4Djd4iAlsm5vcctHeqDN5MACcQWgddef0NefXUhAvafyMaNP+wxuSOOOKwuiL7//vsaAXojSx5lbzRrvr2mQXvN2tdAvgb4dezAy4IvvvhKPvxohaFA/zr2CccfJyNGnCN/yM0JnObWpARQFmmrSV2jWyRAAiEmYLfbWSYnxEzZHQnEE4Hc3FxdJ4FGAiRAAiRAAh0mwMB9hxHGVwebCovS+vfra4pJf1xZIBXeSjk9Y6gp/KETJEAC0SXwyvzX5b77ZsmKlbsXuu/cuVNdqRrNcj8e2e6aOR8O06C/qnfvvYzuTzn5RLlk3BhjXwP5q5D1r2V6AqV6NLCvmvP8XBk86Hi5+urxct65ueFwjX2GgMD8ebNnpaZ3D0FP7IIESMDsBHJyctaZ3Uf6RwIkQAIkQAIkQAIkEPsEGLiP/Wcc0hmOHTdh4vLFtaUfQtpxOzqbg9r2YzJHt+NO3kICJBBLBLQcjQbsNSCu1qdPb7kGQfAhQ06WAUcfZYqp6suCYcPOMBRwaN36z2TZsg/lXv/LBn3hoC8XNIB/wfkjAs24JQESIAESIAESIAESsBABLHC9Agtcs1yOhZ4ZXSUBEiABsxKwm9Ux+kUCzRFw+pyiZXLGdBnVXDNeIwESiGECL859WU46+QwZM/YyI2i/99795K4Zd8j3Gz5H4P5K0wTtm3oE+lJB/VR/1W/1X18+6Hx0Xjo/mnkIrChY08M83tATEiCBcBJA0G1tOPtn3yRAAjFPYFDMz5ATJAESIAESiAgBBu4jgjl2BnE4HJVmmE0+su2HZZwhfZJ6m8Ed+kACJBBhAg888Ij837jLZfWatbLPPv1l5l13ynffrpMJE66IsCehGU79Vv91HjofnZfO78EHHw3NAOylwwQmTZ46vsOdsAMSIAGrEBhgFUfpJwmQAAmQAAmQAAmQQOwSYOA+dp9tWGa2aOGcGWHpuI2dapmcizKZbd9GbGxOAjFB4Kmn8+UfE/9pzOWeu6fJt19/Klde+ZeYmJvOQ+ej81L7+/U3ydPPzImJuXESJEACJEACJEACJBAPBHw+H8vkxMOD5hxJgARIIAIEGLiPAGQOEVoC652fy0+uTZLb6ezQdszeSIAELEFg8uRbDT9vv+0WGT/+z5bwua1O6rx0fmqB+ba1D7YPLYHsrKytoe2RvZEACZiVgN1uH2hW3+gXCZCA+Qnk5uauNL+X9JAESIAESMAKBBi4t8JTMpGPmwqL0qLtTn6xLkrLbPtoPweOTwLRIKCLuW7fsUMOO+wQuWHitdFwIWJj6vx0ntu2bzcWsY3YwByoUQLz582e1egFniQBEog5Ajk5OetiblKcEAmQAAmQAAmQAAmQgOUIMHBvuUcWXYfHjpswMboeiMwp1cD96Gi7wfFJgASiQOD5F+YZox588EFRGD3yQwbm+fwLL0V+cI5IAiRAAiRAAiRAAiTQZgJY4HpFm2/iDSRAAiRAAiTQCAEG7huBwlPmJfBC6Usy0HG0HJi8v3mdpGckQAJhI+B2u42+Cwo+CdsYZup45cpVhjseT+28zeRbvPmyomBNj3ibM+dLAvFKAEG3tfE6d86bBEggJAQGhaQXdkICJEACJBD3BBi4j/tvgbYBcDgclW27I7St87EoLcvkhJYpeyMBKxHo06e34W5R0WZ55533reR6m3196613ZPPmLcZ9e+/dr83384bQEpg0eer40PbI3kiABExMYICJfaNrJEACJEACJEACJEACcUKAgfs4edChmuaihXNmhKqvtvbznXOjrK1aL3/sckFbb2V7EiCBGCGQmJhYN5PhfxglCxa8VXccSzuvvrZQRpx3YSxNiXMhARIgARIgARIggbgg4PP5BsfFRDlJEiABEiCBsBNg4D7siDlAqAjkl74oF3FR2lDhZD8kYGkCJ51U+wnkC0aNlTFjL6vLTLf0pOB8YWGRjP7jOEM6l1NOOdHqU4oZ/7OzsrbGzGQ4ERIggWYJ2O32gc024EUSIAESaIZAbm7uymYu8xIJkAAJkAAJtJoAA/etRsWGSmBTYVFatEhomZyLMkdGa3iOSwIkYCICpw79rTz7zGPSo0d3eenlV+XQw4+Rq66+Xj78yJprgX2w/COZcNU/ZL8DjhTNtu/Vq6fkPzdbhvz2ZBNRj29X5s+bPSu+CXD2JBA/BHJyctbFz2w5UxIgARIgARIgARIgAbMSYODerE/GpH6NHTdhYjRcW7DrLemf1E8GOI6KxvAckwRIwIQERo08T77+co1cc/WVUlVVLY8+9qScfsY5RvD7n5NvlWXLPjSh17tdUv8m3TRF+u97mJz5u1x57PGnjIvXXvM3Y14XnD9id2PukQAJkAAJkAAJkAAJWIIAFri2ZiaJJejSSRIggQ4QSMW9B0O2oD72wX5jCboJQW0Cu7rgXJfAQdBW69n2DDruhf0MyAH1DTrf0q76ldRSo3i7vrtYcLzNnPO1FAGWybHU46KzJBAxAhkZ6TJ92u3yz39eL88++7zcd//D8vPPm+Suu+8zlJrqkFNPHSJnnn6qnHzyYDnqqCMi5lvDgT777AtZvvxjeff9JbJ06QfGy4ZAm/7995arJlwhF198oWR2aex3oUBLbqNFYEXBmh7RGpvjkgAJRJYAgm5rhw8fznI5kcXO0UgglgjU1nSMpRlxLiRAArFA4CZM4hbo31AVtBp6CfoOehdSew6qgD6ALoHehwKmC8w9Cj0YOOHfHobteigbGgrdCb0DbYNuhc6DvoK09OgCqKGpP32gVdBnUBZUAtFAgIF7fhu0iYDD4ajEDY29jWtTP21pXOgqkkXl78nTfR9py21sSwIkEEcENNh91YS/Gpr/6gJ5+eXXZMmSD2T7jh3y5puLDCkOhyNFjj7qSDnm2IEy4Oij5JBDDpJePXuIBs5DZT/++JP8unWbfP31t7L+s89l9SefymeffyHV1c56Q3Tv1k1OO22IXHDBCMkdfna9azwwH4FJk6eOh1dXms8zekQCJBAGAgPC0Ce7JAESIAESIAESIIFoETgcA2vQfh50DfQlNBrSAP430I3QbZAL+hmaD70HjYIOgdT2hXIgDdCrPQDp/ZqJr3YM9A/oIEjjzW5ITc9pwP8F6Gn//uXY3gXdA+2C3oJOgGgNCDBw3wAID5snsGjhnBloMaX5VqG9ml86V8Z0GS0ptpTQdszeSIAEYpLAuSOGi0pNs9wXL1kGfSBrVq81AvkFq1aLqqF17tzJqJnfq2dPSUtPk/Q0SLfp6ZKG/bS0VKmsrIIqpaKiAsIW+5XYbvn1V/n1161SVlbesNu6425du8qxx/1GTjv1t9AQOfJI/d2JRgIkQAIkQAIkQAIkEEsEfD7f4FiaD+dCAiQQEwSKMQsNxnf2zya4FI6WtlFbBn0LZUCvQguh7dBoKGCaGX+0/0BL75wO6csANc3a10C/mmbOa0Be/zCfBeVD+gKgB6TWE+oEdYP2h2hNEGDgvgkwPG0eAvklL8qs3voSjkYCJEACbSOgpXFUWjderbCwSNav/1w+Xbte1q3/TH76aZMRcNeg+65dZYY2bPi+bYM0aN0TGfyqfZDFP2DAUfKbgUfL0UcfKb1779WgJQ+tRCA7K2urlfylryRAAu0nYLfbWSan/fh4JwnEPYHc3NyVcQ+BAEiABMxGoAgOTYd0DY7Xgpz7IWg/EFQfgXPPQhqE15I3F0BqWg5HM+eDS+Xoy4BrIQ3a7QfdD+lLAc287Q5tgf4FaeBeM/PPg9QCJcU0y15fKtCaIMDAfRNgeLpxApsKi9L692vL2hKN99Pas++XL5V0e5qcmKb/LdNIgARIoGME+vTpLaqzzx62R0fbtm+XbVu3G1n55cicr6yqMrLqq5BlX1FZYZS60VI76Wnpkorse83GT0tNlYxOGaLZ9D16dje2e3TMEzFBYP682bNS0/V3TxoJkECsE8jJyVkX63Pk/EigLQTwMsvXlvZsSwIkQAIkYGoC9ha8ew7XNQg/Gvot1A9SOwrS0qFn6gHsEUjL6VyvB7AnIC21ox8tz4bUMqESY09kMbYbIAd0DvQrNBn6ENIAP8tsAEJDY+C+IREeN0tg7LgJE5cvfrXZNqG8aCxK2znwSZtQ9sy+SIAESKA+Aa05r6KRAAmQAAmQAAmQAAnsJuD1em27j7jXEgEscL0CC1yzXE5LoHidBEggWgQqWjHwbWijQXutW78DGgnpJ5ADZXGwa2TKa3A/kN2rmfbafhukGf5qbigQe9aA/bHQzVCwleNAXwbcB/0ClUI0P4EAPAIhAdMRKPaWSH7JXPnvIXeYzjc6RAIkQAIkEF8EVhSsCXx0NL4mztmSQBwSQNBtLYJuLJfThmdvs9mmTJ8+PaLrYLXBPTbtIAE837wOdhFvtwdKQMTbvDlfEiCBVhDIy8vz4memE9s0qLIVt4SqiWbDl0F/9Heo+1pnXk339XrANLtea95rIP5/0N+hGyAtjfMmdAn0OTQGuge6FroOGgJpHf2zIQ3ka6DfCR0MfQvp2F5I+70Megu6AHoMegX6Corop7z0OWBM9dGUxsC9KR+LeZ1yOBz6j4p+U4fd5hRjUdrMUZKdkBX2sTgACZAACZAACTRHYNLkqeNx/crm2vAaCZBAzBAYEDMzicBEbrzxxjwMo4oX0+CC2l9qN6b6OgfenAdpGYSvoQ+hj6DVkAZeaCRAAiRAAuYg8BPia/vClS8j5E4OxtHseC2hcTGkPxu+hzTI/gfoPf+2Gts3oKuhT/2aiG0V9CxUAWkGvgbxtZ+HIA3+a+D+cEiD8fox9h6Qmmbj6wK3mkWvgfuZ0ElQsL0UdLAS+4ODjsO+638OP4V9oHYO0FJdo3Z2y9tilcCihXNmRGpuWiZnTBf9d4VGAiRAAuYh4PF45Pvvf5Ay1MGnkQAJkAAJkAAJxBUBDU78n1+BLEUzAZgMZzTDMQk6CtIXzg9CayANuiyHaGEm4PP5Ihp0CvN02D0JkEAYCOCTTJ9Cx4eh66a61NI1G6ER/gYvYKtBcg3Oq+lWj7VdL0gD8Prz4zfQdEiD/FrKZhV0JjQWOgD6GtJgv5q+PNaAfg30GjQbUsuD9KW3BvOvh/TfSNXZkNpFUOCcZu3r+BEzfQ76PCI2YBsHYuC+jcDYPDIEPq4skApvpZyeMTQyA3IUEiCBuCdQVLRZUlK71tOfLhsvP/64++X7M88+Lz332k+OHzRUuvXoL78dMkw2bvwh7tnFA4DsrKyt8TBPzpEESACpynb7QHIggSYI/DPofPB+0Omo7uovJS838CATx1p24BfokwbXeBgGArm5uRr8opEACZBAkwTwgu99XPx9kw1Cf2EtutRAu77E1YD5A9BD0LOQ2hOQHmu7QyH9mTEX2h/SoPYGSP8w1oz5QdBn0LlQsP0RB89Ds6ALoCug/0AawL8E0vm+E6QXsV8GPRJ0Tq//Doqk/d7/PCI5ZqvHYuC+1ajYUAlsKixKiwSJOahtPyZzdCSG4hgkQAIkUI/A9xs+l53bN8nG7z6TDRu+lwcfqv1E/OLFy+Qvl0+QuS88I9u3/iSFv/xP+vXrK6MvHFfvfh7EJoH582brL6A0EiCBOCCQk5OzLg6mySm2nYBm2GsmYLJfum/GrPs74Fcg+xG7RpBmArYHQn/XEzQSIAESIIHoEkhKSnoFWd4XoNZ9JLPLtfRnH+itoNlvwv5BUHCS0hIc94f0I+bzIK1HfzF0G6SB+QJoKBSoyPEV9nUeGojvBunPITfkge6BtC/9o/oZqHMrpO0iYspfn4M+j4gM2I5B7O24h7fEMYFb8mbkhnv6Tp9TasvkjAr3UOyfBEiABPYgkJ6RLunpadK3bx/54+gLZPlyLf+HVIFpd8n55/1BTjttiHHcrWtXuWfmNPlDbg7L5hhEYvsLMnB9sT1Dzo4ESIAESKAFApphbwtqo/tmzLrXLEjN5FQrgTQD/1boVIgWAQJY4HpFBIbhECRAAhYmcN111+m/z/dD10dwGhqI14B6sOnxd1DD897gRo3sFwed03t/hVxQTdD5wG5w28A5s2yV//3+52EWn+r5wcB9PRw8aIlAYkKCx+1u+N9zS3e17Xo+su2HZZwhfZJ6t+1GtiYBEiCBEBBYtOg9eeONt+XRx56U+x54WM4//w9Gr2vXrpfhw88y9nfs3Cna7tNP18nxxx0j1c7gxLYQOMEuTEXA6/XKe+8v28tUTtEZEiCBsBFA0G1t2Dpnx1YloJn1mq2u2fYB032zZt3fCd+0/IB+WvpqaBK0EPobRAs/gUHhH4IjkAAJxAAB/bf68hkzZmh9d1qECfi5X45h9TmY1hi4N+2jMadjickJlbowYzhNy+RclMls+3AyZt8kQAJNE3j55ddkzvPzZM2atTLzrv/IdddOEA3c6mK0mV26GDduLtoiWu9elTtitKxf93nTHfKK5QlUVVXJ0/kvnWL5iXACJEACrSUwoLUN2S5uCGhmvf7tXAn97JfuJ0JmzLr/EH5tgCogzXTU8gUaTL4E0sUGaSRAAiRAAlEmcMMNN2xBbfVroEfuu+8+LSFDixAB5a3clb8+hwgN265hGLhvF7b4vemR+6Y/mZKSEjYA652fy0+uTZLb6eywjcGOSYAESKA5Ao8+er/kPzdbHnn4PjnrrN9JYmKiLlQoRx55uCxe8oFx6xFHHGa0ue3Wm5vritdihEBFZZXYfHZnjEyH0yABEiABEmgbAc22vwDSYLiWm3nSL91fDuk1M9a6fwh+zYQCplkGGrzPgJZA+0K0MBBAIIjZs2Hgyi5JIBYJ3HjjjU/i34yF1dXVrzJ4H5knrJyVt3JX/pEZtf2jMHDffnZxeafN7tM6XGGz/GJdlJbZ9mEDzI5JgATaTeDK8X+R51+YJ1988ZXRx+bNW2T6jOC/h9vdNW80OQEbShp36pz+i8ndpHskQAIhIoCXtQND1BW7iQ0CWnJmKKSB+lVQwHRfzw2FtI3Z7HE4dHsDp/Sj0+Ogt6GVUA5ECzGB3NxcZUsjARIggVYRQPD4nwgir0Qw+UOWzWkVsnY3Ur7KWXkr93Z3FMEbGbiPIOxYGGrB6+85duzQT1uGx+aUauB+dHg6Z68kQAIk0AECl4wbI5eMGyvHHHeK9N37YNlnv8OlpsYlF5w/ogO98lYrEOjevas8cPcdD1jBV/pIAiTQcQI5OTnrOt4Le4gxAoXNzKe5a83cFtVL0zD6n6GnoIkQjQRIgARIIIoE/MH7mQgoL5o+ffp/oV5RdCfmhlaeylX5QjOtErTXB5EYc0+DEworgSfyX/y9L0kkF+UjQm0vlL4kAx1Hy4HJ+4e6a/ZHAiRAAi0S6N17L3FW7WiynZbL+fftt8g/b7pefvmlUPr37yfhLB3WpCO8EBUCtiTb5qgMzEFJgARIgARIIDwEFqBbLZ3zBHQY9CfIB9E6SAALXK8YPnw4y+V0kCNvJ4F4I4Bg8pMILr+FeU+CCqdNm/YStm8j0LwKWeI/5OXl6doqtFYQAKs0h8Oxr81mOx7Nfw9pWbv7oYPA2dQ17eFjPWPgvh4OHrREoLqyeqO7JjyL0+ZjUVqWyWnpCfA6CZBAtAmkpaXKQQcdEG03OH4ECfz4089y192Pp0VwSA5FAiQQRQIIuq1F0I3lcqL4DDh0xAhsxEhDoFmQlnfR4P2XEK1jBPSFCI0ESIAE2kzAv1DqtTNnzsxzuVznIfB8BgL3N6SlpfVHUD98C0622VPT36Drk/0Efp9qln1SUtIV1113XVhLf4eLCAP34SIbo/2WlldsdLvcFZheeiin+J1zo6ytWi8L+s8NZbfsiwRIgARIgAQ6TGDBwveq1n352W/RUUGHO2MHJEACViAwwApO0kcSCCGB8ejrKigQvJ8Xwr7ZFQmQAAmQQBsJ+IPM+okolWHIIme58wCMFrZg5W2hiWUuM3BvmUdlDkfXrFz++Oglr13qE9+JofQov/RFubDLyFB2yb5IgARIgARIICQEtu/YuStJvMxADAlNdkICJEACJGBSAlpC4CtIg0RaOudWiNYOAsjuZJmcdnDjLSRAAs0TiKVgdPMz5dVgAnxbE0yD+60i4BWf/kIXUjPK5GSNCmmf7IwESIAESIAEQkGgqqp6p8+X8m0o+mIfJEAC5ieANU1YJsf8j4kehofA++hWy7yoXoRC+ilr9BcXlpubq59coJEACZAACZBAhwkwcN9hhPHXwepP1hZVVWu5qNDYgl1vSf+kfjLAcVRoOmQvJEACJEACJBBCAjPunPzQxx8v1jrANBIggTggkJOTsy4OpskpkkBTBHQx9rOgXyANQB8H0UiABEiABEiABKJAgIH7KEC3+pBTpz90wtKly0M2DS2Tc1Ems+1DBpQdkQAJkAAJhJSAzWtbE9IO2RkJkAAJkAAJmJ/AP+DiPZAG78eZ313zeIgFrleYxxt6QgIkQAIkYGUCDNxb+elFyffikq3Lfyn6NSQLPRS6imRR+XsyhoH7KD1NDksCJEACJNAcgTVrPnMPOeP8suba8BoJkEBsEUDQbW1szYizIYF2E5iNO0+GJkHT2t1L/N2opYZoJEACJEACJNBhAgzcdxhh/HXgcSYvt3l9ISkZkF86V8Z0GS0ptpT4A8kZkwAJkAAJmJ7Ay6++sU2k5hDTO0oHSYAEQklgQCg7Y18kYHECmj2ugegDoAVQD4hGAiRAAiRAAiQQAQIM3EcAcqwN8ckniz+4/PL/eyYU88ovYZmcUHBkHyRAAiRAAqEnsHNniRT9urX0448/fjX0vbNHEiABEiABErAMgVJ4ej6k6z9oIH8IRGuCgM/nG9zEJZ4mARIgARIggTYRYOC+TbjYOEDA5fG+F9hv7/b98qWSbk+TE9NOaG8XvI8ESIAESIAEwkagqqpakpMS38EA7rANwo5JgARMR8Butw80nVN0iATMQeAWuHEz9DY03hwumc+L3NxcXReARgIkQAIkQAIdJsDAfYcRxmcHp546Ytc77y7b0ZHZG4vSduaitB1hyHtJgARIgATCR6BPn16bnn7iiWvCNwJ7JgESMCOBnJwczSqmkQAJNE7geZzW0jl/hu5vvAnPkgAJkAAJkAAJhIIAA/ehoBiHfaSnJznnvfr6rvZOvdhbIvklc+WiLAbu28uQ95EACZAACYSXAD7q/np4R2DvJEACJEACJGBJAuvhtQbvM6H3oX0gmp8AFrjWckI0EiABEiABEugwAQbtOGKBAABAAElEQVTuO4wwPjtYvHjxxl2llV8vem9ZuwDMKcaitJmjJDshq1338yYSIAESIAESCCeBteu/kJvzppeEcwz2TQIkYE4CCLqtNadn9IoETEXABW8uhrSEqgaqz4JotQT0pQaNBEiABEiABDpMgIH7DiOM3w5+2bLlwa5ZXQrbQ0DL5IzpMro9t/IeEiABEiABEgg7gXffW1667IOCrWEfiAOQAAmYkcAAMzpFn0jApAT+A7/+Cj0H/cOkPtItEiABEiABErAkAQbuLfnYzOH06o8+ePPYYwY83lZvPq4skApvpZyeMbStt7I9CZAACZAACYSdQGlpmXz51Te/lpVk54d9MA5AAiRAAiRAAtYn8BqmoFnmI6DZ1p9Ox2aAUnuDO9YD7yYBEiABEiCBWgIM3PM7oUMEvJLwdFs7mIPa9mMymW3fVm5sTwIksJtAZWXV7oMY3ouXeZrtESYnJ0mXzKyp33wzv0OLsJttXvSHBEigdQTsdvvA1rVkKxIggSAC32H/FMgNaemcw6C4tNzc3JVxOXFOmgRIgARIIOQEGLgPOdL46vDUU0f4bv333d+2dtZOn1Nqy+RwUdrWMmM7EiCB3QR+e8pJxsHbi97dfTKG9wLzDMw7hqdqqqmlOhxzH3no/mdM5RSdIQESiBiBnJycdREbjAORQOwRuAJTegHS4P0FsTc9zogESIAESIAEIkeAgfvIsY7JkVauXPrjN//738Y339I1iVq2fGTbD8s4Q/ok9W65MVuQAAmQQAMCQ4acLN27dZOvvvpGps+4p8HV2DrU+ek8u3XtKjpvWmQI/PLLZvHavA9HZjSOQgIkQAIkQAIxSeBezEqD9jOhW2Jyhs1MCgtc60sLGgmQAAmQAAl0mAAD9x1GyA5++WnrU6tWf/5La0homZyLMplt3xpWbEMCJNA4galTpxgXbvnX7TJrVpuX2Wi8U5Od1Xnp/NQC8zWZizHrzoMPP7H5tNNG8fejmH3CnBgJtEwAQbe1LbdiCxIggRYI6Mcjte69Zh88D6VB8WI6bxoJkAAJkAAJdJgA/zDtMEJ2sGrVsnlXXPbHa1sisd75/+zdB5xTVfbA8ZMwDL0XQVGwAAqKQ1XEAop1YGRdu6KI3bXs2lb9WwZ37W1t69oRsO1asCAWFFRgkOJgwQKCIKCA9F6Gyf+cN8k4mV6Sl/eS3/VzJsnLe7d8X4IzJzf3fSOLdiyWrEYnVLQrzyOAAAJlCpx7zpny4P13Oc//9eq/S+f9esi///10mfv76Qkbh43HxmXlgfvulGHnnuWnIfi6r59P/kIWLV4yJydn4se+HgidRwCBmgpk1LQCjkcAAUdgqf48VmOZhs1C76VBQQABBBBAAIFKCpC4ryQUu5Uv0GHv/V8PSajcRadfXGMXpWW2ffmSPIsAApUR+MtfLpJRLzwlvXp2l4ULF8nfrrlBOnbOkMcee7Iyh3tuH+u39d/GYeOxcdn4Lr/8Ys/1NZk7NOf7H+YuXrzs+WQeI2NDAAEEEEAgAQJ/0zYf07Dk/TkJaN/VJkOhUF9XG6QxBBBAAIGkFQgk7cgYmOsCzz//zPC9927/7EG9e5TadrsfOsvEvd6Tjul7l/o8GxFAAIHqCLz2+lh55JEn5IvpM53Dd9ttV7nqykuddeEzDuxWnSpdOWb2V1/Lp59Oloe170uX/uq0eVCfXnKl9v3kPw9xpQ80Ei0QlOCA2vWaTYreyiMEEEg1gXHjxmVwgdpUO+tVGm92eO/IbZUOTvGd++n4n9N4Q+PGFLdg+AgggAACCFQoQOK+QiJ2qKxAn759jz2wW7en/nX/7XukpaVFHfbKutfELkz7Tvv/Rm3nAQIIIBArgTfefNtJ4OdMm15YZePGjaSPJsMtIW7R56Be0qxp08Ln3bqzZu1amf7FTOfDBfuAYbrG+vUbCpvve3AfJ2F/0p+yCrdxxz0BnRkngUBwVJ16zc91r1VaQgABBBDwqUB2uN+RW58OI2HdbqYtW/Levv1/vsZKDQoCCCCAAAIIlCJA4r4UFDZVX+DYzEFPDck87vzh550RtQzT4EWnOsvknN7k5OpXzpEIIIBAJQTeenucjB37ribJZ8j8+T+XOGL//bsUJPE1kb/33ns6ifzmzZtJU03o169fr8T+ld2wefMWWbNmjcZasUS9tW0JekvUf/vtdyWqsbYP6tNbhgwZJCdmZZZ4ng3uCYwc/d/86TNmXvjs089aIoGCAAIIIIBAeQLZ4Scjt+Xty3NlC9yhT9k6qpa8/6zs3fz3jF7gOmfw4MEsl+O/U0ePEUAAAc8JRE+L9lz36JDfBLZtyr+1YaMG+drvwoWZ522bL7lbvmK2vd9OJv1FwKcClgSPJMJ/+21ZwSx3ne1eNIluifRnnxtVYoR16tTRBH4TsUS+zcxv2qyp3jYJ3zZ1EvJrncT8Oim4XSurV6+RtWvXybZt20rUF9lQu3btwg8LDtJZ/zb7v23bNpGnuU2gwBczc2XSpMlzFi38+dMEdoOmEUDAQwKadMvVpFt3D3WJriCQjAL/p4OymQ12nbSrNP6jkSzl4GQZCONAAAEEEEisAIn7xPonXeuTJr23TOOS005Z1VFXHjjSBvjiulfljCanJN1YGRACCHhfwJLjQ04c5IT11pZEiSxV84Um85ctW+4k422W/FqdJW+z5pcvX+FEVUdns/Vt1n4zJ9nfVNq02UUsSR9ZqicQ4EtuVTV1Y/8PP5q0ZP7CX56ePnXqfDfaow0EEPCFQIYvekknEfC/wIs6BEve2zfeumhcqUFBAAEEEEAAgbAAWQReCnER2LZtdbdpOTO/OvigntJxbob8b49RklHXuxeJjAsClSKAgO8Etm7d5iTwLZG/Wpe9KTq7fv24m6Rx5p2Fs/CbhWflW6LeEvZ169bx3XjpsAoEAwfWqdP8aywQQACBiIDOuA/pjHv+ToqAcFtcIDu8IXJb/HkeV13Afomy5H1rDVs65xcN35a333774KysrGm+HQAdRwABBBDwjAAz7j1zKpKrI717n76sS5fWuVPTp3Vv33R3kvbJdXoZDQJJK2DJd5spb1G8pG+6SbZfXrgKWPGneewzgR07dkh6evrl6STtfXbm6C4C8RcIBoMskxN/ZlpAoKiArTd4loYtn5OjYcn79zV8WUja+/K00WkEEEDAkwJBT/aKTvle4OuvP1zxyy+LH3pi+bOb/lxviO/HwwAQQAABBJJHYPXqtXLb7ff92G9g1vjkGRUjQQCBWAlkZmbOjlVd1IMAAlUSsAvWXq7xssbVVTqSnRFAAAEEEEhCARL3SXhSvTKkqQ9+OnFxu1/Szmt79iyv9Il+IIAAAggg8MSTI1d8PnXWazMmT16ABgIIIIAAAgh4SuBN7Y1d3PXPGs94qmeV7Iwut2XfGqAggAACCCBQYwES9zUmpIIyBdJkaEhCI+sG6pwjAVlT5n48gQACCCCAgEsCubO/3fDl1998MH3qpJtdapJmEEDAZwKadMv1WZfpLgLJJvCjDqifRkhjisa+Gn4q9sEDBQEEEEAAgRoLkLivMSEVlCMwVJ8bXadOi+/uve/fj7z+xrvl7MpTCCCAAAIIxF8go/v+p747NmNY/FuiBQQQ8LFAho/7TtcRSCaBC3Uwr2nYDPaTkmlgjAUBBBBAAIHKCHBx2soosU/VBWbI0TrLfpP0cmZIyAcffDBq1z32OHbnzvyDTz0lq+r1cQQCCCCAAAI1EPj22x+ky/6dz61Xt6VvL3ZXg+FzKAIIIIAAAn4VeEg7/p3GcxpdNP6p4ekSCoX6erqDdA4BBBBAwDcCzLj3zanyWUeDMlR2yphIryfrOsI/LVp6/fgPPpmxaNGSyGZuEUAAAQQQiLvA+x9OlHsffDz3iCNOmxb3xmgAAQR8LxAMBrv7fhAMAIHkEvhAh2PLzxyh8ZJGXQ3PlqysLH7f8OzZoWMIIICAvwQC/uouvfWFwNfSTLbLao0WcojeFik9Dzus7ZQPxp4aCMi/imzmLgIIIOB5gfR7Wsj2v6/yfD/pYLTArNyv5V8PP/ntT0t+u+zLKZ9+Hv0sjxBAAAEEEIgW0NnStq56zEtAS8wrTc0KH9ZhWwJ/uMaXqUnAqBFAAAEEUkWApXJS5Uy7Oc7tOts+IKOLJ+2tC7M+//y3uvVbPLx96+ods7785vEe3fd3s2e0hQACCCCQYgK9ehz4lyWLf5n65dSps1Ns6AwXAQQQQKAaAj/99JM888wz5R75f//3f9KoUSPJzc2Vzz77rNx9Dz30UOnZs2e5+/BklQSu0r0v1rB178/XKPyWt973RNELXOcMHjyY5XI8cTboBAIIIOBvARL3/j5/3ux9QBP3+XJTeZ3rd9jp73TYs/mwQYOO7n36KUPK25XnEEAAAQQQqLLAwoWLZY8O7XRN+xajqnwwByCAQEoLaNItV5NuLJeToq+CFi1ayAknnOCM/oorrpBhw4ZFJd7POussuf76653nP/30U/nxxx9l4MCBpWpNmDBBbAI/iftSeWqy8Uk9uOi69+X+7VmThqp5rC3rQ0EAAQQQQKDGAiTua0xIBVECM6SfhKSB9JaPorYXezBjxoeLazUZeO7Ytz/8V5vWrQ7pf0S/hsV24SECCCCAAALVEnj0389uzZ397XsLF8x/s1oVcBACCKS6QEaqA6Ty+Js1ayaHH364fP311/Lzzz/LX/7yF0lPT48iqV+/fuHjXr16yZAhQ2T9+vWF2+xOkyZNZO3atbJhw4ao7TyImYAtf3eQhl20dqyGLZ0TtUyrPqYggAACCCDgawES974+fZ7s/FDt1ejK9GzahAnf9+/fP7P/gH6ddIb+C3pMr8ocxz4IIIAAAgiUJrB9+w65695Hfv9q9ncTxo2bN0xkzvbS9mMbAggggAAC5QnMmTNHLr74YnnkkUcKk/Y2c37BggViSfu6daOvjTpv3jzp06ePk/C3emfMmCE2254SdwFL1NvXt+/UsAvCWvJ+skZCi75WWCYnoWeAxhFAAIHkESBxnzznMvEjmSd1ZJ0uk5MnnSvbmUmTJuXVqdPiO/3l5uCxY/83vkG9+kcfcQS/51TWj/0QQAABBP4QSE9PeyFn6swnJk788Is/tnIPAQQQqJpAMBhkmZyqkSXV3ldeeaWMHDlSHnzwQWeZHBvc0qVLnaR8hw4d5IUXbL5RyXL88cfLq6++6jxhy+lQXBWwpXJs6ZxPNC7XeEojYSUrK8s+RKAggAACCCBQYwES9zUmpIJCAUvaB2S8HCxLCrdV8k4gENjZo++hj3TcY/ddliz7rdtZp51UySPZDQEEEEAg1QUmfPy5HD3w8MvT67Z4PNUtGD8CCNRcIDMzc3bNa6EGvwqcfvrpztI348aNk2uuuaZwGLYcjhWbSX/wwSxhXgjjnTtjtCtF173/q3e6Rk8QQAABBBConkCweodxFAKlCIQ0cR8S+4WpWuXLnMnvLvxt6cnjxk146vdVqyZXqxIOQgABBBBIGYHc2XPk+pv+sfyJJ0e92r3nYaVPgUwZDQaKAAIIIBALgUMOOUR+/fVXWbdunZx44olRoTOp5dFHHy3RjE5CkvHjx0vfvn2d0Ascl9iHDa4IfKmt2KcqrTU+1Gin4XrR85/jeqM0iAACCCCQlAJpSTkqBuW+QK5kyE5pr6vUj61J41989tk8Xd/g4tf/96ps3bzqmqVLf727bdtd0mrVqlWTajkWAQQQQCD5BHb89/WxE6fmTH9txrSpTyff8BgRAggkSkCTbrmDBw9muZxEnQCPtLvXXnsVrlkf6ZKtc19a6dy5c4mL09p+06dPL213tsVXYKtWf6bGzRqRde8tie9m4SsZbmrTFgIIIJDEAiTuk/jkujq0nTrbvpIXpa1sv+rWb/HAkJNPbdSyefNhxx1zRPvBmcdU9lD2QwABBBBIUoEffvhJ9t2346h82XZbzpSc5TOm5WxJ0qEyLAQQSJxARuKapmWvCMyfP18+++yzqO6UlrjPycmRBg0aRO0XeTB16lQ54IADIg+5dVfgn9qcLZ3zX41sjX9pUBBAAAEEEPCVAIl7X50uT3d2qKTJobHu4djX/pvdq9eAL1etWnVhs2ZNdzn0kD69Y90G9SGAAAIIeF/g408+lw8nfPqbfhPri59++/Xa3M8//937vaaHCCCAAAJ+FZg9e7akp6eX2/169eqJJfNXr15d5n62DyVhAm9oy0XXvb/IjZ7oa6KvG+3QBgIIIIBA8gsEkn+IjDDuAjP1q4i2vn1vOT7ebeVtXZ2ZFwr9bfr0L486qE+PeDdH/QgggEChQPo9LWT731cVPuaOewL6y8rHwy66ZuOCeQvenDbtM9ayd4+elhBISQG9KGkGF6hNyVPvDFqTrqGtW7dKfn6+1K9fvwTEmjVrpFmzZiW2V7RB18Hnb++KkOL7/DNa/b4awzXmxrcpakcAAQQQQCA2AvzyEBvH1K5lhoyXgIzW9e1fcgPioIMO79huj10ebL1L624DBxy+x6ATBrrRLG0ggECKC5C4d+8FsHbtRnnrnfekRdOmk08YPPDWevVaTXSvdVpCAAEEEEhlAUvcx2P8JO7joVrlOq/WI2zte0ve1+jabFVumQMQQAABBBCohgCJ+2qgcUgRgS+kk9SSyZq0b11kqyt3+/Q76rD999un0xOP3rm7SOCs339fuU+rVi1caZtGEEAg9QRI3Ltzzsd/+MmyV199a/36des+X7Nm1b90feBv3WmZVhBAAAEEEKiUQHZ4r8htpQ5iJ88IHKc9eU7jMY0749ErvcB1jl7gmuVy4oFLnQgggECKCZC4T7ETHvPhzpR/6DI5DXSZHJu9kNAy7IILngmEgv3322+vVscNPKpx5857JbQ/NI4AAsklQOI+9udzzZr1Mu2LWbJ+4/o1p/4566VQQN4YMOCk33bUbfL7rEnvrIx9i9SIAAIIVCygSbdcTbp1r3hP9khRgezwuCO3Kcrg62Hvob235P0yDZt9v10jZkX/DQnpvyHkWmImSkUIIIBA6gpwcdrUPfexGvlQrehPsaqsJvWMfOaZC3oPOLbrd9/NPVokuHG//fZpE8rPH/DRJ5OPqFe/Tq0Ou7eT3XZrW5MmOBYBBBBAoAYCy5f/Lrvs0spq2PHl7G9n/+uRJ5vsyJfcJYuWjD9n6PAXalA1hyKAAAKxFMiIZWXUhQACnhP4RXtk660+ojFNw5L3szUoCCCAAAIIeEqAxL2nTofPOjNDTtTZ9ot0tn2uV3o+Y+IHc7Qvc77ImSTXX3u9deufB/c74m+7tm19WK1aafvc8Y8bvtEEfgddubLzpM+mtAjWTpPawdqy//6dpVHDBs4wdu7cKbVq1XLu8wMBBBBAoHICtiTwypWrZOWq1bJ1+w7p3q2rc+Cq1WvXPPbYM9t/W7Fiy+YtW9Y+/5+H/lKv0RPT+vbNztcd7PeQvMq1wF4IIIAAAggggEBMBa7U2i7RiCTvY3LNNv2diGVyYnqaqAwBBBBIXQG+vpWk5746F1VavXq1NG/e3DWRJUuW6Az43UQv1BTVplsXbhp43AnZ9eqmd6oVqN36umsveatnxoGasQ82uPDS686SvB3pP/70835j//fcXc2aNXW+OnnUcafdmKfbrbNsx4HXQ+q9L+re1+q2fh8fuZ1/B0SKvv7ffv35O1u0aLFly7atO8678OozQ3l523XJm9WvvPjktenpgcWBQLO1vXsfOjCU3nDxzCnv/xj1Dz4PEEAAAQ8KjBs3LiMzM5PZtx48Nx7pUna4H5Fbj3SLbtRA4HA91pbOeUXDLl5LQQABBBBAwBMC0RlTT3SJTsRCwBL3V1xxhXTp0kUuvfRSGTlypCxfvrxE1V27dpVBgwbJ5s2bpXPnzjJ+/Hhp1qyZ3H333VH7WnL9oYceKjETfejQobJt27aofYs+qF27trz44ouFm2bNmuX0qV69erpcwi5iyXvbp2hxK3FftE3uI4AAAhUJhLIlFMgW/r9ZERTPI4AAAgggkNwC2eHhRW6Te7SpM7qWOlRL3ts3AW3pnLUaFAQQQAABBBIqQAIiofzxa9wS92vWrBG9KI6cfvrp0qFDB1m7tuB3jzFjxjhJ+t69e8s+++wjPXv2lI8//ljS0tLklVdekfvvv1/mzp0rv//+u5PEt+1Wz+LFiyU93ZlwLkOGDJHrrrtOjj/+eJk6dWqZAznkkENk/fr1hc8fddRR8p///Ec6duzoJO7btGnjtGs73HPPPTJw4ECbgc/rslCMOwgg4BUBEvdeORP0AwEEEEAAgYQKZIdbj9wmtDM0HnMBm8E2RMOS92X/oVtOs3px2hz9+5nlcsox4ikEEEAAgcoJsMZ95Zx8uZfNnP/www+dhP2uu+5aOIYvv/xSDj/8cCf5bhstsf73v/9dvvrqK2dG/QUXXCCvvfaaHHPMMZKdnS19+vSRhg0bFh6/YcMGycnJkYMOOkhs5rwd/8QTTxQ+H7lz8cUXO89HHpd2O3HixMIZ91YXBQEEEEAAAQQQQACBRApo0i1Xk27dE9kH2kYAgYQJ3KAtf6fxmcYlGs9oVLUcXNUD2B8BBBBAAIHSBEjcl6aSBNuefPJJZ4mapk2byttvv13pEdlk92+++cZZFscS+fn5du3A6GIfBpx00kmFM+UPOOAAuemmm6J30kdt27Yt3Gaz8nW9UGcm/3333SetWrWSFStWyL333hu1/E5WVlbhMdxBAAEEEEAAAQQQQCABAhkJaJMmEUDAOwKjtCuWvLelc7poXK1BQQABBBBAwHUBEveuk7vT4FlnnSWWBLfZ8lUpV111ldja+JbAv/baa+WGG26QyZMnR1UxduxYsfojpVGjRvLCCy/I7NmzI5skIyMjap18W8/elubp1auX/Prrr85Fadu1a+esd9+4cePC41q2tKUFKQgggAACCCCAAAIIIIAAAggkTGCmtmwz5y15/76GLZ3zq0aFRVetZZmcCpXYAQEEEEAAgRQWsDXurWhyvOBOkZ9/+9vfQm+++WbhlnXr1oW6devmPLbbLVu2hHbs2BHSNe5D/fr1c7bvtddeIb0IrfNc69atnVt7wu5bOfLII0O6BE9IL4Ab0gR+qH///s72yPPOA/0xYsSIkF7Q1nloba1evdq5b3169913nfspfNoYOgIIeFjA1rj3cPfoGgIIIIBAjAT0W6LMuI+RZZJWk63jsqCkjsCtOtRfNAamzpAZKQIIIICAFwSCXugEffCOQGTdervt2rWrc+Haor2bNGmSs/Z93bp1i2527rdo0UI0US9lzZp//PHHnTX37eK0Rcu0adPkrbfekgEDBhTdzH0EEEAAAQQQQAABBFwXyMzM/ONrpK63ToMIIOBBgdu1T7ZczhsaV3qwf3QJAQQQQCBJBUjcJ+mJLTqskSNHikVlyq233io6e16ef/55Ofnkk+Wyyy6T6dOnFx5qCfYhQ4YUPo7cseVyjj/+eDnwwAOd4+1x0bJx40Z5+eWXnfX269ev7zx13HHHiX0QcOKJJzpL7US2Fz2O+wgggAACCCCAAAIIIIAAAggkWOA1bd+WzjlTI3omWrGO6QWuc4pt4iECCCCAAAIIIPCHgK05Y0vg6JaQzhoKrVy50lmGxn4MHz681KVyPvroo1CnTp1Cn3zySeiHH34I9ejRI3TKKaeE9EK3zpI7toSOLX2zfv36wrqKL4VT+ITesaV1NIFfuEkvdOvcz8vLC02cODE0bNgwp169CG7hPnbnj1FwDwEEEPCOAEvleOdc0BMEEEAgngKadMuNZ/3U7XuBbB2BBSV1BWzd+8809imNQP8N4W/a0mDYhgACCCCAAAIFApYA37RpU+iRRx4J7dy50x6GLDHfpUsXJ5k+d+5cZ5v9iKxxP2HChND8+fOd7XaM/cKhF6J1EviWxC+tlJW4tzXrbX19W/s+UmybrZVvxxx99NEhnYEf2rx5c+TpwlvOIQIIIOBFARL3Xjwr9AkBBBCIvQBJt9ibJlmN2ToeC0pqC1yrw1+pkVWcgX9DiovwGAEEEEAAAQSiBAqz4EXu2Ix3u+hsJJEfecq2r127NvKwxK3NnC+rRC4uW/z5rVu3hnR5nFBklr09b/vahwkVlaiB8AABBBDwiACJe4+cCLqBAAIIxFmApFucgf1ffbYOwYKCwAlKsEzjhqIUb7/9ti2pQ0EAAQQQQKDGAqxxX2NC/1QQCAQkLS1NgsHo027bmzRpUuZA0tPTy3yuWbNmpT5Xp04dadCggVjdkWL7so59RINbBBBAAAEEEEAAAS8K6O/K3b3YL/qEAAKeE3hPe2RJ+mM0RmmkaUhWVtY0u6UggAACCCCAAALuCMyQT2WmlLwqrTut0woCCCCQcAFm3Cf8FNABBBBAAAEEvCCQrZ2woCBQVOAxfTBTo1vRjdxHAAEEEECgJgLRU69rUhPHJq9ArmRIQNpLLxmbvINkZAgggAACCCCAAAIIIIAAAghUS+ByPcouWjttzJgxc6tVAwchgAACCCBQTIDEfTEQHpYisFOG6tbRpTzDJgQQQAABBBBAAAEEkkpA17jPTaoBMRgEEHBL4N/a0Am6DG1Hvb3drUZpBwEEEEAgeQVI3CfvuY3lyIbqan0k7mMpSl0IIIAAAggggAACXhXI8GrH6BcCCHheYFK4hz309jWNxuHH3CCAAAIIIFBlARL3VSZLsQNmypkSklm6WA5f90uxU89wEUAAAQQQQAABBBBAAAEEqiYQCoX66hGDNBZo2IVq7QK2FAQQQAABBKosQOK+ymQpdkBIl8kJMNs+xc46w0UAAQQQQAABBFJWIBgMdk/ZwTNwBBCosUBWVpYl661cr3GvxlSN4RoUBBBAAAEEEEAgRgKzpZPOtV8Ro9qoBgEEEPC1QChbv39EQQABBBBAAIFUF8hWAAsKApUV6KM7fqtxf2UPYD8EEEAAAQRMgBn3vA7KFsjT2fb5MqbsHXgGAQQQQAABBBBAAAEEEEAAAQQiAnqB65zI/fDtdL215XL20HhPo40GBQEEEEAAgQoFSNxXSJTSOwzV0XNR2pR+CTB4BBBAAAEEEEAgtQQ06ZabWiNmtAggEGOB0ta036htnKphSXxbSudIDQoCCCCAAALlCpC4L5cnhZ/MlRN1bftF0lv4wyWFXwYMHQEEEEAAAQQQSEGBjBQcM0NGAAF3BLK1GVv7/m2NyzUoCCCAAAIIlClA4r5MmhR/Il+XyQkx2z7FXwUMHwEEEEAAAQQQQAABBBBAoAoCoVCobwW7/1eft1n552j8u4J9eRoBBBBAIIUFSNyn8Mkvc+jTpJ0m7Y+XJiTuyzTiCQQQQAABBBBAAIGkFAgGg92TcmAMCgEEXBHIysqypXAqKnaxWkve19eYpLGXBgUBBBBAAIEoARL3URw8cATSdLZ9QJP2HWUbIggggAACCCCAAAIIpJJAZmbm7FQaL2NFAIGECeRry8M07IK1luwfpEFBAAEEEECgUIDEfSEFd4oIDJV8ZtsX8eAuAggggAACCCCAAAIIIIAAAhUK6AWucyrcKXqHe/XhcI3nNGz9ewoCCCCAAAKOAIl7XgjRAjPkaJ1tv0kvSjsl+gkeIYAAAggggAACCCCQ/AKadMtN/lEyQgQQiKOALYFT1fKuHmDHnaAxUoNcjSJQEEAAgVQX4H8Gqf4KKD7+oC6Ts1PGFN/MYwQQQAABBBBAAAEEUkQgI0XGyTARQMBbAgu0O/01NmvY0jn7a1AQQAABBFJYgMR9Cp/8EkOfKs31orRDJY9lckrYsAEBBBBAAAEEEEAAAQQQQACBCgRCoVDfCnap6OnLdIdRGpa8P7WinXkeAQQQQCB5BdKSd2iMrMoC6XK2c1HaQ2R1lY/lAAQQQAABBBBAAAEEkkAgGAx2T4JhMAQEEEiQQFZWliXca1oe0wq+07B177toZGtQEEAAAQRSTIAZ9yl2wssdbkBn23NR2nKJeBIBBBBAAAEEEEAguQUyMzNnJ/cIGR0CCPhE4BPtp61730fjvxoNNSgIIIAAAikkQOI+hU52uUOdIf10mZwGelHaj8rdjycRQAABBBBAAAEEEEAAAQQQQKBUAb3AdU6pT1Rv4zI9zC5Y+4uGzeS3JD4FAQQQQCBFBEjcp8iJrsQwh+o+oyuxH7sggAACCCCAAAIIIJC0App0y03awTEwBBBwQ8Bmyce6XKsVPqhhyfthGhQEEEAAgRQQYI37FDjJFQ5xntSRdc5FaTtXuC87IIAAAggggAACCCCQ3AIZyT08RocAAj4VsPXui657f71Px0G3EUAAAQQqKcCM+0pCJfVulrQPyfu6et6SpB4ng0MAAQQQQAABBBBAAAEEEEAgjgKhUKhvHKu3Gfc2o38vjXc1WmtQEEAAAQSSVIDEfZKe2CoNK6SJ+wDL5FTJjJ0RQAABBBBAAAEEklIgGAx2T8qBMSgEEHBFICsry5Lr8SzrtfKTNb7UsLb6a1AQQAABBBBAIOkEciVDZsrCpBsXA0IAAQRiLBDK1u8mURBAAAEEEEAg1QWyFcCCgoAXBE7XTmzWuMwLnaEPCCCAAAKxFWDGfWw9/VfbTp1tz0Vp/Xfe6DECCCCAAAIIIIAAAggggIDnBPQC1zkuduoVbcuWzhmu8ZiL7dIUAggggIALAiTuXUD2eBNDJY1lcjx+jugeAggggAACCCCAgEsCmnTLdakpmkEAgeQUsES6m+VrbczabKzxiUYHDQoCCCCAQBIIkLhPgpNY7SHMlDN14YdZuljO3GrXwYEIIIAAAggggAACCCSXQEZyDYfRIIBACgjk6RjP0fhQw9a9P0GDggACCCDgcwES9z4/gTXqPhelrREfByOAAAIIIIAAAggggAACCCBQVCAUCvUt+tjl+3drexdpjNK41uW2aQ4BBBBAIMYCaTGuj+r8IjBbOslO6an/He+XLtNPBBBAAAEEEEAAAQTiLRAMBrvHu41I/ZrguyZyn1t/CAwZMsRJyo4dO5Zz549TVtjLQCDwQOGDON7JysqyGe+JLG9r47Z0znMaXTSGa1AQQAABBHwoQOLehyctJl3O04vShmRMTOqiEgQQQAABBBBAAAEEkkQgMzNztptDWbly5f1utkdbNRPo1KmTU4Get2NqVhNHuynQsmXLVJt9/pP6Hq7xHw37IMGS999pUBBAAAEEfCRA4t5HJyvGXR2q9f0pxnVSHQIIIIAAAggggAACCFReQCfdh6RFixaVP4I9Eypw9922EgnFTwKrVq2y7obc6rNe4Dpn8ODBiVwup+hQL9EHV2pEkvevFX2S+wgggAAC3hZgjXtvn5/49C5XTpSALJLekhufBqgVAQQQQAABBBBAAAF/CmjSzdXfkTVvT0EAgTgKJOA9ZsvUeKk8op05SeNBjVu91DH6ggACCCBQvgCJ+/J9kvPZfGeZnNHJOThGhQACCCCAAAIIIIBAjQQyanR01Q52ZtxX7RD2RgCBqgjYt1q0pPpHZBPUwD5QOETjFY36GhQEEEAAAY8LkLj3+AmKefemSTv9leV4aSIk7mOOS4UIIJBMAqERck0oW7bo7VVFx2WPw9u5KF1RGO4jgAACCCCAAAIIiH5Q4JVlcoqfjV91w3EadmtL5/TSoCCAAAIIeFiAxL2HT05cupams+0DmrTvKNviUj+VIoAAAskiUFee0qHU0rhLk/UrbVih22SVfvh5l7O94HnbTEEAAQQQSCKBYDDY3cXhhPJD+VHNhWcHF27jcfREaTzwKHxz6J3KvB5CBZPto+GKVhLj+1lZWZYU93K5Wjtny+dYP8/xckfpGwIIIJDqAiTuU+8VMFTymW2feqedESOAQFUFAn+XDXrMA/q3Xi2NyFUDm+uHn5bMfyD8fFWrZX8EEEAAAY8LZGZmznazi4FijQUC0Vt4jEfRlwivh2q8HhKwyH3Rc+bR+89ovw7XuEnjbo/2kW4hgAACKS9A4j6VXgIz5GhNOG3Si9JOSaVhM1YEEECg2gL15E79dzM8UauwlpDYdgoCCCCAAAI1Fyg+YbjmNVIDAghECYTz9q7NuNcLXOdEdcC7D6Zq12zd+04ab2u01KAggAACCHhIgMS9h05G3LsS1GVydsqYuLdDAwgggECSCDiz6kPykCbvtztDslt9zGz7JDnBDAMBBBAoRUCTbrmlbI7bJjL3caOlYgQcgQS8xywZ7peyVjt6ksbXGrZ0js3CpyCAAAIIeESAxL1HTkTcuzFVmmuyaajksUxO3K1pAAEEkkug6Kx7m33PbPvkOr+MBgEEECgpkFFyU/y2FP9aV/xaomYEUlPA3mP5+dHXkkhNiXJHfbM+e6vGhxqXlLsnTyKAAAIIuCZA4t416gQ3lC5n64zR0XKIrE5wT2geAQQQ8JVA4az7oOxgtr2vTh2dRQABBPwgoJOBXVvBww8e9BGBmAvYe0wvOu3aG03b6xvzQbhT4UvajH1b4CINu3gtBQEEEEAgwQJpCW6f5t0SCOhs+3znwjNutUg7CCDgfYHW2sU9ikRT73c5MT1seKeEzjpAfnrxG03di2Qnphcp1eocHe3/UmrEDBYBBDwjoAm+7q52xrV0oqujojEEvCPg8nssKyvLlpzxa7GLc1vy/jmNCRrDNX7RoCCAAAIIJECAxH0C0F1vcob001RTA70o7Ueut02DCCDgRYFTtVPnaRznxc55sU+bdIX7p2Y5PdvPi/1L0j6N0HFlJ+nYGBYCCHhYIDMz0xJXbhVm3LslTTspKxD+VovL6Xtfc9u1nc7WuEnDPoSw5P37GhQEEEAAAZcFSNy7DJ6g5oZqu6MT1DbNIoCAdwQu0K4M0+hXrEt2MaoZGkuKbA+E70du7WHkfuS2om0VPU89VTctzSxWzqXVXdo2N9rbSxs5whqiIIAAAskuEE4qit0GAnoxFW5x4HUQ0/eB2/+G6AWucwYPHuzX5XKKct2pD77TsCV0/qnxoAYFAQQQQMBFARL3LmInpKl5UkfWORel7ZyQ9mkUAQS8InCPduT6cGd+0tsnNSxhb7No1mtQEPCCwGXaicfDHXneCx2iDwggkHoCmnTL1aSbW8vlOLOAiybvTZzHBZOjccAhhu+HAkx3/kmzpWaSpYzVgVjy3pbO6aJhE4EoCCCAAAIuCQRdaodmEiVgSfuQfq3t4KiZtInqDe0igEBiBOwbN5Gk/aN6/zCN+zU+1CBprwgUTwjYH4SWtF+ncZJGtgYFAQQQSIRAhpuNhpzLp7jZIm0hkFoCvMdqfL7nag2HauRrTNXYV4OCAAIIIOCCADPuXUBOaBMhTdwH5KGE9oHGEUAgkQILtfH24Q6coLfjw/e5QcBLAiu1My007NsggzR+1KAggAACqSAQmVSeCmNljAgkREBXn7Li2ox7fVMnwzI5pZ2ri3TjXzUi696/UdpObEMAAQQQiJ0AifvYWXqvplzJkJ2asOsl9vU2CgIIpJ7AIh3yHuFhF12rPPUkGLGXBZZo5yxpb38EJusful72p28IIFBMIBgMurVMTkHL4axisW7wEAEEYiXg8nssKyvLfqdJ1vIvHVjRpXP+mawDZVwIIICAFwRYKscLZyFefdips+25KG28dKkXAa8L2EWkIkn7AV7vLP1LWYGJOvLdNH7VIGmfsi8DBo6AtwQyMzNnu9kjpty7qU1bqSjAeyzmZ92W27R1/A/XsL856mlQEEAAAQTiIEDiPg6oHqpyqKSJrW1NQQCB1BL4iw73jPCQR+jtpPB9bhDwksDT2pn+4Q7181LH6AsCCCDgooDOBXZtBQ8Xh0VTCHhHIPwec+2Nphe4zvHO6OPWE/vG5DEaKzRsvD00KAgggAACMRYgcR9jUM9UN1PO1L8BZuliOXYhGQoCCKSOwIE61NvDw31Mb7PD97lBwEsCl2hnLgh36GK9XRi+zw0CCCCQcAFNuuW62QmXV/Fwc2i0hYAnBBLwHrPZ6KlSbM37f2vY8kBnp8qgGScCCCDglkCaWw3RjssCBRelZba9y+w0h4AHBC7TPjTXeEXjCg/0hy4gUFygrm6w16kV+0bIU849fiCAAALeEchwsSs6Gdi1icAuDoumEPCQQMF7jDda/E6J/S5XdN37m+LXFDUjgAACqSXAjPtkPN+zpZMEpadelNbWm6MggEDqCPTUoV4UHu6DqTNsRuozAUvaH6Dxq8aTPus73UUAAQTiIlB8DW4eR+dY8cCj6Buvpq+HonXF4772LxWv2zNZLe2bBl00xmq00KAggAACCNRQgMR9DQE9eXieXpQ2X8Z4sm90CgEE4ikQSdq/oI3MiGdD1I1ANQXsj7jIbHtb4/63atbDYQgggEDcBILBYPe4VV6y4lB+fr4EAgGdeF+QnLVbHuPB6yF274fw2y7604+S78WYbcnKyrJlY1KxrNZBD9Gw2fe27v1hGhQEEEAAgRoIkLivAZ6HDx2qfWOZHA+fILqGQBwEis62fy4O9VMlArEQsKT93hrMto+FJnUggEBcBDIzM2fHpeKyKg0UPGHJeivc4sDrILbvAy4A7fzT4uYPWyrHrrn1sYZdy4iCAAIIIFBNARL31YTz7GG5cqIEZJH0FlcvquVZDzqGQOoIRGbb/1eH/FnqDJuR+kzgzHB/mW3vsxNHdxFAIG4COrHatYnAcRsEFSPgZYHwe8y1N5pe4Npmm6d6sRUAbOmcSzX+leoYjB8BBBCorgCJ++rKefW4fF0mJ8Rse6+eHvqFQJwEis62fzZObVAtAjUVsD/e9g1XwnJuNdXkeAQQiJuAJt1cnQBD3j5up5KKEXAEEvAes995krLYJ41WNm7cGPr1118LHuhPu79+/frCx+E7s/T2QI2rij9R1uPly5dHPbVp06bQhg0borZFHpS1PfK83SblSWBQCCCQUgJpKTXaZB/sNGmnSfvjpYmclexDZXwIIBAlEJnF/LZu/TDqGR4g4B2B/uGujNfbn7zTLXqCAAIIlBDIKLElnhvILcVTl7oREL2AhNi1JCg1F5g6daps27ZNpkyZItOnT5e//e1vTqUPP/yw9OjRQw477DCpU6eOHHLIIXLBBReIJvOjGj3llFOcfSIb69WrJ02aNJHFixdL48aNpWfPns79yPNvvPGGLFiwQG699dbIJuf2448/lnvuuUduvPFGmT275OpmVu8ll1wSdQwPEEAAAT8KkLj341krq89pOts+oLPtO8q2snZhOwIIJKVA7/CoXkvK0TGoZBE4KjwQS9xTEEAAAQQKBJgUyisBgTgL2MRrvei0a7Ovtb2+cR5Swqr//PPPnWT8vHnzZOnSpTJhwgSnLz///LOkp6c7Sf2mTZs6iftLL71UzjzzTHn77bfl008/lS+++ELee+89Of/886Vbt27y+++/S69eveTFF1+UESNGOPtGBmbtWOJ95cqVsmXLFnn11VflwgsvlL/+9a/yyy+/yEUXXeTUu3nzZmnRooVz2Geffebsf9JJJzkfHkTq4hYBBBDwswCJez+fvZJ9Hyr5cmHJzWxBAIEkFrDfVA8Lj6/gN+ckHixD861AG+35wHDvSdz79jTScQRSQ0ATfN3dHCkXznRTm7ZSUcDt91hWVta0ZHUeNmyY6LI40qhRI3n++efljjvucIZqj/fZZx8nyT506FBnmz3Oy8tzkunr1q1zEuyXX365zJkzRyZPnizPPvusk/y3nW3bueeeK0uWLJHjjjtO3n//fWfbmDFjombcWxJ/wIABYjP809LSZP/995eMjAypXbu2fTjj7HvOOec47fMDAQQQSAYBEvfJcBZtDDPkaP25WS9KOyVZhsQ4EECgUgKR2faWDP2tUkewEwLuC/QPNzlZb1kmx31/WkQAgSoIZGZmllx3oQrHV3FXZxVm50cVD2R3BBConEB4NSrXZtxXrlf+3MtmwJ9++unSqlUrOfpoS0EUlNzcXDn00EPltttuk4YNG8qf/vQn5wmbVf/66687CfVOnTrJ7rvvLj/88IOsXr1aPvjgAzn77LN1JaOQk6RftGiRMxPflsfp06ePrFq1SrZv3+7ECy+84NRnCf7XXntNdtttN2dZHZvFb/2YMWNGuCfcIIAAAsklwMVpk+V8BnWZnHwuSpssp5NxIFAFgcjFr96vwjHsioDbAoPCDb7ldsO0hwACCHhdIJK057Ygr4oDDvaejfXrwM1/B/QC1zlutudmW7/9VjBP6Ouvv5b/+7//kxtuuEGuvfZamTlzpjz++OPSoUMHmT9/fmGX9txzT3nwwQfl4osvdrYFAgEnwW9r1NuselvTfuvWrXLLLbdIs2bNnH3q16/vrJ9v9dja999++61ceeWVTr1169aVzp07Own/66+/XnbddVfnmMjr5emnn5ZjjjlG7rzzzsI+cAcBBBDwswAz7v189iJ9nyrN9aK0Q6WuXBXZxC0CCKSMwBHhkbJMTsqccl8OdHC412N92Xs6jQACKSWgSbfcwYMHu7VcTuEsYEtoWeEWB14HsX0fhJO6he81540W3x+RiTXxbcX92gNvvvmmvPTSS3L//fc769vbbHfzfeqpp6RBgwbObPxIAt66Zwn+rl27Ouvin3HGGU6PzzvvPLn55pvl4IMPdmbO28brrrvOSeDbkjq21E3r1q3F2rKyceNGWbFihdOG1WeJebu1DwyKF2vj6quvZo374jA8RgAB3wow4963p65Ix9PlbOeitN1kTZGt3EUAgeQXsA9f+2vY0iPfaVAQ8KJAf+1UY41vNVgmRxEoCCDgeYEMN3sYys+Pai4yczSykcfR+VY88Ii8N+y2Uq+H8Fo5RY/jfrUEQjZ73i4UO27cOPnmm2/kqKOOcpLs9erVE1suxx7bLPpIsYvQ2vI2lti3kq//3ukHozJ37lznIrW2befOnTJo0CDp2LGjbNiwwUnIDx8+3FnH3mbd5+TkyLHHHuvUU6tWLbnxxhvlggsusENLFFump02bNoWz90vswAYEEEDAZwIk7n12wkrtboBlckp1YSMCyS9waHiIXOwz+c+1n0fYKtx5kvZ+Pov0HQEE4iUQ0gk4USUy4z6ykcfRQHjgEXlv2G1lXg/hi9NGf+JRtJIY39cPE/rGuErPVGez4S3RbrPuI8vmPPnkk87SNN27d5f33nuvsK+WhLfZ8qNGjXIuRHvffffJP/7xD+ex7WRr2dsHL5aMt6VtFi5cKO3atXPWubcZ91dddZUzs76wwvAdvQ5J8U08RgABBJJWgMS930/tDOmny+Q00IvSfuT3odB/BBCoskCb8BGLqnwkByDgnkAkcb/CvSZpCQEEEKi+QDAYdGuZHKeTTAau/rniSAQqI+D2eywrK2taZfrlx32eeeYZeeCBB8QuUtu4cWOxNeUnTZokZ555prPevc2Unzp1qpPctwR7r169nHXq99lnH2edervorCXvFyxYIJs2bZKHHnrIYbCZ+ZbAj5SWLVvKyy+/LHl5ebJjx47I5hK3X331lbMMj12cdt68ebJkyRJnffzp06fL5s2bS+zPBgQQQMBvAqxx77czVrK/Q3XT6JKb2YIAAikgEEncr02BsTJE/wq0DnedxL1/zyE9RyClBDTZNNvNARdf6sPNtmkLgVQQ4D0Wu7Ncu3Zt5+KyixYtcpL211xzjXz00UdiS+VYcn78+PFi2yZOnCiWVI8U224XpL3jjjucWfl20drRo0c7S+BccsklYhekLV4syX/FFVfI2LFjnYvRFn/eHo8cOVIGDhwoL7zwQuHTTzzxhHP/9ttvL9zGHQQQQMCvAtHfs/PrKFK13/OkjqyT1ZInneVgWZKqDIwbgRQWuEvHfoPGnzXeSGGHqgzdPrC2xYSjFxSuSg3sW1WBx/WAyzSu1Hi0qgezPwIIIJDMAppQHP7V198827XLfsk8TMaGQEIF5nz3vRzY7YDzdVmd59zoiF7gOkfXcU/K5XL036zQ9u3bndnxNkPeZsSnpUXPB7V17PWbS1HU27Ztc2bOW4K/6Mx6W3an6OM1a9ZErU9vz9sHL8XbsNn69iFCenp6VDvFH+g5J+dVHIXHCCDgK4Hof0191XU6q0n7obpMzvsk7XktIJCyAsy4r/qpt+k4Z5Ry2Em67f1SthfdNEsfRK4rUHQ798sXYKmc8n14FgEEPCagSbdcV7vk9joerg6OxhDwgID777GDPTDquHXBkuWRZHvxhLo1Wjxpb9vq1KkjduHYyHG2zUrxx82aNSt4IvzTni+tjQYNGlSYtI+qiAcIIICATwWiPxr16SBSttshTdwHpGBRuJRFYOAIpLRAJHG/JqUVYjP4iVrNd5Woilk7lUAqtkskcf97se08RAABBLwqkOFix9xPKbo4OJpCwAsC4avSunZxWi+MOV59SNAM9nN0PPZtiUs1no7X2KgXAQQQ8KIAM+69eFYq06dcydCkfXvpJWMrszv7IIBAUgpEEvescV+10/sn3X2+xnSN08KHWpLGlnNprpGjYcsQLdewfTprFC2WvL9Zw563xTvtjwjbZnGLhtX9noYtsJmlkeolkrhfkeoQjB8BBBBAAAEEkl9Al3ZJymVyEnjmRmnbB2lcocHExQSeCJpGAAH3BUjcu28emxZ36mx7LkobG0tqQcC/ApHEPTPuq3YOD9DdbWmc2zVe0WihYd/L3VejtoZ9vXmHRg+NZRoXahQt3fXBxRr2AcBVGtdq2B8TPTWGaQzSsKT9JRqRc6R3U7ZwcdqUPfUMHAF/CugyD/bvvFslZOtBFy22nnPRwmM8eD38IVCd90P4mOgX0h9VxvxeVlbWtJhXSoW2ZKX9vt1W4wON3TQoCCCAQNILsFSOf0/xUEljrWX/nj56jkBMBCJJYWbcV43zBd39q3B8pLfHaGzTKFru1AdbNeyiv8Vnzdvj0RpTNazYV3ZP01gfvv+93lpY3RQRZtzzKkAAAV8JZGZmzk5kh4tfS5HH9oW2P0qsPLbv2CELFiyQRYt+kSVLf5VlS5fIypW/y5q162TDhg2yafNW2bptu+zUD1bsw5VatYKSXjtN6tpa3Q3qSePGjaW5rsfdsvUusuuuu8luu+0qHTp0kPZ77P5HZ/VerPobqZT6qv56KJ7sj1hy6zuBLdrj0zVu1bAPR4Zr8Pu2IlAQQCB5BUjc+/HczpQz9aK0s3SxnLl+7D59RgCBmAnYbHBL3jfVIHlfeVZzi5Tteqe0GViWtLeys+Am6md7ffRNkS02S9/KvhpfOPcKfvBNiAIHW9vekvc2857lcgpM+IkAAghEBEJSbIZ95AluYyuwbt06mTkrV2bnfinffvuNzFvwi3TcfRfpsEsj2b1lPenRqr602qelNG+8uzSuny4N6taWupqoT6sVcJLv+Xqetu/YKVu358mGzTtknSb2V63fKivWLpff5i6Ur6dukp+XrZNV6zbKvh33lq4HdJOMjAzp1bOH1K4d+VUhtmOitkoKFLzHSvt9r5IVVG03vcB1zuDBg1kup2psVdnbvjU7R+N1jVs0HtagIIAAAkkpQOLej6e14KK0NtuTggACqS0QSdw3UwYS95V/LdgyOSM19tI4XONcjSM0Klve0h1teZxnNOppDNG4UaOXhtVtM/Cbaxyv8bFGqhdL1pO4T/VXAeNHwEcCmnTL1aRbd7e67Fo20a0BeaidtWvXysefTJLPJn0iX8/5QQ7qsof02KuZZJ64r3TpcKgEA9Gzt8vruu1bN11n3Gs0bVhXdpdGpe6+ccsO+e6XlfLNgu/l5eemyvU3LJFD+vSUw/sfKf2POEwaNGhQ6nFsjJ9AAt5jB8dvNNQcFrCk/XcadtHaLhq2jCUFAQQQSDoBEvd+O6WzpZPO/+yp/1lCiIIAAqktEJk5bjPuKZUXaKu7/qZhM8Dv0lilYSV6keGCbcX/1rPHH2pY4n6Jhv3VPk7jU41pGu00lmqs07CZ5js0Ur2Yg5XIWvcFj/iJAAIIeFcgU+/hlQAAQABJREFUw82usYxH7LW/zJ0t77z1lnzy6WQ5utfeclqfXeXR806XYDD2bRWvsWG92tKnc1snztcnN2/bIZO/XSoTP3pD7r73Pjnu6AEyaPCJcmC3A4ofyuM4CfAeixNs4qu1pSntmw3PanyuYUvnzNOgIIAAAkkjQOLeb6cyTy9KG5Ixfus2/UUAgbgIRBL3NuOeUjmBs8K7Rcwiy9nYWvYWVopOv7N/byP/5trFZyPlML3TXmObhn0IYKWzxssaV2pYaiBH40eNVC+RxL3NuqcggAACCEQLaE6x+GfE0TvwqPICk6dMlf++8rKsWblChhzcXm6852SpXyexy9RY+8f07ODEulN6yLjp8+XeO2/XtfHbyimnnS6H9juk8gNkz2oJhN9jrr3RtD1LJlPcE7DPyK7RsEk0lrx/S4OCAAIIJIUAiXv/nUa7KK0ty0BBAAEEIol7ZtxX/bUQSdhX/ciCI+yPv4XFDt6ojydrvKhhF7y1mfy5GqleIol7Ztyn+iuB8SPgE4FgMNjdza5aUpHkfc3E5877SZ5/9hn5bclCOefIznJsL1dPYaU736RBupw5YD8nPpy1UJ587GEZP+5dueDCi/TCtjYfgBIPAbffX1lZWZZAprgr8IA2V3TpnLvcbZ7WEEAAgfgIuPBlwfh0PCVrzZUTdR7oIukus1Ny/AwaAQSKCywPb4jMHi/+PI/dFVigzXXWsHXtL9bor7FFI9ULiftUfwUwfgR8JpCZmenm79qatfcZkMe6O+all+Wiiy+Tnm3z5cXrj9WkfQeP9bD07tgs/JdvOFa6ttgm55x3vrz+xtjSd2RrzQUK3mO802ou6fUaxmsH7foCAzVGayT26zbaAQoCCCBQUwES9zUVdPP4fGeZHPsfEAUBBBAwAWbce+918Jt26TWNCRqbvde9hPTILk5rhRn3BQ78RAABBKIEIrOBuQ1nV8NLB1XksW3bdsm+7TaZ9flH8t9bBssZOpPdj+WcgV1lzA2DZMK7r8u999xb+O2LisbP81V7vbj52tALXOe42R5tRQks0kdHaazVsG8+HKhBQQABBHwrQOLeL6duml7wMKQXpG3ifHLsl17TTwQQiK9AJHHfPr7NUDsCNRJgxn2N+DgYAQTcFtCkm5vLnIUiV1YJBAouscJtxQ5btmyV66+7TpoF1spjlx4mu7Vo6PbLJKbt7d22iTzz1yNlx6qf5Zabb3bq5nVQ8evAoCrjFP5ai5sz7m3WNyWxAldo889oWPL+jMR2hdYRQACB6guQuK++nbtHpuls+4Am7Ts6F0J0t21aQwABrwrYeupWji+44ScCnhSIJO738WTv6BQCCCBQUiCj5Kb4bYnMnI5fC8lX84jbR0jnVkG59iRXT1XcIbPP7iMNdq6WO++8K+5tpVIDvMdS6WxHjfUJfXScxj81/hH1DA8QQAABnwiQuPfJidJuDpV8Ztv753TRUwRcEcjTViZpWEK0iwYFAS8KTNJOrdfYX4PkvSJQEEAAgSICmlN0cyJwkZZ9enfkqDES3LJGrjqxm09HUH63bz2zjyxd8IOMfeud8nfk2UoLhN9jrr3RtL2+le4cO8Zb4FNtwL4BYZ/yva7RRIOCAAII+EaAxL0fTtUMOVq7uVl6yxQ/dJc+IoCAqwL2y6iVgQU3/ETAkwKR7MMQT/aOTiGAAAJFBILBYPciD+N+l8R95YlXrlolzz3/gvz1xK6VP8iHe1514gHy7DPPyPbt233Ye+912e33WFZWli3PQvGOgH37c7DGTxp2bvhgRREoCCDgDwES9344T0Fm2/vhNNFHBBIkEPnDwL4GSkHAqwLvhjt2olc7SL8QQACBiEBmZubsyH1uvSUwbtx4+dPhXX2/pn1Fql3bt5DendvKuzpeCgIIxEzg71rT3RqTNc6PWa1UhAACCMRRgMR9HHFjUvVUaa4XpR0qdWVUTOqjEgQQSDaBGeEB2Tr3bZNtcIwnaQQmhUdyqN6yXE7SnFYGggACMRDQycCureARg+4mtopp06bKgP13SWwnXGp9YMauMuXzyBcrXWo0SZsJv8dce6PpBa5zkpQyGYb1gg7Cls75q8YDyTAgxoAAAsktQOLe6+c3Xc52LkrbTdZ4vav0DwEEEiKwSlv9PNwyy+Uk5BTQaCUEluk+E8L7cTHlSoCxCwIIJE5Ak265brZO4r7y2j8vXCT77t688gf4eM/9O7SSH+fN9/EIvNP1BLzHLDFM8a6ATXyyc9ROw77WwuQnRaAggIA3BUjce/O8/NGrAMvk/IHBPQQQKEMgMuv+5DKeZzMCXhD4ONwJEvdeOBv0AQEEyhOwixi6VTSnWDARmNvyHfLz82Xjpq3SqH66W+cmoe20aFxX/nxMX+F1Uf7rorI+ejJdm3Gf0BcOjVdWYJPueJqGLTtqcZQGBQEEEPCcAIl7z52SIh2aIf3014sGelHaj4ps5S4CCCBQXOCl8IYsvT2m+JM8RsAjApPC/bDEPcvleOSk0A0EEPCOQCAQcDrDbekOetFgx2fD5tS4YKuN89nXPhJeD6W/HqriEknuu/Vu1/a4+Klb2DVvZ4RWca3GWI0ral4dNSCAAAKxFSBxH1vPWNc2VCscHetKqQ8BBJJOYJaO6KnwqLjQUtKd3qQZkM1m+iE8mrOTZlQMBAEEkk5AE8TdXRxUKDIPuHhykcfRE6TNw7b8sHi1i6cncU3ZOIsK8HooqqHT54tdG6LcxwWHRlcQx1OblZVlv/NQ/CPwP+2qLZ1jv58+4Z9u01MEEEgFARL3Xj3L86SOrm0/VPJI3Hv1FNEvBDwmEEncn6r9OtxjfaM7CEQEIt8OuVA3sJ5oRIVbBBDwlEBmZuZsNzsUydxHZhBH2uZxwUzroh62ZeJXiyObkvrWxllUgNdDUQ0p/CZC5EVQnk/kPRbZl1sEShGYo9sseV9X41ONvTUoCCCAQMIFSNwn/BSU0YF1mrQPyfv6v44lZezBZgQQQKCoQNFZ98OLPsF9BDwk8G/ti11pb1eNiz3UL7qCAAIIJEpAJwq7NhE4UWOMWbsm9eaUubJ01caY1enFimx8Nk5eGbE5O+H3mGuceoHrnNj0nFpcFrDXyHka72rYtyYGa1AQQACBhAqQuE8ofzmNhzRxH2C2fTlCPIUAAiUFIrPuz9Wnepd8mi0IJFxglfbAkvdWmHVf4MBPBBDwmIAm3XLd7BKJ+8pr25zrC084UP71+szKH+TDPW18Ns7oOeY+HIhHupyA95jN3Kb4V+A+7fowjWc0/q5BQQABBBImQOI+YfTlNDxDuutvae2ll3OBlHJ25CkEEEAgSqDorPuro57hAQLeEbDE/TcaNuv+Iu90i54ggAAChQIZhfdcuMOE+6ohDz92f2cm+sNv2q89yVdsXDbt18ZJiY2Avcd27twZm8qoJVUExulA7QOY4zRe0KilQUEAAQRcFyBx7zp5JRoMOBdFGV2JPdkFAQQQKC5gSVG7atvpGo8Wf5LHCHhAYKv2ITLrPlvvk7z3wEmhCwggkDABTSnqCtyaWSQqNoicpX+ce6jMXbJG7v/fjMimpLi18di4bHyRwuui4tdFRUb2HqtVq5Z9HuJK0f70daUhGom3wM/awAANW5vLls45QIOCAAIIuCpA4t5V7ko3NlTSWCan0lrsiAACRQW+0ge3hjdcrrfZ4fvcIOAlgf9oZ+zrx1ae1OhgdygIIICAFwSCwWB3N/thSUdK1QTq1UmThy45UtZu2ipXPDbB92ve25r2Ng4bj43LxkeJnYDb77GsrCxL8lKSR+AvOpSRGnZeT9OgIIAAAq4JkLh3jbqSDc2UM3VCwCzJkLmVPILdEEAAgeICj+uGl8Mbb9Pb/uH73CDgJQFb435SuENTvNQx+oIAAqktkJmZOdtFASdrXzyxyOPoDzOKe9j5Sa8dlH8OO0x679tWTv3H2/LyxO9dPG2xa8r6bf23cdh4bFzFS/Hx87j810cZPtEHFUfmMQLlC9jfV4M07tYYUf6uPIsAAgjETqDkbwWxq5uaqiPARWmro8YxCCBQUuBM3fRLePPEkk+zBQFPCNjXj5dq2Hr3OZ7oEZ1AAAEEXBbIz8+XQCDgLJVjTVvSkcdlexQ/PecM7CrPXXu8fDlvuZx117vywcyFxXfx5GPrp/XX+m39t3GUVng91Pz9UJprPLfpBa75nSaewImr2/6msnXve2n8T6ORBgUBBBCIqwCJ+7jyVrHy2dJJgtJT/zfwUhWPZHcEEECgNIH2unFR+AmbZXR8aTuxDYEEC7TT9ldp2B9C8zQ6a1AQQACBhAlo0i3Xxcb1/88BpzlL1lvhtnwHB6nYj87tmsl9F/WXSwZlyNs5P8kZd7wrr076QTZv21Fsz8Q+tP5Yv6x/1k/rr/Xb+l9W4fVQ/uuhMj7h1ajsd2G3iv1OQ0lOgeU6rEyNhRq2dM5BGhQEEEAgbgIsnhc32mpUnCdDdZmcMdU4kkMQQACBsgQ66BN2seuzNd7TsAvW3qmxTIOCgFcEWmpHntM4T+OL8O2bektBAAEEEiGQ4WajxZf1cLPtZGvrsAPaicUsncX+1tSf5JGxX8rRPTrIkd33kEO7tpNgAqat6RcqZPKcJfJJ7i/y0ZcL5aju7eXaU3tLz467JBu/Z8fDe8yzp8bPHbtOO/+dhiXvh2s8r0FBAAEEYi5A4j7mpDWq0C5KO6RGNXAwAgggUFJgqG76VeN6jSs0bOa9XRD0aw37ZXO9BgWBRAvYHz0zNWwN0Tc0Rmhka1AQQACBZBbQWcBuTgROZso/xmZJcYur/9xTk+WL5L+f/iD/99znctB+baXHPrtItz1bSpcOLSUY/pbDH0fW/F6+Tu/+buFK+frnlfLlT8vli+9/kwP3biVHdNtd/npSD2nasG7NG6GGKgo47zHX3mj6QUHfKnaQ3f0p8Lx225L3Nvmki4Yl8ykIIIBATAVI3MeUswaV5cqJkq9LWnQXNy+GVYMOcygCCPhM4O/aX1uGZJhGP437NCLFEvgzNJZENuhtwfeS/7i1p6q6rTrHRNooemzR+6U9X9lt1FP1c1iabawcS6vbtk3S2EvjCA0KAggg4LpAMBjs7majzAaOn7YlyU85vLMT6zZtkxk/LpPc+cvl/Zk/y9wla6Tjrs2kQ5vGsnvrxtK2eX1p1aS+NG9cTxrXT5cGdWtL3dppklYrUHjNgbydIdm6I082bd0h6zdvl9Xrt8jv6zbLb6s3y+IV62XhsvUy79c10kmXvjlAPxw4rteecstZfaVJgzrxGyQ1Vyjg9nssKyvLJsZQUkPAvilqSyNZ8n6chk1EWa5BQQABBGIiQOI+JowxqCTfWSbHlrOgIIAAAvESeEYrtjhV4zyN4zSsdAuH84AfCHhEwGYxURBAAAHXBTIzM12dSBNef9v1caZag5Y8H9ijvRM29u15+TJfk+yLlq+XxSs3yOyffneS8Gs2bNOk/DbZpOvRb92eJzvzQ5KvEQwGpJZG3fQ0aVCntib360izRnWcZH+bFg2kX9fd5Mwj95O99cOA9LRgqvF6ery8xzx9epKhcxt0EKdojNCwD20seT9Rg4IAAgjUWIDEfY0JY1DBNGmn35A9XprIWTGojSoQQACBigT+qztYtNbYo0g01fuUMgSG7Cv92jSU3f8zU14pYxc2x05gjlb1v9hVR00IIICAZwV0MnDIs51L5o5Zcn2/PVo4UdE47RxFLoJa0b487z2B8HvMtTeaXuA6Z/DgwSyX472XQrx7dJs2YEvnvKtxvcbjGhQEEECgRgIk7mvEF6OD08Kz7TvKthjVSDUIIIBAZQRW6E4Wtq44pQKBsT/oKsQjZPITg+SXQLbzddgKjuBpBBBAAAE/CmjSLVeTbq4tlxNijXvPv0xI2nv+FJXbwQS8x2zpFEpqCryqw7bkfWTd+7+kJgOjRgCBWAnwHb5YSdasHrtwJMvk1MyQoxFAAIH4C4TkBm3knlC2tIx/Y7SAAAIIIJAggQwX2y2ccR+Zec9twcToshxcPDeeaKosB7aX/zop7qMn07UZ95544dCJRAp8o43bhzcNNSZq7KlBQQABBKolQOK+WmwxPGiGHK21bZbeMiWGtVIVAggggEAcBHSm/WSt9nmNe+JQPVUigAACCKSggF2V20pkVje3BSJlORRopc7PshzYXv7rJMrH5eWo9EMDlslJnbdoWSPdqU+cq/G+hq17n6lBQQABBKosQOK+ymQxPiCoy+TkM9s+xqpUhwACCMRP4Db5uwSkn866z4pfI9SMAAIIIJAogWAw6NoyOTrGUH5+ftRQIzOFIxt5nNoTpTn/0ee/Oh7hY6IrirzB4nCblZVliVoKAiZgk30u0BipcZ0GBQEEEKiSAIn7KnHFeOep0ly/sDdU6sqoGNdMdQgggAACcRIIBPRf7vCSOXFqgmoRQAABBBIokJmZOdvd5iNz7gtajcwUjvSBx9E+EZdUueX8R5//6ni4POE+VV6ajLPyAu/orrZ0ziCN5zWiX9S6gYIAAgiUJUDiviwZN7any9n6T/Zo6SZr3GiONhBAAAEEYiOgS+aM1ZpydNY9S+bEhpRaEEAAgVQV0MnArk0ETlVjxp3iAm7PuNcLXOekODnDLykwXzcdobFVw76R0VWDggACCFQoQOK+QqI47hBgmZw46lI1AgggEF+BdF0yR+R8Td4fEt+GqB0BBBBAwE0BTbrlutke18x0V5vWUlHA9Q/HbHY1BYHSBC7VjWM0LHl/Smk7sA0BBBAoKpBW9AH3XRSYIf10qYUGelHaj1xslaYQQAABBGIkELhJfg+N0OR9yJl1f1iMqqUaBBBAAIHEC2S42QWbDcysezfF/dUWr42any8Ma25IDTEVeFRr+07jOY0uGiM0KAgggECpAsy4L5XFlY1DtZXRrrREIwgggAACcREI3CbPasVrNIHPxabiIkylCCCAQNILkFMs5RTn54Vk/bI8+fXbrTJ30ibJfW2dTHp0ZSl7sgmBigXCq1G5Nu1e39R9K+4Ve6S4wMc6fvtmhsWrGg00KAgggEAJAWbclyBxYcM8qSPrdJmcPOnsQms0gQACCCAQT4FaOus+X+bokjlv6dr3c+PZFHUjgAACCMRfIBgMdo9/K3+0QOa+wOLzp1bLOzcvk53bQxoiaXX1+o2BkNSqHZRQfkiCenV4Z27qH3TcQ6BSAm6/x7KysmwZFAoCFQn8pjscr/GAhr1mhmvM0KAggAAChQLMuC+kcPGOJe1D8r5+trrExVZpCgEEEEAgDgKBW+R7rfZGjXvjUD1VIoAAAgi4LJCZmTnbxSZdmwXs4piq1VSdhgFp3j5dArVE8jVRv31zvmzfFJIta3fKzjyRc8fsXq16OQiBsADvNV4KXhW4Rjv2Lw1L3p/r1U7SLwQQSIwAiftEuIc0cZ8moxLRNG0igAACCMReQJfMuUdrba1L5pwX+9qpEQEEEEAgmQXyQ/nO8CKzglP1tvcZTeWGGfvI4H+0kaAm7yMX7a1VJyA9Tmks+w5MzZUkUvX1EMtx61UkXP0nRC9wneNqgzSWDAK2/OahGjdo2N8VFAQQQMARIHHv9gthhnSXgLTXn2+53TTtIYAAAgjEUSCoS+boL9q6ZE7zOLZC1QgggAACcRbQpFtunJsoWn1IF4BxSsCWgtGSyrc/TNgoM15cK6071XWWyDGP9LpBOenetoUuti2VSiq/Huw8x2T8BYvcu5m9t3XLKQhUVcA+8LHXzj4a72i00qAggECKC5C4d/sFEJCztUkuSuu2O+0hgAACcRYI3Cqf64SuF7QZlsyJszXVI4AAAnEWyIhz/VHVhy+cGbUt1R5sWJ4nL128RF694lfpf2ULGTSitdRtXEvqNgrKyQ/uKvWaOFPwU42F8cZIgPdYjCCpxg2BddrInzVsyTZbOucIDQoCCKSwAIl790++LZND4t59d1pEAAEE3BCwWfeH6ZI5g91ojDYQQAABBHwvoCuCuDkR2Htekx5bKbd3nSuNWteWW77tKL1OayqNWqXJ9o07Zc+D60vvs5p4r9P0yFcC4feYa280ba+vr4DorBcFbtFO3azxvsalXuwgfUIAAXcESNy741zQykw5U2djzpIMmetms7SFAAIIIOCOQCBb8nU5NNamdIebVhBAAIG4CASDwe5xqbiMSlM1cf/TZ5vkof4L5IcJm+TKCXvq2va76Nr2BcsFbdmQL2m6RM6fdbZ9Tcry1evLPTxvZ76s27il3H2q++T6TVsLD7V+bNuuV9ilJETA7fdYVlaWzZSmIFBTgZe1Als65wKNR2taGccjgIA/BdL82W2f9touShtgtr1Pzx7dRgABBColoBeqfVPXuc/SuFsT+ZbEpyCAAAII+EggMzPTlihwrbh94UzXBlZGQ5tW75R3b1suc95br0vitJE+ZzctsWeXYxrKPcv3K7G9Khu+//k3GXLNE/LD6yMK10kvfvyXP/wiD4z5SF6960KZ+vV8GTf5m+K7yODDuknttFryQc53JZ4rvuG4Q7pKj333cDYPyx4pV5w2QHbk7ZRjL39YLj91gPNcm5aN5fhD9i9+KI/jKJBq77E4UlK1+wJfaZOWvH9O42ON4RqLNCgIIJAiAiTu3TrRs6WT5Ekv/e94t5qkHQQQQACBhAnYkjnfh26Xt3Tte7vQFAUBBBBAAIHSBFIqpzjl6TVO0r7P0KZy87edJL1ebL8AvmHzVjn3tpGO84+Llsnmrdvlz9c/WcL9hRHDZPq3C+XmJ96S1es2yVk3PyuHde8oh2bsIw+9OEFOPqqnPP/OVLn1wkxp06KJbNuRJ3u1a1minuIbGtSr42xasXqDTPnqJzmh3/5y9YP/k2dvPUdaNW0kNzz2hpx9/EEk7ovDxftxwSI5ri2Voxe4zhk8eDDL5cT7vKZO/Tt0qEM1btSwb3NY8n68BgUBBFJAgMS9Wyc5T/+hDTHb3i1u2kEAAQQSKaAz7VeEbtXZ9gG5R/txeCL7QtsIIIAAAlUT0KRbribdXFsux+1lPKqmEZu9f562Rd65dZnUSgvIJW+1l/a968Wm4mK11KuTLndcdqJ88e3Pctfzv8oHj10lazduliYN60kwULAMjx1Sv266M/t9py6Vc8sFmbJvhzaya6smosskSbPGDaTLXm2lVbOG0r3zHtKyaUNJqxWUzu13EUvI3/bk28VaFaeOXVv98c2BJ1771Jmp/+xbU5x9Xxw/XRb+ulI2btkmH077Tp4ZO1nmv3VHiXrYEB+BBLzHbIY0BYFYC9ylFdpXf8Zo3KnxgAYFAQSSXCC2UxySHKuGw7OL0o6qYR0cjgACCCDgE4HA7fK0fmC7TpfMudYnXaabCCCAAAIFAhkuQmhOMTwdOAlvt23Ml9ev+U2ePmWh9DytifzlvQ6yR6+6Dm91x13eubEE++67NNek/fsy5p/DnQT8Ffe+4iTf99uzrUSilibordj69r8sWy1Lf1/r3PYeeqeMn/Kt3PT4WCf5f+AZt8v8Jb87+w655t+yftMW+eanpXLRSYc7CXi7tedXr98sWVc/Ljvz8+XHRcsl+6l3nDYfu/50ObxHR3n42tOkbcsmct9VJ8uj15/hJPCdSivxo7pOHBf9vlJq12bcV+K0sgsC1RV4Sw+0D4aGaDxb3Uo4DgEE/CPAjHs3zlWunKiXK1wk3WW2G83RBgIIIICAZwRsyZxvQv/QJXNukXme6RUdQQABBBDwnEAgPCM8WW6/GLXOmWXf/aQmcosui1OvSS3HvKbjq+jE3TvqA2cXm3VvsWTFGmeGu826t3Lw/ntJry7tZdKsH6V5kwYy7dsFsnj5aum5X3s587g+MvP7RfLIdafJk69/5iy14xykP2Z9/4tz9/c1G2X6nJ+d5LvdLtdZ+FbmzP9V7LOX53SW/dATCiZct27e2EngH3DaCGefg/bfU76au9iZje9sqMSPmnpxfEDPi7s5e22PZXIq8dpml2oL2N8Uh2k8qWFLcg7X+F6DggACSShQMNUgCQfmqSHls0yOp84HnUEAAQRcEtAlc+zrrP+nH97akjkUBBBAAAEfCOhyKa4tk6McmlIsMTPYUSqebPTL419mbZF/D1ooX4xeLcNf2kNOfqitk7SPdf/Lein9aUB3Z+mapg3ri4WVyH27rVuntrPNkuhXnn6kLoNTS2yJnfTaBXPabEmbKbPny0+LC2baOzsX+WHH23r16Wlpzq0tu1O03DDsODmx/4HOptc+niVvfJJbeGHarnvv6izTM3Hmj7Jlmy1bXfkSa79Uqi/8HnMte5+VlWXrkFMQiLfAxdrAKxr2evtzvBujfgQQSIwAM+7j7T5N2unv4sdLEzkr3k1RPwIIIICA9wQ0eX93KFtyNIbp/ZHe6yE9QgABBBAoKpCZmenut2TD6cTIzOhIX/z2eKfmocdlL5ec51ZLZvYuctglzSNDcW5jPZ6oysMP8nTNelur3iJSbI16W66mdfNGkU2yXS82a2vSn3Fsb2epmw2btsryVeud+x12bSnX/us1nYG/h3ye+5Ncd86xhcfZnTqa4G/WuL4m+ms5t7WCf6ydb8/bc5HS78B95Ombh8qzb02Wgw/YS86/fZS0a91Mns8+Vz8sKPgAIbJvRbex9kup+lxL2Vd0FnkegZgLPKw12kSh5zS6aPxDg4IAAkkkQOI+3iczLTzbvqNsi3dT1I8AAggg4FkBWzLnf6G7dMmcG2WNZ3tJxxBAAAEE3BbQic/+zyrOfLlgWZz9jmkoN+uyOA1bFiyL4zamLVdzyV0vRjX73YLfZFj2yMIZ9fbkf248S3K+WSD36bI6tvTNMQd3kb3atXTWrX/xn+fLk298psvlnC5HX/ZQVF1NG9WXAb06y/tT58jJR/V0bi0530KX3Cmt2EVoLdFvF8DNfupdZ5enbj5bbnpsrPR/vrNz0dvSjmNbbAXC7zHX3mh6gescvcA1y+XE9jRSW9kCH+lTtj6XJe9f1rClc7ZoUBBAIAkESNzH/yQO1SYujH8ztIAAAggg4FWBQLZ8pjPuR8t2Z8mci7zaT/qFAAIIICCiSbdcTbq5tlyOJRX9mrxf+s1WnWW/QjatzJMzn9xNOg0oSGAnajwHdmonOc/bZ+V/lJ5n3yHvPXKF7KLrzRcte7RpLsOzDpH7R38ktoTNLjojf5jmWi2Jbxet3Wu3ltK98x6Fh9g2S9gfsM9uhdsidz6e/oPzAUDkceT20pOPkKf0Q4BHX53orJt/0rX/KVxj/+k3Pxd7vqKSKMuK+uWn5xNgWHCRAz8h0Ve/CyzVAdjXg+zTRls6x5L3szQoCCDgcwES9/E8gTPkaK1+s/SWKfFshroRQAABBHwhcIMunfa9JvAHaSK/YNqdL7pNJxFAAIGUE8hwc8QJSCrGZHiWsJ/06CpdFqe19L+iRUzqdLOSokvaRNq1te7rpKfJSUd2F0v4r92wWSzBHykr1hRciDbyuKLbD6d9J6ce3UtaNWsk52W/IPvt2cZZSmfExYOdZXkqOp7nYyNg77G8vLzYVEYtCHhb4G/avQs1Isn70d7uLr1DAIGKBEjcVyRUk+eDzjI5o2pSBccigAACCCSHgCbr8zRpb9MA7UK1JO6T47QyCgQQQKCmAr5bKCf39fXy7m3LZe9D6svN33SUJrt6+0/KsQ9cpkvZNCzzPF1x+gDnQrO1agWlW8d2zn52wdlZY/4v6pgl4++Rxg3qRm0r+uD8E/sVLn0z6NBuclzfrtKgXh1nF1t732b923r7ViyRb0FxR8DWyElLS3NtqRz9oIBlctw5tbRSusDTurnouvc3lr4bWxFAwA8CQT900pd9nCrNdWblUEnXpREoCCCAAAIIqIAm79/QmxmawL8LEAQQQAABbwoEg0HXlslxBHySul/+4zZ57ozFMuH+3+XPD7SRM5/azfNJe/PdfZdmhQn10l5xjerXdWbZp2ni3hL2ZZXykvZ2TJOG9QoPtVn7kaS9bbS6I0n7wp24456Ay++xrKwsm+1MQSCRAlO0cVuyaV+NtzT897Uo7TQFAQRESNzH61WQLmdLQJP23bgIYbyIqRcBBBDwqcAN+v+HizV5z/qnPj2BdBsBBJJbIDMzc7aLI3RmARdfLsdrj8ffsULu6TVf2veqJ9fl7C12Edqixe3+Fm07Fe677Zuk7bk24z4VXpOM0RcCa7SXf9L4VsM+TDpMg4IAAj4TIHEfrxMW0Nn2+cy2jxcv9SKAAAJ+FdBZ98v0G1k3aP9tyRwKAggggECKC+Tn50sgECi8QK0lTb3y+Jt3NshdPX6S3+dtl5u+3luOuqal089E9i/VXi5eej2YvR/74/ZrRi9wneN2m7SHQDkCtu5XtsYEjYs1KAgg4CMBEvfxOFkzpJ8mZRroRWk/ikf11IkAAggg4G8BTd4/pSPYEBoh1/h7JPQeAQQQSD4BTbrlujiqwlnAlgy34oXblT9vl9HDlsp7I1bIoBGt5ZyR7aTlngXrtSe6fy6eG080lWjvZGg//A2CwveaCyeWb1W6gEwTVRJ4Ufe21+UlGg9X6Uh2RgCBhAqQuI8P/1CtlrXt42NLrQgggEByCAT1QrUhuUeXzNknOQbEKBBAAIGkEchwcyQh/Z+Bl8qE+1fKP/efJ7vsW0f+PnNvOWBwYy91j74gUGUBr73HqjwADkAgNgL2obQl71tq2CTT3TUoCCDgcQES97E+QfOkjl454GzJI3Efa1rqQwABBJJJIHCrzNHx3KrBkjnJdGIZCwIIIFBFAZevm1lm7757f4Pcd/B8WfzlFrkpdx859sZWZe7LEwj4ScDt95jO8O/rJx/6mlIC23S0Z2lM0rB174/VoCCAgIcFSNzH+uSsc9a2/0A/x1wS66qpDwEEEEAguQR0yZw7dUS76ZI55ybXyBgNAggg4F+BYDDY3cXe62TgxM64X7t0h7x44VJ58/rlcvT1reS8l3aX1p0KlsVx0aFSTQ3/f/bOAz6KcmvjZzYNkN4JHQEVRXqzd8VIsOtV7BT1Ktd2pYooKMJn7xTBXlBsWK+KBRUEQlFBQKSGkFCUGiDJ7nzP2eyETUjbZHa2PS+/w7S3/ued3ewzZ85ccla58kVLplgbb9DOW/415tiFlpqaqoIoEwmEM4GH0LnbYG/D7gznjrJvJBDrBCjc2z0DTAj38fKq3dWyPhIgARIggSglcChkTu0oHSGHRQIkQAIRRSAlJWWpkx32xd92ssmCtr57eoc81HGN1GmWIKN+bSudLw7vsDgzP/9R9mTnFPQ/mld0nDO/+DGah+jY2EJ5jTk2SDZEAoET+ABFNHTOpbCpgRdnCRIgAScIULi3k/JC6SKGtMT/H9lZLesiARIgARKIXgIImfM9RqcvjGLInOg9zRwZCZAACZREAJqiY47ABX1YNWevPH7KWlkzN1vu/KG1nH9/w4Jj4bzSulVLWbnp73Duom1903G2btnStvpiuSLfNebYhYYXXM+LZd4ce0QRWIXenujr8U9YHhVRvWdnSSAGCFC4t/MkG4htz5fS2kmUdZEACZBAbBDIkOEY6JnmGEmJjQFzlCRAAiQQvgQguukL/BxLjqmJGNHebXnyzr8z5K1bMuTUW+vJwHebS/JxVRwba2Ub6tW7j3z7e1Zlq4mI8jpOHS9T5Qk4eY35eqtezEwkEEkEBqGz78E0zNNFkdRx9pUEop0AhXt7z/A14uZLae1FytpIgARIIPoJGFMkF09sDcPLzel1H/2nmyMkARIIfwKdHexigce95XkfrOUPL+yQ8QiLU7V2nNz3ezvpekV+WJxgtReMevv2PVc++GG5bN6x18FT5HxTOj4dp443GBx1RLFWrw7Z+TPJFkkgogg8gd5eCXsWNiqies7OkkAUE6Bwb9fJXSRX4U+BNOklq+2qkvWQAAmQAAnEDgHjfpmF0aaZY0VfFsVEAiRAAiQQYwQMw/CO2O7l2p+y5emz1snyz/fKbZ+3ktSHGklcgiF2t+NEffXr1ZMbrr9Wnvjo96ieHTo+HaeO1wmuCjOa27FuUjg1adAeH5VwCjbbsZvAl6hQnxg5DaahPMPzTeXoGBMJxAoBCvd2nWl9Ka1Bb3u7cLIeEiABEohJAjnekDn/Nu/DbWAmEiABEiCBkBBwuVxdHGzYND2eQs0VFRkrur1/l1veu3OLvHxNuvS8prbc8nFLadalSoGntdVoResPVflrrv6XeKrUkac++tXqQlQtdVw6vmsHXOUdV6Sdn7Dsb/57JBzzuE9NTdVwI0wkEKkENqHjZ8O2w3QuO/mdiOaYSIAE/AlQuPenUdH1pdIeon13/HuzolWwHAmQAAmQAAkYD8sWb8icOIbM4WwgARIggVARSElJWRqqtrVdy/PZ6kNFtn9+6W8Zf9yf4oo3vGFxel9Xx6rOlvoLKrOpv4HWd9/o+2TlNrc8+n5IT5V/t21Z1/HouHR8VqrI+bfK6pLljcNuVvnz4ToJkECJBP6DIy/CVLy/usRcPEACJBBUAhTu7cCbB297kVftqIp1kAAJkAAJxDYBhMyZDAL7zAfkztgmwdGTAAmQQGwQUDdg9VK2w9YvyJbnzl8vi9/dLTfNbC4XTWokCdXyhUs76g+XOqpUSZJHHpkoOzy15LYX5kZ8zHuNaa/j0PHouHR84cI6KvqBaywvL8+xDxS84HqeY42xIRIILgH9XXIWbCyM4TwBgYkEnCZA4d4e4tdIHMPk2IOStZAACZAACeBF58Px3pRJ5mg5kjRIgARIgAScJQDRbYmDLUIXrXwEj5xsj3w4LFMmX7RROl1UU/79eUtp3buag8NwvqnExAQZM2aMdDnxTLl83Gx569s/nO+EDS1qv7X/Og4dj46LyV4Ceo3Fx8dX/kIrf7c0RjgTCUQLgbkYiIbxPA72AezQI1zYYCIBEgguAQr3leW7RPojrMEGRP2Kruc0K8uF5UmABEiABCpMwBgnv+G7ZazEM2ROhSGyIAmQAAlUnEDnihetQMlKCve/vPaPPHT8Gsk9YMro39rKiQNjS1O56sor5IXnn5FFGYZcNfFL+XLR+gqcBOeLaD+1v9pv7b+OgylIBCp5jQWpV6yWBCKJwN/obH/YSpiGzjkRxkQCJOAAgXgH2ojuJjwIk2PS2z66TzJHRwIkQALOE0DInIfMsfILQuZcg/XXnO8BWyQBEiABEnCAQIU97jcvOyif3J8pB/aYMmB6U2l3yhEOdDc8m2jX9kgZ/9BD8vO8+fLezHdkxter5KLeLaVfnyOlWlL4eLBnH8yV2fP+kg/mb5A69RrITTffJif0oXN2sGeV76kWxzzu0V6fYI+J9ZNAiAiMQLsrYN/BboVNhTGRAAkEkQCF+8rAnS/NINr3lVp8UUdlMLIsCZAACZBAiQSG4XvmLXOYfGxMlF0l5uIBEiABEiAB2wi4XK4utlVWjooCVRM9bpFPx26Vn6b8Leff31BOubVuOVqJjSwqgqstWbpMPp09W54e9p6c3f1IOaNTspx0bDNxheB5c49H5Mfl6TJnWYZ8tegvOe3kE2ToXf+VLp07xcZJCYNRBnqNVbbLqamp6pHMRALRSkAdilS8nw7rALsTxkQCJBAkAhTuKwM23udt304OVqYaliUBEiABEiCB4ggYY+U7eN2/LVW9IXNuLi4P95EACZAACdhLICUlxckQmAFpiotn7vaK9u1OO0JG/tpWajbiz7nizr6K4mq379olc779Xt7+4TsZNeNH6dmhhXRrU0eOb11fOrSqLy7DKK54pfZ5EJZlxfrt8uu67ZK29h9ZsGKjdOxwlJx0ytly87DxUqtWrUrVz8IVJhDQtVbhVliQBGKDQBqGqXHvZ8C+hN0I2wxjIgESsJkA/9KrHNBrUHxQ5apgaRIgARIgARIolcAwHP0DAv75EPI/KzUnD5IACZAACUQcAY+6ZPslDeth+AnKup21MhdhcbJk95Y8uezpxnL0WdULShSXv2j5WN1WkfzC/v3kogtTZffu3ZK2eKksW7pYPv9ohfy5dqO0bd5QWjeqKc3rV5UmdatJg1rVpG7NqlKzWqIcUSVBqiTES3yc4T0fyjnPbcqB3DzZdyBXdmfnyN+798u2Xdmy5e9s2bR9v6zL2i1rNm2Vdm1ayLHHHitnpp4n/72/UyGxnufr8Pkd7PmpzJ1MeMH1vH79+jFcjpPQ2VYoCBxAo/+C3QfTp0xUvP8KxkQCJGAjAQr3FYW5UM5G0WzpIT9VtAqWIwESIAESIIGyCECsz4For+L9RBiF+7KA8TgJkAAJVJIARLclEN2cCpdzmKLoL2LqUL58aId8/dg2b1icM+6od9joiubndmEveotHzZo15fTTTvGaQszJzZV169bJxo2bZHPGFknLSJftK7bJzp27ZPeevZK9/4AcOJgjbtxY0ZsrCKEkcbAqSYlSrWoVqVmjutSuXUvq168vjZLbSY/OTeSSFs2ldevWkpiQcNh5snZY/eF2PgEnePiE+8OuNescBGHJFxcEASqrDFsC49AzDZ3zHmwM7CkYEwmQgE0EKNxXFKTLGybn1YoWZzkSIAESIAESKC8BiPfvQbzvDxuP9dHlLcd8JEACJEACFSLQuUKlKlqoBG/gZR/u8YbFadm9qoxCWJw6zUsWgyvadCyXU3H9qPbtvVYWh6Je8mXl5/EwI1DCNRZmvWR3SCCSCcxC55fDNHSOxr0fAmMiARKwgUAIXs9jQ69DXcXPUhcvC7xGEkVfysFEAiRAAiRAAk4QUK/72yHe93SiMbZBAiRAAiQQfAJ5eXlSVFPctiZHXh6QLl9O2Cr9JzSSq6clU7QP/qkotYWiXuGlZubBsCNQ9BoLdgdxo4dhcoINmfWHI4GV6JTOfXUQngtrB2MiARKoJAEK9xUBmCgDxIBof7z8U5HiLEMCJEACJEACgRKAp30GylghcwItzvwkQAIkQALlJICQKE6FyZH4+HhoiociePxv4nZ5uNMaaXp8Fbn3lyPl2L6HYtmXs/vMRgIkUISA7xo7dKEVOW73Zmpqqsb7ZiKBWCVwEwb+IUyvg/6xCoHjJgG7CFC4rwhJA972HnrbVwQdy5AACZAACVScAMT7F3HjeD+87u+oeC0sSQIkQAIkUBqBlJSUpaUdt/uYhmFZ/tlemdjjL9my/ICMRFics++tb3czrI8EYpaAL8Z9zI6fAyeBEBB4DG1eDXsRNiIE7bNJEogaAhTuAz2VC+VEOMUcgZfSfhVoUeYnARIgARIggUoTMGU46pgI8b5NpetiBSRAAiRAAiEl8NPLOxpteuVImT06S/qObijXvdpMGhyZGNI+sXESiDYCPuHeMY97vOB6XrQx5HhIoAIEvkCZXrCzYBpmml9ugMBEAoESoHAfKDGBt33+h07gJVmCBEiABEiABCpJAF73v6KKcbCJlayKxUmABEiABIohANFtSTG7bd81WNL++9qN699JrL9fhi8+Uo7vX8P2NlghCZAACDgd5F6kN7mTAAl4CWzE/2fCdsL0hlZnGBMJkEAABCjcBwBL/pQkcSG+fR7D5ASCjXlJgARIgATsJQDxfjxC5rSE1/0Ae2tmbSRAAiRAAiAQVGFhkKSdO0gWLTLE7HPRhGbXNThvkxe6Fc6Dy3zHaHIgB70w7JoHWpX3QuN/JEACoSBwOxqdClPx/l+h6ADbJIFIJUDhPpAzt8vrbf8F7p+nB1KMeUmABEiABEjAdgL5IXMmQbyvaXvdrJAESIAESMB2AoNlURN42b8Ewf45aIiPTpbuF587rNE6MQxvWwaX5AACnAf2Xw9OK/a42dDH9g8QVkgCkU9A492fCxsP06eHmUiABMpBgMJ9OSAVZDEh3LvobV/AgyskQAIkQAIhIwCv+zlofCaMIXNCdhbYMAmQQDQScLlcXeweFzzs/wPx8E+I9lnJ0q39VOnxtq8NaHxOy4p2j471kUB4E/BdY45daKmpqfPDmwh7RwIhI/ADWta49/pk2yxYbRgTCZBAKQTiSznGQ/4EFkoXDUuA/z/y3811EiABEiABEggZgboyTP6WP+B1fx6EfH0BFBMJkAAJkEAlCaSkpCytZBUFxeFlfzp8qOFdaP5jiuekydLzsLpVVKR4X4CMKyRgOwFeX7YjZYUkUBkC21G4H0ydjzR0zk2wn2FMJEACxRCgx30xUIrdZXjjCL9W7DHuJAESIAESIIEQEDCGykHcVB6GpieFoHk2SQIkQAIkUAKBf8sv9eBl/wKCfrxiiGfyFOl+wdRiRHstTlGxBIjcTQI2EdBrLDc316bayq4GL7hWMZKJBEigdAL6G2YCbC5sYOlZeZQEYpcAhfvyn/trxM0wOeXHxZwkQAIkQAJOEDDul3fRzq/wumesSCeAsw0SIIGoJwDRbUllBgkv+1tyJQ5hcWTfQdnTfrL0eLWU+uBuX8pRHiIBEqg8AVxjCQkJTl5pvSvfadZAAjFBQL8fNXTOf2CPxcSIOUgSCJAAQ+WUB9giuQp/UKfh42R1ebIzDwmQAAmQAAk4SiAeXvd53pA5HyFkziJH22ZjJEACJBB9BDT2bsDpZll4oukNiyO5iGV/3ovSY0F5KqFyXx5KzEMCFSeg15iTHvcV7ylLkkBMEtDfLirez4B9DtPQORkwJhIgARCgx315poG+lNagt315UDEPCZAACZCA8wSM0bKZIXOc584WSYAESEAJ3Cg/1oCX/VMeMWbBpfeNydL9nPKK9iiOKB5OOgLznJFA7BHQa8xJj3u01yf2KHPEJFApAtkofQVMw0ypnQVjIgESAAEK92VNg6XSHmJId/x7s6ysPE4CJEACJEACoSKAkDkvoO0c8wHvo6ah6gbbJQESIIGIJ+ByubqUdxBDZOFNCVJlNcLiGEmS1x6x7KeVt6yVj8K9RYJLEggOAaevsdTU1PnBGQlrJYGoJ/AgRng37APY0KgfLQdIAuUgwFA5ZUHKg7e9iMbdYiIBEiABEiCB8CbgQsgcU34xR8vHxnhZF96dZe9IgARIIDwJpKSkLC2rZ4NkQQ9DXOMRGicJTvOXQbD/sawyJRynu30JYLibBGwmwGvNZqCsjgSCROA91LsCNgPWAXYzjIkEYpYAhfuyT/01EicXlp2NOUggqgm0wOg6+YyfG1F9qm0fXHXUWA9WF7YB9hVsGWwjjMlmAsYYWQaP+4ckXiai6sttrp7VkQAJkEDME7hd/kzKkV3jPSID4WU/arJ0e76yUExPvp6oXsGGgej4XJID54Gt14HTL4DGC67n9evXj+FyKvvhyPKxTECFe417Px32A+xG2BoYEwnEHIH4SZMm8c5zaad9jvfgEplUWqbwPnbvvffidwUTCQRMIAElxsIGwRrAmEjADgK3+yrZhuVU2FhYLozJJgIImTPOHCsLIeBfjfU3bKqW1ZAACZBAzBCA6LYEotth4XIGycJrDkK0R1SczyGvt0Ms++02QIFan1+LivaauCQHzgN7rwPfC6Cd1D16ey9m/kcCJFBZAirY3wPTuPf60tqPYUwkEFMEvJ6zFHaj95zzxkz0ntsgj0y/FO+HNfe1sxVL9ZJW2+fbxwUJFEdAb/L0hbX2O5iJdRXq02BNYfr0RkPYSJiGI3sA9hKMyS4ChgxHVa+Y9yJkziTZY1e1rIcESIAEYoRAZ/9xDpFf8L0Vp1729V1i3PCidMt37fHPVIl1p+NvV6KrLEoCEUmA11hEnjZ2mgQsAo9iRT3wZ8A0dM4jMCYSiBkCXuE+ZkbLgZIACZSHwCvIdK0v43dYjoV9D2MigbIIdESGubBaMBWL9Vmlx2D7YUXTqdgxFnYaTF/kdwrsOhiTDQTgaf8NvO5nSTVvyJxbbaiSVZAACZBADBIwjcGySOPY34E49qOnSo8nggGBomIwqLJOEjhEwOlrDO0xTM4h/FwjATsIfIZKrNA5Kt6rJ36eHRWzDhIIdwKucO8g+0cCJOAoAb2LraK9etXrl+HpMIr2gMBUJgH1ote5oqL9u7DWsPGw4kR77Pbm1fml80znm847nX9M9hEYhqr6ImTOufZVyZpIgARIIPoJuFyuLkNkwRWDJW01RPvkRHG1mxIk0R40ndYUo/8EcoQkUIQAXhuhKf//IseCsZmamjo/GPWyThKIcQLrMf4zYLtheo0dD2MigagnQI/7qD/FHCAJlJvAdOS8HpYNuwD2HYyJBMpD4GhkmgOrA/sQ9i+YG1aepGL9OtinsOth+qNKxXymShIwxsoBcwxC5sR5ve6/rGR1LE4CJEACMUFgoKQd81GK5z5E2G6FuNhD4WX/edAH7lMVg94OGyCBWCXAayxWzzzHHZ0EbsOw9IliFe/1d+PbMCYSiFoCrqgdGQdGAiQQCAH8QJUbYAdg/WDfwZhIoDwEqiKTihp1YfoI42Ww8or2yOpN3+F/nXc6/3Qe6nxksoGA8aC8g1shyxE250EbqmMVJEACJBDVBAbLwvtdYv4KL/sFU6R7N0dEe/W4d84ROKrPHwdHAiURcPrltHjBtb5Ik4kESCB4BJ5H1efDHobxd07wOLPmMCBA4T4MTgK7QAIhJtAV7VtfdpdgXT2nmUigvATGIWMr2AaYzp+KxhrUeaflNel81HnJZA8BDZlzp/mgdLOnOtZCAiRAAtFFYJCkXYRY9svhZd/eI+72qbO3XOn0CIvGy+F24agm5EEe/tdkZeeDf11BWu8dpHpZLQmQwCEC32FVrzX93fgerCaMiQSijgCF+6g7pRwQCQRMQN/Sruk5mHpMM5FAeQl0QUa8sM+brsb/6jFfmaTzT+ehJmte5m/x/woTQMicdBQeBofOiRWuhAVJgARIIAoJQKw/El72bxliPugRcyS87K+eJr00fFtnB4drejweMQz0wgrEjSW3yYPzIf9mhXKo7PXgu54L3/1w8CJnUyRAAkEjsBU1XwBbC9PQObxpBghM0UWAwn10nU+OhgQCJXAPCpwO0x+p/w20MPPHPIGXQCAO9iLsJ5to6DzU+ajzUucnkw0EIN4/D+HejZA5Q22ojlWQAAmQQMQTGCQLRmAQq+FlvwKCfcdp0uOj0A3K8Dat4qQmLsmB88De68B3T8x7fTnxH2429HGiHbZBAiRQQOBerE2C/Qy7sWAvV0ggCgjw5bRRcBI5BBKoIAH9VaRfcJpULN3vXeN/JFA+Av2RTT3ut8DsvOmj81Dr08cddX4+BqOHFCDYkDRkzjxzvHxkjPaGNrKhSlZBAiRAApFFAF72KejxeHyxrMkTs8N06bGq6AhcLpd+vzmVvB73lne1Nmp5GFsd4Ha+xzV55BPgfAh8PviuL8f+nkxNTVXPXyYSIAFnCbyM5lbApsM6wOgEBghMkU+AHveRfw45AhKoKIEhKNgA9iNsVkUrYbmYJWD9IaQhbfbaTEHno85LnZ86T5lsIACv+6WoZgLeQqDeKEwkQAIkEFMEbpAFzQfJolcw6MdhD0+V7pcVJ9orlJSUFP28dCz5HO0L2rM87q0d3M73wCePfAKcDxWZD45p9tY05ZIESCA0BBagWQ2X0wL2GawxjIkEIpoAhfuIPn3sPAlUisDNvtIa5oSJBAIhcDwynwTbA5saSMEA8lrz0pqnARRl1pIIQLx/EMfaImTOVSXl4X4SIAESiDYCQ2TxXQniQlgc2YiwOEfB3g2nMfq8gcOpS+wLCUQVAb3GcnNzHRvT7Nmz5znWGBsiARIoSkCdyi6HqYivT7+cAWMigYglQOE+Yk8dO04ClSKQitKdYPoSlzcqVRMLxyKBkb5BT8ZSxftgJJ2XOj91nup8ZbKPgIbMmWj+nxxhX5WsiQRIgATCj8BAWXg2vOx/McU8Fb3rCS/7+8rTS4huS8qTz6Y81O1tAslqSKAkAhrjPiEhwUm3e/X4ZSIBEggtgbFoXkOvfgy7DcZEAhFJgMJ9RJ42dpoEKk1gsK8Gy6u50vF+4m0AAEAASURBVBWygpghUBMjvRSWB3syyKO25qc1X4PcXGxUD6/7rzHSD2QfQ+bExhnnKEkg9ggMlPmNEMt+qkuMKXjF5dNTpFt/eNn/FgCJzgHkrXRWKveVRsgKSKBUArzGSsXDgyQQzQRmYnB6I+1a2PPRPFCOLXoJULiP3nPLkZFASQSScOBc38HXSsrE/SRQAoG+2B8HU/F3cwl57Nptzc/zUKHOWyb7CAwXQ1IQMucc+6pkTSRAAiQQegKDJe02l8QjLI7xN3rTfqp0C/cnC/FAgJOOwKE/R+wBCThOIP8ac+xCw42CPo6PkQ2SAAmUROB3HFDxvhrsO1gbGBMJRAwBCvcRc6rYURKwjYCK9vGwn2GZttXKimKFQH/fQD91YMA6P3We6o0C62aTA81GfxPwus8WU4ZjpBOjf7QcIQmQQCwQQBz7U+BlP1fEk+IR4wx42Q+Dl32Fglq7XK4uTjKzvIG5zNdVyYEc9Pqzex44eU2npqZqXG0mEiCB8CHgQVeuh+kLa/X6vADGRAIRQYDCfUScJnaSBGwlcJ6vti9srZWVxQIBFdBTfAN936EBW/PUmrcONRv9zUC8fxuj/ANe9w9E/2g5QhIggWglcIvMrQMv+2dN8bxliDF9ivToO026pVVmvCkpKUsrUz7AsiaegPImw8hf4ZIcdEJwHtg3D/BYiyJ1zONeG2MiARIISwKT0KsbYdNhGv+eiQTCngCF+7A/RewgCdhOwPJc/tL2mllhtBM4FQPUGPfLYRkODdaapxTugwE8XoZBMLob4n3XYFTPOkmABEggmASGSNpgt1RFWBxP7n5JaD9Zus0IZnvBqtvjUUfAQ8nyNLb2cLuw3koe5GFdG7osz3womse/fDDW8YLrecGol3WSAAnYQuAT1KKhc86HvQyjLgoITOFLgBM0fM8Ne0YCwSCgL1trA0uHLQhGA6wzqgmk+kanf+w4lXSe6nxtDXP0ZYFODTCU7RijZRND5oTyDLBtEiCBihC4RdJ6D5JF30Cyu8IQVyq87O98TTrtq0hdxZWB6LakuP1B2gcVNt+z2Krf8rTmdj4B8uD8sK4FXVZkPvheI1H4jod/pfavqyjIRAIkEL4E1qJrp8GyYfNhx8GYSCAsCVC4D8vTwk6RQNAIHOurmV4gQUMc1RWf6BvdTw6P0pqv1vx1uPnobg4hc57FCE3zAbk9ukfK0ZEACUQ6gWvkyyMQFudxt5izDTFnTpbuZ06WrtZ3hJ3Dc/RGsdPewHaCYl0kEAkEeI1FwlliH0kgJARuRauvwlS8vzwkPWCjJFAGAQr3ZQDiYRKIMgIdfONZEWXj4nCcIXC0rxkNleNksuarNX+dbDs22nIhZI4pExEyp0VsDJijJAESiDQCN0va9VWk3moI9klxktgeXvaTI20MJffXSUfgknvBIyQQvQScvcZwo6BP9LLkyEgg6gioE5M+WT4JNhbGRAJhRSA+rHrDzpAACQSbgCV8WkJosNtj/dFDoAmGUh2WA9NHC51M1ny15q+TbcdEW8YYWQLRXv9YnQj7V0wMmoMkARKICAKDZRHewWGM94hZA7Hsr5osPb8PdsddLleXYLfhVz80PmdFRb+2uUoCMUHAd405dqGlpqaq9y4TCZBA5BCYg65qiKvpsJmwG2F7YUwkEHIC9LgP+SlgB0jAUQKW8GkJoY42zsYimsBRvt7/HoJRWPOVoXKCCB8hc8ai+qMQMofCfRA5s2oSIIHyERgrZjzi2D+C6N7fwsv+8ynS/eSpDoj22ruUlJSl5eulPbmo29vDkbWQQEkEeI2VRIb7SYAE/AhkYv182EaY3nzrCWMigZAToHAf8lPADpCAYwSS0FJ7mHqbWEKoY42zoYgnYAn3TofJUXA6X3XetoNVgTEFi4BREDKnWrCaYL0kQAIkUBYBeNlflSFpCIsj9dyS1x6x7J8pq0wEH6fHfQSfPHY9Mgg47XGPF1wH490bkQGbvSSByCdwD4bwOEzF++thTCQQUgKRINwn2kSoJuqpzHhVxMAjukwkELEEVLTXpCKox7vG/0ig/ASa+rKGQrjX+WrdbGpb/i4zZ6AEjPvlK5T5CKYhc5hIgARIwFECN8vC44bIog8h2P8HXvZD4GU/aJr0znK0E2gMotsSp9u02isaNofbhaObkAd5WNeKLgOdD/5lg7yuITeYSIAEIpeAhsw5AXYvbFLkDoM9jwYClRGynRh/QzTyFywO1gM2s4j1w7amVrA3YJaH4E1Yvx2m8ZgnwDRNg1keo8OwPsNnl2F5I+xVP3se60XTm9jxMExjXvobflswkUBEELBuPO2KiN4GqZONG7fo0Lhx4wblrb52q1a1GzdtmVLe/MHMl5ycXL9JkxbdgtlGKXXrzU9NGfmLwP5H31s0atSydWClCuW25q3Vj0IHuWEjgb0yHLX1R8ics22slVWRAAmQQKkE4GX/oEeMhZAl58LDvtdk6aE3EkOVOjvYsOnx5PtTqAhpGLhl4YvrwW3y4Hyw53rwXVOF73o4eJGzKRIggYgkoB73ehOuDewTmOqTTCTgOIFwF+5VgH8Z5oZpXOW7/ExjT9aDaVoP+w32DcwS77EqCTAV2a1kieznYccLsJ9geOGV907ap1iqyK92CcxKyug+2BkwvREw1GdfYPkxTG8qMJFAWBBYJHL3jyU/GWIJnrvDorMldKJhcvN7GjVtGjQvFdMl8z1xCdeW0Hyh3Q2bNLsoKcf9D/7Yf6vQgRBt5Jmu8zyGfFue5lXgb9SkxYjy5C0pT5FzYc2f7JLyl7bfLXETJM79TGl5yji2x3fc6kcZ2Xm4ogSMR2Wf+ELmVLQOliMBEiCB8hIYIgsvhZf9SvyR3jJePO3hZf9YectGSz5o9YXEeh2Xv3jPbfLgfMjX3CvKATPI0Y8L9LOPow2yMRIggWARUO3kUthimAr5p8GYSMBRAuEs3CeCxECYCux6d0s9Nd/2s/9gPR2mSQX1F2F3wmrDqsDUu7gqTMX7urCi6W/s2Om3cx3W/4CpV2em334V7HrB0nz7xmK5H6aP0Ko3Th6MiQTChcD4JJEd+FaZsPJwAd8SPMNauDfEGCOeuOAJ94b7ZDMn7o3ynDB4OekNu1+zMjbq50pEJY94uoph6lNCFU5FzoU1fyok3IvbuM/jkjsq3BkRa95a/ahEVSxaFgGEzNHvvlVm/gtry8rO4yRAAiQQMIFBsrQ9vOxnwqd6FCS1u+Flf93z0nNTwBUFoYDL5fJ3/AlCC4WqXLcvu2JfrYVq4QYJkECJBHzXmP7edySlpqaqwMdEAiQQPQTGYCgjYZ/Bbo2eYXEkkUAgPow7eQP6poK8hsf5E9YY9ijMSvdgpRNMQ+l0hN0POwv2LGwrrB1MY2JCx5RxsKJpMnbUh+mFZ6VhWFFve39PnwewrV/yGqpHxb7rYVr/5bB9MCYSCCcCw9GZR/AD+C5Mzjsh4D9RDSGejhZRb2VL8LQE0GL73Ti5+b9NMS/GweNEjK8NwzMtc/PmbzVzo+TmM+EV9hmcVnoiz1FZGelnNmjQoLorIekhiLznod0D8NSdmbV5k8bH9t7UatCk2Xkuw7gRni6nmoaRZnjMD7K2pE/V+oom1P8h8tUwDbm7cXKzxMyM9ElNmrQ8xhTPUHiaXwCHtHTU/22NqkkPrFmz5qCWb9y42anwoscXqdEYxz5CH3YYHiMva8vGp4rWr9uG6Rop8Xn6uTIL7X0Mj5h38Fy6fnachfo3GC5zdGZ6+nfwVofI7MF17qraKLnZxxjrBfWaNWsa7zGeQC0Yq7kLLF5LMMxx6enpejPvsASWD2IsceAxSg+2bds2aXf2wa/iTBm9Zcumnxs2bf4x6nrbME2E4jFPA8MlLom7IyNjPe676NhatTJd7kkYVzcwX4DlWn+HoZLYNmra4gLUN1zzwmv+BzM37vJt29ZnYv0cw5QRgNDBMFxzPeIet3Xz5mXaVtFUzLmomZCYJLXr1n/E5Yp7B/Wvw/ifyNy86RWUNfF0wtU4zydidQVEmEHoa3Uxjam46fF/OO424uSyOI8L09H7WS06z7A+FBxrY9yzxGM8l5m5cTn2lZSseWvN45Lycb9dBHIRMidBVpgPyke4naY3q5lIgARIwBYC8LAf7ZG8B/G9OwqCvf5NHVYpJSVlqVMdgpPAgTPOPs+p5thOKQSytm6V9es3SPrmzZK5ZYvs2JYlO3b8Lbt375E9+7Ll4MEcOZibK243gjrhj6CEOJckJSZK1WpVpMYRR0jtWjWlTr160rBxE0lukiz4s1FatWwhNWqoPxlTKAmsWPGHnrMDoewD2yYBEoh4Am9jBCtg02EdYLfBmEgg6ATCWbj/EqNfBXsNdiksFVYP1gLWE/YerCVMRRyIX5IMU4EIYqP35XoQAKU7bC+sOKHnIuxXMV4FO00qeG6G/QLrBnsVpsfugZ0LWwhTsfE3GH5nyNWw12F/wCDkyecwJhIIKQFM+KcwUcdAr62rHcGyQMDvi6dJsvJ7pyJ+sQli7RUo8yym+LMQtKe7DLnGY7peheDcVoVyHOuDSi/D8T24CiaiEsNIqPIZFp3R2pM4pn8QPwRRtmlmxqZbGzVq0QYiMa4N81OEa70bF04vlJiCOPM/QaTVL71CyTSNWYZh9ocA/Iu4Tb0W403D8yHazTNMY5zpMqtDeH5sz74D63BsaqNmzTqaHuM7rH+F/ryFNoagjWaGy6OfGyUkoy9eU70g/6BxGn539cP6BxCPn0U7o1Cffp7UMkzPEtxo+BP9b4JxfdiqVasq2Tlu9Z7ZbZqeW8SFGwWmPJprGg2xbyDs8GQYHfCse8GTTdnZ2XHQ8U92i1lPunUzjC1bcVrMvmj3eXAZi7Hd4Za87xs1atQmLi7OzBP3XB0P6pgIEbwXGrgS5j1/pbHFjYu/PIapY2wDbq97zL37IOafiXq+xHjmmIZrjJieyw1xLW3QrFn7benpfxbtfNFzkZCQOKBu/YaCOLx/g9l4sD4FNgOCfd7WLemvg0cbbN8CjqvR56ewfgzGNgE3QPbrTRQI9Mdju5a2g32Dsf0szpnOmbW4uXGHxJn6Oas3XD2ap5hE4b4YKMHcZTwkGxDnfjjOiF7r5wSzLdZNAiQQGwQGycJUfE+Mx3fACizbQbRXB5yYT3v37pO8vDyJj4+PeRZOAli5arUsW/arLP9tqfyx6k9x4Q+y1k3rSKuG1aVF3arS4+gjpF7NI6V29SSpUTVBqiYmQKiPw588+EsHKTfPDSHfI/sO5Mqe7IPyz96Dsn13tmz5e7Ws2rBMvsjaI2s375A6tWvK0Ue3l2M7dpIunTpJixbNnRxmzLel15ZeY04mvOB6Xr9+/fo42SbbIgEScITAr2ilN0zF+zkwOCjKehgTCQSNQDj/dbgeo74fpoIBBB85CaaCmnr96dudv4DpHa9RME0vwvSvoEdhbWAzYJ1gmtRr5mzvWv5/cViMgDWFqVivqTrsIOwT2HMwTXrjQNu3xLIzsX45bAjsI5j+1abe/tthYZsWQS0L286xY8EmkKgqKCbq3XiMZM2A/NYsAfTwtk2jlhieR+BdrteHJCe3/APe7ml79u/vgk0VrXUypcdL3lEZmzOyGyW3OAt7Tob1h1Cv16c0atp8P0Tbx+u0aTPCPOBujFdKfVA1Mf6q9evXH8Dht1HmOnF5LsD6YcL91i0bX8Px50yP/JiVmf59ixYt6hzMM/+AYD9ma/om/ZJUr/9T4DFzCVanQmS/C7+d1lZNiEvV+ps2bfoC4sAHdD2CzZfo+8W+uldi+SE865Phdf89bkD8irFkg8e0hk1bXIu8zdCXTlvT0719gce8qTcSGjU6cmRW1l9btY4KpA+2ZmxS73Np2KzZTxDdl5muhIs8hhGPupuZ4jpxa8aGn/U4xj4Pi2N13YwzSmS7BU8qNGrSbA5uBlwJ0XyK5kfZB7BA2J90/RyDF1izV3M9Rlacx9BpoZ+1hVLRc1GrTr1mGld0W+bmO5FRP1PfRZ0tcS50rrxuFXaL68ptGRv0c1rbbARAevPzKeu4d2l4xsHjf1bm5o1aF/K1wA1Q8yvcRGiDmwhrCuU9tLFbV08X6futyOOHdnMtmAQQMucZc6ykwm4zxnqfaAtmc6ybBEggSgncLEtameIej79JuroQGudF6f5BOA8VotsSiG76t49jSb9j3W68ESZOf6YwBYvAUgj133//vcyfP1+OSIqXnu0aygXH1ZNhKWdLozrVAmo2IT5O1KpD1C+t7PrMXfLb+u2yLG2OzHzrDUlKqiq9+vSRk08+WTocc3RAbTJzYAT0mtJrKwSpdwjaZJMkQALOEMhDM9fChsNUI1Hx/jMYEwkEhUA4C/fw6pXrYU1g/4PdBZsN84pWWH4PUw9Uy3tYBfRbYVfCfodtgI2BvQWDZunNi4U31cP/P8H0hkAN7x6RSViqSL8aNsO3bxOWT8Da+bY1v4pzPXzbrbHUfk3zbYflonv+DYaw7Bs7ZT8B3KhR4VrnuKYcuHvDoVmeuDs/RrjGPK/pPVLMfyryNmnS/JTGyS3GotCRbtMNL1tI72Y8qslP2HojIyMjW7fgMdcZdevamQgnozfUdKfeOJPEnJwWEIl/hhg77EBO3lCIuO2xG9eOiWsOvvxIEPkPedp55KWsLZu0fwVp48aN/0C8v+GAW66EuDsQZfXXzdmwLzUTKumK9r713RSQzZs370CdeOggP5VVv+ZCWJfv8nOrq7drowv/4yez8tts7delyzSPR949uIGgny/5yXThi9oDET2vLcY3AR06zXvANP/A2PXmRJkJY/jGyqQ3BDBOPM1gwnvdqI/9eyDaL7COg/fn8FD0fgaqmF8aW6uMb6kqwIkw1N/sEd0HBzEkz36M6ZgGyS27uAzPe7rHm0xjCELcfG1t6hIe90kHD+zX1ST9TxP68hP61A+rBd8llmivxzGH5uDmw2X6tML+HLfugpeZ92ZMQ0wq6O/5yddW/lSydh6+9M7b5ri/kSayAJlHdPVjd3h27rGRwDDUNdccj5A5o0W/F5lIgARIoNwEBsvCexGabTy+FR6eKj0GlLtgaDPiSULnE55q8zZK8d5e9vv375fZn3wmX37xmSS5PHJmp2R55uaTpVWjEv8ktrUDrRrXErV+Pil31aa/5fvf/pLHJs2V+IQqcm7fFDm/77lSpUoVW9uN9cpUtLeuqVhnwfGTAAkEhYD+rlZnxFdhuv4ojIkEbCdQILbYXnPlK/wUVahAlAhrDTsJVhem4rwKhCqsXQF7AKa30a+BqWDXEaZpL6yOd+3w/3Tcn8BUhTrLd3g3lur9MxnWzLdPF5f61lW01z71gaX79umNgV2+dS5IIOQEFon8B52oBsuBsOkV7LFhxbgf6Otgib9SEMLkPwix8iTE2LmIu/6TmC6I0abevCpIqPdvawPe7nX06oOAm4CfmnpdadoGe97IjdvbMLnlCYbHozfJcEPM/AI5n4I9qZm8yZTPUNx7U8DlQliaIqlu3bY1D+blbED9OGK+i8XnEHwhQuu298KvC2FYr91DyTS3+g5rhlLr10KGePSzosyEfuLzxFTRMv9XNVbiTA8c1lGHkQdsrsWe/FBB2DYyiqswJy6udly+fl1wGPXuKNjwMUR5N/pVG6K6ssyzjqOpf6z1MtlaGbHEewiq6ibaQl1GDb9D7wH+Cpfb3AWqOD++ZLi13ULJFeeK9xz0dr66dQDe9PHeT19rh8bg90uYQwlKeO/evQlxid4uID4sOOIMFhm3X6kSV739xl9Fz2CS78dJmIH5Phu5R3bn53CJ0Ow4YIyVxfC4fxSzR29uX2VHnayDBEgg+gkMkbTz8GmvXvYbE8To9Lx0/yP6R135EVpCI8X7yrPctWu3vDtrlnz44UdyepdWMvKSjtLpyIaVr7iSNRzVvK6oDT7/eFm0OlM+XjBHLpvxsvS/MFWuuOxSxsSvJF8tHmrRHl7+qhkwkQAJRD+BjzFEvS07HdYBdiOMiQRsJWAJbbZWalNlKs7fBTsKNhemXu6nw46E6bGbYDNhd8Keg10HOxr2FmwErKSk9VnCexW/TLWxrvXugWmdI2E5MIh1XqFiOJapMP+yPbH9NYyJBMKFgL6YVh+yfgwu8Q+fdOiJFO2fJXCXJNwj5Lk5FCL5rKzNG703rBoktzjJq6qXNDrThFALORkvFt3qe7Foo0bNjzPjzEvwntqthiSOx4/2rfDX76wvcEV4lqrw9H7JWwZ1ZmVsur2kqnV/QtIB3JyD0OyWjllZ+Z7u8Bi/wCoD7//VUMnPtLYRNz5BtmTpZ8WXuq+s+gvKlWMFd0HW4ybBjRhDXYzFe/MCrybrphK0Oz5+w/YNG+YXrQZ/tKvSXcAbL2fFZxQkDL+EmyT6JII3wfO9I47XwDlYjdsuEL3Naxo3btwgMzPTJ6Qb+hnoTRD2/10aWyufLrdt27ZXPfnBaw2YoFx+8r4g1nCtz8ragPMoBfut4/7LvDz37sTEKvWxr0C4x9B74eyvxr78mwt42iI5Obma9UQGzt2ZmI/p27dv34MnErzV1aiRuFnjwKKsfn6+rTu9NyHEM1XcrgvQl3XejIf/Z3HcDegzIdp/gCz6hMbKBfi8RmUzDi/CPXYRgHh/P8T7JbArse49b3bVzXpIgASii8CNsjg5Hh72+H47BTYaXvYR95nhcrm6hPKsqHiPm/gFpqE+dJvL8nOY9f6H8vrrb8g5XVvK6/f2lWYN/P0WQnl2C7fdvX1jUUs/t4O8+f3vct0Nn8m111wrF/bvx/NdwXmv1491A6wwbee2UlNT5zvXGlsiARIIMYE1aP8U2IswvfZVvF8BYyIBWwiUqsnZ0kLFK9mJoqNgbWE3wE6EnQF7E7Ycpl6yF8LegHWGqVCnf5Gpl/5smCYV3hd71w79p/XpXTEIi94LS+vS9AxM62gIg+4pQ2F652wlrBmsD2wJ7BjYMpiWU7ELmhETCYQNgdGQROt1xc2rIqK9drAs4V5/D+7EfzUhvtbX8Cn4ifiUFnR53LV0WTS544zPdR/ivk/QF8VCHD4LVw+uSSM1KytrH35ebUbpqrm5riaNG7dqleMxnvfmN00Vf0v4/PHsh5d/R8Srrycu1xbNL/FGK93GEwF3oO4zIAZreby41ngXy+MbJjcb06RJi26NtmzFl6X3ZbFaytbkchvva4XwrR9Zv379GmB0FG506I2H2RDt8/tZpEWI/b9j19mNmza/XvuHF8I+USQLbnu47tEbJIhvfzzC9MCj2djjznHNNV2eWZrXdMWPVvEeNywGYvMiq3xZbBEb/4DmReij7ljEgdkLWF4Osf6GJk1at1Rm2Pes5ik5HToXCJPzV3xCgtSsXedMFecbN27WF+X6YYxgfih5zLjHcK6aIf7/zdjbHyf5nUNH8aIFvOQYLyB+DQrEQOXSsGnTTrgJMQl9qQnRfoN/3iLrBcK97segsmF3oP4r8IE9MA2f6wvzX05epBg3bSQwDHVNNB+XqjbWyapIgASiiMBgSbsjXjyr8R2VOVm6tYtE0V5PR0pKytJQnxb/2Nwq2mvismwOf/21Vv57zz2y9Oev5MXbT5d7L+8WtqK9/xzTGwv3XtpNnh5yisyb86mMHDFCtmRm8rwHOO9VsNdrh4kESIAEQkBAf/+qXqni/aUhaJ9NRimBEoSzsBgtHCq9Qjn0HPhmiuyEvQ1rB3sOpkmF+SzYL7DrYBth58I0v6Z9sJHeNRG9iNQz9FOYiocq3h8Fex12D+x4mIqUKnbdCVOBTS+4lrARsHSYpj9gnWBHwlTcz/c0xQoTCYSaAITMx4oR7K1uWcK93uAqNuHn0IP4Wdgbr0bbBhF5sUtMveZWmC7jMw1b4ytkXV+yfdOmDORPhZ0Gr/tfcel9hTqqxJmuAZoX4vMUiP9bIBv/Zbrc61wGfPFFXoZaDTG6mV6rhyfDmIadN+IlsxPh+f8F6vsSLkezvS+ddZlX4erWG3onQsget3Xzpmk4/hh80h5ArJpFONYGx+ajjf2HV1xoT8EY/PdqyBvdRp3e49goyJepTxQg9jt23I2wL7vBaCWy7og3PLf61+G/HueJfxWVrcUNkRm+/n3jPQ7l+lA+81dwnut9Ka33xqA5YNu29ZlZ6em/oR/wgjeG4mW1W7GcihsaU6xyZbE1PPoeD2MPQvksxE2T5nkHEh9C2Q/Q8HSPkbdemaFvD2du3qCficUnv3Oxb9+epfuz90nVatVvx9j36ZxAXS/jxcB6Q8CXjD0Q8k/AudqEEer+d13iHmMdtZZmXtI98MJcqlwQYmgpKOcaLlP/uPHyt/IVWVrzz5rH3sNdRX6AB/6J6Mv34LUYXxyHtVekHm5WkIAx1vu+mU9wC3BiBatgMRIggSglMFDSzkAs+5/xtXkWbkifOFW6j8T3jN93XZQOPMjDKhruQz0s/BO3C/OY8+13ctvQO+SMo6rLk4NPkrZN6/jjioj1o1vUk+duPUW6JRty++13yC8L4JbgSzzfhc93UR7hJNrjBdfzrPPGJQmQQEwReBqjvRj2OIy/S2Pq1AdvsMakSZPMe++9F3oHUzQS4PmNxrNa4TEdh5K/wZbDdL34hHAzjbKyjq5fq9aq5cuX682x+HrNmjXakZ6+ufgCeCQFIXAOeuKOjvOYByFwq6BdSIBt0qTlMQeqxmX8s3btLq2jfvPmyRD9IUYXf+NLPdqrV6+ea710Fh7eLRAfPi//RoGIet/n5OQclKSkJrj7WAUi9x9t27aNU2/uhsnN0yCEz8jMSH9W27I7ad8SEqoehTD0WQgJozf0Cv+KOLxBA8J5y/j4PHQz/dANBeW8ZWsOvOcud5l5n3o88a3A7o+i9enLXPfnGa0SJHfVoRA0hxopja2eF+SsaoX20VLqDe92u5rEx5t/+e8/VGPhNb9zgZs68t/4+ITH6tdv/E5cnGetvgzYyg0P+/vwRXJ91uZNR+KluW2T8C6EsurXeZDodudgXNutekpZ/o5jx8KOh+k8PiwtE2mNCTsB/TgaJ2VED8E7EZhsJYBQOdVRoc7TGyDkf21r5ayMBEgg4ggMlkX18TU4HjeKz8er2kdPkx6vRtwgiukwRLcl/fr161LMoaDs6tnnZPOLTz8qsW6Nd4/wPSUe5wF4Zn3+hUx/abo8csMJ0qWtPkAd+emH39JlxEtzZfSo4XLySfrwOVNJBMoS7c9L6S8L5s11TPPAZ4iJzxDH2iuJC/eTAAmEjEAyWp4OUwfkG2HZMCYSqBCB+AqVYiESIIFIJLDG1+kOWOqvv0LiesGA0tJy8RjLb1CZrV15pYn2msknSC+xChRdbtmyQYW+gmQJ8AU7iqxoTHRYwV4IuxsLNrBiCcaNm7boDG+bmVhenp2d/WujJs0vweGu8OIe7J/fznXtG+pbFECdZmbm+vWl5fcJ8iuKy7Nx48Z/sF+t2FQaW9952e9fEOz0xBacXP9jxa37nQtvmby83GaZmZsOuX8VU2hbero114o5emhXWfPgUE7vfNV5q2l1/uLw//Eo1DrsvRJhcy6HcP8sTtIcbI/oLnJoMh1ejHsCIACxfi/E+2Eool733QIoyqwkQAJRRmCQLLoVQxoP0X56ktRq94y0Q7S+qEmdw2kkVugPivfFn5Wf582XaVOnyXO3nSbtm9YtPlME7j2lYzN56tbT5bZxD8uTj02S445T/wWmogSKPplS9Di3SYAESCAEBBCZQM6Dqee9RvJQ8T4QDQHZmUggn4CKd0wkQAKxQUDDQP0JU+8PSwSN6JFnbt44C8N5xjQ9z2roGoSAvQ4DunLLlo3QbsM8paVBWza34ql3PS+RkPRJDU1H5S8K/49JtRfPHmwpvNe2LZ2vOm9VtC9TGIKaPHNvfj93AvIqTIag3cixbYQRVBHE+zdxNv6EgD8mgrrNrpIACdhEAF72JyEszneo7kK3mOdNke73RJlobxMpe6uhOFk8z71798qTTz4lD1zTK6pEe2u0+uLa+6/pI0899aS1i0s/AupprxZuCY5FfcKtT+wPCZBASAjchVY1fI6K99eGpAdsNOIJULiP+FPIAZBAQAQs8TUqhHuM3JOVsXFoVkZ6I3HnVM/M2HRUVsamdwIiErrMedpv9H926LoQUMsaqkbTMfmLwv8jRM4TYH9S4b22bVnztdinEopr5XSEYYKn/X/xU+4CiPf/gnvDF3hMwLGwB8X1Kar2mTIc4xkB8T6svFKjijEHQwJhRuB2mV8TXvb64/M93Et9HXHsz3lJeiwIs27a0h14tofl9wXF+8NP7xtvvi1ndmkpJ3RoevjBKNnTt0cbade4mrz19swoGZE9wygrPI49rVSsltTUVBXpmEiABEhACUyDnQIbCXsExkQCARGgcB8QLmYmgYgnYAmflhAa8QOyBpCVlbXPWucyKAQQQUl2wBC+XpoHpYWSK7XmqzV/S85Z5EgvkXkQ8KHjy2dw2Z8LAX9ckSzcrAABeN2vRzErZE4FamAREiCBSCIAL/uBByXeG6psn+S1h5e9/giN2pSSkrI0XAdH8f7QmVHhdvYnn8rVp7Y5tDNK1wac3l4+/rjk9yBE6bBLHFY4i/YldpoHSIAEYpnAzxh8b1h72Mew+jAmEigXAQr35cLETCQQNQQs4dMSQqNmYByIIwQsr/tiw+UEsQfWfLXmb8BNQbx/Og8vrYV43xLi/fLFIqkBV8IChQhAvFfP2zh43d9a6AA3SIAEoobAzbKwJ7zs/wcP+wEY1KXwsh/6hvTeHTUDjNCBULzPP3GL0hbLMa0bS+O61SP0TJa/2+2b1pG61avI779bD8+Wv2y05YwE0R4vp50Xbdw5HhIggUoT2IkaLob9CtOnctQLn4kEyiRA4b5MRMxAAlFFwPprn3EXo+q0OjYY9RTQdEL+wrH/rflqzd8KNQwXh3TEv9fYgqMQQmciBPyXIeAnV6gyFrIIaMicSRDvm1k7uCQBEoh8AtfLt1XgZf+oR4wvMJoPp0i30+Bl/2Pkj6x8I4DotqR8OUOXq6h4j5jahToTC9sbNmyU9k1qFhp3NG8c27K2/LV2nXeIsXB+/c+lNd5IEO19/VbPWiYSIAESKI7AaOwcA4NjhNxcXAbuIwF/AhTu/WlwnQSin4A++q1/8avI1jP6h8sR2kzgc199/Wyut7TqdJ7qfF0LsyV0AbzvP4QdA4ljMwT8lYh9f1tpHeCxkgnA6x73P+Rx2MSSc/EICZBAJBEYIguvTZQaq+Flr27M7eFl/3wk9d+mvna2qZ6gVmOJ9ypmatKlCpyxsv3z/F9k9UaN5Bcbad3mHbJz586YOb/FzWed80wkQAIkEAUE3sQY9AbfYJg+xcxEAiUSoHBfIhoeIIGoJaDec5rOzV/wfxIoNwH1uN8Fg+7tWFw+a55+We5eljNjD3jeI3TO6bDUNJFvoEAjJD5ToAQg3qvHyLHmGLki0LLMTwIkED4EBsmCzvCy/wQ3NW+Gp/318LK/GV7228Onh+xJcQT8hUzDwDcaUqwsE+PjJScv/6ZFcWyibZ+OdcWKP2Lm/PrPY70h5T/Xw/3cor/W06Lh3lX2jwRIIHQE1ClNxfu6sK9hLWBMJHAYAQr3hyHhDhKIegKWcH9e1I+UA7SbgLo56SN9mi7KXwT9f2ueWvPW1gYROicNdyHOgVD1Lir+At73E7HO78ZAKRt4Ua0L7MZKlUCLMj8JkEBoCYwV04U49g8b4kIoHOPrKdLjhGnSbU5oexXa1l0uV5fQ9iCw1lXQtEKJBFYysnPXrlNbduw5ENmDCKD3OlYdc6ylSBPt9fykpqbOj7XzxPGSAAlUiEAOSg2A6d9d+rlh/fbFKhMJ5BOgOMGZQAKxR0A9l1WAPQHWOPaGzxFXksBnvvJOhMvR+anzNA9mu8e9bxzeBcT7FxNE9KW79eF9vwoC/qX+x7leOgHjfu/50bnBkDmlo+JREggrAoNk4ZUZkrbaELNxnrjaw8v+ybDqYIg6k5KSol5wEZViUbxv0rixbNuZLZl/742oc1WRzuoYdaw65lhKkSjax9L54VhJgARsI/AwaroVpiF07rKtVlYUFQQo3EfFaeQgSCAgAgeR+wtfiWsCKsnMJCDyPiBkw/rCGgUZiDU/VbTXeRvU1ElkK8Ln3IRG7sCX430InfMmXl7bMqiNRlPlVeF1L3IJQuacGU3D4lhIIBoJDJH5HQZL2iyXGPcYYtwGL/sbp0vXjGgcayyNScV7K759LIxbQ6kc06KuvDlnZdQPV8eoY7XCx0T9gDFAnc9qkZjwgut5kdhv9pkESCCkBD5E671hF8OmhbQnbDysCFC4D6vTwc6QgGMEpvhautmxFtlQtBDYjYG8CouH/SfIg7LmpzVfg9xcfvXwvv8UIXQ6IWTOakTOVe/7Ox1pOMIbMYbJHvGFzInwobD7JBDVBAbLwrGmxMOj3PPLZOnefbJ0s27mR/W4AxkcRLclgeQPp7wq3MeSeN/lyIbyzZIN8vOKzeF0Gmzti45Nx6hjjZVkvZg2gser4hsTCZAACQRKYDUKnATDz1DR98sdDWOKcQIU7mN8AnD4MUvgY4x8GawN7OqYpcCBV5TAM76Ct2FZraKVlFFO56XOT52nOl8dT/C+H4vX/PWEnQnv+7kw/SOKqRQCCJnzBg6vNR+Q+0rJxkMkQAIhIDBEFlyMWPYr4GHf1iVxCIvTY1IIuhEpTXaOlI4W189YEu8TE+Jk2JW95P5XfpbVm/8uDkdE79Mx6dh0jDrWWEix9uRILJxTjpEESCBgAoNRYiZsPkw98JlimACF+xg++Rx6zBN40UfA8mqOeSAEUG4CK5DzG1gN2MBylwosozUvrXkaWGmbcsPz/ld44F+AL8sZqHIW4t8//q3wBayl4oWGIqaMMu8TRB9iIgESCDWBmyStLcLivGWKa6yIORxe9gNelC7rQ90vth9cArEk3p/SsZn8u39nGfrcHFmyZmtwwTpYu45Fx6Rj0zHGQooCT3vvaUJs/j6xcL44RhIggaASeBK1Xw57GjY6qC2x8rAmQOE+rE8PO0cCQSUwGbVvg6kX8SVBbYmVRyOBp3yDuhfL6jYPUOejzkudnzpPQ566ikzfj0cVET6nKu5WrETs+3+FvFNh2gHjPlnnDZkTxxfVhukpYrdiiADC4ox0iakvn10+RbofP1V6hOQJpkhD7nK5ukRan4vrr4qg/jHC9UWfmqJtqWO68IR2cvel3SF0fyMzv1+luyI66Rh0LDomHZt/irbzZ40nmjztU1NT1UuWiQRIgAQqS+B/qEBDb50CexNWBcYUYwQo3MfYCedwScCPgP56sx6T/z+sV/U7xlUSKIvAbGSAA7o0hVnzqKwy5Tmu81DnoyatN19l8G6G9r+TRf6B9/0t6NAgBB28G6Fz3sWvssK/pkPbxbBpHSFz9MZOAkLm3BI2nWJHSCCGCAySXy4YLIsQp91AyBf30fCyHx9Dw6/0UFNSUvAOgOhIKoqqIKpL68Wm0ba0ztTZXVvJ9LvPk++WbZQ7X5gjazb/Yx2KmKX2WfuuY9Cx6JiKpmg8f9YcLTpWbpMACZAACUg6GJwD00fK9KYgfMqYYokAhftYOtscKwkcTuBR7PoW1hpmiaWH5+IeEiiewHXYnQdTcbZX8VkC3qvzUOejzkudn2GXEPv+Kwj43RH7fkkCvO8h4A8Lu06GQ4dcMhzdmGiO8t7cCYcesQ8kEPUEINa3GCKLXkEM+0fhZf8QvOwvnyq99EVnTDFMQEV7/xAkloezhSTSt61x6LJdszry/NCzpefRTeTmp7+SSe8skPRte/yzhOW69lH7qn3WvusYdCzFpUg/X/7913X/uVnceCNxH15wPS8S+80+kwAJhDWBO9C752Eq3g8I656yc7YSoHBvK05WRgIRSeAeX6//jeX5ETkCdjpUBJaj4Ud8jb+GZWIlO6LzT+ehJmte5m+F4f/dRB6G9/2x6FrvhSK/4PGDM8KwmyHrkjFGFuJ5iackgSFzQnYS2HBMEYBofzcGvBqfSxvgYQ8v+x7vxRQAGwcL0Q1PK0RXUoHU8mq2PLatEUb6tjUO/+W/Tj9G3ruvv1SvligDJn4qD77+syz7S50Vwytpn7Rv2kftq/ZZ+15aivTzZfXff06WNt4IPaahLZhIgARIwG4CU1Ch/uYcA3vY7spZX3gSiA/PbrFXJEACDhJAuG7vB/+DWM6CpcDmwJhIoDwExiHTFTANGfMu7BKYeuEHmvQPEJ1/mvQPEZ2XYZ/geb8SnbwIwv01EMtexfLDgyIjEKA//N37HKBrjJX7zLGyDCFzLkP4HJ0fTCRAAjYTgGB/Dp4A0s/iLfCy7/6i9Pjd5iZisTqEGIrOpOI9Yvh7LTpHeGhUtasnya39Osv15xwrH/z4p0x45xdJio+TM7q0lFOPby6tGtU8lNnBtfVZu+X7XzfJnCUb5GCeW/r1OlLuuayHVEvCc3wxktTLXo2JBEggOAQmTZqEnyZMUU5gBManxhTlBCjcR/kJ5vBIoJwE9Ae/hie5ATYblgL7DsZEAmURyEEGnS8/wVJhKr4HKt6fhjI676rAZsB0PkZUQvic15aJvJ8rMgGDWIXwOSMg6r8SUYMIVmc9CJkTJ8+Zt8vHxjOC+xpMJEACdhC4XhY0ThSXfl6eiV/noxEW50076mUd0U/AEkxVwI+FpIL41Wd28Fran1nyzZKNePHr13JEUqL0OKqxdG7bUI5tWV8a1akWFBxZ/2TL8g3bZemarbJwVabsO5gjJx3XXIZe1E26tWsUlDbDudJYEO3xNEGfcD4H7FtsELj33ntxX5+JBEggkgnoTTgK95F8Btl3ErCXwI2oTr/cr4d9ArsdpiIqEwmUReBPZDgV9iNMxXs4nntvApXn5X56s+gZmP5afhmm8zAiUyeRfej4UAz+fUghD6eJXIwLagTeHrQiIgdkU6eNB+VzeN1/KfW8IXM0NiMTCZBAJQkMkcX4jvaMRzUvNJE97cfK6RV50qmSvYje4hC0u0Tv6PJHpuKphipR8d4KXRLtY9bxqVCudu/lPWTFxh2StjpTPl+wVh59dwH+CDakTXItadmwljStXx1C/hFSr2ZVUc/9GlUTpGpigiQlxonLyNfCPOB3MMct+3NyZc/+XNm596Ds2L1fsv7ZJ5u375UNW3fJ2oxdiBpnem8MHN+mgdx3TR/p0KJeLKA+bIw636x5d9jBKNuRmpqqMaiZSIAESIAESKDSBCjcVxohKyCBqCKgIio0R7kWNt23HIvl9zAmEiiNwB84eDrsB5iGGIDTuVeQH42lCtpFkwr9Y2GnwTS9CtP5F/EJ3vffYRAnQMD/ryGyDCAegPe9CmyxnPQFvn8gZM5HCJnzbSyD4NhJoDIEBsniUw0I9ohWvhf32k+Hl31EhBWrzJhDUTYlJaU8N55D0TVb27SE1FgT7y2IKqD7i+iZENzXbtkpG7fulowd++TXtdtk+679smvfQQjzOXIgJ08O5rrF7TG9VcS5DElKiJMqifEQ9hOl1hFJUr9WVWlQu5o0a1BdTjg2Wdo0qS2NcQMg1pM113TJRAIkQAIkQAIkUH4CFO7Lz4o5SSBWCFyHgar4ej/sNNh3MH2bFyKBeK04ERaHmEjAS0Bv+JwF6whT72q1LJjOITihS1MYnNOlIUzTJtgDsJd0I5oSBPz/g2j/Psb0MJaLIeKP6CbwPI/BhFj3u80xCJnjkkkYPtAwkQAJBELgJvm5brwkjkNU6AvhHz3qRen+ciDlmZcESiKgQqoV9z7SPO/tFoFVYFc7oYP+qVJystoNBS9t22q/5B6G1xHtrxWeKbx6Frze4AXX8/r168dwOcFDzJpJgARIIGYIeIV7vrgiZs43B0oC5SWgIqp6QI+FDYKpyHq2z7BgIoGACGgAVzUV8620DStTYWNhubCoTPC0/wsDuwJ3LK6Aj9kLWH6FeBYje4nsiMoBlzIohMx5zRwrqbDREPLHl5KVh0iABPwIDJa0ISImvOyN1/Dy2XYvSrdsv8NcDQIBiG5LILpFfbgcf3QqrKoQHStx7/3HHuh6KAT7QPsYLvljJTROMbx7F7OPu0iABEiABEggYALxfGFFwMxYgARihYCKqaN81gJL9ZJW897ww5KJBMpDoDoy1YVpQNcNsK9g+vTGRljMJHjavzNT5IM28L6PE1m5AOJ9z/wbFzHDwDfQ/JA5Y/Gi2rHya6wNnuMlgUAIII49vDU94xGJHF+8Rr8XpBtjJgcCsHJ5NeRbzCXLM7qoeK/7/cXqcNuOtRMVbvxL6k8Mi/axNiU5XhIgARIggSASoAAXRLismgSiiICKrGqzo2hMHAoJOErgcpEcNHjPEoTPgff9BHjfX+TOF/BjIpaywoZYvxYe9yreT4T11X1MJEAChQncI8uO2C158LD3DMDLMkdNlW5TCufgFgkEj4CKsEVD5/iL9tpyuG0Hj0Z41hxu/Iv2R6npHIrlhOuIYXJieQJw7CRAAiRgIwGXjXWxKhIgARIgARIggTIIIPbCzwjyfirE+y/xJfwz4t8/WEaRqDoM8f5JDKgKBPybo2pgHAwJ2EBgiKTdsFtyVyOKdWI1iWs3maK9DVQDrwIe5zEVJqc4QuotrcZEAoEQ4LzJp5WamsonpAKZOMxLAiRAAiRQIgEK9yWi4QESIAESIAESCB4BxL9/CpLIUWihzUKR3+GB3y94rYVdzV6ve4j3yWHXM3aIBEJA4BZJ6zZYFn4Owf5GRBn/11Tp/u8npcvOEHSFTYJASkpKzDwJVdoJV+97ivelEeIxfwI6V3TOMJEACZAACZAACdhHgMK9fSxZEwmQAAmQAAkERABx7jdBwB+AL+MxEPEfhff9DMS/bxxQJRGYGV73GKY8A9OQOUwkELMEBsuiBLx8dqJbzDmIIv7ZFOl+8mTp+kPMAuHAw46AFTqHgmzYnZqw6RDnyOGnAi+4nnf4Xu4hARIgARIggcAJULgPnBlLkAAJkAAJkICtBPDy2vcRPke97zPxxbwKAv6ttjYQhpVBvB8thnSC1/2lYdg9dokEgk5gkKRdjUZWi5h1XZLQDl72ejOLKQwIQHTD60iY/AmEIgRK9Vd7S7XZV0vCqlliHPjHvztcDxMCoZgXYTL0srrRu6wMPE4CJEACJEAC5SHAl9OWhxLzkAAJkAAJkIADBOB9PwKu6O/HiTyM8DkX40t6BAItYzVKkynDMbJnIN5/DCFfX97LRAJRTwBe9h3xek+8fNZsjMASg6dJj6+iftCRN8DOkdfl4PfY8qzGOwAOe0FtMFp3N+ws8atnSdymH8TIzRZ3vaMkr92FktfyDHE3xjcmU8gI6FxgGKWQ4WfDJEACJEACMUSAHvcxdLI5VBIgARIggfAngPA5C+GBfzaixL7vFvkK3vcT0Gsj/HseeA8h1n+GUipaMmRO4PhYIgIJDJJF49Bt3J8zf4CHfS+K9hF4Etllr2DrhGi7/7wXxdOwk0jeQRFPnsRtWy5Jvzwq1d6/SGo+3YBnIkQE6GVfNnjc2OhTdi7mIAESIAESIIGyCVC4L5sRc5AACZAACZCA4wQg4D+PuPdHQ7FvBPF+JV5ee7HjnXCiwSoyDLclroDX/WlONMc2SCAUBOBlfxlePrsKbbfIFU97xLJ/LBT9YJvlIwCPcjzsxFQaAcv7XpdqmmxbunMlLmuJJPz2injqthPDxLeh9c5TN0R8tJfX+hwssb8SKTfPLTv3ZAdcQ9bfuyUnNy/gcsqnIuWKNmQb5wqcN7cbb+TwlSvaL24fIpCamjr/0BbXSIAESIAESKDiBBgqp+LsWJIESIAESIAEgkoA4n0mGrgRov0F0CwmQMBX8X4kAgRsDGrDDlZuDJddEO01ZI563fdysGk2RQJBJ3CLLDwqD2Fx0FBbPDhzF7zsPw16o2yg0gRSUlKWVrqSGKlAva8NI/+hsIosjYO74En/W4G5tv4qcdt/R1icY+Ftf7y46x8rCebbh547c8XLwRPvk5zOQ0Ree6MQ5SWrNskTb3xdaF/RjRdGXCVHVE3y7p675E95B8+1TR45QL5dtEpmfPxzQfYxg1KkbfOG3m0V+P0F9/8+OUvO6nWMXHLGofs7iQnxkhAfJ7//lSEZ23Z6yyU3qC3HHZlcUOfK9Zly5+PvyhfPDPXue+z1r+RgTuk3AKpWSZA7rzqroA5dqQjnypTTsnqeKdgrCSYSIAESIAEScJYAhXtnebM1EiABEiABEgiYAELnfIJCn0C4fwDLlQh6PxIvs30y4IrCtABC5rwK8T7VfEBGGffLQ2HaTXaLBAIiAC/7+xDuaiwKjYaH/WUBFWZmEoggAiroqqmgrPHvS0rGnox8gR7CvFegh2Bv7NviE+iPE3dyL8k5fqC4G+A1EHEJ3mri1/1PzKQaiHG/XzxV6sn+lOnibnpCsU20Tq4n//nXGcUe052XD58CAd4N4f7wLKs3ZkmDOtXlugv6yD1Pvifbd+4tEO7HTftU3vj8F6lXq3pBQRXhn33nW+/2lu27ZNBFJ8mYQRfIo6/9z8vB7faIiu4PDEktKJP19x4I9bmSuWO3NKxTQ1on15ecvNKF+/g4vPUmhImCfcXg4wXX8/r168dwORXDx1IkQAIkQAJ+BCjc+8HgKgmQAAmQAAmEMwF42t+/OD/2/QR44V+EIAEq4P8Uzn0ud9/iEDLHI39AwP8IQv7v5S7HjCQQZgSGyML+kDDHwy8W89hsDy/7v8Ksi+xOGQQgui2B6HbInbqM/DycT0DFew2louJ93M6/vCK95UGvXvUap15FefWkz2vXTw6eMBKhcI4qFV/CyndFINrntTgDov1LYiYcEs+LFvxi3nJZt3l70d3e7VsvO02qJOXfDNAdPa+dICq+78k+IN8tWi13DThLmjasI8e3ayZ1ah5RqA4d12N3XiYHILrvzT4o1/c7QX5bs1mWrd7kXX/36zT5Y92WgjK3XHqq10P/tc/my/VjXxb12Ne0Z98Bb5tXj35J3ps4RC72eeyrp/+C5esKyutKt2NaysALTyq0z8kNHbOK9kwVJtC7wiVZkARIgARIgAT8CFC494PBVRIgARIgARIIdwJdRZahj+fD+34gghN8iOWrcB4ccaxITrj3vbT+GffJX34hc1JKy8tjJBCOBAbKstYuyR2PsFadIdyPnirdPgjHfrJP5SLQuVy5mMkbZ15D26gwH+9b6raZVKdApM/peINXrPfUaBY4MVec5Ha8Xg6c/n9llm3VpJ7UqFal2HwaxsY/LXh1hKiAvhZC//dT7pYZsw+FyfHPp+tDrzzDK77rDYkJMz6XbgMekvsGpnjD4ujxviccJ6d3P3QDQgV6Ffk1WWFxdF3Fff9QOa9/Bi/+2kfIDwjZo+XXZ2z3tqM3D977ZjFuJNRG2J1dclP/E7W4I0kFe8scaZCNkAAJkAAJkAAJlEqAwn2peHiQBEiABEiABMKTALzvp0FmeB/+gxP2i6xaCPEe3vcIBBy5CZ72j0O815A5QxAyZ3LkjoQ9jzUCQ2TRMBOiPbzsx0+RblfH2vg53tggYOTuzQ91sxUx6SHOW0K9u95RXpHeXe84yWl1nnfdrFrXC0XD51hWEUr7z32x3MV6d2wjL0OAP1jkxbE39T9J4uMKh/BRb/s3v1ggDevWkFsmvCldj24hLl+s/qINNkBYG/Wef/S1r2Ti7RfLqBvPl1c/necNdaN5q1dL8ppVbuijb0tenkdO695e3v7fQlm9IcsbRsc6bi0ztu/EO3dxqw9pxdoMbwgd9c73QDzXtGvvfuzb5V0P9n+WWK9LpsoTAEeGyak8RtZAAiRAAiQAAhTuOQ1IgARIgARIIEIJIMrv3+j6EITNORfLh+F9ry+vHQFRP3JDc7gQMseULyHga8jEXESiAABAAElEQVQcfTkvEwmELYFBsrAvZEl42ZvrPeI6fpp0+yNsO8uOlZsAPKtjPkyOK3trvkhvvTgWQr1r98Z8gR7hbtyNu0pOx+skr/5xiEefVCJbSxC2xHtdBjMNe+Z9r7hutaHb16b0OUy4f3j6596Xvu47cNDrpb8O3u6d2ze3ihVaZh/IkdRTOsmRzRrIC+99Lz2PayXzf1snA87v5RXXNbO+nLaqLxTPjPuvLwiVo974/3n0HW9InUKVFtmoVb2qaDsq3NevXV3WbNpWJEdwNq3zQ8HeXr6pqanz7a2RtZEACZAACcQqAQr3sXrmOW4SIAESIIGoIYCX136JwXwJ4X40fOVWQcgfgX1lxxUIQwLGGPkFov1z6Nok2LVh2EV2iQTkZlna1JQ8DYtzEoT70ZOl+zvEEj0EUlJSlkbPaMoeiWvnWonfsbyQUG/kHfCK9CrM57Y+Vw70vEfc9Y4pu7ISclgCsSXgl5Ct0rsT4+MLieT/h5fFFk0a137t5m3eF9HO/HqRPHrHpQhhM1Ma169ZKOuKtVukfctGoi+n/WbByoJjna4cJ+lb/5GNmX+L3gDQpN71k4ZeUpDHWlFBftzN/b0hdjTkTklJ8+1GiJ2DOXklhvuxytolslvnxKqXSxIgARIgARIggfAjQOE+/M4Je0QCJEACJEACFSIAT/vxcPF6H/6MXu97iIoaPue7ClUWwkLwtB8F8f53hMy5BCFzZoWwK2yaBA4jMFgW3umBaI/g3k9OEah1YjC2xGGUuCNcCVjx6L2hbrblx6Y3k2qIuz686OFJf/CYq8V9Cl4gW6tlUIZgicXBEvA1vMz5Q58p6LuK70WTxsF/bdyNhV5ku3D5ehl04cmFsg5/9n15fvhVMuG2iwr2r9m0Va4a9ZLk5OXJqJvOl34nH4+X8RZ+imDMix9787dskh8u6EbEqN+5p4ts+2dPQT3+K+f26SBLVm7y7tJY/H9u3CoXnNzRP4ut69Y5sLVSVlaIAF5wPQ8vuGa4nEJUuEECJEACJFARAhTuK0KNZUiABEiABEggTAn0RqhcdO3CxfBW94i8AS/8WZAKRp4usjdMu1x8twyEzBF5yhcyJ6/4TNxLAs4RGCKLz/SIZzwkuu0irhMmS1d9UTRTFBKA6LYEoltEh8sxcrO9cej1pbGWqVe9u1brgnA3B1qd7Q11Y1at7/hZtMRjS8DXbf8wOuXZLq7Taz9+yPtyVeuY1qkhbNSTffvOQ1+DrZPrFwj3C1eslz3ZB6VDmybeYhrr/p892bJ56045okp+GKC/0rd549W/+N4PXjFfPfFVoH9w6ifywJB+knJSx4L+D+jbyxunfsmqjd76NL6+hr9ZvTHL6lbB8sela+Tkzu2kY9umBfuslR8W/+l9Qa217b8sDx9/nlrWYu5fD9eDRgB/jjGRAAmQAAmQQOUJULivPEPWQAIkQAIkQAJhR6CryKs/inxQFd73NURWQsgfgX2vhV1HS+gQPO0/hWifisMaMueuErJxNwkEncANsrhBgrgRFsdzHqQvhMXpETHXUdDhRG8DnSNpaEb2tvwXxSIOvSXSx+1a5xXl3Qh1o570OR2u8i7NeHwrhFGyxGR/kdkSpcuzLDoUFciLpqtHvyQqgndo3UTq1KxW6LCK9N8tWi13Dzi7YP+lZ3WV0c9/JD2PbeXNPxxx8mfP/VVu6HeCpL0+yvtCW838zoRBsnjlRm/eD75dKi+NudYr4uvLbKtVSURs/Xzt9t2v00Tr2PbPXrl/8AUF7ejKzj37ZWsJnvj69EDThrUL5deN8nBRnv75dJ2JBEiABEiABEgg8ghQuI+8c8YekwAJkAAJkEC5CJwkos/l3w6v+/fhfT8By4vhLTyym0hkvEDzgAyXKrLCfBAvqh0j35dr0MxEAjYSQFicf0Owh5e9MS1RarV/RtodtLF6VkUCARNw7d7gFefjVaT3CfXGwT1eUd4bj77FGXKg238Q+ubYgOsOZQEVli2h2RLxy7ssq9+vPHCDt24NQ+OfTu3WXk7u0k7iXC6vh7x17JIzuoqalR4YkiqP3H6xtVlo2fXoFvLZ07fLXnjsa2rZpF6h47px2VndvFb0gMa8x2eLJCUW/5M8JzdP3J7DBfdAuHg8+PZncpwA5jLD5DhOnQ2SAAmQQHQSKP6vhOgcK0dFAiRAAiRAAjFJALHvv8XAey8UuRfL37Ecg9j3D4U7DOMR+Qdx7oeLKRO1/+HeX/YveggMlLSTIeWNR/z6AyKecyZLT1w2TLFCwOVyhUWYnLgdfxR40FtCvRmXVBDqJufoKyTvpHGIR986ak6NJeDrgFSgtkTqygxQQ9UUl1Swtw65IKCXlEoS1v3zV6+WH1LHf19Z61USE0rNkpgQ+E91f36lVs6DQSWQmpqKVw4xkQAJkAAJkEDlCQT+10Dl22QNJEACJEACJEACISAAsX5SGrzv0fQELBfBj28kRP3/haAr5W4SIXNe0ZA5sJF4ae3D5S7IjCRQAQKDZVEtBKKAh715KYojLE73lypQDYtEOIGUlJSlTg4h0eWR+MxF+SK9X7gbT80W+SI9wt0c6Hqbd91TraGTXQtpW5YIbZeAX9nB7Mk+IPpi2zy3R7b+vVuSGxwexqaybVS0vMWqouVZjgRIgARIgARIIDwJULgPz/PCXpEACZAACZBAUAggTM4aVHwZ3If/n73zgI+i6tr42U2B0HvvAiooJFQLFrAbiQ3sXSkWeD8RaaKCIggi+ooNsHdFRbHray8gLUEFRFHpvfckuzvfc2Z34hISSLJtZvc5/A5T9s6de/93NjvzzJkzlyO+cCqmnyJOcHg7kW0R2WF4KtUX1S4JpMxZFJ4qWQsJHEigj8zvA9H+fsT5vpkv+1s/J9001RSNBMJKwBgrNSVfNId+Op4mSkegd3uf7ycxvhniz0mv+eiP7G2K9EZKxbDu26mVBYvSsRLxs5eukv9MfFM+nTxQrrjrGZn169/y4G3+9DnnnHiM1KtZJep4g7lEfefc4SEJ4AXXs/CCa6bLOSQlfkgCJEACJFASAhTuS0KJZUiABEiABEggzggg+v71PxF9vx3R93kiSyHgD8c6W0YXI9J+WVDKnAPf7Bdn48LuRJ8Aouy7BqLskxFpf/HT0vnH6LeCe7QTAYhu2RDdQk6XY9wlTSVF2qNvfqFep3kQ7kVyTHfJVxDuJ53wRbcFn3z4vp0Q2LYtwWK1zkfLXvl4tpze5Sg57eZHpG6NyvLcPddKzh+r5LE3vhIV7qNl2mfmrY8W7ZD2w/R+IeHjxiRAAiRAAhYBCvcWCU5JgARIgARIIMEItBLRt+kN0pfXIgPw2MDLa4cjKv8Xu6FAypyHAylz+kLIn2q39rE9ziNwu/yUtltSx6Dl1yHKXtPiPOW8XrDFESKgQnupDH+f2mAD3S5YqPdg2S/Si7yB+WH4+/UHpgdYF8blHsDDbgubtu2SaTN+kJE3nSuzEWmvL6Sd+PLn8s38P8z5026eJLdfcbrcdAFeCU8jARIgARIgARIggTASoHAfRpisigRIgARIgAScSAB57n9Au09G1P3tmP6M/PfjId6PsmFfNGXOJ8YD8r7rLtlgw/axSQ4hgCj7a/eK3I8bVh8li7f1E9J1i0OazmbGmAAE+lRxQ5zXNDfqKtYj3Q3m12LeEun/q/MQ6XUdzeEEhk2eIZrfvu+FJ8kPOcukzwUnyZ79ubJnX548d++1Mv1/82V/Xr7De8nmh5MAnozg7bhwAmVdJEACJJDABCjcJ/Dgs+skQAIkQAIkEEwAqXIeWYDoe58/+l6j7odD1P8ouEws5yGCzYZo9rR4ZDzacZ3VlvHjx1fG/AfIfXyKtY7TxCEAgeTblJSUKwcNGrTmcL3uL3MzvCJjEGFfzRDj2qnS6evDbcPPE4+A2+020+QYw6Q6ZPp0U6j3R9OrSN9OfLIQVHIwr/6W7IFIP152JB6p+O/xtp175c9VG6VFw1pmZy84NV0GP/q2/LFyg5x1fFt5fuaPEO09ctyxzeMfBntYYgJZWVmzS1yYBUmABEiABEjgEAQo3B8CDj8iARIgARIggUQj0EFkBfp8JQT8iyHgP4Lo+4sQRzgCyVptEeEO8X44xPtF8Isw/66Oz9ChQ3dBvJ8PAXc+5u9ItDFL9P5i7B/Oz88fBA7Fjn1veSupurQYA9F+AKLs75oiHTUimkYCBQTwN6URFvwR9HMz22NZ5+vB/VH0LvkeIv1kFe3xt0dT4NASgED1KhXk/YdvkeOue1D+WbtFnnv/R/F4vTLyxnPl3a+zZfj1Z8stD74mHY9ukgA02EUSIAESKB2Bhx56SJ8+uRDn6JpL7EgE2VTHvKt0tbA0CcSeAI5dHLrGNrRkKeZ/wHTGnXfeOSsaLaNwHw3K3AcJkAAJkAAJOIwABPx3RuGEBG+CHYuThd+R/34Eou/tkgNcU+Y8YryFlDmXCLRYEQi3k1JTU1dPgpUk8lq3ocUHgcON/U0y93K3uO5HlP23ePlsK+SyXxcfPWcvykrAuF+OhABfONUN7ukUpLp5B/N3Q6D/vaz74HbxQ0DFe7Xa1SvJoCvPMKPt3/0qWxrXrSFXjXxOmtavITdknRg/HWZPQiaAF1zPwguumS4nZJKswKkEJk6ceDJepH03hM7G8DeSkpKG5eXlLRoxYsRW9Cl6bxZ3KkC2244EXGPHjq2B6822Xq+3B8T75ydMmLAKT2neP3jw4O8i2WAK95Gky7pJgARIgARIwMEERon44MOQ+/5dhMaMg3h/IVTyEV1FMBs7g5j2IaJhs2SJmTJnsLZk5MiRaxB5PelwkdexazX3HCkCxY19H5nT1i1J9/vEaALh/tanpeNnkWoD67UnAdzcS4L0no74+APT3fhkI2SDhWaqG688idt/Oa4HZJXVC4hu2RDdzHQ51jpOSWD1hm0yetqHZrT9ddBkNff9tecdLxu27pQPvvtFep7cjpBIwCKABxVpJJCYBBBlfy9E+1vQ++FDhgx5LjEpsNdxSMDAjSd9J5aK9OqjINzfgGN9Oo75JxF9PzpSfaZwHymyrJcE4pOAPgfcPuD8+xGfYxypXlVCxTXhNeCaiuULuOYIXgmn2ZwAct/PQRNPQ9qcW90iX0G1fxzR9yNi3OxhEN6WQMCfCSFfT54YdR/jAYnl7gtH3feReaNxs2k4QrrumiadLopl27jv6BDA34Iq2JM/1Y1/2l4Wm8u/IUe9Px89niJCzvoc13DRR50PZVoPjQQOIKAR9gMu7S5PTv9Gep3WUabcdZXkLF0l4wdeJKff/Iic1uUoqVA+9YBtuEACJEACiUQAQTRPIMK+NTwD6Sv5gvZEGvwE7KvemMIx/ym6/qIe+zjmb40EhmTcIeBjKpEga6M6cTDh2pVGAmUmkIItR8H7wGvDaSQQDgIDApVswnQafBQ8H06zMYGOIk9AtNe88uMQhf87RPzhWDcjFk2GWL8VQp2mzNEX1ZqPoxcXeR2L9nGf0SVgjf3ufyo81VfmtcTJ7YIUcbd6QjrojUJanBHAd78BouU1kODfdDcijbHsz0cvoi+GfFqX8bciD1MaCYRMYN3mHbJi3RaZMfFmmfDS5/LgC5/K62NvkuYNasljd14m5VIZ0xIy5DipAKIl0+TEyViyGyUnoJH2KtpDfzoTW1FnLDk6lnQwgcANqjOhrX+u34FIRN6bZxcUdh18lBym6bwxcxhA/PhwBG5EgXvhejGsthGuUdLqe+A0EiiOgN7kOQfePKjAesyrUI/AbWkIV9GlDlwjt6+Gj4Y/C6fZmAAi7TU/+HUQ7rNwRq4C/kWILxyOwVwd7WZDkHsBAl6WMVqGu+6Vcbr/wpHX0W4T9xc7AikpKZNcjXeurnTU1usn/X7mC7FrCfccTgLIR98qkI/eL9SrWO9C3Lwl0vtkJuSB+/AWg0Xh2i/ylTJNTrhgxkk9s18YJtUqp0mnNk3NHg255ky5p0+mlE9NMZczux0bJz1lN8JBICsrS28e0kggYQgEctrfopH26DRF+4QZeXY0QACHvnEt5rPxXfg63DnvGRbA44wESKA4Ai/ig2sCH36D6Sj4t3AaCRyOgF69fg+vCt8FnwB/GL4PXthOwYpR8FPhz8BPhuuPHs3mBDoLxDI4IvDvzxdZiulwiPqPxaDZw7DPxRDw34eQv9iKvGau+xiMRIx3qS8l1vcc1L0++1jzWYwYt4e7Lx0BXOW78Gvwrzjvv7mbjvzz21GTlepmGrLW57hGminXSreDUpTOzMzUyH2azQlUqFBBdqzHkRMFs15Qa+2qWuUK1mzUprtyDamKPtNIgARIwG4E9EW0aNNwpsex28iwPdEioMc+AqeHB74LZ4Rzv3jKnUYCJEACBxF4HmtUtNeo+hvg3eEU7QGBdlgCKrrosaKi/XR4c/gYeFGiPVabZfX40uNMjzc97vT4ozmEAMT6uyGbdHPhCQs8SvHNgkDammg1H2L9H4jrUfFeU+aYplH3Lpdr0KRJk/TJDloCETCj7jn2th9x3GirBO+Gp2VuxXQafC5Ee01p8wr8dPhq+APwVviON4dfiKdqRsPfj7Roj33SHEKgadMm8uc6jQ9IDNO+ap9p9ieAF1zPsn8r2UISCA8BpAfR1FCNNd93eGpkLSTgTAKB70DjwHcibJ2gcB82lKyIBOKGgP7gXgffCz8PThEVEGglInAUSn0Frw5/D345fAu8JKbHmR5vetxdB+eJHyA4xRB9n41c9+f4RF6Df4Do+4fgKdFqP0S9idhXVYiAfXSfGnWPxxUnBaLuo9UM7scGBDTqnmNvg4EIaoLxgNTFd/Ms+FAI9K/BFyO2fjN8Im666RNauOcnA2SHVMF3+Rj4Vfqdhv8PvjmoqqjNQnTLjtrOuKMyE8hIx/uH/1kv67fuLnMdTtlQ+6h91T7THEHgOEe0ko0kgfAQuBDnXm+EpyrWQgLOJhD4LlwYzl5QuA8nTdZFAs4noI+4XQ/fD+8J/wZOI4GSEEhDoU/gNeAfw3vDvfDS2DcorMedHn96HOrxSHMQAQj4U9FcvYGjT1z8DjXukig2fxhEwPEQBevoPhl5HUXyNtsVxz52A2KMlCPwHbwIfh98JnwFXju+GN/NIfA6EOs/Ebdcisj58vDjIMz3hz8Nn+16pNgns2LRofRY7JT7LB0BvItAMs85W1795u/SbejA0tpH7av2mUYCJEACdiIAobJbUlLSV3ZqE9tCArEioN8F/U6Ec//85Q8nTdZFAs4m0AHNvy/QhYsx5Y+vs8cz2q2/HztsBl8B1+PHAy+L6XGn26vp8ajHJc1BBJA6ZzO8r0uQAgO5LiHev4EX2LaIdBcg/P2EfeiNAzNlDiOvI03cvvVz7KMzNhDl28GvgT8M/xK+RZLNc4frAi14AdPu+G7WhJ8GvwNi/cuue+TXwOeckEDIBC6/7BL5MnuF/LR4Tch12bUC7Zv2UftKcwYBiDaaOoRGAolC4Mi8vLxFidJZ9pMEDkUg8F048lBlSvsZhfvSEmN5EohfAppqQu0JuEZM00igpAQyUPD/AoWvxFQj5kMxPf70OFSzjkv/Ev93DIGOIp9CwM+AeL8IIv7vc0QGR7rxEAaHYR9dkZLDfDyRkdeRJm7f+jn24RsbY5KkGffJ8fhe3Qxxfgqms+H6d14fiz8bvgGuN8yOxnewKTwLfg/8XbgjQ6ER1ay/azQHEKhUqZLcNuBWuefln+WPNVsd0OLSNVH7pH3TPmpfac4gkJWVNdsZLWUrSSB0AnivVPURI0bE3x/g0NGwhgQkoN8F/U6Es+sU7sNJk3WRgHMJqKDWHf4P/E7ndoMtjxGBZ7HfJPjT8B/D1AY9DvV41OMy4oJvmNrMaoogAPH+/mQI+BDvT0b0/Y8Q8E8polj4VrlkaCBljpuR1+HD6rSaOPZlGzFjuNSGOH86fDD8FfhvshP/fPIYvlcdkOrmF/gdUsGMom8DYf4K+AT45/CNZdur/bbKzMzMsV+r2KLiCBx/XFe54YbrZcCT30n2srg5DM2+aJ+0b9pHGgmQAAnYkQCeMMFpPs4SaCRAAkoAXwnzOxE2GriWppEACSQ4Af2hHRJgoGLpvgTnwe6XjsD5KK6Rievg4bzpo8eh1vc2XI/Ph+E8IQQEJxqSRS9Cu7Mg3F+HiIE35om8heXhEPX3hrs/SMXxAcRGPS41AvhOjbz2eDyrJ8FUzA33/liffQlw7A89NvieNEOJdAjx7fHXVXO6q1eD5wT8f5jqS2J1mUYCtiZwzllnSoW0NBk46VEZcH6GXHJKWJ9Sj3rf3/p2qUx+P1vuGPR/csrJJ0V9/9xhaATwgutZPXv2ZLqc0DByaxIgARIgARCgcM/DgARIoB8Q1Ib/AH+HOEiglASsaHhNabO7lNserrgej3pc6std9DjViH6agwkgfc4LeHb8XZx8jMNdmKUQ8odj3Sth71Iqou7zZAnSe8x0DRr0/fjx4yfl5+cPwn7uCPu+WKFtCeiNGo69f3jwXWhrivMq0KtQryK9gW+JivSGKcy/ivk7IdIv82+R2P9DdMuG6MZ0OQ47DFTgbtyokUyd8rT89PsPctt5baVlw7A+rR5xIsvWbJPHP1yEKJry8uikidKiRfOI75M7iAiB4yJSKyslARIgARJIOAK4dqaRAAkkOIH+gf5TFE3wA6EM3W+HbVRU3wWfVobtS7KJHpe6Dz1OeYyWhJjNy+BKdieaeCtS5rzrg4CP6PuLIOIP7wwhP1xNd42QLcjBPRTpPTTq/gRGXoeLrPPqSbSxNwZIOcTMpyN5mV+c90fRp+O7sAqjlwPRXqPnH0HoTo7rLvNJKecNanRanB6d3XAv4SagQveD48fLjPdmSr/Jr8lZHZrJFd1bS6PalcO9q7DWt3rTLnnt6z/kswXL5corrpALL8gKa/2sjARIgARIgARIwJkEKNw7c9zYahIIFwG9KtCLe315nEbb0UigNARGBApPwVTF+0iYHpf3wfU41eN1JpwWBwS6iHyJbnSBcD8M+bqWYHoXUueMC1fXkDLneaQCyVIBH1H3CLxm1H242DqpnniOusfxXQNjoQKzuiXUH4N5Fef9Ir1LXodovxCR9HrDjEYCCUNAhe8e3U+Vd2e8J1dN+EC6ZzSTC7o2k/ZH1LEVg4V/bZT3fl4uX2cvl6yePeXZaSOkatUqtmojG1N6AshvzDQ5pcfGLUiABEiABIogQOG+CChcRQIJRKBvoK+MZE6gQQ9TV/WqshfcA380THUWV40enxPgerxSuC+OkkPXQ6x/8Gd/+pyxc0Xm4i3HwzuI/C8s3fHIMEQWLzHul5mPMNd9WJA6sZJ4iLqHSN8kKMWNlZdeFUi/SC/yLeb/q8sQ6fEwCy0UAm63m2lyQgFok21VAL/+umvkskt7y8effCYPvP2JlE8y5LT2DeSUdo2lWd3YCOTLN+yUb39ZJV8uXCv7vS4586xz5LU77pM05OinxQeBrKwsZAakkQAJkAAJkEDoBCjch86QNZCAUwmUQ8PPCjT+Zad2gu2OGYFzsGdorPIpfE2EW6HHpwr3Z8P1uM2F0+KIQFeRP9CdXoi6vwKK47OYfoRHOEZ0F9keSjddY2SpmTLHK+MReZ3FqPtQaDp3W6dF3Rsj5WhxI4reXRBFr0K9D7noF2IUNJL+LcmXEXp8O3dU7N3yzMxMvSFCixMCKohffNEFpi/85Vf5/vvvZcDT30nF1GTp0rqupB9RU9o2rSV1q1eISI83bNsri1Zslpy/tsicPzbInjyPdOnSVW7of7G0b3dsRPbJSkmABEiABEiABOKDAIX7+BhH9oIEykJARXv9G/ATfH1ZKuA2CU3g/EDvP4oCBT0+9Tg9Aa7HLaPuASEeDdH3r2GgZ+DuzFhkI/498PLa50PpK1LmPBRImXMjo+5DIensbe0YdY/jUn+D04PcSnejf/P8qW5EJuMWaY5rZMRvkDp7gNl6EighARXKTbH81lvkjz+XycKFv8gHv/4iD72TLS7DkBYNa0izOpWkYY00CPkVpWaVNKlWqZxUTkuRtNQUKZeaJG4XErzBfCifm+eVfXn5smtfvmzfnStbdu6TDdv2yJqt+2T5xt3y95qtYqD8Ua1bytFtO8ntF7ST1q1alrC1LOZUAnjB9Sy84Jrpcpw6gGw3CZAACdiIAIV7Gw0Gm0ICUSag0ctqGjFNI4HSENBI+8zABu+WZsMQyupxqsK9HrcU7kMAafdNMcj70MbbIdq/i5fWmi+vxfIIiPq/lrntXqTMSZKZt+8fNHNCEnPdl5mjgzeMddQ9RPpqZgS9AaFeXQV7FyLqDfkF8xrdrf62TpHqZjumtBgSgOiWDdGN6XJiOAbR2LUK6KaI3usic3cbN22SFStWyuo1a2T5+nUyf8km2bpljezctVt279kjufvzJDffI16fPxtVktst5VKSpVz5VKlUsaJUqVxJatSsITVr1ZW6retLu+4NpWnTJlKndu1odIf7sBeB4+zVHLaGBEiABEjAqQQo3Dt15NhuEgidgEYuq33mn/B/EigxgVNQUhPDLoKvLfFWoRXU41RfUmvdcAqtNm5tewIdRb5HI7shbc4gTOch//3YziKjy9Jw1/3yI4TTZyRPxqdUSbnb4/GsngRTMbcs9XEbZxKIVtS9MUYaitcU6K0IehXpG0Ck9wv0PjxBZMiTsgEi/VQkvaHZkUC6HRvFNkWWgArs6p074RfoEIYXj5qfugKR94coyo9IgARIgARIgARIICQCFO5DwseNScCxBPSCtAV8NXyOY3vBhseKQFZgxx9GsQF6nOrx2hyux68KYLQEIIBI+0nZiL7HW5DHIQo/B3GOIyDgf1zariOKeSjE+yW37xzUeUIao+5Lyy8eykci6h7HVGuw0b9J6n6h3mOmwNG/UZruZgYi7e913S1LsEwjARKIAwIU7ONgECPcBdzcYZqcCDNm9SRAAiSQKAQo3CfKSLOfJHAggbaBxVkHruYSCZSIwImBUj+WqHT4Cunx2huuxy+F+/BxtX1NyFexHI28HNH3vZFZ+DFML3KLDO8gsqlUjfchZY5bJuA9haft3+9axaj7UtGLi8JljbqHQI9DDuK8P72NX6j3z2/Fer9ILzJF53GTaGVcwErgTrjdbqbJSeDxZ9dJIFQCWVlZs0Otg9uTAAmQAAmQgBKgcM/jgAQSk0CbQLcXJ2b32esQCRwV2F5T5UTTrOPVOn6juW/uywYEEH0//S1E3+Oxi3GIvF+K9DnDEX2vYmmJzHWfvA8BNmvA1qEDGXVfImRxV6gkUffGeKksuRDp/fnog9PdLC5IdyPyvuyXha5xsiXuILFDkpmZyZvDPA5IgARIgARIgARIgARiToDCfcyHgA0ggZgQsIRPSwiNSSO4U0cSqI9WV4Lnwf+Ocg+s49U6fqO8e+7ODgQuEWQPFxmiL6/FdKxG32M6HKL+ghK2byjKLbl0/9S+b6X1e5dR9yWkFkfFgqPub988yCepgRQ3VrqbfdIM3fVH0btkLqLsp+HVsjmugZDzaSRAAiRAAiRwGAJ4wfUsvOD6+MMU48ckQAIkQAIkcFgC+tgvjQRIIPEIWMKnJYQmHgH2uKwEjgxs+FtZKwhhO+t4tVI9hVAVN3U6Abw6cDbE+h7ox4dIn/MthPwxJekT0phsRrmhTY2/BiMH7aT8/Hx9+S0tgQho1L2O/bH7v1sC0f5XdH0wvBb8Q3hvHCNp8OPhN7vulSmue+RnivYgk0AG0Q2v1qCRAAmQQJkJHFfmLbkhCZAACZAACQQRoHAfBIOzJJAgBMqhn/oyPQNuCaEJ0nV2MwwELOE+2mlytOl6vOpx2wpeHk4jAYF4Pxlh0EfhwGiM6PvFSJ9z/uGwQJB9DmU237xv7H68ZHAQou4bHm4bfh5fBDTqPjv5hMqPVJnUHsfD6fDB8Ffgv8VXT9mbMhLQ9xjQSIAESIAESIAESIAESCCmBJwk3NctASkVJKsXKqcRVOFICVQB9VQuVDcXScCJBFS0V1MRFGmiaSRQKgKWwBkL4V6PV+tmU8tStZqF45rACSJrIOBfm4SUOYi+HwcB/8WfRKxjtbi+D60sO0Y09v71AqPui0MUv+utqHuOffyOMXtGAiRAArEigKe6mCYnVvC5XxIgARKIMwJOEe6PBvfv4LgeL9JUVD8Tfgv87cC8LqtPh/cPzFfEVE3z2z4f8N6Y3gB/KcifxHxhew0rxsIzCnlxbSq8PZdJwC4ErBtQO+zSoEi0o1GjRml1GjVqJx07ppS1/vr1m3Ss3ahRq3r1mjVr2LBho7LWo9vVr9+8ae3azerpfIMGDZrUa9g0U+e1jdWaNaum8/XqNWlTr1692jp/KAtH3w5V/2E+qxL4fO1hykXqY+u4tdoRqf2wXgcSwA/0+xDw2+CHeVWqyO9In3Nbcd1AZPXv+Gxor/wXGjDqvjhK8b1eo+459vE9xmXtndvt1vN9GgmQAAmUiUBWVtbsMm3IjUiABEiABEigEAE7C/cqLuqL59RVjFdx/p3AsrVep1pOP2sHbwFXAUznLa+B+daBZVzHm3Y2/n8K/iO8AxzBevIRfFzAL8bUMmV0N7wHvBJ8YMA/xXQmHAF+NBKwF4G+Mu+OG+QH/W4UZVUCK3cW9WG8rMObU1u5fK6F9ddubVCGPrnqNmw8x+cy5rm97u6S5JvoMZLuKUM9BZv43J6v3Cne7nUbNL7MK0krEInzOj5M1jaWy/OepQUNt8z2JaVcU7BRMTMh9q2YWku82jp+9pZ4i/AW3BWozmpHeGtnbXFBAPnvR6IjpyB9Ts95Il/NFyky1yzE+wnJRm7Fk/M++dyKvDbuk8HGaLkwLkCwE4ckwKj7Q+JJ6A8zMzP15cQ0EiABEiABEiABEiABEogpATsL9/tA5i64iuOa6kaFrYlwFdF1veUqHm2G62cvw1vBTw9yjXB9Ea6fb4NbthUz260FTP+BL4FrNOd6uGUqrnWF47rftFH4X9umL61Kh3vgNBKwG4ExyVJuS19ZMO4G+b2wgG8JnnEt3IcyILWaNq2HTOqdIfpduGHdyqmh1KXbaiQ96mtRLtn1Keo8Cc8Ozd2wdqXeZDzADJf3JCMv6dUDVtpvwTp+YiXcW8et1Q77EWKLbEEAkfcL4GfhO/cm/GPkvp/wVlE32w0Z1sXzTacKsnfQY4+NbyRenF8Ycp8tOsFGRJyAFXU/ZsyYw6VWinhbuAMSIAESIIH4IIAXXM+Kj56wFyRAAiRAArEmYGfhXgXxVfDh8Kvgi+GT4SrSq8BuuRfzwaaPvmt6HMtXBH8YND8F83oTINiGYuE9+MNBK0djXtPp3AvXGwLL4RqRPw6+B04jAdsRQJqIYRCq8N0wBqXInk2FBHxL8LQEUNu1PxIN0pQ0des3/rpOg8aDtf769ZseXa9+46ewvApR8LMQYT+2ZcuW5erWPaKOO9/3ZqANd9dr2KRXofa46zRoMh7bfG6lz6nXoPGtdRs0+hK+AetfrdewYffgbRBJn4Ux+Sw3X651idFLDNdRKKs3JQ8wl+Ee4Ur2nKgrUc/MOvUbXYn2PR9o4w/1GjU69YANAguF+1ZUmTCus46fWP39s45bqx1h7BqrikcCnUWm4GTnSHwHa7QQWTrP/5te0NU5o2TNxllGpQs2Tf3nnB0vvYcba+XwoZ3PjwrazpnQCVhR9xDwB4VeG2uIFwIQ3TRAh0YCJEACZSVQ5JN+Za2M25EACSQUgUrorWYVCTYNSC7KKha1sph1VgaSYj7marsSsPuF6ZAAuK6Y3gZvBL8pMK/LCKY7yFRM2hjk+w8q4V+hj8EHX6QNw7LW/zMcT9mbpkL9JLhGlk6ET4NfBL8ZfiX8T/jn8HPgNBKwDYEp0um/aMxeiMSphhgQoXwFAn6qVK4VaOgu2zQ4wg3RiHeXz/0DBPR9FVKTHsfukg2X7z3DJSe7DNf9mE5HhO3wXXv2X+Pz7dyLdZ9ok/AH8mufePV7bpmrboMmj4LrENwYmbhmzZrVENgvxTzqdC02DBkEcbCmz3C/pDcBrI0wBr2RGucdl+GDEOD6U1zGJnymNwkLmesccbua+Ve6TkXu5VdQX1W3uLT+dobPPROfYdW/VkTf/v0wMnNVA9Uy4j4yfFlrBAh0ENnUCecP+K4ORPUj54q8ji9jM2OUuBt2kebbFournntdkyO8S/T3Pw3fsroRaEZZq9TvXHLQxtUxf8DfgcBnepIfXC5ok7DMat1pYanJZpUw6t5mA2KP5uhTtTQSIAESIAESsCeBvvMfkFvmNLZn49iqMhJQfbYtvA/8kkJ14PJFCgvvWl51izPhtxfj7bDess8wc2JgQYOVJwf5ZYH1nNiQQCQv8MLR3Rmo5I9CFW3H8o7AOkuU747lR+H14HXgNeCW6YGqAtlW+P/Bv4ZrXnqN5G8IXwNX0wveXPiH8Cfgakvh4+F6EKvIeRpcv0D94O/D9cL5WPhmuG0N+c6hVdASkUDQwEPA9wGB646Wcuafi83XRcjORGDidXmOdLkMpNFyzU51GRcvX758f5MmTarneowlhtu4Z+PqVb8oBwjwJ0Mov3jTpk3TajZq9FKyzzXWJ64ZG9esWYioe5Qw3Iisfwgi/ACXzzh3w/rVetMOq11VxeV7cMPa1fo3BS+ebboErOfv2rcvA4uz9aW0PvF08Ca7Ptq8atVa1PELBP69KP8MPj/k32D8gfls/dpVF2m9aN/vmLyHtjXQZbWi+ub/JKL/lw/Urn8vY2HWcVs4BVQs2sJ9OowAou8/RpM1bc69eCRpqYEvecNzxPDl47uIP5i4ueb/ZTekug26dg3aoOc7et6hJ9f3wC+Gax+ugP8DD7axWNBzkyXwR4I/CMznYDoOru/5uTCwrrjJB/hAz4eCbQIW9Pt/S/DKeJjXqPvx48dPCkTd3xEPfWIfSIAESIAEYkcAATvHx27v3HNiEDD+I/nu4dJv3hTxuB+UZzusSIx+x3UvVXSYAn8nqJdvYv4YuAYZI+7ItC74XwOW74LruH8HVy3UMgT9mdqnB1Prmr0H5mvA58BVx9SbA+fB1TLg3eFv6ALNfgQOKRrFuLnatrUBt5qiArkelBpRb5nedfoafjlcxXu9KP0+4Cdhqq7i+43wX+FqNeE/wlXUt8QfvSDVcnqj4Hm42iq4Xvy20gWYltd949rftOb4fxBcBTjb2lTppF9MWoIRwA2bzRj4mtCi1PJc4oZe7HpkmXyuwqcKPFX0g3g3MPhMf5sgyk9dvXrVPu3vypUrt0G8v36/Vy5DBP1NUN+Pwuoz4ChbrN0YYLl4/frVX1ilNAd+/fqNT67XoMkoRO4f4TW8Z+r+DCNZ74BD1/foD+JsFe2tbUo6xXh9Y5X1iXulGzdfkvx/v8zVRfXNKh/BqckQ9VeI4D4OVbV53FaXFmkXyfSWSWLkoXC+5RUlL6+q5OaPku56okIjgSIJ4Ed89J0yo8G+Nx88uet5P7dKLodvbar+obCKu/YbDxh1XXfJBmtNDKafY596jqHnQ3ouo2K6tvA4uP5dwb0H8wbsK5hqGf0sBa4n5dXhA+CWNcWMBi/oOdIiOO5QmE8T6p+16+Fb4DPharXhv5hz//53JWZPgx8fWHU6pufDg/cR+MiZE42693g8q8eMGTNp5MiRa5zZC7Y6XATcbrdexNJIgARIoEwEsrKyZpdpQ25EAiUl4HIPxuncIwg8uV6SfH2l3/xnxJv8oDzT/p+SVsFytiPQGi06EW7pj3p+fmmglapN6rmJXvuq9YNrWT1Hbw7X6wG9FtDrgwcCy1ZZLJrv79LglOFwrVev6VVbVdPt2phz/M+WBPRCz66mj4g8XahxejC9AA8+APtjWS8y9QC8H/4wXK0D/Gdzzr9eRf3H4O/Dtd8aSaYHq158qu2Ez4BPgevdLMt6BWZUtP8IrhetqwPrNPptR2CeExKwDYE+Mu8/aEwFKDIQ7F2mYJ8vFcY+J0ftwvqbAg1NCOEeJzPf4KeovM8wHqldu/aniKjfXaNGyyq5nrwVfpXOmI7PP4HSDk1cf7MOYQZu5LnkdkTN90Uk/JNasm79Jv/xuYxHEYn/PUj/iMD8cUCuN/xMA/xeSNEz3VouzdQlvt2HLF9E3w5ZPjwfWm2qFJ7qSl1LZd3iKLnoWoj2+vc5BbdHUjF2mErKXklN2SMpqbhxpYOZH3D9zcC8YS5j3PPw3TDnMW75uhxUFsvmb4z5OdTNwOeIyS6ozx0o71+n22s5tAHuRXnrc/8+cBsH30P/PArkuyUZ2+dj1sjXduBF0lh2YbudcE9+HamTN0raaH34mBYpAjuk6bmvLp1c77ul3yVlHve0tD9rWcGuvK6klCSvpwFWxFK415NuFejrwDvB18HXwP+A74cPg2vAgdo3cD1PuQSu61TcL/g7hHn9vup5jpqe+Ou5zkT4V/BT4BqU8CO8O1x/P3Rq2YWYGQE/C743sPJrTAfDe8PL9PctUI9tJoy6t81Q2KIhmZmZ+oQKjQRIgARIgARCJaARXQgZwVXkoukuaVvbJWsru2RbGuZR9ZZUl+xKdkn1dS7Zg/l9KS6pvBWXDjj925/kkorbXZKLz/Mwn7Yb66viSgXzybun4ypiNK4n9DwRE+MacXtukJvmvojr0QdFvjRX8z9HEVDh/l44rg1lOxyDLX/B1XC9az5Vq/OT4Z/Bn4fr9YAG1OnNQtVA74EXNj2XPxGu2umx8Az443Crbr1OeA9OsykBFbDtagvRMBXJg20+Fs6FF76QhuBmvrxWhZuL4Gpz4Na8Ll8B3wI/Em4J7+Uxb1k1zJwAV2HzdrhepOoXpjpct9UvRBY8eNsuWP4fnEYCtiKAX/QHcYaQZEjSw/myF4J9Nz2uLbPEm4QQ7o1k3Kjw+Srhxa85rpRyIwFhWEq5/bhz7aqM+9HHbtiw6jcFg5fFqkBWrOF064WN61YNQsqaRph/olbjxu8hin4dHmQYCOH2nQ1rVvbSjWs3aNLNDLXHfL169WojCv9Uw2X0KbbiED4oqm8hVFfSTa1jSX/gY2HmcTtLJv4H/lZxDYAg7xoon6R6pWmKIV64keKRfabAj3ePpvgkPxU/GPqbAU/CsldPhsxl/3yyOY8fF2zrQ6opd6CsD+V8gXl3RdSLM2xJwZib61CuoB79DMcZtneZn+tyklmPF2XN+sxtsT9tH+bTzDrW4oy9r8zHtvMg3vsFf0z198hcxvEXuJmgNyL8NyNQX+DzwjcTtOy/22od/hsL/nJ6w+HfGxc+80aCu6Au3Z/eiEjK8wT2rdu7Cz3l4L/xsA/ljPzt8BSpm7dHmuXjjphGfNjS5iJK5W8ZUf57GZ68Qk6VKbNPlCNzPpHzz35GmrRZa/iSXSmbkhvixHZNdgw78BT23Q2+GF4DPgPeHq42DT4G/qIuwLTcY/D34evhp8OvhWv5WwLzuZha9jRm9LxGhftgux8L9watUHH+Ibjueyxc21ETrheJ+jfgWbieb62AO94Yde/4IWQHSIAESKB4An3nj8CHOO3B2TlOzkzXef/76ItYjzL62UHlD79+Wo+Nl/b5Xx2cCmn9ui8XTr8wV7BfLIsvsB6zRqBNeET4sOvRUrOTWldw+aLW6+daTk0/13bofq31ul83VpVpvdYYaLfZFu2rdrIE67UMdmpO0Bj/vK477PrANrrtAeVLv97PD9UE14U6y7TebAvqstp0wFSk73ytFYkYWxjIKYFTeZ3fb8gazLr2GZBkDYj2/vVpHkPyK/vXayLH3GT/+lSfIZ40rEf8URLuBOTjUt/lqoTrXKxTHJrOEPNu11U4f4/VdZq2g1Z2Asux6Xfw0+D74a8EHBPTrsP/P8CXmUv+d23eivkW8DPg5oEQ+OwTTPVa7Eb4z/CT4P+F67n9XvhG+BFwtVPgqnnSbEog2abtKm2z9ID8P/hRQRvqwTk5aBnX6WZEfktMZ8Ivhj8KHw4/Fa5ln4RfBB8HHwjXL4VeBD8H15sIq+FHw9+A6x9DjcDXC1YaCdiNwMh8yZ1aSLC32rgzMJMQwn2SJ9mzbt0/CyHMP4bfsqF1GjV6DVEI68zIh2RXs4YNG67z+JKuxvlTD5wV/Qg2yRao4CnOTFU0Raoa72CvJPVO8prRrJfitGk7tq3SoEGDWvmS0hhR8vqDKG6ftyr04Eycbi3etHq19eOqH4XNiurbxtWrfwnbDoquaHdgNc4oY2LWcWsdx0U2Qq8k8IEKlcFiZZFl7bpylBjJa00B339TwCP7Ie5XgLhvpJTDjQKvebMhxRT78R4F8yYB+oJl/42IpIKbCUgCE5jXqb+seeOgHC6vKumNCRyx2M6NEB//jQp/eTduKLhTIdSn/FuXGe1h7jNQZ6pHcrGdljVSK5r72ZKSKltw82Eeilg3HvxPNmBQ9HsE1xsOZX/SAeMbeMrBXx/aXXBjQ+v335zwmvvCCYJ588G/X4+57i8Z3aC6/ImbDLu8eVIRX+dUWbr/bHnwvZ6S8d3b3suumZK8uk4L/F1Y8xK2i4Xpibeek1wJ1xPuJ+B6cj0B7oHrCbZa4eO7G9athev0WXgNeKvAPCbmOY5u/yG8FxxDVmDVMafnSl8WrPFH8/yO5T3wHXD8vTNdv39az2XwKfCz4Y43K+p+m1R/WPoteFJ8Hty3wtWwT92L6Db8PKi4ofN4a7g5b2A+SddjWcu5saxl1HVeE5yFY73WoXUVrr/I9SoG6cUbvuEHiSqBdrvxmREoFyz8FLceXzpzgLXe4PLWep0WFn50g6LWl0go0i0hpuj+zH2qsII2mzWGuh51FscmsB6i25kQ3f5ntkH3WVx5c5zxcaii26+DtG80EiCBiBLw6W8eTntwjqh/WXCCg2sCnJpA7PSvx5tvgtdjXj87qPzh19er4K2H+v/016914orBFFixP3O/EGFdgXkvzlTMeS0Ddx9mvZZRM+sMlEdP9A+RuR4J9s15rceH9ebD1xB5vfjZ1vng9W6IwkWux3ZeVGOWxzZebROmeNzVnNdTAO2HF/Wa67WMCsw4zdJlnT/U+uAyuo1V3lyvp5/go6d2Gtti1eOx5vFZLv7uqnhtCtgQvJOxTuf3Q+tMKudfzsO65PL++b1ItGDNm+vTDJxJox7dD0zn98NTcVpcDtO9cLU9ENHLwctXN2QXpmka4wLbBvG8Yq4hlRsZsh7z1SG+N+iIZ6G/QRTXJkPa9jZkFPgAoFk+Ev/1nZeC85Et+E3GZQHM5dqL4wfna75RMq3LkzJhAgLVaA4joOfnaj3h58E1UKYf3LIWmFHB/U74Jvib8EVwPU8vbNdjhV4fbYbrOfs58F/hul0GXM1/7Pw79a/l/7YjUKRAZbtW/tugCzC75d/FA+aGHLBU/MJH+EhFBzW9C7UXrl8Q/DUvuAC+HfO4OjLvUDXFVO92WbYEM1bEm7WOUxKwFQG81+DhQzTIEjxjJbweomnh/8jlwkkVrFyye1SuR653+WTKhrUrT0K6m89wXvuBB2edOCGcixPbu3Cy/gAE/vu9Llfgpl/QyRbeSKv1rF27diXy4g/HCfG4Og0aP4vTxvtwpvQyxPxNmoMe5/tDcIZc3nC7PoaI8QHOmPUHtcBw+m+GdRSsOHimyBM8l8uDU29Visyzckz0/OzgvmH18QdXGdY1uwK16c3LWFiJhPtYNCzc+xwlLj3JUnek4XrFvVy+gfCfAmG/OtyHmw37UssH0hrhMvWAGwpeZJnHgW3eFMAPMK7O9CmIJHMZ3yPMFzzpgJsPBuo1yyK6SJ9q0Kcb/Nvq1GeW9z/pgOtKfGY95aD1+VK/ktGYurbhy1YF31lcyGNvZnMMWbD1Ypn7Ure1rYcuTnnkkYvq33777etiMAD6dwB/Z8xggR6Y6nlKLrwvvB58FPwbuJr2XVW/C+F6Qv4F/C34PXA9X9ET/lvgano8PQ+vqguwl+FaZjf8XLjau3Bdvgau9Z0MbwMvyhZj5eVFfeDUdUlJSa/hzRkf1kja03SrUSEXwoVf4ElScQPDor8FKuwUCDkQLVQYwX8Hrsd2+uBbqdejLn1YpaD+QD26Tz0tLdF6CCx6UKvggmaZ7TKFIq0jIL74VCjCb5wlIB1uvSkKoa7C5a31pjikv5MqFOlrn3VfsAPX+9m5lZnyKihfzHrtA1z3iXsM/vLm/L/rLdHNHBPs2xKZfMoefVTBR+cPWo/BLLxey5qMkwyIbpdg2zfNMkHrD6hH15tjpfVrO3Vfylcdy6YYhs/M9fhM+63zHnwNdV5FJi8YqHAm8q3Ji/+RAAlEjsDUzndFrvJCNWd98KhM6RS4nij0GRfjn8D0aHTRuB2/N4jJN1TP2oub8aNlWufHo7Fn7iNiBFTvHA+vD38WruOpOqXO6zjrdBp8Nrwj/ET4VHhRth4rVbhXOwb+DPwPuGpBuk0afAFcTa+vPzbn+J8tCThNuF8VJor5gXqsqUaQFTac7ZsWLNoXLsNlEnAiAUu4t4QbJ/bhsG0ORJ6bArcW1hfSYmKJvoIc9WcjSr5JXlKSx3pxLKLvp+Tl5eVuXrtJRauCbdcH0uBoPWoQ/h/ERN1vHTvWrLthw1G1qlZdumjRIv2BfKRmo0Z1t6xetcYqYk03rl11qzWPqWfD2lUF+0G9Be0LntfyG9esWYhJQdng+cJ90/IRNGWjpicUsTDruN0Vi51znyUnMAoqG0rrb6j9fkf7ZzdruMbXJfND43XIa6Z5cOnjQXT1wnSXseTYurVH+v58e2hsRHt/g0SaY+Ze+Hvw0+Dnw4+AV4C/Ae8NV9NzGf0+/Ax/Cn4kXKNvcFPRFPnbB+ZnYqquf7tw36PA+mNOgyKCLzOt8yMtdA78bfjfuhBkLTDfC/5E0DrHz3q93ivqpu5+beuTJ93h+M6wA2UnkPXBmzKlsx730bHjT4rOfrgXEiCBqBBAcNDxUdkRd5KYBHq/lYTLwvsh2quoe49M7fRYYoKIu17PQY9OhF8NV+1Cxfry8Kfh18CDbT4WagevOMT8n/isEXwDvAtctU49dtrC1U6BX2HO8T9bEnCacG9LiGwUCTiMwLJAezWCUsUbFdcS0jR6Prjja9asUfGq9DZ/fj5+BX/dsHq1ta1ny+rVB4n21ocOn1qdVHEw2qbHqxX5qxEDNBIoGwGv56Tmf7uex+Mv7nzEq+fhbCgnQ1yLcXQhIYnnvJp/pbm9eyeUrfKwbfUlapoGfx8+BK6R82oaNaPWCa7Cot56UPHc+k6eivlX4dfBrZPw0zF/LFyF+6XwYNOT+I3wJcErC83Pw/JvhdZtxbIK93FjkyZNaujxeAbhBq5e3NASmIDb7c5I4O6z6yRAAiESyMrKmh1iFdycBIonMP0Sr/TPuUmeTn+5+EL8xIEE1hbR5oex7gY4rlbMp2yLKCK1sPJouJ6/qjCvgW6d4RqIozcA9FrhTrhG9H8Lfw2eBtdt1FrAq8PrwvW6gGYzAjr4NBIggcQioNGvete1FVxF0MJiDFbRSKBYAtbxYomExRaMwAd6vOpTByra50agflaZIARumub7we1KNnZXlNx5HQ3fH0eaJ69m78u5PN5uVVdOGjp0ZKxvvun+x8K/gGtEfQO4fgfegZ8MHwW/Gf4UXK0CvAZco2b0yR6N0KkJV6sM15P2sprW2bTQxs0KLTt+MT8/fxA6MWnkyJiPveNZOr0DmZmZOU7vA9tPAiRAAiQQxwQo2sfx4B7QNQ2y/Dngqt8MPeBT/4JeH7QOrNdrA71WuCmwPB/T/8E/gt8O1yj+5+G67gF4sJ2JBd4MCiZik3kK9zYZCDaDBKJMYBH2p3/49Y+8JcRGuQncnUMJ6LGjdrR/EtX/9XhVW+yf8H8SKBuBZ6TrP32Neb1fu9K7AQ8evYU3T2iESQpSfu/MqvVHFQi4ebeItAAAQABJREFUk8pWc9i2SkFNc+HfwdvBNbp9APwi+PXw7+EXwz+Hvwp/HH4WXE/CX4Hrja1q8LPhakfB9cS9rKbRxw0LbVyn0LKjFxlt7+jhY+NJgARIwFYEPvjgg1k9e/ZkuhxbjQobQwKOIaCpcYLtVyx0hauIH5wtYQuWz4VrVL1eMxzKfg/6UK8laA4iQOHeQYPFppJAGAmo8KmPSllCaBirZlVxTgBCp5kPWyN5G8NXRbG/1vFK4T6K0ON1V1P7Gq3x8lCI3t7/4CW40/S1z5WT8/M7Vl5nh2h7fbS1A1xzUFo2DDN63uYJrNiO6QmB5WsC63Si6XO0jIr1eiKvpjcCUs25g/97FKuCLwIKl7gaK3bBrf1an2tbKlsLTp8y2t7pIxje9kN0y4boxnQ54cXK2kggkQgcl0idZV9JgATCSmBfEbUVPg/XInr+bp3rF7EJV8ULAXe8dIT9IAESKBUBS/i0hNBSbczCCU/Aekoj2ulyrOPVOn4TfiAIoAwE+s9qJv3mfYAo+x6S7GovU7s+g8T2a1xu2Xdh7d9r2iDa3upUsGhvrSt80l54WctZ64JP5PVGwB6rkkLTvVjeX2hd8KLWY9UZvF7XBe8j+DNHzWu0vcvlGpSSkhLrJy0cxS3OG5se5/1j90iABEiABEiABEiABBxAgMK9AwaJTSSBCBCw0p3wEc4IwE2AKn8K9FGjfaNp1vFqHb/R3Df3FQ8E+sy9WnwpOYiuny3TOp0tT3ZcZnbLMPZXduftbVNhE/Obx8M4l7IPGm1vGMakQYMGrSnlpixOAiRAAiRAAgcRwG+Kdc560GdcQQIkQAIkQAKlIcBUOaWhxbIkED8EctCVf+DN4V3gc+A0EigpgY9RcDi8J/y+km4UYjk9ThvB/4br8UsjgZITGPBxOcmrMxkPlHaVJFdPeaqT5ogvsB61VlzSutyW+TaKti9oG2ciS8DKbZ+cnKx/X2gkYBJwu91Mk8NjgQRIoMwEsrKyZpd5Y25IAiRAAiRAAkEEKNwHweAsCSQYgU/RX33ruL7QkMJ9gg1+iN39EdvvgHeC14Jvhkfa9DhV+8w/4f8kUEICfeaeLrmuySLGlzKtc/uitjqr6rIrsd4Oue2Lah7XRZCAldue0fYRhOzAqjMzM3mD2IHjxiaTAAmQAAmQAAmQQLwRYKqceBtR9ocESk5AhXu1s/0T/k8CJSZgoKQloF9Y4q1CK2gdp9ZxG1pt3DoxCPSbN1rE9Zq4XffK1M63FdVp5jcvikpirOPYJ8Y4s5ckQAIkEG0CeMH1rGjvk/sjARIgARKITwIU7uNzXNkrEigJARVe9eWHmqe8Xkk2YBkSCCKg6XLUNF1OpE2PTz1O9WWY1g2DSO+T9TuZQJ85baXvvK+Qy/4YcUl7ebrjW8V1h/nNiyMT/+s59vE/xmXtIUS37LJuy+1IgARIAASOIwUSIAESIAESCAcBCvfhoMg6SMCZBHLRbCt6+WpndoGtjiGBGdj3Xvg58LoRbod1fKpor8ctjQSKJ9BvXn9xu3Mg2L+PKPuLZWqndcUVZsR1cWTifz3HPv7HOMQepoe4PTcnARIgARIgARIgARIggZAJMMd9yAhZAQk4msBUtD4T3h/+kKN7wsZHm8BO7PBFuL4n4T/wEfBImR6fanq80kigaAI3/lRDklInI8oeL912dYVgv6Dogv+uZX7zf1kk2lxeXt4dTWbP3t36vfemzBPJdsF9ePF1Z/8LsBMNB/tLAiRAAiQQRgKGYRwfxupYFQmQAAmQQAIToHCfwIPPrpMACMyEL4TrCxv15YyvwmkkUFICD6OgCveaO3wMXCPww216XLaA63GqxyuNBA4m0G/u+RDr8QJaeU2mdNZj5rCmEdcej2dQcnJyo8MWZoG4IhAY+9tT9+7VVAb1IdprdPW1mD4KET8NL/HIwSOp2TpVQb+jyJK4AsDOHJaA2+3OOGwhFiABEiCBYghkZWXNLuYjriYBEiABEiCBUhGgcF8qXCxMAnFJ4Gn06im4RjVTuI/LIY5Yp/5Czf+Dnw6/Cf4YPNxmRdvrcUojgYMJ9J03UQy5GB/cjCj7jw4uUPQaRtsXzSUR1lpj3+vzz38O9Pc9q99z8M6XJAj5EO1VuL0A09EQ8+thPltdo/JTMMWHOdY2nMYfgczMTI5v/A0re0QCJEACJEACJEACjiNA4d5xQ8YGk0DYCUxBjffBu8FV/HoHTiOBkhJ4FAVVuB8Cfw6+Gx4u0+NRj8tNcD1OaSTwL4H+c7uIYUbZ/y6pnvYy+ThN31QiY7R9iTDFZaHDjX0XkfXo+KcBNxlAsa+GN7mrkJ+BCPwemB8EMf9ILBdE5ev8Roj55/I9HCYz/kcCJEACiUwAL7ie1bNnT6bLSeSDgH0nARIggTARoHAfJpCshgQcTAABhTIBrjnu1T+G74PTSKAkBDTCeT4c2STM4+iWkmxUgjJpKGO9d0GPTz1OaSTgJ9B33h3ikwewcBui7J8pLRYr4nrQoEFrSrstyzubQFnGHor9dvT664CbAH5CSh2cRKuQr4K+/v27qQ7mIej/hvmC6HxE6GcfJ1Lim0pm5fwv5gQgumVDdNOxpZEACZBAWQjgTz+NBEiABEiABEInQOE+dIasgQTigcBEdAKBgtIdrmLpbXAaCZSUwLUoqGkFNN/9i3Ar/QRmy2x6HDaHq1imxyeNBERumdNYvO7JQFFB3EZ7earz0tJiOVzEdWnrY3nnEAjn2J/gv8EN/V7UTcPdRTf++GVoqh2sUFH/Epxop0PMX4V5Mzof67M1f34H/5NE/g35vx0J6BjSSIAESIAESIAESIAESCCmBCjcxxQ/d04CtiIwGK3RyOlb4Rp1r04jgZIQWIRCD8JHwl+GHwPPg5fV9CaSHodqelzSSECk77wrxCMq2j+KKPv7y4qkLBHXZd0Xt7MXgUiPPcR5BNibv6P6W1pguKvZNijVzlAI/BkosANTveGZraI+Ps/pAoG/YCPOkAAJkAAJOJaAYRhMk+PY0WPDSYAESMBeBCjc22s82BoSiCWBBdj5PXDNd/8OPBP+FZxGAiUhoELqpfBW8Onwi+EeeGmtBzbQ409Nj0c9LmmJTGDU18myrrIK9t3EZVwsT3f+pqw4whlxXdY2cLvYEIjl2CN0W29uqr9i9R7CfUvMa1S+RnbfjCj8jLmY0Wh8TApy53cUWYZlWpQJuN1upsmJMnM77G7jpk2yYsVKWb1mjWxYv062bN4kW7dslZ27dsvuPXskd3+e5OZ7xOvzicvlkpQkt6SmpkqFCuWkUsWKUq1KFalRo6bUqltP6tevLw0bNpCmTRpL5cqV7dA9tiGKBLKysmZHcXfcFQmQAAmQQBwToHAfx4PLrpFAGQio+Nocfj38A7iK99/AaSRwOAIaYa/Hy4/wLLiK7xfDSyPen4ryetyVhz8PL3NUNbalxQOBvvO6y1ozyv472fZ3uky/BIHJZbdIR1yXvWXcMtIE7Db2AUFeRXm90WnaHJHGmEnXiHxMr8D0IaTZqYJ5U8hXUT8JHrgRYG7D/yJDIDMzU5+GoMU5gT/+XCYLF/4iSxb9Ir//sQz3hg1p0bCGNKtTSZrVSJOuR1eUmlVaSrVK5aRyWoqkpaZIudQkcUO0V8v3eCHk+2TP/nzZtTdXtu3Olc0798q6rcvkzzm/yhcbd8rfa7ZKtWqV5ajWreToY9pJert20rhxozgny+6RAAmQAAmQAAmEiwCF+3CRZD0kED8EbkBX9IrkOviH8AFwFVFpJHA4An+iwCnwH+Aq3msAqd4EKokAouUmwyvAX4DrcUhLZAL95ukTFwPxXuIBMqXz66GiiGXEdaht5/ahEXDK2AdS5axCb/UGpmm4E1qnHMR8/Chn+ETOg5g/EmK+CvwFOfM1zU5XLKMMitBIgAQORWDhL7/K999/L3Pm/CwVU5OlS+u60vPYmjLsvDOkbnU9BSm5pSQniXoliPqH2nb5+h3y6/LNkpPzrbzz1huI0k+TLsd1lRNPPFGOPurIku+QJR1DAC+4noUXXDNdjmNGjA0lARIgAfsSoHBv37Fhy0gglgRUREVwn1wDfy4wHYXpt3AaCRyKwBJ82B3+HVxTQEBjMgX5kZjugRc2FfpHwU+Fq70E1+OPlqgE+s47CvcOJ4th7BafJ12eOW51OFDYLeI6HH1iHSUj4OSxP1FkI3r5ecDNDiP/QhX8QGuaHfWTcDI/EKl32uKPrd4kNVPtQMHPweNO2YGX6Jrb8b+SE4Dolg3RjelySo7M1iX37dsnH3/ymXz+2SdSPsmQ09o3kKv7nyzN6uoDLZG3ZvWqinrP4/z7Wrpqq3z76z/y34d/lOTU8nL6mWfLOWefKeXK4TYdLV4IBEY7XrrDfpAACZAACcSKAIX7WJHnfknA/gSuRRNVfL0Xfir8G7gKCAsDXpQIi49oJGAS0Bs+p8OPhf9fwDdgqscQNCZpCG8PrwNX0yjT0fBndYGWoAT6z+8jXuNxcRvDZUqnSeGi4JSI63D1l/X8SyAexx5q0E708NuAm53F407lsNLMmY8IfJ1el4qbpxDzl2K+IDpfU+1Ajd7+LyHOFUNAbzzTHE5gx46d8u6M92TmBx9I94xmclevdtL+COu0I3adO7JxDVHve247mffHepk551u5/KWXpWfP86TXxRcyJ37shoZ7JgESIAESIAHbETCF+wkTJuDJWxoJkAAJHERARVSNgB4F7wPXq50zAo4JjQRKRaAuSqurmG/ZJsxMg4+C58NpiUig77yqZpS9z2iNbB/dZEoXTbMUNnNyxHXYICRoRYky9q1EcjHE+jJE9QJD+H06ou81clz9Qsyn487pOpz452BZ0+tka6odpOlZX7ARZ0ggDgjMeG+mvPraa3JWh2byypBzpFHtyrbsVafW9UR99Vlt5NVvFstNfT6Vq666Snqed64t28tGlYyAYRhMk1MyVCwVBwTwsm7VE3FKIdQV42A82YWQCeArYX4nQq7IqiB5yJAh+gWjkQAJkEBxBFRMvSvgTTDVKGl188YfpjQSKAmBSihUA14TvgL+BVyf3lgJpyUygf7zzwtE2U9HlP014UYRjxHX4WYUr/Vx7E21XgV69eetcYZwfzTmLTH/DjfmcadsL6bQ+f99EW4H/99qa7OEmrrdbuVDcyCBv//+R6ZOeVrSZL9MGdBDWjas7ohe6I2Fob07yvldm8nkDz+WuT/Pkv633CIN6td3RPvZyAMJZGVlHXAT9cBPuUQC8UUAN6q2jR07tsaIESO2xFfP2BsSKD0B/S7od6L0Wxa/BYW34tnwExIggYMJqMiqXvDivIOLcA0JkAAJlJBA3/njxWdcFngB7cwSblWqYokScV0qKAlSmGNf9EB3FNF3kai/ZpWAcN9CI/MRzZOOdTfpPNLs6HWCivk5WJ+taXbw4R/WNvE8zczM1JsdNIcR+Pa77+XhSY/KgPMz5JJTOjms9f7mHtWkpjxxyyny4ue/yaBBg+WOOwZJ50741tJIgARIwL4ElqamprZF876zbxPZMhKIDgH9Lvh8vqXh3BuF+3DSZF0kQAIkQAIkQAKHJ3Dz/I7iQS57l/GXuPely1MnhTUqwWoAI64tEok35diXbsw7i/yNLdTfsbb8Ce8i0Tz5WM6AkH8Jnn8fCzG/JqYqapvR+YjSz4Gk+Iu1DackECsCn3z2ubz4wovy2C09JKNl7PPYh8rh2jOPkeb1q8nw+x6Q4cPulBNPYOaVUJlGc3u84HoWXnDNQYsmdO4rZgSQFuQHr9fbAw2gcB+zUeCO7UJAvwt4cvOHcLaHwn04abIuEiABEiABEiCBQxPoO///kBpnAkT7ATKl85RDFw7tU0Zch8bPyVtz7EMfvRNE1qAW9Y+s2n6GcA+x3kyzgyj8syDiD4OY3xyfm2K+ivrwbLy9Pru7iMfazmlTiG7ZEN2YLschAzdr9s/y3HPPy5O3nSqtG2pWvviwk49tJP+9pbvcNna8TBw/Vtq2bRMfHUuMXuA94jQSSBgCMyDeP4/ejkqYHrOjJFAMAXwX8DS5XF/Mx2VajXNvGgmQAAmQAAmQAAlEmMBtCxpIn3nvQrDvKS5PukyNrGivEdc4cRqUkpIyKcI9Y/U2I8Cxj9yAdBXZguj8/8EfQiKSK+Ft0kRqQ8QfgouKJfDjMD8VrwHNh6C/APn0n8V0ALzb1yKVIteysNesTxrQHEBg9+7d8vjkJ+S+q7vGlWhvodcX19579fHy+OOTrVWckgAJkICtCNx5552z0KBVEyZMuMFWDWNjSCDKBALfgVWB70TY9s6I+7ChZEUkQAIkQAIkQAJFEug3/1LJ82lqnCcQZT+qyDJhXsmI6zADdVB1HPvoDhaS2u7GHr8PuLlzCPUpyImfrrnysUL9yipYhpD/l0blYzlbp/g8W28GmBvxPxIoA4HX33hLTstoKie0aViGrZ2xyTmdW8ispZvkzbfelksv6eWMRid4K/FiQqbJSfBjING6j9Qg9yOv9/Tx48d/OnTo0LWJ1n/2lwRw7DcAhXH4LvQONw0K9+EmyvpIgARIgARIgAT8BAzDJX3nPy6G0V1cvstkSpcvo4GG+c2jQdme+xgzZoz5pEVycnIje7YwMVqFSPx89BTvvDW9oNMQ7tthwRTzEZ1/HqLzM1BoM+bNnPkq5ut8B5GYXvTjokvbSLM5AYhE8tEnn8qbw8+xeUtDb95V3VvLHc98QOE+dJRRqSErK2t2VHbEnZCATQgMHjz4u4ceeuhJNOdF+Jlw/KTTSCBhCOBBb9eL8Cf1uxDuXlO4DzdR1kcCJEACJEACJCDSb8HJ0g+ivcuYJdsqpMv0tnnRwsKI62iRtt9+kBppECIdJw0aNEhzs9NsRiDwIlt9ma1e2JsG4f5IjcyHiK/paQbqPCL29e+Fivk5WJ+NC5bs9iL/mBtE4b/MzEx9KoBmcwILsnOkTfN6Uq+Gk7IwlQ1q64bVpUalNFm0aDFz3ZcNIbciARKIMAGkBxmNqOMnkC7kc5yLXcvI+wgDZ/W2IKCR9ira45j/Y8iQIaMj0SgEtdBIgARIgARIgARIIIwE+swbKYbvfUTZT0Au+37RFO2Z3zyM4+iwqqxoe77XwFkDh3z5S+FvIEp/GPwseB2E63dDL56FI6ZarsPytxDzN0Hk/wI+AX45ovePdlZP2dpwE1i5cpW0ql853NXatr42TarJ3/8st2372LB/CeAF15rzm0YCCUcAYv2tEDF/gGcz533CDX/CdViPcT3W9ZjXYz9SABhxHymyrJcESIAESIAEEo1Av+xWYngfx9OxueJNSpdnO62INgJG20ebuH32x2h7+4xFqC1BcujlqEP9Pbhpc0TqIfreTLOD6YV4Bv8+iPl18aGZMx8Cvznt4p8GtirbBKJbds+ePZkup2z4orbV7J/nSPK+jVHbX6x3tHztFqnQaEesm8H9l4zAcSUrxlIkEH8ENPJ+4sSJXyOd2d0QNocgEvmNpKSkr/Ly8haNGDFiK3rMNDrxN+yJ0CPX2LFja6Smprb1er09INZfhk6v0pz2kUiPEwyUwn0wDc6TAAmQAAmQAAmUjcBNc2+EaD8Z5+L3Isr+obJVEtpWVsQ185uHxtGJW3PsnThqpWszBPn12OKTgJsbI+dOdUTjm2l2IOb3gHh/B8T81vjQfPkt1pm58yHt5pwrkmtuVLL/0ktWjKViSSAlOVlyPRj1BLE89HXJkt8TpLfsJgmQgJMJBITMM5D3/ngInBdCxH8Q5+dHYrk6hHz8PNNIwFkEcBzj0DW24VheCrH+B7T+etykisrTVRTunXWssLUkQAIkQAIkYC8CN/xQWZLLq2DfVnyuHvJMp5i9kI0R1/Y6NKLZGo59NGnbZ1940+02tOargJsNg3BfIQn58iHnZiCkD5l3pA/C8tORWudXLBdE5+PzbITE7jQ34n+OJFC1WjVZsnKZI9telkZv2bVfjm5erSybcpsoE4C4gweHaCRAAgFhMyriJmmTQLwSoHAfryPLfpEACZAACZBApAncNPdccbtUtH8fUfZIUx07Y8R17NjHes8c+1iPgL32D6V+L1r0U8DNxr0lknSE/+W3ZqodCPuX4EVfGciVvxJTMzofBbN1vgNy6SOSimlyTHL2/q9+vbry3Xd7Zf3W3XH/glrt46bte6UH+kyzP4GsrKyYBTHYnw5bSAIkQAIkUBoCFO5LQ4tlSYAESIAESIAE/AT6zhuHmavFcA2QaZ1mxBoLI65jPQKx2z/HPnbsnbLnS0S8aCuC7k0vaDaE+2M0Mh/P7GtqnGE6j4j97ZKZmY1pjqbawYY5SNOzqmAjztiGAB5bl6Ob1JDXvvpdBvXShyvi17SP2lftM40ESIAESIAESCBxCFC4T5yxZk9JgARIgARIIHQCN87NCETZQ8hypcu0jptDrzS0GsaPH18ZNXSEoHEKXoI1KLTauLXTCCAlwbcQ7690WrvZ3tgTwGNCv6EV6i9brUGYbCtcIKmQnwEh/xZE4adDxDesNDuI1jcj9DuKJE6OFguODacZR9SRj+f8I8e1qS8ntGlowxaG3qSfFq+RL7NXyLldmguOSZoDCOAF17Pwgmumy3HAWLGJJEACJGB3AhTu7T5CbB8JkAAJkAAJ2IVA33kD0ZRHxJABSI3zpF2aNXTo0F1oy6l2aQ/bQQIk4FwCyHv/J0S3tyC6FaTL+VWk8X4I+eiVivl6k2gixHy9YViQMx/z2YjMX4QpLYoEUlOSZOhlXeXeF3+SJwaeJq0b1oji3iO/qz/WbDX7dvdVx8vSVVsExyHNGQTwp4RGAiRAAiRAAqEToHAfOkPWQAIkQAIkQALxTeC6OfUkxa257Gv7o+w7QceikQAJkEDcEtCI+wI71p8qR9PlzLRWLhSp44GQj0j8DEThnwdB/26I+Y3weUHOfE218yHE/VHCQGmLWySmJx/bSG49P10GPvGVjLvhZMloWScSu4l6ndnLNsrw574z+6Z9VOGeRgIkQAIkQAIkkFgEKNwn1niztyRAAiRAAiRQOgJ95/XGBpMRZT8NUfY6TyMBEiCBhCfQXmQjIHwWcJMHhPuqKuRreh1MT8bK/2SKtOkZJOZD4M+B4J99gsg+cyP+FxYCF5zQSiqWT4F4/6UMuKCDXHLKkWGpN1aVvPXtUpn83gK55+rj5YwOzWLVDO63jASQwo1pcsrIjpuRAAmQAAkcSIDC/YE8uEQCJEACJEACJGAR6DPvMUTZn4Uo+2vwAtrPrdWckgAJkEA8E3C73QVpckrTz04iO1D+m4Cbm34tUr5KIGc+Vmh0/nUQ9jPwYtzfMTWj8x/dsV18O3aIu2pVcxv+VzYCKnA3q1NVHnl3nsxCXvhbszKkZcPqZassRlstW7NNnpiZLbn5XnnujrOlVSNntT9G2Gy326ysLLwug0YCJEACJEACoROgcB86Q9ZAAiRAAiRAAvFFoO+8buiQRtnPl7xa7eWF5kyrG18jzN6QAAkcgkBmZqbmrg+LdRczLbmKeAcIeRDuNV9+BtLppPdctUJWtG0ryfXrS+qxx0o59XbtzPmkOvGR9iUsMEtQiQrdTw48Q17/eon0f+wLORNi/hU9jpZGtfWVBPa11Zt2yWtfLZHPFyyXG88+Vi7vfrR9G8uWkQAJkAAJkAAJRI0AhfuooeaOSIAESIAESMABBPrMG44oe7hrAKLsX3RAi9lEEiABEnAcgc6Itkej1aXLMe0HfPrR+5K3dKnk/fqr5P7yi2x//HFz3lWhgl/Mh5Cvgr4K+8mNGzuuv9FusArf53RuIa9BwL9q/EfSI72JnH98S2l/hL1uhCz8a6O8P2uZfJWzEul9jpK37z5fqlUqF21c3F+YCeAF17PwgmumywkzV1ZHAiRAAolIgMJ9Io46+0wCJEACJEAChQn0nXcExHpE2RuG+FLbyzPt/ylchMskQAIkkAgEILplQ3QrU7qcUPikHnmkqFfq1augGs/y5aaAvx9i/s6XXjJFffF6C8R8FfLLQ9RPPgJ/wmkHEFAB/Jae6XLdmW1lxg9/yrg3f5ZyyUnSI6OpnNKusTSriyRGMbDlG3bKt7+skq+yV0iuxys9ux4hg3t3lgrlUmLQGu4yQgSOi1C9rJYESIAESCDBCFC4T7ABZ3dJgARIgARI4CACfeZfh3WTxeUaI1M7jj/oc64gARIggcQikG6X7iY3aybqFXriFbcB865bZwr4Gpm/9733ZOt994lv27aC9Dpmuh1NtdOmjbVJQk9VEL/ytDamz/9zg3yZvRIvsf2fVCyXKp2PrCfpLetI26a1pG71ChHhtGHbXlm0YrPkLNsoc5eulz25edLtmMYy8MKO0rFV3Yjsk5WSAAmQAAmQAAnEBwEK9/ExjuwFCZAACZAACZSeQN95UCkQZS++DDGSz5KpGT+VvhJuQQIkQAIkEE0CSciFX0H9LLw7PGDeLVvMyHxNtbPvyy9l+yOPSP7KlWY0foGQH0i140pO3EtAFcrVh1zSWRav3CLz/1gvn8z5WyZOnyMu/GvRoKo0xQtuG9aqBCG/otSskmamrqmcliJpqSlSLjVJ3C68mQDmwwNquXle2ZeXL7v25cv23bmyZec+2bBtj6zZvFtWbNwhf6/dgdfFGOaNgXYtasvdVx8vbZrUDIwaJ/FKAA8vMk1OvA4u+0UCJEACUSaQuGdtUQbN3ZEACZAACZCArQj0ma+KD6Ls5WOZ0rmDrdrGxpAACZBADAm43e6op8kJtbtJNWtK2qmnmm7V5du9uyBn/v45c2Tns89K7m+/+dPsBER8fQmuuubSTzRTAT1YRF8Pwf3vddtl5cadsnbLHvnl702yecc+2bEnF8J8nuzP80huvle8PsNEleR2SbmUJCmfmiyV01KlasVyUqtqmtSuVgEvw60kJ7RtIC3qV5N6uAFASywCWVlZB7yMOrF6z96SAAmQAAmEkwCF+3DSZF0kQAIkQAIk4AQCfeePQazgjWIk3SZTO7zjhCazjSRAAiQQLQKZmZk50dpXJPfjrlRJyh9/vOnWfoz8/AIxX6Pzd0+fbi4nN29uCvjWC3A1Sj+pRg1rs4SYqsCufkKbhofsr74KRs0ViLw/ZGF+SAIkQAIkQAIkQAIhEKBwHwI8bkoCJEACJEACjiJw0/x24jaj7NeLCy+gfbr9Rke1n40lARIgARIIiYArBeleOnQwPbgijcRXIV99z6efmtOkWrUk5ZhjCgR9jcxPqlcveLOEnKdgn5DDXqpO4wXXs/CCa6bLKRU1FiYBEiABEiiKAIX7oqhwHQmQAAmQAAnEG4G+829Fl5DPXgbKlI6Px1v32B8SIAESCBcBiG7ZEN0cly4nlP6XU4EeLpdfXlCNZ9ky8yW4+/ES3B1Tpphivis11Z9qByK+ivrlMU1u2rRgG86QAAmYBI4jBxIgARIgARIIBwEK9+GgyDpIgARIgARIwK4Erl9QW1IMzWXfAA/2Z8iUDgvt2lS2iwRIgARsQiDdJu2IaTOSW7YU9YoXXVTQDg9eeJsLId+MzH/9ddkyfLhIbq4p5lsvwdXI/JRWrQq24QwJkAAJkAAJkAAJkEDZCMSrcF8eOKoHuSZoDF7ehuVg3xq0vB/zNBIgARIgARJwPoF+8y8SA6K9yAuIsr/M+R1iD0iABEiABGJJILlJE1GveN55Bc3wbtjwr5j/wQeybexY8WzaZEbjq5hvuebPL61t7N9fDOSSr/vUU6XdlOVJIGYE8B4EpsmJGX3umARIgATii4BThXsXhkEfP7O8PuaDhfkKIQzTXmwbLOqvw7K+Fd5y/9uIQtgBNyUBuxIYM2bMyuTk5MbWS7fs2k62y3EEvsNxNeHOO+/8yHEtd3KD+85/RAw5D5H2N0K0/9TJXWHbSYAESCCaBNxud0Y09+f0fSXVrSsVzjjDdKsv3m3bzKh8jczf9+23suPxxyX/778L0utY0fk61fQ7xRpy8u/FC3TXrl0rdV94QZKq6yUfjQTsTSArK0u1AxoJkAAJkAAJhEzAKcI9Hu8vEOktsT7lEL3PxWcqvgdH0geL8cEivzVvReWr6K/eEG7ZJYGZfEwtAd+arrUKcUoCTieAl201TkpKMrZu3XrJuHHjPnN6f9h+exC44447zqpVq9aHDz300HkU76MwJv0WIMoLUfaG/CL7ktPl5fZ7orBX7oIESIAE4oZAZmZmTtx0JkYdUYE97eSTTbeaYOzbZ0bma6qd3Oxs2fXSS+Zyatu25gtwUwMvwlUx3125srlZZaTp2Yso/rw5c2T18cdLnWnTJO2kk6wqOSUBEiABEiABEiCBuCZgZ+H+QpDXhIoq1LcsYhR+xTpLPF+GeUuYV7Feo+bLairaq5hvCfm6b+tmgT7fqWeKwWeLum9tx7vwGXAaCTiWgM/nk1WrVl3buHHjt4YPH07x3rEjaa+GP/zww59BvO9N8T4K49J3/hCkxrkHUfYDZGrH56OwR+6CBEiABEiABEpEwJWWJuW7djXd2sDwek3xPv+338zp7hkzzEj95MaNC1LsGHv2iA/lXBs3yvpevaTG6NFSFSl0aCRgVwJ4wfUsvOAagRQ0EiABEiABEgiNgDu0zSOydS/U+iNchfCr4Cqc74R/Dr8Pfi5cRfV28L7w5+DfwVXIXw0PRbTH5ub2azDV+rRerV/3o/vT/er+tR3aHm2Xtk/bqe3Vdmv7aSTgWAKPPfbYlyre16hRQ8X7sxzbETbcVgRUvN+8eXNvj8ejkfeZtmpcPDSmf3Yz6Tf/A3Slu3glHalxKNrHw7iyDyRAAjEhANEtOyY7TsCdupKSpHxGhlS++mqp9dBD0vCzz6S5psV5/nmpiPQ7+cuWmTnu3QE2Rn6+bB0zRtZfeSUeLmMG0wQ8ZJzSZQ38o5EACZAACZBAyASsc6CQKwpDBZqOZhZ8OvwEuIrwd8A7wKvCVUC8F/4JXKPrY2G6X92/tkPbo+3S9mk7tb3abm2/9sNKr4NZGgk4iwDFe2eNl1NaS/E+QiPVZ8HV4vMsRGqcWYiyP0ee7ahPgtFIgARIgATKTiC97Jtyy3AQSG3TRipdeqnkL1ok4vHgJ85vmg9fxf59X34pgpfWFmVePEEabJu27ZJ8jzd41UHzu/bul7x8z0Hri1qxYevOEpcN3l7fIVXSfQRvx3kSIAESIAESIIHEJZBsg65fjjbcDu8caMsKTB+B/zewbPdJNhqoPgn+H7j2Re+wvwkfDNe+vA6nkYCjCKh4P3DgQKbNcdSo2b+xTJsTxjEa8Gc5yduJXPZGF/G5z5NnOn4fxtpZFQmQAAmQAAnElMCG66+X3MWLxVWpkhh790oKcuFXPv98qdC9u6QiSv/HVw++xLr/mY+kfq2qctMF3Qra3m/sqzL8+rOlc5tmBesKzwx+9G25uEcH6ZauD1P7LSU5SdRV9A8W3O989B05vevRKJ9hFZXUlGSz7G9/rZW1m7ab6xvUribHHNGgoMzvy9fL7ZOmy6eTB5rrHn7lC8nNO/TNgrTyKXL7FacX1MEZZxDATRqmyXHGULGVJEACJGB7ArEW7lXofjRA6R9MVeSeHFh24kRvNqgPgKuArzcjXoPXhj8Gp5GAowhY4n2jRo2mI21Ob76w1lHDZ9vGqng/ZMiQ3tWrV+cLa8s6Sn0WnC652x8XcX+BKHtGhpaVI7cjARIggSIIuN3ufxXZIj7nqugQyF+yRCpdfLFUPPtsU6xXAf9Q9tXc33Ev25C3v1wgTerVkCMa1TZdt1m6fIOkJiebQfrtWjUqspob73tJalStWPDZzb1Okf4Xnyx6M+DVT36WmlX/3b+K8I+/+bVZdt3mHdLnwm5yT5/zZOLLn2MfLvF6faKi++h+WQX1bdi6C0J9vqzfslPqVK8szRvUkjw8TXAoS8bTBTTnEcjKytJ34NFIgARIgARIIGQCsRTub0DrLdFehW4IEHFjevNB/bbAVMX8XfDn4TQScBSBgHh/DcV7Rw2b7Rs7YcIEivdlHaV+C0ZDmegvhnuATOv4Vlmr4XYkQAIkQAJFE8jMzMwp+hOujSaBRrNLp31+u+BP2bMv14xy/3z2Yjn7hLYFwv1LH82S/2/vTuCsKus/jv/mzsCwquAuJbiRS8kQi2C5kP3drnNd0jQ0MpUlFSNNs0TD1FLRUkkTSDLLJc0lBSWLxCVBBpxBKxNNURQVBZRFGZiZ+//+LvfiZYRhljtzzzn38/j6cfbnPM/7XBZ/89znbK9keSxWZH/4mf9v6GfLnVeeaQd/ea/PHPAfBlz/g5NsjZLuqz6uttPLD7QXX33b5i9YlFq/7+/z7KXX39lwnSf8fYT+Hx6dbaePu33DND0rV68xT/ifOvY2+/M1I+2E9Ij93z38rM35t49h+7T026fnRt8a+PQIawgggAACCCBQSAL5TNxfk4b+iZZRStpnf368X10VP1dcqyBxLwRK+ARI3ofvmYWhxSTvm/iUhlftZ7bu10raL9Ub+cpscv9PswRNrIrTEUAAAQQQiJrAdtt0sWMP6WN9v/B52/sbP7Xrxpy4oYtXnXPcZ6bKuXjCAxpJP0fT3BTb+8tX2UMzq6xLR81Ct67WBuzXyx4YPyp1/XmnfC2VfNc3MewXv3vM+p12lV16Vtx8WhwvRx34RRvS/wupdf/FE/Se5PeSmRbH1z25nz1Vzh8f1Sj+bTrbU5WvpK5fuPiD1H38GwH+rYEeO2yjaXc+sjOP/YpfTgmRgF5wPau8vJzpckL0zGgqAgggEFSBfL2cdohAtlPobUP2i6Di5Khd3j/vp/fX+01BIJQCnrx/6623hml6E58254hQdoJGB07Ak/fLly8/qaamxqfNiQeugUFp0MjnR1nRuvl6E99DmhrnRJtE0j4oj4Z2IIBA9ASUdKuMXq+i3yN/V60n030qGp/yZtmK1fb3OS/ZEr1Mds6/FqbW33x32QaIj1Z9YrePO93+95erbMVTN9p7j1+XWn/mtgvtgw9XbTjPR+rP0DQ8R5x7YypJ/7ebx5gn2X2qGy9dOpWa/9AgU8677h47X3PZe7nn8Qr72eSpmUMbLRd/8OGG+/zntcX22tsfpKJKI/m9ePveXfrRRtewERoBf+cdBQEEEEAAgRYL5Ctxf2q65S+1uAfhqCDTz6HhaC6tRGDTAiTvN+3C3pYJkLxvwO/Mf3e34RV3aZT9t5W0H6hR9j71GgUBBBBAoHUFeHdI6/q2Su379NrZMgnwL+3Zw+b+5w279DcP2+GD9rWlH63S/PN/s6lPv7DRvT1Bv0Rzz2eHj77PLh+vWWuJg/vYb3481O6c/pyVlMRs9ouvp0bEe3Ld45Pq9SPs/brf/fR0u+2yYakqfDT+zffNtOwfGGTXnVnfuktH26pzh1Rk/xAgc5wlAggggAACCBSmQL6mysnct1C+PnZg+uOV6XdhftrodSQEsqfNGTt27ElXXnnlXyPRMTqRVwGmzdkE/8jKYy35sabGKbpTo+z5we8miNiFAAIIIIBARmCf3XayG++ZYXv32sn23W3n1O6D+u6Zemmsb9x6/1NWV1eXOd2+0HMn7XvSJj349IZ9vuLn9Ntn1w37/OW0M+b8d8N2n1OusLeWLE8l438+5bHU/kP797Zrz/vGhnMyK56Qv2LUsakpdnzKnc0VP2+FptipXltjXTt12Nxp7A+JgN6LUCh5jpA8kcJspv7/KlmYPafXCERLIF+J5LfSjD20PFIxPVqsG/XGp37YJb3njY2OsIFASAU8eT9mzJhhu+yyy30k70P6EAPYbJL3WQ9leMX1lqw9XqPsR2mU/bSsI6wigAACCLSygOYy79vKt6D6VhDYZfttbOfttrZXFi2xdiXFqWlnNnebdTW1NuvF12zajaPt91Nnmb9Q9u6/Vtj+e/Ww0nYldtM9/9hw6S/O1V/H6fKq6h56yW22tqbGLjnzaCs/aP/UC28zx3152a0PpzZ77tw9tTxDc9R/uLKv5tFfmdqu/8sRg/e1yv+unx7H2/3Km0vsmIO+VP80tkMkkEgkmvZm5RD1jaaGQ+Ciiy7S5GEUBBCIgkC+psqpycLzYQrHZm1HafUEdWbTkxpGqZf0pSAFbrjhhhmLFy8ettVWW3nynjnvC/JTkPtOF/y0OaOqBtqIijlK2G9nq2vKNJc9Sfvcf8yoEQEEEGhQIB6PVzV4AgcDJ6ARznbONXenEuBTn37R3vngo9SLXmfOXWCX3PJQKh74x/OaeW590yf86QnbQXPXd+rQ3n738LP2xjtLNdp9XSqJv3uP7a1qwVv24BOfvurgf2+9b1dNedSGjPxl6sW0T02+0O6aPscGDPt5avodv3+mnHbUATb0yIGpun1fSXEsNQf+8pUfZ07ZsHym6lWrqakzn9onO4qsyJ56/pUN57GCAAIIIIAAAoUpkK/EfUY7873Eh7TjT4rMyPTM8bAuP6eG358O78OT/gsFgagJkLyP2hMNRn8KNnk/fM4Pra5Gf18UTdIo++/YnYNWBOOJ0AoEEEAAAQSCLVCkN9OeetRAm/7r82z+3ZfaxJ+cpqlwdrTP7djNDvly71T41Dj+AttaTYVz52PP2U9HHJPq1FfL9kyNvi/XPPZ3T69InTN57Ldt3KSpSvQn7eIJD1ji/JtTI/Hn/fESKz94/1Tdf/rFcPPzbrnvSTvrij+k6rp8ZLmd8LW+Niw+yH51/jdT++77+zzb49hL7Mhzb7L/O2CfjSA/XPmJLdFI/E2Fz51PCaeAXnA9K5wtp9UIIIAAAkETyNfXZ8YJ4qeKyxU+YeANih0V/q+T3yvuUmSS+loNTTlELf2WYmS6xe9oOUaxryLT33FapyAQSIErrrgieemll/oUVk0qmjbnME2bc8eKFSuY875JcpzckIC+4nlEt27d7ispKTnmwgsvjO7I87Nf/LzVrPG57DtabXK0TRnwckMuHEMAAQQQaF0BJd0qy8vL22y6nIGDD0pOn/aX1u1UBGv/4513W4fl/7bhR/fZZO88Qe8D4X3Eu5e6uqT5f8WxWCp570sv/vLZjqXtlLAvsjUadd+hfbvU/rXraqy9ps3xeedL2zc8w+yqj6utS6fS1HWN/cXv5SPrN1e3379Wbfa2eZn86Hxb020/O+1U/99NSlMEjowfa3NmPd1muQ/9GZLUnyFtdr+mWHAuAggggEC4BPI94t617lHsqfiloqNilOIphU/0d41iiCLIxds3XrFYMVORSdpfr3Xv170KCgKRFmDkfaQfb946VxAj74fPOdVqqudrlP1cjbI/nKR93j5u3BgBBBDIFijL3mA9nAKemM8k7b0HsVhRKmnv65mkva/7dDmetPeSSdr7uiftvWwusZ46mP6lqUl7v8zv1VDdfv9M0j77XqwjgAACCCCAQOEIBCFx79qrFBcouil+oHhD4dPNXKTwNwP5hICPKEYrNj2kQgfaqPj9z1P43PXeLm/fDxU7KxYqvP3eD9/nxykIFIQAyfuCeMxt3snIJu/HJUs0l/2tVhS72OqSJ2gu+yvaHJcbIoAAAggggECjBVZ+vCZ1bk1tnS1+/8NGX8eJhSegKZYGF16v6TECCCCAQGsIBCVxn+mb/wvoBkUvxYkKn/f+A4WPxPdJCG9SVCl8Sp1Z6e3vajlI0UuRy7KbKvN6z1D4ff3N8H5fv/+NirjC2/W+4m7F8Qq/xtv/oYKCQMEJkLwvuEfeJh2OXPL+rHlfs8Xz5muUfZ0tf63MfjtgZptAchMEEEAAgUYJxGKxvo06kZMKRqDy5UUW//6vU9PqnHjRrdb31CtTL7X1F9u+u5RX0hTMB6GRHU0kEp47oCCAAAIIINBigYYn62tx9S2qIPvlrj7K/euKwxQDFNspPKnuUb/4v5zeU7yrWL2J8FHwnRSdNxE7aZ9HV8Xmiv8gYY5ihuLvihcUFAQQSAt48l5z3g/TnPf3jR07ljnv+WTkRMCT95rz/iTNeT91/Pjx4Z3zfkSF3neieezrFL8d4D/0pSCAAAIIBEwgHo/7QB0KAhsE/vjobPv6wL3tsO/9ynbs3tWmXPYdq1qwyG665x921Fe+uOE8VhBAAAEEEEAAgVwKBDlxn91PjUw0D5833otPo1Om6KfwETG9FP5yW0+6b5WOvbRsSfHEv/8A4HVFpWKewv8R/7aCggACDQhkkvc777zzL5Vw/XwDp3IIgSYL1NTU3KyLwvWy2rPm7WOxugkaZb/S6mo0yn7QW03uOBcggAACCCCAQJsLvL98pU1+8Bkbe9bRNvvF1+zLe+9q1/3hcZs5b0Fq/bDv/dJ+MPTrdtZxX23ztnHDYAro5bSz9HJapssJ5uOhVQgggECoBMKSuK+P6gkPj6n1D2h7e8UOCh+V7yPnM6PrM8sO2rdG4aPxffR9ZrlS6z6a3pP1vqQgED2BEfOe1ewcV9rEAY+2duc8ea+k/R0aJV3U2vei/sIS0OcqGaoej6wYYcnkBEsW/VgvoPUXsVMQQAABBAIsoKRbpZJuTJcT4GfUlk27eMKD5vPbjzj+IHum6lUbftxBtnpNta3+ZK1N+el37L6/z7M1a9e1ZZO4V/AFBgW/ibQQAQQQQCAMAmFN3Ddk63POe1AQQOAzAsk9lTz8s42Y+5oVJa9SAp+pOj5jxA4EciRweuU21r7GE/Z7WbLuqzZ5YEWOaqYaBBBAAIHWFfBv9lIQsOUrPrZXFi2x3Xv4mDCz4w4tsx/e8Gdb8OZ7dsTg/TTP/T+VtK+xQV/yV51REEAAAQQQQACB3AoE7eW0ue0dtSGAwMYCRcnva8daxX5WV3SLjZj3ho18ftTGJ7GFAAItFhg5p9za11Ypaf+uTeo/iKR9i0WpAAEEEEAAgTYX6LZVJ/vL9WdbSXGxvb54qU35yz+tprbWxp55tC16b5klDumjKXNetnc++KjN28YNgyuQTCaZJie4j4eWIYAAAqESCNOI+2LJ1ir8hw11DSj7lDh+rk9901Dxc3w+/OXpk9pr2U7hU+dkF79fF4W/9JaCQHAFRj9aata91Fa1L7XitaUWKym1ohpFcanVxLSsLVUScak6sEqxtRXZNvqttI32Xa8R+FdbUdEks1afQSe4frQMgVwJjKi4Vr+vTtb0OKNt8oCHc1Ut9SCAAAIItI1ALBZjmpy2oQ7FXTx572X7bl3s/FP/LzXa/oF/VNrnd+xup42dYj137m5nJL4Sir7QyLYRSCQSs9vmTtwFAQQQQCDqAmFJ3O+hB/FbxRDFU4pTFW8oNlXu0s5Fiin1DvqLZX1eZE/O/0lxmeLHiscU1QofJvFNxVmK7LKDNv6s8LcNnas4SFG/jNWOV+rvZDvCAuOSMftolhLhHZUoV4I8Vr0+QV7kCXIlyzOJ8qIiJdN9X12p1Wrdl+ZL36/1pC+THnr3Qno9s6/I1p/rx31fkZ/n5/j+zD5fT0d1UbXOqbZ2dfo8l/hnutqS7RTaV6xIFmuflkX6PbBhhvDU9PP6IVayk6by6BHhJ0bXEGh9gZHP9dfPjSfoR8v/s87FfeyGvh+2/k25AwIIIIBArgXi8bj/fwMFgY0E3npvuV0+eWpqtP3peu+oz33/nWMG23vLVtgjT71g5Qfvv9H5bCCAAAIIIIAAAi0VCHri3rOKnmJMZRe30FkfGX+J4muK+xXnKbwcrfCpQXZT1KRjjpb7KLz/hyrGKIYrdlGcrfDyN8X/FH6Oj8735VcUdyteUmTKNVrpntlg2UoCI+a2sxIlyYtWldon7ZQoX6fQSPJUolwjyVOJciXCPSGeSYrXpRPmqWR3OvFdpyT3hgT4lvZlJcUzyfFMcn3xPH0m2isZXlttsRolxJU09/Wk1pOeQM/s8xch+37ti3lC3ZPpHr7u1yiRHrMPLRlbn1T3Y74/pv36aUDquJ/jx1PJd69fSfk61Vmr+69dW23dl1XbhKN1fiPKd5/a3tp11AuY07+linS/uuSdMrvcJg140664YmgjauEUBBCoLzCi4gf6fa6/D1Kj7CfWP8w2AggggAACCIRbwEfYjz55iN1y30w78bB+NvGS06zq5UV2zXkn2Ne/9ys7bODe1qmDf4mbUugCesH1LL3genChO9B/BBBAAIGWCwQ5cb+1uveQYkgD3XxGxw5XfKzwhHpnxTyFl3GKHykqFacqPGnvxf8CPVaRedP7P7V+gWIPxQvp5QFaTld8Q3G1YneFj7r/ROF1ZqbX0ar1818iV0a/kh7JvVKJciXIPVGeSpKnp1yp8aS3jxjXSPFUslzrqRHlGgmeSpzreGZUuC/rjx7f1L7UOZlk+WdGlNdazRolpzVqvMST3j56PJ0Ar1OiO5XUziS/dTyVKPeEtyfCPbTPz0utp6Y9Su/zBHnJmlSifEPy3Pep/mK/j9eVSZR3VKJcifM9lCgfNyTzeQrXoy/p5J91TTlVpB8o2D+0dqn9tr9/7ikIINAcgVHP9rBkex9lv7W1K+pjt/R/qTnVcA0CCCCAQHAElHSrVNKN6XKC80gC0RKfx/6Nd5bag9d9z66943G7+vbpdvfPz7LddtnObrrwFCttH+T/tQ4EYSE1IpNrKKQ+01cEEEAAgVYQCPK/LnzqGk/E77iZfvvo+BUKT9p7uVzxumKA4k7F6YolCp/+Jnveeh9t/2/FIsUhCq/jEcVMxRkKn8/e7/1aOp7W0pP2xyn+pPBR/S8q/qD4meIVxTJF88tJ9xZbt901L7nmJi9aU2rVPvWKJ8pzOaI8nUj3EeM+4jzpCfLMvkyyPGtf9UdKWntiXBHT6O7U6HBPYmdGjyeV+PVEuIcnyD3R7QlvbXvS3Pf5iHFLrrRY0Qcb9m00otyv8/N9qXPrVH+J159OlNd8Um2rS6ttv8eVKB/X0HsNmm9fSFf6txYsebqi0oqLL7Df9PPPNgUBBJorMLziFP1AcIJ+T92suezHNbcarkMAAQQQCJxAWeBaRIPyKjD79ottm64drf++PVPtuGjY4XbZ8Lh1aK9/XqvEv/ql1JJfEEAAAQQQQACBXAoEOXHv/XxY4SPqZ/lGvfJ1bd+X3ufrP1QcoahQTFZ4ct3nA/HR9n9U+CjIXym6K9YpPOl+jmKSIq7wpP/xCk0jkrpWiw2lm9ZOVPjSr/NE/YGKqxQrFXcp7lE0XPb/9rk26Pvf0UmfjkZfP8rc26mpT9atT3anRnpnRpQrkb1hRLmPHPdkuifQM8nx9L7UiPJUsty/DaCpWmJKrHtC3I8rKe5Tr3iCfMP0K6rf62nn+zUPep1GkvuI9pXdqu2+/daqjuCUzFMOTovC2ZJJ/dfZ8OcOtskHLAhnB2g1AgERGDcuZu8c46Psh+gHkyfbrf3/EZCW0QwEEEAAAQQQaAWBzAtqM1Vv07VTZpUlAp8RSCaTgz+zkx0IIIAAAgg0QyDoifvp6tNFik0l7j0Bfkq6zy9rqbmFU9ueSD9M4SPtRyr+ovDEuA+D+EChaUI0p/j6KXCe03IXxTMKT757ingvxRSFl0GK0YrPK7ZS+BCLkxRez+2Knys8Ceqj9rdcXptxtx149vVWp0S5J+mL26+x5f2UKC/yNlEQaH0Bkvatb8wdoi0wfM4htjjmo+xnaVqwPnZrP/9BMAUBBBBAIEICsVisb4S6E9mudOrUyT56NxnZ/tXv2MrqpG2tPlOCL5BIJGYHv5W0EAEEEEAgDAJBT9xXCtF/Wt2xHua+2vZk9/vp/Yu09NH0nnT3sr9iicKnzfGym+J8xW8VeysSCj/Xpwq5VjFOMVNxr2KE4l8KL+7jPzzwhL0n8y9X9Facp+iTXi7T0n9AsOWyavFSu3Xwwi2fyBkIIIAAAoETGDl3rEbZX6BR9udqlP2dgWsfDUIAAQQQyIlAPB6vyklFVNKqAj177mr3/3NGq94jSJW/8s5K+8aQXYPUJNqCAAIIIIAAAqp889wAABllSURBVK0sEGvl+ltavSfnT1b4iPns4on6s7N3aN2nsvFk+rcVbyn6pbd933WKjxRe/rt+YT7afqHCE/z3K4oVfs32il4KL88o/pZaWz9i/1Wt+zl+7dcUlyqGKOq3T7soCCCAAAKREBj+XG8bMfevmqJsgP6091H2JO0j8WDpBAIIIIBAmAX6lvWx/7z+rr27bFWYu9Gotnsfva/eZ0rwBfSC603NGBD8htNCBBBAAIHACQQ5cb+TtL6i8KT4fgqfm963PbHuo+b9pbW+7VPdePH5589RTFP4iHpP3nvpoBioeNs30uUWLT3hfo9itWIPhY+8X6f4lsLr2Fbhxa/3cpLigdTa+nv5cY/26X0sEEAAAQSiJjCy4kyLFVfpb6K/2aR+x9qk/m9GrYv0BwEEEEBgYwEl3So33sNWEAU0pZHFjzrS7pz5WhCbl9M2eR+9r95nSigEfMpdCgIIIIAAAi0W8Klgglo8OT80q3E+yt3ntX9ScXjW/ru07t8Z9Lnspyh8ah1P2u+j8MR8F4Un4ucovAxTfF/ho+V9TvsjFGco/PzjFGsV2yv8hwCPK7ze3yn2V4xS+LU+6n4bhZet1y/4FQEEEEAgMgJnPNPVSjpM0Cj7fTWf/RAl7P3vIAoCCCCAQGEIlBVGN8Pfy2+d8k0bOfJsG7z3tnbgvj3C36FN9ODZ/7xtMyrfsIkTf7SJo+xCAAEEEEAAgSgLBDlxP1PwHo0tPg/9mqyTX9J6n6ztzKpPcXBHZkNLH0Xv4RY1Ci+3KzLbPrLfS2b7Sq37yHxP8HsZr8hcl9rBLwgggAACIRYYWXG0vuw1QT14yCb2829sURBAAAEEEEAggAJdunSxc0efY5f96ga75dxDrXcP/5J2dMqCt5fZZX94zs7/wRjzvlLCIZBMJn0wIQUBBBBAAIEWC0Tpu3bZSfuGYHze/E2V+sn3zW2v1sWZpL3Xs3xTlbEPAQQQQCCEAiPm/kKj7CdaUi+hndj/ghD2gCYjgAACCLRQQNOR9G1hFVzehgKDBx1gZ5zxXRt9y1NW+eqSNrxz697K++J98r55HynhEUgkErPD01paigACCCAQZAEfRU5BAAEEEECgsAVGVfRVwt5H2b9pJbVldvMBSwsbhN4jgAAChSsQj8erCrf34ez5UUccbp06drTzfnmDjT62r33zkC+EsyPpVt/75Ms24S+VdsH5Y+yQgw8KdV9oPAIIIIAAAgg0XyBKI+6br8CVCCCAAAKFKzBi7nlWV1ShUfZ3apT9UJL2hftRoOcIIIAAAuEV8AT3Db+8zmb8d6WNmfiMvfp2+L4Y7W32tnsfvC8k7cP5edQLrmeFs+W0GgEEEEAgaAKMuA/aE6E9CCAQRYFidWorReb/INtrvZ3Cp95qqHTVwZUNncCxFgicPWcnq435KPvtrChZZrcO+FcLauNSBBBAAIGICCjpVlleXs50OSF8nrvvvptdfc019uBDD9vICXfZEV/uZUOH9LbPbe//pApueev9lXbXEwvsr88vtFOHDrXjj0sEt7G0rDECgxpzEucggAACCCCwJQFG3G9JiOMIIIBA8wU8Oe8vv95H8WvFaYqTFIcqblQ0VEbo4AqFLym5Fhgx9ySric3XKPuXNMp+CEn7XANTHwIIIBBqgbJQt57GpxLft02eZCU77WunXfuYXX7XHJv/v+DNf+9t8rZ5G72t3maS9nyAEUAAAQQQQCAjwIj7jARLBBBAIPcC/pLrOQpP3Puft4cqxiiGK3ZRnK3w8jfFK6m19b94st6T/Dsr7lUUKSYqKLkQGDn3JlVzuFnyNJs4wO0pCCCAAAIIIBAxga233sq+e/owO+Xkk+zRx/5qV/35MetQnLTD+uxih+z/eeu1o38Zsu3LwvdW2JMvLLIZ8xfbmtoiO/yIo+yuC35mHTVHPyUaAslkcnA0ekIvEEAAAQTyLUDiPt9PgPsjgECUBfwf7ccqMl+X/afWL1DsoXghvTxAy+kKL50UVyoGKo5W+Ij7uOIxhb9l7VLFlqbX0SmUTQqMmPtV7f+1RtlX2NqVZXb7kDWbPI+dCCCAAAIFLRCLxZgmJ0KfAE+If+OE41Ix/4UX7emnn7bRtz5lnduX2MDeO1rZHtvafj23sx27+T/Dcl/eW/6x/fuND6zqf0ttzoL3bPXaGhs48AA7Y9Q3rM/+X8r9Dakx7wKJRGJ23htBAxBAAAEEIiFA4j4Sj5FOIIBAQAXmqF3/VixSHKLwRPwjipmKMxRdFB8pXlN4sv5uxeMKH5W/qyJTfPvbCk/2D1U8p6A0RWDk3B/r9Is1yn60Rtnf0ZRLORcBBBBAoLAE4vF4VWH1uHB664nyVLL8nLNtwSuv2vz5L9gjL75g4++v1OtukrZ7j+7Wa4cu1qN7RyXyO9u2W3W0bbqUWteO7axj+3ZW2r7YYkX+RUizOp1fvbbWPlm7zlZ+ss4+XFVtS1d8Yu8tX21vL/vEFi5ZZa+9vcySOn/v3nvaPvv1tx8ct7/13mvPwgGnpwgggAACCCDQIgES9y3i42IEEECgQYGTdXSd4meKcxSTFD6C/nXF8Yr3FC8qvPhb005X+Pe2/6Tw0fmZMkQrpyg8sU9pisCIufp2Q9JH2ddaXW2Z/fYAt6cggAACCCCAQIELeAI9lUQ/8YSUxJL337c33njT3nr7bVv47js276X3bdnSt23FylW2avVqq16z1qrX1VhtXV3q/OJYzErblVhph/bWpXNn26prF+u+bXfbdrsdbcfeO9v+Q3pYz5672g7bb1/g0oXXfb3gepZecM10OYX36OkxAgggkHMBEvc5J6VCBBBAYIPAE1r7UHG1wkfJ+7z2zyjuUtyn2EsxReFlxvpFKrE/Tevnpbd9cXt6na/dpiEatRg173SrVdI+VnSFXkB7TaOu4SQEEEAAgYIXUNKtUkk3psspsE+CJ9g9BvTv12DPNX956nhReuR9gydzsFAFBhVqx+k3AggggEBuBWK5rY7aEEAAAQSyBHz0fELhCfq1imsVPuzKp8a5V7Gt4l+KzZUv6sCRioMUn2zuJPbXExgxt5ONqJii77CP1hfZDydpX8+HTQQQQACBLQmUbekEjheugCfsSdoX7vOn5wgggAACCLSlAIn7ttTmXgggUGgC/0132EfbL1QsUdyvKFb4cC5P4vdSbK5srQOHKm5WvKvQHO2UBgVGzTtC0+LM1/9Rr7BJGjI3eeCzDZ7PQQQQQAABBBBAAAEEciigb2UwTU4OPakKAQQQKGQBpsop5KdP3xFAoC0EbtFNpir85bI+BY7mXLdRCp/7/lsK33ewYqnCi0+c2lvhyX2f597D/6weodhXQdmcwIiKqzTK/rvpF9D6D0goCCCAAAIINFkgFosxTU6T1bgAAQQyAolEguktMxgsEUAAAQRaJMCI+xbxcTEC0RKora195qyzzvpatHqV194M092nKC5VdEmvn6HlPgolmFNJ+/Fa+otrM+V5rXRXLFC8nBXHaf1WBaW+wPfm7W/D5z6lUfZ7Wqy6zCYPIGlf34htBBBAAIFGC8Tj8apGn8yJCCCAAAIIIIAAAgi0kkC+R9x3aqV+Ba3aQuln0NxpTxMFOnfufHWvXr0eOfPMM79z2223ZV6W2sRaOD1L4E6t35G1/YDWPfzP3pr0/tvT2+lNe08rAzMbLBshUGvHW1HyXps44NeNOJtTEEAAAQQQQAABBBBoNQG94HqWXnDNdDmtJkzFCCCAQOEI5GvE/ZNp4qMLhDrTz0y/C6TbdDNsAhdeeOG0kpKS8t122+33St4fFrb2B7C9tZtpUyZpnzlcfzuzn2VjBCb1u9wmkbRvDBXnIIAAAghsWUBJt8otn8UZCCCAwGYFBm32CAcQQAABBBBogkC+EvdPqI3vK/ZT/LgJ7Q3jqd4/7+cHCu83BYFAC1x88cUk7wP9hGgcAggggAACCLSyQFkr10/1CCCAAAIIIIAAAghsUSBfiXtv2I/Srfu5luem16O28H55/7xk+rt+i18RCLAAyfsAPxyahgACCCCAAAIIIIAAAoEVSCaTTJMT2KdDwxBAAIFwCeQzcf87UX0/zTVBy9cUo9PbYV94P7w/3i8vYxT+gkoKAqERIHkfmkdFQxFAAAEEEEAghwKxWKxvDqujKgQQKDCBRCIxu8C6THcRQAABBFpJIJ+Je+/STYqhigrFbunthVpmEvpaDVXxdi9UeL+8P94v79+NCgoCoRPIJO/1wto7mPM+dI+PBiOAAAIIIIBAMwTi8XhVMy7jEgQQQAABBBBAAAEEciqQ78S9d+ZuxUDFyQr/yXRPxQ2KRYrzFUEf8eLt83Z6e73d3n7vh/fH++X9oyAQWgFP3rdr1+4YkvehfYQ0HAEEEEAAAQQQQAABBNpIQC+4ntVGt+I2CCCAAAIRFwhC4j5DfK9WfC64kxTPKj6nuF7xvOIjxV8VlyuOUnRT5KP4ff3+3g5vj7fL2+ft9PZ6u7393g/vDwWBSAiQvI/EY6QTCCCAAAIIINAIASXdKhtxGqcggAACmxMYtLkD7EcAAQQQQKApAiVNObmNzv2z7uNxvOIEhf+lt6fi8HRokSov6lcf2e7xqmK5Yll6+bGWzS2ddGF3hSfpPfze3gaPLynqF7+3t+EBxYP1D7KNQFQEPHl/9dVX+8j7qZo2Z9htt902Iyp9ox8IIIAAAggggECWQFnWOqsIIIAAAggggAACCORFIIiJ+wyEJ8EzifBdtJ5JnmeWnkT3GK6oX6q1IzuR7+vZkUnKZy8zyfrS+pVlba/TeuaHBZnl4qzjrCIQaQGS95F+vHQOAQQQQAABBBBAAAEEWiiQTCb9G/gUBBBAAAEEWiwQ5MR9duc8Oe4j2j28FCkyCXxf7qzITsL7qPmd0qFFk4qP1s9O8r+j7UyS3pfJJtXGyQhETCA7eT98+PBhkydPZuR9xJ4x3UEAAQQQQKCQBWKxWN9C7j99RwCBlgkkEgnPG1AQQAABBBBosUBYEvf1O+rJc3/hy+Ze+tJBxzKJ/MxI+sy2L7MT85npdTL71ug4BQEEGhDw5P348eOP2XXXXaeSvG8AikMIIIAAAgggEDqBeDxeFbpG02AEEEAAAQQQQACByAkE6eW0ucT15LuPlP+P4hnFI4o7FDcqxqWXvu37/6nw8/x8kvZCoCDQGIELL7xwWocOHTx5f4eS94c15hrOQQABBBBAAAEEEEAAAQSiLKAXXG9ugGGUu03fEEAAAQRaQSCqiftWoKJKBBCoL0Dyvr4I2wgggAACCCAQdgEl3SrD3gfajwACeRUYlNe7c3MEEEAAgcgIkLiPzKOkIwjkR4DkfX7cuSsCCCCAAAIItJpAWavVTMUIIIAAAggggAACCDRSgMR9I6E4DQEENi9A8n7zNhxBAAEEEEAAAQQQQACBwhFIJpODC6e39BQBBBBAoDUFSNy3pi51I1BAAiTvC+hh01UEEEAAAQQiLBCLxfpGuHt0DQEEWlkgkUjMbuVbUD0CCCCAQIEIkLgvkAdNNxFoCwGS922hzD0QQAABBBBAoDUF4vF4VWvWT90IIIAAAggggAACCDRGgMR9Y5Q4BwEEGi2Qnbxv9EWciAACCCCAAAIIIIAAAghEQEAvuJ4VgW7QBQQQQACBAAiUBKANNAEBBCIm4Mn78ePHH7Nu3bpbrr322mTEukd38iygeUOfzHMTuD0CCCCAQIQFlHSrLC8vZ7qcCD9juoZAKwsMauX6qR4BBBBAoEAESNwXyIOmmwi0tYAn73XPnm19X+6HAAIIIIAAAgi0UKCshddzOQIIIIAAAggggAACLRZgqpwWE1IBAggggAACCCCAAAIIIIAAAgggYKZvhw7GAQEEEEAAgVwIkLjPhSJ1IIAAAggggAACCCCAQCQEYrEY0+RE4knSCQTyI5BIJGbn587cFQEEEEAgagIk7qP2ROkPAggggAACCCCAAAIINFsgHo9XNftiLkQAAQQQQAABBBBAIEcCJO5zBEk1CCCAAAIIIIAAAggggAACCCBQ2AJ6wfWswhag9wgggAACuRIgcZ8rSepBAAEEEEAAAQQQQACB0Aso6VYZ+k7QAQQQyKfAoHzenHsjgAACCERHgMR9dJ4lPUEAAQQQQAABBBBAAIGWC5S1vApqQAABBBBAAAEEEECgZQIk7lvmx9UIIIAAAggggAACCCCAAAIIIIBASiCZTA6GAgEEEEAAgVwIkLjPhSJ1IIAAAggggAACCCCAQCQEYrFY30h0hE4ggEBeBBKJxOy83JibIoAAAghEToDEfeQeKR1CAAEEEEAAAQQQQACB5grE4/Gq5l7LdQgggAACCCCAAAII5EqAxH2uJKkHAQQQQAABBBBAAAEEEEAAAQQKWkAvuJ5V0AB0HgEEEEAgZwIk7nNGSUUIIIAAAggggAACCCAQdgEl3SrD3gfajwACeRUYlNe7c3MEEEAAgcgIkLiPzKOkIwgggAACCCCAAAIIIJADgbIc1EEVCCCAAAIIIIAAAgi0SIDEfYv4uBgBBBBAAAEEEEAAAQQQQAABBBBYL5BMJgdjgQACCCCAQC4ESNznQpE6EEAAAQQQQAABBBBAIBICsVisbyQ6QicQQCAvAolEYnZebsxNEUAAAQQiJ0DiPnKPlA4hgAACCCCAAAIIIIBAcwXi8XhVc6/lOgQQQAABBBBAAAEEciVA4j5XktSDAAIIIIAAAggggAACCCCAAAIFLaAXXM8qaAA6jwACCCCQMwES9zmjpCIEEEAAAQQQQAABBBAIu4CSbpVh7wPtRwCBvAoMyuvduTkCCCCAQGQESNxH5lHSEQQQQAABBBBAAAEEEMiBQFkO6qAKBBBAAAEEEEAAAQRaJEDivkV8XIwAAggggAACCCCAAAIIIIAAAgisF0gmk4OxQAABBBBAIBcCJO5zoUgdCCCAAAIIIIAAAgggEAmBWCzWNxIdoRMIIJAXgUQiMTsvN+amCCCAAAKREyBxH7lHSocQQAABBBBAAAEEEECguQLxeLyquddyHQIIIIAAAggggAACuRIgcZ8rSepBAAEEEEAAAQQQQAABBBBAAIGCFtALrmcVNACdRwABBBDImUBJzmqiIgQQQAABBBBAAAEEEEAg5AJKulWWl5e36XQ5R8aPDbkazUcAgSyBQVnrrCKAAAIIINBsARL3zabjQgQQQAABBBBAAAEEEIigQFlb9mnOrKeL2vJ+3AsBBBBAAAEEEEAgHAJMlROO50QrEUAAAQQQQAABBBBAAAEEEEAg4ALJZHJwwJtI8xBAAAEEEEAAAQQQQAABBBBAAAEEEAiXwLRp09p0xH24dGgtAggggAACCCCAAAIIIIAAAggggAACCCCAAAIIIIAAAggggAACCCCAAAIIIIAAAggggAACCCCAAAIIIIAAAs0R0AuuZzXnOq5BAAEEEECgvgBz3NcXYRsBBBBAAAEEEEAAAQQKVkBJt8qC7TwdRwCBXAgMykUl1IEAAggggACJez4DCCCAAAIIIIAAAggggMCnAsxx/6kFawgggAACCCCAAAJ5EiBxnyd4bosAAggggAACCCCAAAIIIIAAAtESSCaTg6PVI3qDAAIIIIAAAggggAACCCCAAAIIIIBAngWmTZvGiPs8PwNujwACCCCAAAIIIIAAAggggAACCCCAAAIIIIAAAggggAACCCCAAAIIBEqgOFCtoTEIIIAAAggggAACCCCAAAIIIIBASAX0rZ3JvXv3njZz5sxkSLtAsxFAAAEEEEAAAQQQQAABBBBAAAEEEAiWwCOPPPL7m2++uUuwWkVrEEAgDAL33ntvF/0Z8kAY2kobEUAAAQSCL8DLaYP/jGghAggggAACCCCAAAIItJFAXV1dpx122KFvG92O2yCAQIQEOnTosI+6szJCXaIrCCCAAAJ5FCBxn0d8bo0AAggggAACCCCAAALBEiguLl7QsWNHT75REEAAgSYJJBKJuTU1NTc16SJORgABBBBAAAEEEEAAAQQQQAABBBBAAIGGBTQ/dc9kMskAp4aZOIoAAggggAACCCCAAAIIIIAAAggggAACCCCAAAIIIIBAcAU0v/2ewW0dLUMAAQQQCKMAI0nC+NRoMwIIIIAAAggggAACCLSqgF4weXir3oDKEUAgUgKdO3e+VH9uHBapTtEZBBBAAIG8CpC4zys/N0cAAQQQQAABBBBAAIEgCsRisbiScNcFsW20CQEEgiXw8MMP/0otWlxeXj4jWC2jNQgggAACYRYgcR/mp0fbEUAAAQQQQAABBBBAoFUE4vH4mKKioo5KyP2kVW5ApQggEBkBvRdjYUVFxaWR6RAdQQABBBBAAAEEEEAAAQQQQAABBBBAIMgCU6dOPTDI7aNtCCCQH4EHHnigT37uzF0RQAABBApFoKhQOko/EUAAAQQQQAABBBBAAIGWCGj0/dXFxcWva3Ttf+bOnTtr3LhxNS2pj2sRQCBcAtOnT+9eU1Nzrlq9e11dXXXXrl3PGTJkCH8OhOsx0loEEEAgNAIloWkpDUUAAQQQQAABBBBAAAEE8iigpH2Fps/pW1tbe0jPnj0r1JSaJ554omTVqlXr0s2q0RzX7Xyd/Tj454PPQ+p3RmQcSktLP163bl0XvQPjkUQicX+qd/yCAAIIIIAAAggggAACCCCAAAIIIIAAAggggAACCCCAAAIIIBB9gf8HAWZ1JjhCUZoAAAAASUVORK5CYII=;" parent="1" vertex="1">
          <mxGeometry x="-70" y="60" width="1518" height="871" as="geometry" />
        </mxCell>
        <mxCell id="YGQXA21O0GmYbxI1VbBq-2" value="hive离线任务表" style="shape=cylinder3;whiteSpace=wrap;html=1;boundedLbl=1;backgroundOutline=1;size=15;fillColor=#dae8fc;strokeColor=#6c8ebf;" parent="1" vertex="1">
          <mxGeometry x="1410" y="60" width="70" height="80" as="geometry" />
        </mxCell>
        <mxCell id="YGQXA21O0GmYbxI1VbBq-3" value="mysql在线任务表" style="ellipse;whiteSpace=wrap;html=1;fillColor=#dae8fc;strokeColor=#6c8ebf;" parent="1" vertex="1">
          <mxGeometry x="1070" y="60" width="80" height="80" as="geometry" />
        </mxCell>
        <mxCell id="YGQXA21O0GmYbxI1VbBq-4" value="数据平台" style="shape=dataStorage;whiteSpace=wrap;html=1;fixedSize=1;fillColor=#dae8fc;strokeColor=#6c8ebf;" parent="1" vertex="1">
          <mxGeometry x="1250" y="60" width="100" height="80" as="geometry" />
        </mxCell>
        <mxCell id="YGQXA21O0GmYbxI1VbBq-5" value="" style="endArrow=classic;html=1;rounded=0;exitX=0;exitY=0.5;exitDx=0;exitDy=0;exitPerimeter=0;dashed=1;strokeColor=#FF0000;" parent="1" source="YGQXA21O0GmYbxI1VbBq-2" edge="1">
          <mxGeometry width="50" height="50" relative="1" as="geometry">
            <mxPoint x="1100" y="260" as="sourcePoint" />
            <mxPoint x="1330" y="100" as="targetPoint" />
          </mxGeometry>
        </mxCell>
        <mxCell id="YGQXA21O0GmYbxI1VbBq-6" value="" style="endArrow=classic;html=1;rounded=0;exitX=0;exitY=0.5;exitDx=0;exitDy=0;dashed=1;strokeColor=#FF0000;" parent="1" source="YGQXA21O0GmYbxI1VbBq-4" edge="1">
          <mxGeometry width="50" height="50" relative="1" as="geometry">
            <mxPoint x="1230" y="99.44" as="sourcePoint" />
            <mxPoint x="1150" y="99.44" as="targetPoint" />
          </mxGeometry>
        </mxCell>
        <mxCell id="HuB2pp5YfJez939ojKIz-3" value="&lt;font style=&quot;font-size: 20px;&quot; color=&quot;#ff0000&quot;&gt;备用链路&lt;/font&gt;" style="endArrow=classic;html=1;rounded=0;exitX=0.685;exitY=0.161;exitDx=0;exitDy=0;exitPerimeter=0;dashed=1;strokeColor=#FF0000;" edge="1" parent="1" source="YGQXA21O0GmYbxI1VbBq-1" target="YGQXA21O0GmYbxI1VbBq-3">
          <mxGeometry width="50" height="50" relative="1" as="geometry">
            <mxPoint x="790" y="410" as="sourcePoint" />
            <mxPoint x="840" y="360" as="targetPoint" />
          </mxGeometry>
        </mxCell>
        <mxCell id="HuB2pp5YfJez939ojKIz-4" value="" style="endArrow=none;dashed=1;html=1;dashPattern=1 3;strokeWidth=2;rounded=0;" edge="1" parent="1">
          <mxGeometry width="50" height="50" relative="1" as="geometry">
            <mxPoint x="748" y="1986" as="sourcePoint" />
            <mxPoint x="739" y="1323" as="targetPoint" />
          </mxGeometry>
        </mxCell>
        <mxCell id="HuB2pp5YfJez939ojKIz-5" value="&lt;font style=&quot;font-size: 20px;&quot;&gt;定时触发&lt;/font&gt;" style="rounded=1;whiteSpace=wrap;html=1;" vertex="1" parent="1">
          <mxGeometry x="670" y="1139" width="120" height="60" as="geometry" />
        </mxCell>
        <mxCell id="HuB2pp5YfJez939ojKIz-7" style="edgeStyle=orthogonalEdgeStyle;rounded=0;orthogonalLoop=1;jettySize=auto;html=1;" edge="1" parent="1" source="HuB2pp5YfJez939ojKIz-6">
          <mxGeometry relative="1" as="geometry">
            <mxPoint x="792" y="1161" as="targetPoint" />
          </mxGeometry>
        </mxCell>
        <mxCell id="HuB2pp5YfJez939ojKIz-6" value="&lt;font style=&quot;font-size: 20px;&quot;&gt;配置中心&lt;/font&gt;" style="shape=datastore;whiteSpace=wrap;html=1;" vertex="1" parent="1">
          <mxGeometry x="1080" y="1131" width="108" height="60" as="geometry" />
        </mxCell>
      </root>
    </mxGraphModel>
  </diagram>
</mxfile>
